<svg width="115" height="115" viewBox="0 0 115 115" fill="none" xmlns="http://www.w3.org/2000/svg">
<g clip-path="url(#clip0_75_1519)">
<path d="M78.9031 0L57.4922 57.4923L115 36.0969V0H78.9031Z" fill="#898989"/>
<path d="M111.908 43.8419V111.908H3.09181V3.09181H71.1581L72.3021 0H0V115H115V42.6825L111.908 43.8419Z" fill="white"/>
<path d="M14.5625 93.3574L9.27545 105.725H12.6146L13.9441 102.633H18.5354L19.8649 105.725H23.2041L17.9171 93.3574H14.5625ZM15.2581 99.541L16.232 97.284L17.206 99.541H15.2736H15.2581Z" fill="white"/>
<path d="M81.5466 93.3574L76.2596 105.725H79.5987L80.9282 102.633H85.5196L86.849 105.725H90.1882L84.9012 93.3574H81.5466ZM82.2577 99.541L83.2316 97.284L84.2055 99.541H82.2732H82.2577Z" fill="white"/>
<path d="M29.9906 93.3574H26.8988V105.725H36.1742V102.633H29.9906V93.3574Z" fill="white"/>
<path d="M46.4391 93.3574H40.2554V105.725H43.3472V102.633H46.4391C48.9898 102.633 51.0768 100.546 51.0768 97.9951C51.0768 95.4444 48.9898 93.3574 46.4391 93.3574ZM46.4391 99.541H43.3472V96.4492H46.4391C47.2893 96.4492 47.985 97.1449 47.985 97.9951C47.985 98.8454 47.2893 99.541 46.4391 99.541Z" fill="white"/>
<path d="M69.7668 93.3574H63.5831V105.725H66.6749V102.633H69.7668C72.3175 102.633 74.4045 100.546 74.4045 97.9951C74.4045 95.4444 72.3175 93.3574 69.7668 93.3574ZM69.7668 99.541H66.6749V96.4492H69.7668C70.617 96.4492 71.3127 97.1449 71.3127 97.9951C71.3127 98.8454 70.617 99.541 69.7668 99.541Z" fill="white"/>
<path d="M58.4044 93.3574H55.3126V105.725H58.4044V93.3574Z" fill="white"/>
<path d="M102.633 101.087L96.8356 93.3574H93.3573V105.725H96.4491V97.9951L102.246 105.725H105.725V93.3574H102.633V101.087Z" fill="white"/>
</g>
<defs>
<clipPath id="clip0_75_1519">
<rect width="115" height="115" fill="white"/>
</clipPath>
</defs>
</svg>
