<svg width="148" height="149" viewBox="0 0 148 149" fill="none" xmlns="http://www.w3.org/2000/svg">
<g id="bianchi dino" clip-path="url(#clip0_75_1530)">
<path id="Vector" d="M5.34319 68.3336C5.75091 67.8188 6.00841 67.1754 6.00841 66.4676C6.00841 64.8161 4.65652 63.4648 3.0042 63.4648H0V73.8886H3.77671C5.42903 73.8886 6.78092 72.5374 6.78092 70.8859C6.78092 69.792 6.20154 68.8698 5.34319 68.3336ZM1.58794 65.0735H3.0042C3.77671 65.0735 4.42047 65.7169 4.42047 66.489C4.42047 67.2612 3.77671 67.9046 3.0042 67.9046H1.58794V65.0735ZM3.77671 72.3015H1.58794V69.4703H3.77671C4.54922 69.4703 5.19298 70.1138 5.19298 70.8859C5.19298 71.658 4.54922 72.3015 3.77671 72.3015Z" fill="white"/>
<path id="Vector_2" d="M15.6004 63.4863H14.0125V73.9101H15.6004V63.4863Z" fill="white"/>
<path id="Vector_3" d="M88.4953 63.4863H86.9073V73.9101H88.4953V63.4863Z" fill="white"/>
<path id="Vector_4" d="M113.173 63.4863H111.585V73.9101H113.173V63.4863Z" fill="white"/>
<path id="Vector_5" d="M30.4069 73.8886H32.145L27.4885 63.4648L22.832 73.8886H24.5701L25.5358 71.7009H29.4412L30.4069 73.8886ZM26.2439 70.1352L27.4885 67.3684L28.7331 70.1352H26.2439Z" fill="white"/>
<path id="Vector_6" d="M48.5608 63.4863H46.9729V70.3497L39.2478 63.4863V73.8887H40.8357V67.0253L48.5608 73.8887V63.4863Z" fill="white"/>
<path id="Vector_7" d="M129.696 63.4863H128.108V70.3497L120.383 63.4863V73.8887H121.971V67.0253L129.696 73.8887V63.4863Z" fill="white"/>
<path id="Vector_8" d="M60.8995 73.8886C58.024 73.8886 55.6851 71.5508 55.6851 68.6767C55.6851 65.8027 58.024 63.4648 60.8995 63.4648C62.5089 63.4648 64.011 64.1941 64.9981 65.4595L63.7535 66.4461C63.0668 65.5668 61.9939 65.052 60.8995 65.052C58.9038 65.052 57.273 66.6821 57.273 68.6767C57.273 70.6714 58.9038 72.3015 60.8995 72.3015C62.0153 72.3015 63.0668 71.7867 63.7535 70.9073L64.9981 71.894C64.011 73.1594 62.5089 73.8886 60.8995 73.8886Z" fill="white"/>
<path id="Vector_9" d="M142.786 73.8886C139.91 73.8886 137.571 71.5508 137.571 68.6767C137.571 65.8027 139.91 63.4648 142.786 63.4648C145.661 63.4648 148 65.8027 148 68.6767C148 71.5508 145.661 73.8886 142.786 73.8886ZM142.786 65.0735C140.79 65.0735 139.159 66.7035 139.159 68.6982C139.159 70.6929 140.79 72.3229 142.786 72.3229C144.781 72.3229 146.412 70.6929 146.412 68.6982C146.412 66.7035 144.781 65.0735 142.786 65.0735Z" fill="white"/>
<path id="Vector_10" d="M99.8254 63.4863H95.7268V65.0735V72.323V73.9101H99.8254C102.701 73.9101 105.04 71.5723 105.04 68.6982C105.04 65.8242 102.701 63.4863 99.8254 63.4863ZM99.8254 72.3015H97.3147V65.052H99.8254C101.821 65.052 103.452 66.6821 103.452 68.6768C103.452 70.6714 101.821 72.3015 99.8254 72.3015Z" fill="white"/>
<path id="Vector_11" d="M78.9462 63.4863V67.8832H72.809V63.4863H71.2211V73.8887H72.809V69.4703H78.9462V73.8887H80.5341V63.4863H78.9462Z" fill="white"/>
<path id="Vector_12" d="M27.4884 79.4863H26.6086V85.2559H27.4884V79.4863Z" fill="white"/>
<path id="Vector_13" d="M21.6088 79.4863H17.8536V80.3657H19.2913V85.2559H20.1711V80.3657H21.6088V79.4863Z" fill="white"/>
<path id="Vector_14" d="M132.464 79.4863H131.584V85.2559H132.464V79.4863Z" fill="white"/>
<path id="Vector_15" d="M126.198 79.4863H122.443V80.3657H123.88V85.2559H124.76V80.3657H126.198V79.4863Z" fill="white"/>
<path id="Vector_16" d="M53.2173 84.3765V79.4863H52.3375V85.2559H56.0928V84.3765H53.2173Z" fill="white"/>
<path id="Vector_17" d="M79.826 80.3657V79.4863H76.0493V85.2559H79.826V84.3765H76.9291V82.8108H78.9462V81.9314H76.9291V80.3657H79.826Z" fill="white"/>
<path id="Vector_18" d="M61.6077 79.4863H60.7279V85.2559H61.6077V79.4863Z" fill="white"/>
<path id="Vector_19" d="M147.485 79.4863H146.605V85.2559H147.485V79.4863Z" fill="white"/>
<path id="Vector_20" d="M4.20591 85.2559H5.17155L2.59652 79.4863L0.0214844 85.2559H0.987122L1.52359 84.0548H3.69091L4.22737 85.2559H4.20591ZM1.88838 83.1754L2.57506 81.6526L3.26173 83.1754H1.88838Z" fill="white"/>
<path id="Vector_21" d="M117.786 85.2559H118.752L116.177 79.4863L113.602 85.2559H114.567L115.104 84.0548H117.271L117.808 85.2559H117.786ZM115.469 83.1754L116.155 81.6526L116.842 83.1754H115.469Z" fill="white"/>
<path id="Vector_22" d="M13.4546 81.5882C13.4546 80.43 12.5104 79.4863 11.3516 79.4863H9.67786V85.2559H10.5577V83.6902H11.3516C11.5018 83.6902 11.6306 83.6902 11.7593 83.6473L12.4889 85.2559H13.4546L12.5748 83.3041C13.1112 82.918 13.4546 82.296 13.4546 81.5882ZM11.3516 82.8108H10.5577V80.3657H11.3516C12.0168 80.3657 12.5748 80.9234 12.5748 81.5882C12.5748 82.2531 12.0383 82.8108 11.3516 82.8108Z" fill="white"/>
<path id="Vector_23" d="M108.795 81.5882C108.795 80.43 107.851 79.4863 106.692 79.4863H105.018V85.2559H105.898V83.6902H106.692C106.842 83.6902 106.971 83.6902 107.1 83.6473L107.83 85.2559H108.795L107.915 83.3041C108.452 82.918 108.795 82.296 108.795 81.5882ZM106.692 82.8108H105.898V80.3657H106.692C107.357 80.3657 107.915 80.9234 107.915 81.5882C107.915 82.2531 107.379 82.8108 106.692 82.8108Z" fill="white"/>
<path id="Vector_24" d="M35.2565 85.2558C33.6685 85.2558 32.3596 83.969 32.3596 82.3603C32.3596 80.7517 33.6471 79.4648 35.2565 79.4648C36.1577 79.4648 36.9732 79.8724 37.5311 80.5801L36.8444 81.1163C36.4582 80.623 35.8788 80.3442 35.2565 80.3442C34.1406 80.3442 33.2394 81.245 33.2394 82.3603C33.2394 83.4756 34.1406 84.3765 35.2565 84.3765C35.8788 84.3765 36.4582 84.0976 36.8444 83.6043L37.5311 84.1405C36.9732 84.8483 36.1577 85.2558 35.2565 85.2558Z" fill="white"/>
<path id="Vector_25" d="M87.4223 85.2558C85.8344 85.2558 84.5254 83.969 84.5254 82.3603C84.5254 80.7517 85.8129 79.4648 87.4223 79.4648C88.3236 79.4648 89.139 79.8724 89.6969 80.5801L89.0102 81.1163C88.624 80.623 88.0446 80.3442 87.4223 80.3442C86.3065 80.3442 85.4052 81.245 85.4052 82.3603C85.4052 83.4756 86.3065 84.3765 87.4223 84.3765C88.0446 84.3765 88.624 84.0976 89.0102 83.6043L89.6969 84.1405C89.139 84.8483 88.3236 85.2558 87.4223 85.2558Z" fill="white"/>
<path id="Vector_26" d="M44.8056 85.2558C43.2177 85.2558 41.9087 83.969 41.9087 82.3603C41.9087 80.7517 43.1962 79.4648 44.8056 79.4648C46.415 79.4648 47.7025 80.7517 47.7025 82.3603C47.7025 83.969 46.415 85.2558 44.8056 85.2558ZM44.8056 80.3657C43.6898 80.3657 42.7885 81.2665 42.7885 82.3818C42.7885 83.4971 43.6898 84.3979 44.8056 84.3979C45.9214 84.3979 46.8227 83.4971 46.8227 82.3818C46.8227 81.2665 45.9214 80.3657 44.8056 80.3657Z" fill="white"/>
<path id="Vector_27" d="M97.1431 85.2558C95.5552 85.2558 94.2462 83.969 94.2462 82.3603C94.2462 80.7517 95.5337 79.4648 97.1431 79.4648C98.7525 79.4648 100.04 80.7517 100.04 82.3603C100.04 83.969 98.7525 85.2558 97.1431 85.2558ZM97.1431 80.3657C96.0273 80.3657 95.126 81.2665 95.126 82.3818C95.126 83.4971 96.0273 84.3979 97.1431 84.3979C98.259 84.3979 99.1602 83.4971 99.1602 82.3818C99.1602 81.2665 98.259 80.3657 97.1431 80.3657Z" fill="white"/>
<path id="Vector_28" d="M68.8607 79.4863H66.5861V85.2558H68.8607C70.4486 85.2558 71.7576 83.969 71.7576 82.3603C71.7576 80.7517 70.4701 79.4648 68.8607 79.4648V79.4863ZM68.8607 84.3765H67.4659V80.3657H68.8607C69.9765 80.3657 70.8778 81.2665 70.8778 82.3818C70.8778 83.4971 69.9765 84.3979 68.8607 84.3979V84.3765Z" fill="white"/>
<path id="Vector_29" d="M141.155 79.4863L139.524 83.1111L137.914 79.4863H136.949L139.524 85.2559L142.12 79.4863H141.155Z" fill="white"/>
<path id="Vector_30" d="M82.4439 18.8739L82.7229 19.6246L83.474 19.3458C94.0101 15.4208 90.5124 4.18196 90.4909 4.05327L90.2334 3.2168L89.4395 3.55997C89.3322 3.60286 78.5385 8.3429 82.4654 18.8739H82.4439ZM89.2034 5.4474C89.697 7.74235 90.3407 13.7693 84.8044 16.965L87.594 10.8738L86.1563 10.2089L83.3667 16.3001C82.165 10.0158 87.1434 6.5627 89.2034 5.4474Z" fill="white"/>
<path id="Vector_31" d="M86.5203 47.6687L77.266 50.1074L77.6708 51.6421L86.9251 49.2034L86.5203 47.6687Z" fill="white"/>
<path id="Vector_32" d="M81.7143 6.77746C83.2808 6.77746 84.5683 5.49058 84.5683 3.92486C84.5683 2.35915 83.2808 1.07227 81.7143 1.07227C80.1479 1.07227 78.8604 2.35915 78.8604 3.92486C78.8604 5.49058 80.1479 6.77746 81.7143 6.77746ZM81.7143 2.65943C82.401 2.65943 82.9804 3.21708 82.9804 3.92486C82.9804 4.63265 82.4225 5.1903 81.7143 5.1903C81.0062 5.1903 80.4483 4.63265 80.4483 3.92486C80.4483 3.21708 81.0062 2.65943 81.7143 2.65943Z" fill="white"/>
<path id="Vector_33" d="M72.9163 32.3866V38.7138L66.35 32.1507C66.114 15.2496 48.3033 14.2201 48.1102 14.2201L47.2304 14.1772L47.2733 15.0566C47.2733 15.2282 48.3033 33.0301 65.2127 33.2875L72.8305 40.9015L72.9163 40.8158V45.3413L66.0281 42.3815C60.8781 30.0917 47.5308 34.5315 47.3806 34.5743L46.5652 34.8532L46.93 35.6468C46.9729 35.754 51.2217 44.8694 60.0626 44.8694C61.6935 44.8694 63.4746 44.5477 65.4058 43.8185L72.9163 47.0571V53.942H54.5907V55.5291H92.8299V53.942H74.5043V47.0571L82.0148 43.8185C83.9461 44.5477 85.7271 44.8694 87.358 44.8694C96.1989 44.8694 100.448 35.754 100.491 35.6468L100.855 34.8532L100.04 34.5743C99.9113 34.5315 86.5426 30.0917 81.3925 42.3815L74.5043 45.3413V40.8158L74.5901 40.9015L82.2079 33.2875C99.1173 33.0515 100.147 15.2496 100.147 15.0566L100.19 14.1772L99.3104 14.2201C99.1388 14.2201 81.3281 15.2496 81.0706 32.1507L74.5043 38.7138V32.3866C89.2034 17.3515 74.4399 0.815028 74.2897 0.643443L73.7103 0L73.1309 0.643443C72.9807 0.815028 58.2172 17.3515 72.9163 32.3866ZM63.5175 31.5716C51.608 30.4134 49.3548 19.239 48.9471 15.893C50.4063 16.0861 53.4319 16.6223 56.4361 18.2094C61.3716 20.7832 64.0969 24.9013 64.6333 30.4563L54.0972 19.9253L52.9813 21.0406L63.496 31.5502L63.5175 31.5716ZM63.1527 42.8533C54.7838 44.9767 50.1488 38.242 48.7754 35.7969C51.4792 35.1106 59.5691 33.8666 63.775 41.3948L53.5178 36.9765L52.8955 38.435L63.1527 42.8533ZM98.6238 35.8183C97.2504 38.242 92.6153 44.9981 84.2465 42.8748L94.5037 38.4565L93.8814 36.998L83.6242 41.4163C87.8301 33.888 95.92 35.1535 98.6238 35.8183ZM98.4521 15.8716C98.0658 19.2175 95.8127 30.392 83.8817 31.5502L94.3964 21.0406L93.2806 19.9253L82.7659 30.4349C83.9461 18.5097 95.1045 16.2791 98.4521 15.8716ZM73.7103 2.42364C74.8047 3.81776 77.1652 7.12077 78.4956 11.3889C80.6415 18.2523 79.2896 24.5366 74.5043 30.0488V12.7616H72.9163V30.0488C68.1311 24.5152 66.7792 18.2523 68.925 11.3889C70.2555 7.12077 72.6159 3.79631 73.7103 2.42364Z" fill="white"/>
<path id="Vector_34" d="M63.9467 19.3458L64.6977 19.6246L64.9767 18.8739C68.9036 8.3429 58.1099 3.60286 58.0026 3.55997L57.2087 3.2168L56.9512 4.05327C56.9082 4.16051 53.4319 15.4208 63.9681 19.3458H63.9467ZM58.2172 5.4474C60.2772 6.58415 65.2556 10.0373 64.054 16.3001L61.2643 10.2089L59.8266 10.8738L62.6162 16.965C57.0799 13.7693 57.7451 7.74235 58.2172 5.4474Z" fill="white"/>
<path id="Vector_35" d="M60.8882 47.6492L60.4821 49.1836L69.7342 51.6304L70.1404 50.096L60.8882 47.6492Z" fill="white"/>
<path id="Vector_36" d="M65.7063 6.77746C67.2728 6.77746 68.5603 5.49058 68.5603 3.92486C68.5603 2.35915 67.2728 1.07227 65.7063 1.07227C64.1398 1.07227 62.8523 2.35915 62.8523 3.92486C62.8523 5.49058 64.1398 6.77746 65.7063 6.77746ZM65.7063 2.65943C66.393 2.65943 66.9723 3.21708 66.9723 3.92486C66.9723 4.63265 66.4144 5.1903 65.7063 5.1903C64.9982 5.1903 64.4402 4.63265 64.4402 3.92486C64.4402 3.21708 64.9982 2.65943 65.7063 2.65943Z" fill="white"/>
<path id="Vector_37" d="M129.331 36.5912V37.8781H124.76V53.9428H119.76V55.5299H140.511V53.9428H135.49V37.8781H130.919V36.5912C131.756 36.3982 132.807 35.8835 133.365 34.7681C134.288 32.9022 133.408 30.1997 130.769 26.7037L130.146 25.8672L129.524 26.7037C126.863 30.1997 126.005 32.9022 126.928 34.7681C127.486 35.8835 128.537 36.3768 129.374 36.5912H129.331ZM132.464 45.4279V39.4653H133.902V53.9428H126.348V39.4653H127.85V42.3822H129.438V39.4653H130.898V45.4279H132.485H132.464ZM130.104 28.5482C132.4 31.8512 132.249 33.4169 131.906 34.0818C131.477 34.9183 130.425 35.1113 130.104 35.1113C129.782 35.1113 128.709 34.9183 128.301 34.0818C127.979 33.4169 127.807 31.8512 130.104 28.5482Z" fill="white"/>
<path id="Vector_38" d="M140.683 41.9316L139.266 42.6609C142.528 49.0524 144.116 55.4868 144.137 55.5512L145.682 55.1651C145.618 54.8863 144.03 48.4948 140.683 41.9316Z" fill="white"/>
<path id="Vector_39" d="M1.73816 94.0931C1.78108 94.2647 2.78963 98.3398 4.89257 103.337L6.35176 102.715C4.31319 97.8465 3.28318 93.7499 3.28318 93.707L1.73816 94.0931Z" fill="white"/>
<path id="Vector_40" d="M8.11136 42.6609L6.6951 41.9316C6.56635 42.1676 3.54068 48.0444 1.73816 55.1866L3.28318 55.5726C5.04278 48.6235 8.06845 42.7252 8.11136 42.6609Z" fill="white"/>
<path id="Vector_41" d="M123.43 25.9103C124.996 25.9103 126.284 24.6234 126.284 23.0577C126.284 21.492 124.996 20.2051 123.43 20.2051C121.863 20.2051 120.576 21.492 120.576 23.0577C120.576 24.6234 121.863 25.9103 123.43 25.9103ZM123.43 21.7922C124.117 21.7922 124.696 22.3499 124.696 23.0577C124.696 23.7655 124.138 24.3231 123.43 24.3231C122.722 24.3231 122.164 23.7655 122.164 23.0577C122.164 22.3499 122.722 21.7922 123.43 21.7922Z" fill="white"/>
<path id="Vector_42" d="M12.3602 96.5811C12.3602 98.1468 13.6477 99.4337 15.2142 99.4337C16.7806 99.4337 18.0682 98.1468 18.0682 96.5811C18.0682 95.0154 16.7806 93.7285 15.2142 93.7285C13.6477 93.7285 12.3602 95.0154 12.3602 96.5811ZM16.4588 96.5811C16.4588 97.2674 15.9008 97.8465 15.1927 97.8465C14.4846 97.8465 13.9266 97.2889 13.9266 96.5811C13.9266 95.8733 14.4846 95.3157 15.1927 95.3157C15.9008 95.3157 16.4588 95.8733 16.4588 96.5811Z" fill="white"/>
<path id="Vector_43" d="M120.876 47.6573C120.876 46.0916 119.589 44.8047 118.022 44.8047C116.456 44.8047 115.168 46.0916 115.168 47.6573C115.168 49.223 116.456 50.5099 118.022 50.5099C119.589 50.5099 120.876 49.223 120.876 47.6573ZM118.022 48.9013C117.336 48.9013 116.756 48.3436 116.756 47.6358C116.756 46.928 117.314 46.3704 118.022 46.3704C118.73 46.3704 119.288 46.928 119.288 47.6358C119.288 48.3436 118.73 48.9013 118.022 48.9013Z" fill="white"/>
<path id="Vector_44" d="M64.1398 111.337C64.1398 112.903 65.4273 114.19 66.9938 114.19C68.5602 114.19 69.8478 112.903 69.8478 111.337C69.8478 109.771 68.5602 108.484 66.9938 108.484C65.4273 108.484 64.1398 109.771 64.1398 111.337ZM66.9723 110.072C67.659 110.072 68.2384 110.629 68.2384 111.337C68.2384 112.045 67.6804 112.602 66.9723 112.602C66.2642 112.602 65.7063 112.045 65.7063 111.337C65.7063 110.629 66.2642 110.072 66.9723 110.072Z" fill="white"/>
<path id="Vector_45" d="M33.9904 104.603C33.9904 106.168 35.2779 107.455 36.8444 107.455C38.4109 107.455 39.6984 106.168 39.6984 104.603C39.6984 103.037 38.4109 101.75 36.8444 101.75C35.2779 101.75 33.9904 103.037 33.9904 104.603ZM38.1105 104.603C38.1105 105.289 37.5525 105.868 36.8444 105.868C36.1363 105.868 35.5784 105.31 35.5784 104.603C35.5784 103.895 36.1363 103.337 36.8444 103.337C37.5525 103.337 38.1105 103.895 38.1105 104.603Z" fill="white"/>
<path id="Vector_46" d="M93.0659 134.051C94.6324 134.051 95.9199 132.764 95.9199 131.198C95.9199 129.633 94.6324 128.346 93.0659 128.346C91.4994 128.346 90.2119 129.633 90.2119 131.198C90.2119 132.764 91.4994 134.051 93.0659 134.051ZM93.0659 129.954C93.7526 129.954 94.332 130.512 94.332 131.22C94.332 131.928 93.774 132.485 93.0659 132.485C92.3578 132.485 91.7998 131.928 91.7998 131.22C91.7998 130.512 92.3578 129.954 93.0659 129.954Z" fill="white"/>
<path id="Vector_47" d="M121.563 99.4337C123.129 99.4337 124.417 98.1468 124.417 96.5811C124.417 95.0154 123.129 93.7285 121.563 93.7285C119.997 93.7285 118.709 95.0154 118.709 96.5811C118.709 98.1468 119.997 99.4337 121.563 99.4337ZM121.563 95.3157C122.25 95.3157 122.829 95.8733 122.829 96.5811C122.829 97.2889 122.271 97.8465 121.563 97.8465C120.855 97.8465 120.297 97.2889 120.297 96.5811C120.297 95.8733 120.855 95.3157 121.563 95.3157Z" fill="white"/>
<path id="Vector_48" d="M55.6422 49.0088C55.6422 47.4431 54.3547 46.1562 52.7882 46.1562C51.2217 46.1562 49.9342 47.4431 49.9342 49.0088C49.9342 50.5746 51.2217 51.8614 52.7882 51.8614C54.3547 51.8614 55.6422 50.5746 55.6422 49.0088ZM52.7882 50.2743C52.1015 50.2743 51.5221 49.7166 51.5221 49.0088C51.5221 48.3011 52.0801 47.7434 52.7882 47.7434C53.4963 47.7434 54.0543 48.3011 54.0543 49.0088C54.0543 49.7166 53.4963 50.2743 52.7882 50.2743Z" fill="white"/>
<path id="Vector_49" d="M94.6324 46.1562C93.066 46.1562 91.7784 47.4431 91.7784 49.0088C91.7784 50.5746 93.066 51.8614 94.6324 51.8614C96.1989 51.8614 97.4864 50.5746 97.4864 49.0088C97.4864 47.4431 96.1989 46.1562 94.6324 46.1562ZM94.6324 50.2743C93.9458 50.2743 93.3664 49.7166 93.3664 49.0088C93.3664 48.3011 93.9243 47.7434 94.6324 47.7434C95.3406 47.7434 95.8985 48.3011 95.8985 49.0088C95.8985 49.7166 95.3406 50.2743 94.6324 50.2743Z" fill="white"/>
<path id="Vector_50" d="M109.181 31.5937V52.334L107.765 50.7254C108.023 42.4679 99.3319 41.3955 99.246 41.374L98.3877 41.2882V42.1676C98.3877 42.1676 98.3448 51.0257 106.606 51.7978L109.203 54.7577V55.5941H110.791V44.5913L114.095 40.8378C123.237 40.0228 123.194 30.3283 123.194 30.221V29.3416L122.314 29.4274C122.207 29.4274 112.615 30.6285 112.937 39.744L110.812 42.1462V31.5937C114.975 31.1862 118.237 27.7116 118.237 23.4649C118.237 20.0761 117.7 16.8374 116.67 14.092L116.284 13.4915L115.619 13.6416C115.018 13.7703 114.417 13.9419 113.838 14.1135C112.722 13.3843 111.563 12.6979 110.383 12.0974L110.04 11.9258L109.696 12.0974C108.495 12.6979 107.336 13.3628 106.242 14.1135C105.619 13.9205 104.975 13.7489 104.31 13.5987L103.645 13.47L103.409 14.1135C102.379 16.8374 101.843 20.0975 101.843 23.4863C101.843 27.733 105.104 31.2076 109.267 31.6151L109.181 31.5937ZM104.868 49.8246C101.091 48.5806 100.212 44.8915 99.9971 43.1113C101.714 43.5188 105.254 44.8486 106.027 48.7522L102.915 45.2347L101.735 46.2856L104.847 49.8246H104.868ZM121.542 31.1433C121.348 33.1165 120.383 37.5563 115.769 38.8861L119.439 34.7251L118.258 33.6742L114.61 37.8136C115.361 33.1165 119.632 31.5937 121.563 31.1433H121.542ZM115.383 15.2931C116.198 17.7168 116.628 20.5265 116.628 23.4649C116.628 27.111 113.645 30.0923 109.997 30.0923C106.757 30.0923 104.053 27.7545 103.473 24.666C105.92 19.9474 110.168 16.58 115.383 15.2931ZM109.975 13.6845C110.641 14.0277 111.284 14.3923 111.907 14.7784C111.241 15.0572 110.598 15.3575 109.954 15.7221C109.332 15.3789 108.688 15.0787 108.023 14.7998C108.666 14.4138 109.31 14.0491 109.975 13.706V13.6845ZM104.589 15.2931C105.92 15.6149 107.207 16.0867 108.409 16.6873C106.456 18.0385 104.761 19.7114 103.388 21.6847C103.516 19.3897 103.924 17.2235 104.568 15.2931H104.589Z" fill="white"/>
<path id="Vector_51" d="M100.8 5.17247L95.1609 10.9102L96.2937 12.0224L101.933 6.28473L100.8 5.17247Z" fill="white"/>
<path id="Vector_52" d="M46.6288 5.19849L45.4958 6.31055L51.134 12.0492L52.267 10.9372L46.6288 5.19849Z" fill="white"/>
<path id="Vector_53" d="M33.3037 53.9417H30.7716V37.9199H33.3037V36.3328H31.5441L23.1538 29.2763C23.9049 28.7616 24.4199 27.9037 24.4199 26.9171C24.4199 25.3513 23.1324 24.0645 21.5659 24.0645C19.9994 24.0645 18.7119 25.3513 18.7119 26.9171C18.7119 27.9037 19.2054 28.7616 19.9779 29.2763L11.5876 36.3328H9.74219V37.9199H12.3601V53.9417H9.74219V55.5288H33.3037V53.9417ZM21.5659 25.6516C22.2526 25.6516 22.8319 26.2093 22.8319 26.9171C22.8319 27.6248 22.274 28.1825 21.5659 28.1825C20.8792 28.1825 20.2998 27.6248 20.2998 26.9171C20.2998 26.2093 20.8577 25.6516 21.5659 25.6516ZM21.1367 30.3702L28.218 36.3328H14.0339L21.1152 30.3702H21.1367ZM13.9481 40.6653H21.523L20.9436 41.4374C18.3685 44.8262 17.5102 47.4643 18.4115 49.2874C19.0338 50.5529 20.3427 51.0247 21.1796 51.132H13.9481V40.6653ZM21.5659 43.2605C23.7761 46.4348 23.6259 47.9362 23.304 48.5796C22.8963 49.3947 21.8878 49.5663 21.5659 49.5663C21.244 49.5663 20.2354 49.3947 19.8277 48.5796C19.5059 47.9362 19.3556 46.4348 21.5659 43.2605ZM29.1837 53.9417H13.9481V52.6977H29.1837V53.9417ZM29.1837 51.132H21.9521C22.789 51.0247 24.098 50.5529 24.7203 49.2874C25.6216 47.4643 24.7632 44.8262 22.1882 41.4374L21.6088 40.6653H29.1837V51.132ZM29.1837 39.0781H13.9481V37.9199H29.1837V39.0781Z" fill="white"/>
<path id="Vector_54" d="M34.3123 32.8148C36.5654 32.8148 38.6898 31.8925 40.2349 30.2839C40.5138 30.6057 40.8142 30.9274 41.1361 31.2491L41.694 31.8067L42.252 31.2491C49.6981 23.8066 44.6124 15.6992 42.8313 13.3399C43.9043 12.8895 44.6768 11.8171 44.6768 10.5946C44.6768 8.94306 43.3464 7.61328 41.694 7.61328C40.0417 7.61328 38.7113 8.94306 38.7113 10.5946C38.7113 11.8386 39.4623 12.8895 40.5567 13.3399C39.9559 14.1335 39.0117 15.5491 38.2607 17.3722C37.7457 17.0933 37.1877 16.8574 36.6298 16.6858C36.9731 16.1925 37.1877 15.592 37.1877 14.9485C37.1877 13.297 35.8573 11.9672 34.205 11.9672C32.5527 11.9672 31.2222 13.297 31.2222 14.9485C31.2222 15.6349 31.4583 16.2569 31.8445 16.7502C28.497 17.8011 26.0507 20.8897 26.0507 24.5787C26.0507 29.1257 29.7416 32.8148 34.2908 32.8148H34.3123ZM41.694 29.5547C40.9644 28.7397 40.4065 27.9246 39.9559 27.1096C41.1361 25.2222 42.7241 23.6565 44.6124 22.5412C44.591 24.7503 43.8184 27.174 41.6726 29.5547H41.694ZM40.2992 10.5946C40.2992 9.82244 40.9215 9.20044 41.694 9.20044C42.4666 9.20044 43.0889 9.82244 43.0889 10.5946C43.0889 11.3667 42.4666 11.9887 41.694 11.9887C40.9215 11.9887 40.2992 11.3667 40.2992 10.5946ZM41.694 14.4338C42.1661 15.0558 42.8313 16.0638 43.4322 17.3293C41.8443 17.9513 40.3636 18.8092 39.0761 19.903C39.6555 17.4365 40.943 15.4418 41.694 14.4338ZM44.0116 18.8092C44.2262 19.4312 44.3764 20.0961 44.4837 20.7824C42.4022 21.8977 40.6211 23.4634 39.2263 25.3723C38.9044 24.3643 38.7542 23.3562 38.7542 22.4125C40.1919 20.8039 41.9945 19.6028 43.9901 18.8092H44.0116ZM34.205 13.5544C34.9775 13.5544 35.5998 14.1764 35.5998 14.9485C35.5998 15.7207 34.9775 16.3427 34.205 16.3427C33.4325 16.3427 32.8102 15.7207 32.8102 14.9485C32.8102 14.1764 33.4325 13.5544 34.205 13.5544ZM34.3123 17.9298C35.5354 17.9298 36.6942 18.273 37.7457 18.895C36.9088 21.7905 36.8444 25.3938 39.2692 28.997C38.0032 30.4126 36.2221 31.2276 34.3337 31.2276C30.6643 31.2276 27.6816 28.2464 27.6816 24.5787C27.6816 20.9111 30.6643 17.9298 34.3337 17.9298H34.3123Z" fill="white"/>
<path id="Vector_55" d="M31.7587 27.1321C31.0721 26.4457 30.7073 25.5449 30.7073 24.5797C30.7073 23.6146 31.0935 22.7138 31.7587 22.0274L30.6429 20.9121C29.6558 21.8987 29.1193 23.2071 29.1193 24.5797C29.1193 25.9524 29.6558 27.2822 30.6429 28.2474L31.7587 27.1321Z" fill="white"/>
<path id="Vector_56" d="M41.5224 46.0279C44.7627 45.6204 47.2733 42.7892 47.2733 39.3575V38.564H46.4794C45.2562 38.564 44.1404 38.9286 43.1748 39.5291C43.0245 37.9849 42.3808 36.5264 41.3078 35.4111L40.7285 34.8105L40.1491 35.4111C39.0762 36.5264 38.4324 38.0063 38.2822 39.5291C37.3165 38.9286 36.1792 38.564 34.9776 38.564H34.1836V39.3575C34.1836 42.8107 36.6943 45.6204 39.9345 46.0279V47.8081H34.8274V48.6017C34.8274 51.2612 35.7072 53.6849 37.2093 55.272L37.4453 55.5294H44.0331L44.2691 55.272C45.7712 53.6849 46.6296 51.2612 46.651 48.6017V47.8081H41.5439V46.0279H41.5224ZM45.621 40.2369C45.2777 42.3817 43.6468 44.0761 41.6083 44.4622C41.9516 42.3174 43.5825 40.623 45.621 40.2369ZM35.8574 40.2369C37.9174 40.623 39.5268 42.3174 39.8701 44.4622C37.8101 44.0761 36.2007 42.3817 35.8574 40.2369ZM45.0202 49.4167C44.87 51.1969 44.2691 52.827 43.3464 53.9423H38.132C37.1878 52.827 36.587 51.1969 36.4367 49.4167H44.9987H45.0202ZM40.7285 42.1672C40.4924 41.7168 40.2135 41.3093 39.8916 40.9233C39.7199 39.6149 39.9989 38.2851 40.7285 37.2127C41.4366 38.2851 41.737 39.6149 41.5654 40.9233C41.2435 41.3093 40.9645 41.7168 40.7285 42.1672Z" fill="white"/>
<path id="Vector_57" d="M28.8618 124.163L28.6472 123.605C28.1108 122.168 27.8318 120.688 27.8318 119.187C27.8318 117.686 28.1108 116.206 28.6472 114.769L28.7545 114.49L28.6472 114.211C28.1108 112.774 27.8318 111.294 27.8318 109.793C27.8318 108.291 28.1108 106.811 28.6472 105.374L28.7545 105.096L28.6472 104.817C28.1108 103.38 27.8318 101.9 27.8318 100.398C27.8318 98.897 28.1108 97.4171 28.6472 95.9801L28.8618 95.4224L28.3897 95.0578C26.0293 93.2776 22.7247 93.2776 20.3857 95.0578L19.9136 95.4224L20.1282 95.9801C20.6646 97.4171 20.9436 98.897 20.9436 100.398C20.9436 101.9 20.6646 103.38 20.1282 104.817L20.0209 105.096L20.1282 105.374C20.6646 106.811 20.9436 108.291 20.9436 109.793C20.9436 111.294 20.6646 112.774 20.1282 114.211L20.0209 114.49L20.1282 114.769C20.6646 116.206 20.9436 117.686 20.9436 119.187C20.9436 120.688 20.6646 122.168 20.1282 123.605L19.9136 124.163L20.3857 124.528C21.5659 125.407 22.9607 125.879 24.3984 125.879C25.8361 125.879 27.231 125.407 28.4112 124.528L28.8833 124.163H28.8618ZM21.8019 123.562C22.274 122.125 22.5101 120.667 22.5101 119.187C22.5101 118.136 22.3813 117.106 22.1453 116.077C22.8534 116.334 23.6045 116.484 24.377 116.484C25.1495 116.484 25.9005 116.334 26.6087 116.077C26.3726 117.106 26.2439 118.136 26.2439 119.187C26.2439 120.667 26.4799 122.125 26.952 123.562C25.3641 124.506 23.3684 124.506 21.8019 123.562ZM21.8019 114.168C22.274 112.752 22.5101 111.273 22.5101 109.814C22.5101 108.763 22.3813 107.734 22.1453 106.704C22.8534 106.961 23.6045 107.112 24.377 107.112C25.1495 107.112 25.9005 106.961 26.6087 106.704C26.3726 107.734 26.2439 108.763 26.2439 109.814C26.2439 111.294 26.4799 112.752 26.952 114.168C25.3641 115.112 23.3899 115.112 21.7805 114.168H21.8019ZM21.8019 104.774C22.274 103.358 22.5101 101.878 22.5101 100.42C22.5101 98.9614 22.274 97.4814 21.8019 96.0444C23.3899 95.1007 25.3855 95.1007 26.952 96.0444C26.4799 97.4814 26.2439 98.9399 26.2439 100.42C26.2439 101.9 26.4799 103.358 26.952 104.774C25.3641 105.718 23.3899 105.718 21.7805 104.774H21.8019Z" fill="white"/>
<path id="Vector_58" d="M12.6821 100.656L11.8666 100.355L11.652 101.192C11.652 101.192 11.137 103.251 11.4375 105.653C9.07702 105.31 7.10282 105.76 7.05991 105.782L6.22302 105.996L6.50198 106.811C6.50198 106.811 8.96972 113.696 15.3858 113.696C16.3086 113.696 17.3171 113.546 18.39 113.224L19.1411 112.988C21.8878 104.087 12.7679 100.677 12.6606 100.634L12.6821 100.656ZM8.36888 107.176C10.4075 106.94 15.2142 106.94 17.124 111.937C11.8666 113.031 9.27014 109.021 8.36888 107.176ZM13.1112 106.039C12.8537 104.667 12.9181 103.38 13.0039 102.543C14.6992 103.401 18.2398 105.739 18.0467 110.157C16.8021 107.841 14.9352 106.618 13.1112 106.039Z" fill="white"/>
<path id="Vector_59" d="M30.3639 123.006C31.4583 123.327 32.4454 123.477 33.3681 123.477C39.7628 123.477 42.2091 116.678 42.252 116.593L42.5309 115.778L41.6941 115.563C41.6941 115.563 39.677 115.091 37.3165 115.434C37.6169 113.054 37.1234 111.08 37.1019 110.973L36.8873 110.137L36.0719 110.437C36.0719 110.437 26.8447 113.89 29.5914 122.77L30.3425 123.027L30.3639 123.006ZM40.3851 116.936C39.4838 118.78 36.8659 122.791 31.63 121.697C33.5613 116.7 38.3465 116.7 40.3851 116.936ZM35.75 112.324C35.8573 113.161 35.9217 114.448 35.6642 115.82C33.8188 116.4 31.9733 117.622 30.7287 119.939C30.5356 115.52 34.0763 113.182 35.7715 112.324H35.75Z" fill="white"/>
<path id="Vector_60" d="M39.0907 93.7136L30.975 100.191L31.9659 101.432L40.0816 94.9538L39.0907 93.7136Z" fill="white"/>
<path id="Vector_61" d="M91.2997 137.373L90.3344 138.633L98.5807 144.944L99.5461 143.683L91.2997 137.373Z" fill="white"/>
<path id="Vector_62" d="M55.8996 111.702H60.4488V108.635L63.8608 106.254C64.5474 105.804 64.9766 105.032 64.9766 104.195C64.9766 103.316 64.5045 102.544 63.7964 102.093C64.0754 101.514 64.1183 100.828 63.8608 100.184C63.6247 99.5625 63.1741 99.0906 62.5732 98.8118C62.4016 98.726 62.2085 98.6831 62.0368 98.6402C62.0797 97.9968 61.8866 97.3533 61.4145 96.8386C60.9639 96.3453 60.363 96.0664 59.7193 96.0235C59.5261 96.0235 59.3545 96.0235 59.1613 96.0664C58.9682 95.4659 58.5605 94.9297 57.9382 94.608C57.3588 94.3077 56.6936 94.2648 56.0498 94.4578C55.8782 94.5222 55.7065 94.5865 55.5348 94.6938C55.1486 94.179 54.5477 93.8358 53.8825 93.7715C53.7967 93.7715 53.7108 93.7715 53.625 93.7715C53.5392 93.7715 53.4319 93.7715 53.3461 93.7715C52.6594 93.8358 52.08 94.2004 51.6937 94.6938C51.5435 94.608 51.3719 94.5222 51.1787 94.4578C50.5564 94.2648 49.8912 94.3077 49.3118 94.608C48.6895 94.9297 48.2818 95.4444 48.0887 96.0664C47.2733 95.9377 46.4149 96.1951 45.8355 96.8386C45.3635 97.3533 45.1703 97.9968 45.2132 98.6402C44.3978 98.7903 43.6897 99.348 43.3678 100.184C43.1318 100.828 43.1747 101.514 43.4322 102.093C42.724 102.522 42.252 103.294 42.252 104.195C42.252 105.032 42.6597 105.804 43.3463 106.233L46.7797 108.614V111.681H51.3289C51.8654 112.367 52.6808 112.817 53.6036 112.817C54.5263 112.817 55.3417 112.367 55.8782 111.702H55.8996ZM53.625 111.23C52.8954 111.23 52.316 110.651 52.316 109.922C52.316 108.335 51.0071 107.026 49.4191 107.026V108.614C50.1487 108.614 50.7281 109.193 50.7281 109.922C50.7281 109.986 50.7281 110.051 50.7281 110.115H48.3677V107.799L44.2476 104.924C43.9901 104.753 43.8613 104.496 43.8613 104.195C43.8613 103.723 44.2476 103.316 44.6982 103.316L44.8699 103.359L45.3205 101.857C44.8914 101.664 44.6768 101.193 44.8484 100.764C45.0201 100.313 45.5351 100.099 45.9214 100.249L46.093 100.356L47.0587 99.1121C46.7368 98.7903 46.7153 98.2541 47.0158 97.911C47.3376 97.5464 47.8956 97.5249 48.196 97.7823L48.3247 97.9539L49.6552 97.1388C49.4835 96.7099 49.6552 96.238 50.0414 96.045C50.256 95.9377 50.4921 95.9163 50.7066 96.0021C50.9212 96.0664 51.1144 96.238 51.1787 96.3667L51.2217 96.5597L52.7667 96.2809C52.7667 95.8091 53.0671 95.3801 53.625 95.3801C54.1829 95.3801 54.4834 95.8091 54.4619 96.2809L56.0069 96.5597C56.0069 96.5597 56.0284 96.431 56.0069 96.4525C56.1142 96.238 56.2859 96.0879 56.5219 96.0235C56.758 95.9592 56.994 95.9806 57.1871 96.0664C57.5734 96.2595 57.7451 96.7528 57.5734 97.1603L58.9038 97.9753L58.9682 97.8681C59.1399 97.7179 59.3545 97.6107 59.5905 97.6536C59.8265 97.6536 60.0411 97.7608 60.1913 97.9324C60.4918 98.2756 60.4703 98.7903 60.1484 99.1335L61.2214 100.292C61.4359 100.206 61.672 100.206 61.8866 100.292C62.1012 100.377 62.2728 100.549 62.3372 100.785C62.5089 101.214 62.2943 101.686 61.8651 101.879L62.4445 103.337C62.9166 103.337 63.3243 103.723 63.3243 104.217C63.3243 104.517 63.1741 104.796 62.9166 104.967L58.818 107.841V110.136H56.4575C56.4575 110.136 56.4575 110.008 56.4575 109.943C56.4575 109.214 57.0369 108.635 57.7665 108.635V107.048C56.1786 107.048 54.8696 108.356 54.8696 109.943C54.8696 110.673 54.2902 111.252 53.5606 111.252L53.625 111.23Z" fill="white"/>
<path id="Vector_63" d="M60.3715 102.959L57.5024 104.959L58.4107 106.261L61.2798 104.261L60.3715 102.959Z" fill="white"/>
<path id="Vector_64" d="M58.6567 100.105L55.7583 103.355L56.9437 104.411L59.8421 101.161L58.6567 100.105Z" fill="white"/>
<path id="Vector_65" d="M55.5476 97.5951L53.8115 102.441L55.3065 102.976L57.0426 98.1302L55.5476 97.5951Z" fill="white"/>
<path id="Vector_66" d="M46.8654 102.936L45.9573 104.238L48.8267 106.238L49.7347 104.935L46.8654 102.936Z" fill="white"/>
<path id="Vector_67" d="M48.5718 100.106L47.386 101.162L50.2832 104.413L51.469 103.358L48.5718 100.106Z" fill="white"/>
<path id="Vector_68" d="M51.7001 97.6056L50.2051 98.1406L51.9411 102.987L53.4361 102.452L51.7001 97.6056Z" fill="white"/>
<path id="Vector_69" d="M51.3719 136.089L50.4062 134.952C49.3333 135.36 48.0887 134.952 47.4879 133.944C47.402 133.794 47.3162 133.622 47.2518 133.451H47.2304C47.2304 133.322 47.1874 133.194 47.1445 133.043C46.9514 132.421 46.5866 131.864 46.0931 131.456C46.3935 131.199 46.6295 130.92 46.8226 130.555C47.0372 130.169 47.166 129.762 47.2089 129.333C47.2518 129.183 47.3162 129.033 47.402 128.882C47.9814 127.874 49.1831 127.424 50.2775 127.789L51.2002 126.609C50.7496 125.901 50.7281 125.022 51.1358 124.314C51.286 124.035 51.5221 123.799 51.7796 123.606L51.5865 122.212C51.4577 122.169 51.3504 122.126 51.2217 122.062C50.1702 121.461 49.8054 120.132 50.4062 119.038L49.0114 118.266C48.3891 119.381 47.1016 119.788 46.0072 119.209C45.8785 119.145 45.7712 119.059 45.6853 118.995L44.3978 119.574C44.3978 119.917 44.2905 120.217 44.1618 120.496C43.7755 121.225 43.0245 121.676 42.1876 121.676L41.694 123.091C42.5953 123.821 42.8528 125.086 42.3163 126.116C42.252 126.266 42.1447 126.394 42.0374 126.523C41.7155 126.781 41.4151 127.102 41.2005 127.488C41.0074 127.831 40.9001 128.218 40.8572 128.582C40.2563 128.368 39.5911 128.368 38.9473 128.539C38.8186 128.582 38.4538 128.711 38.0032 128.732C36.8873 128.754 35.8358 127.939 35.5783 126.802L34.0977 126.609C33.7114 127.36 32.9818 127.81 32.1664 127.831C31.866 127.831 31.5441 127.767 31.2222 127.638L30.1279 128.518C30.1493 128.647 30.1708 128.775 30.1708 128.904C30.1708 130.148 29.2481 131.113 27.982 131.156L28.0249 132.743C29.291 132.7 30.2995 133.622 30.3639 134.845C30.3639 134.974 30.3639 135.102 30.3424 135.253L31.5012 136.046C31.8016 135.896 32.102 135.81 32.4239 135.789C33.2608 135.724 34.0119 136.175 34.441 136.883L35.9002 136.604C36.0719 135.467 37.0375 134.588 38.1963 134.523C38.3465 134.523 38.4967 134.523 38.6469 134.545C39.0332 134.695 39.4194 134.802 39.8486 134.802C40.149 134.802 40.4494 134.759 40.7499 134.673C40.8142 134.673 40.8786 134.609 40.9645 134.588C41.1361 135.36 41.5653 136.046 42.252 136.518C42.3378 136.625 42.4236 136.732 42.5095 136.861C43.0889 137.869 42.8528 139.156 41.9945 139.907L42.5309 141.301C43.3034 141.279 44.1189 141.708 44.5266 142.416C44.6768 142.695 44.7841 142.995 44.8055 143.338L46.1145 143.875C46.1145 143.875 46.3291 143.703 46.4364 143.639C47.4879 143.038 48.8183 143.403 49.4621 144.475L50.8354 143.66C50.1917 142.566 50.4921 141.237 51.5435 140.593C51.6508 140.529 51.7796 140.464 51.9083 140.422L52.0585 139.027C51.7796 138.834 51.5435 138.62 51.3933 138.341C50.9642 137.655 50.9642 136.775 51.3933 136.046L51.3719 136.089ZM34.8702 134.974C34.1835 134.438 33.3037 134.18 32.4025 134.202C32.2523 134.202 32.102 134.223 31.9518 134.244C31.7587 133.258 31.2222 132.421 30.4283 131.864C31.1579 131.263 31.6729 130.384 31.7802 129.397C31.9304 129.397 32.0806 129.397 32.2308 129.419C33.1321 129.419 33.9904 129.075 34.6556 128.496C35.2135 129.333 36.0719 129.891 37.0375 130.148C36.9302 130.384 36.8444 130.62 36.78 130.856L32.7243 130.984L32.7673 132.572L36.8015 132.443C36.8659 132.679 36.9732 132.915 37.0804 133.129C36.1363 133.451 35.3423 134.094 34.8487 134.952L34.8702 134.974ZM41.2863 132.4C41.0717 132.786 40.7499 133.043 40.3207 133.172C39.913 133.301 39.4623 133.236 39.0976 133.043C38.325 132.614 38.0246 131.628 38.4538 130.856C38.6684 130.47 38.9903 130.212 39.4194 130.084C39.5696 130.041 39.7199 130.019 39.8701 130.019C40.1276 130.019 40.4065 130.084 40.6426 130.212C41.0074 130.427 41.2863 130.748 41.4151 131.177C41.5438 131.585 41.4795 132.014 41.2863 132.4ZM45.5995 121.247C45.6639 121.118 45.7283 120.968 45.7926 120.839C46.7368 121.183 47.7239 121.14 48.6037 120.754C48.7539 121.697 49.2475 122.577 50.0414 123.177C49.9556 123.306 49.8698 123.435 49.7839 123.563C49.3333 124.357 49.1831 125.258 49.3548 126.116C48.3677 126.159 47.4235 126.587 46.6939 127.295C46.5651 127.102 46.4149 126.909 46.2218 126.738L48.1745 123.177L46.7797 122.405L44.827 125.965C44.591 125.901 44.3549 125.88 44.0974 125.88C44.312 124.893 44.1618 123.864 43.6682 123.006C44.4837 122.684 45.1703 122.062 45.5781 121.268L45.5995 121.247ZM42.6382 128.26C42.9386 127.724 43.4751 127.424 44.0545 127.424C44.312 127.424 44.591 127.488 44.827 127.617C45.1918 127.831 45.4708 128.153 45.5995 128.582C45.7283 128.99 45.6639 129.419 45.4708 129.805C45.2562 130.191 44.9343 130.448 44.5051 130.577C44.0974 130.706 43.6682 130.641 43.282 130.448C42.5095 130.019 42.2091 129.033 42.6382 128.26ZM43.3249 135.338C42.5524 134.909 42.2734 133.944 42.6811 133.151C42.9816 132.614 43.518 132.314 44.0974 132.314C44.3549 132.314 44.6339 132.378 44.8699 132.507C45.6424 132.936 45.9428 133.923 45.5137 134.695C45.2991 135.081 44.9772 135.338 44.548 135.467C44.1403 135.596 43.7112 135.531 43.3249 135.338ZM48.9471 142.052C48.0672 141.687 47.0587 141.687 46.136 142.052C46.0716 141.901 46.0072 141.773 45.9428 141.644C45.4922 140.85 44.7841 140.271 43.9687 139.971C44.4407 139.092 44.548 138.062 44.312 137.097C44.548 137.097 44.7841 137.054 44.9987 136.99C44.9987 136.99 45.0201 136.99 45.0416 136.99L47.1016 140.464L48.475 139.649L46.3935 136.153C46.5651 135.982 46.7154 135.789 46.8441 135.574C47.5737 136.261 48.5393 136.647 49.5479 136.668C49.4191 137.526 49.5908 138.427 50.0629 139.199C50.1487 139.328 50.2346 139.456 50.3204 139.585C49.5479 140.228 49.0758 141.108 48.9685 142.052H48.9471Z" fill="white"/>
<path id="Vector_70" d="M87.4224 128.667C90.5124 126.115 92.4008 122.19 92.4008 117.665C92.4008 113.139 90.3193 109.171 86.8001 106.554C87.6584 105.847 88.1949 104.796 88.4095 103.423L88.5168 102.672L87.7872 102.522C87.1864 102.393 85.6199 102.243 83.6028 103.144L83.1092 102.694C86.607 101.085 88.903 97.6106 88.903 93.6855H87.3151C87.3151 97.2459 85.062 100.42 81.693 101.578H79.1823C81.5857 99.7339 83.0878 96.8384 83.0878 93.6855H81.4998C81.4998 97.1816 79.311 100.292 76.0493 101.493C74.676 100.978 73.4958 100.12 72.573 99.0476C75.47 98.9832 77.8089 96.6239 77.8089 93.707H76.221C76.221 95.7875 74.5258 97.4819 72.4443 97.4819C72.1224 97.4819 71.8005 97.4175 71.4787 97.3317C70.9422 96.2164 70.5989 94.9939 70.5989 93.6855H69.0109C69.0109 97.9966 71.8435 101.771 75.8777 103.101L71.4572 103.487C70.8564 103.487 70.277 103.788 69.9122 104.281C69.5688 104.774 69.4615 105.375 69.6547 105.932C69.9766 106.919 70.9637 108.163 73.7318 108.571C77.8089 109.15 79.5256 110.672 79.6115 110.737C80.5556 111.466 81.0277 112.603 80.8561 113.804C80.62 115.37 79.1608 116.549 77.4656 116.549H62.7665C60.0627 114.19 56.6078 113.611 56.4576 113.589L55.7924 113.482L55.5778 114.104C55.0414 115.648 55.1701 116.978 55.9426 118.072C56.5864 118.994 57.6164 119.573 58.6679 119.959C56.7366 124.356 58.9897 128.539 59.7193 129.718C59.4404 130.726 58.3889 134.072 55.771 136.496C54.9126 137.29 54.4191 138.426 54.4191 139.627V145.333C54.4191 146.083 54.9341 146.727 55.6637 146.898L56.801 147.156C56.9297 147.177 57.037 147.199 57.1658 147.199C57.5306 147.199 57.8739 147.091 58.1529 146.855C58.5391 146.555 58.7537 146.105 58.7752 145.611L58.8395 141.193C58.8395 140.485 59.2473 139.842 59.8696 139.499L61.2858 138.727C61.2858 138.727 61.2858 138.92 61.3287 139.027L63.6463 147.456C63.8394 148.142 64.3973 148.614 65.1055 148.7L66.4573 148.85C66.9938 148.914 67.5303 148.7 67.8951 148.292C68.2599 147.885 68.4101 147.327 68.2813 146.791L66.7578 140.078C66.5003 138.941 66.5861 137.74 66.9938 136.475C67.7878 133.965 67.8951 131.499 67.8736 130.04C70.792 131.134 74.1824 131.391 75.7275 131.456L75.5129 136.303C75.3197 137.74 75.2339 139.22 75.2768 140.657L75.427 147.177C75.47 148.185 76.2639 148.979 77.2725 148.979H78.56C79.59 148.979 80.4054 148.142 80.4054 147.134V140.485C80.4269 139.156 80.7059 137.954 81.0707 136.818C82.444 140.528 83.4955 146.941 83.5169 147.07C83.6886 147.735 84.2894 148.185 84.9332 148.185C84.9976 148.185 85.0619 148.185 85.1263 148.185L86.8645 147.992C87.6799 147.885 88.2378 147.134 88.1305 146.319L87.3366 141.086C87.122 139.542 87.1434 138.212 87.2722 136.153L87.4868 128.667H87.4224ZM61.3073 136.646C61.3073 136.646 61.3073 136.839 61.2644 136.925L59.0756 138.126C57.9597 138.748 57.2516 139.928 57.2301 141.193L57.1229 145.633L55.9641 145.354V139.649C55.9641 138.898 56.2645 138.19 56.801 137.697C58.9683 135.702 60.17 133.214 60.7708 131.563C61.8008 133.729 61.5862 135.617 61.2858 136.646H61.3073ZM84.9976 146.619C84.783 145.375 83.474 137.847 81.8002 134.673C82.2509 133.472 82.6801 132.314 82.7873 131.155C83.8603 130.855 84.8474 130.362 85.7915 129.826L85.6199 136.11C85.4911 138.19 85.4697 139.649 85.7057 141.322L86.4782 146.448L84.9761 146.619H84.9976ZM81.8432 129.761L81.2423 129.911V130.533C81.2423 131.692 80.7702 132.914 80.2338 134.33C79.5471 136.11 78.796 138.126 78.796 140.507V147.156C78.7746 147.306 78.6458 147.413 78.5171 147.413H77.2296C77.0794 147.413 76.9721 147.306 76.9721 147.156L76.8218 140.635C76.7789 139.263 76.8648 137.89 77.0579 136.453L77.3583 129.911H76.5214C76.5214 129.911 70.9636 129.89 67.3371 128.11L66.0496 127.488L66.1998 128.903C66.1998 128.903 66.5646 132.464 65.4488 135.981C64.9552 137.525 64.8694 139.005 65.1913 140.421L66.7363 147.22L65.1269 147.027L62.8094 138.598C62.6806 138.105 62.6806 137.568 62.8094 137.054C63.2386 135.509 63.6033 132.442 61.1785 129.118C61.1571 129.075 58.1099 124.721 60.17 120.41C61.436 120.667 62.466 120.689 62.5519 120.71V119.123C61.4575 119.123 58.2816 118.715 57.1872 117.171C56.8224 116.656 56.7151 116.034 56.8439 115.305C57.9383 115.584 60.1485 116.313 61.8437 117.9L62.0798 118.115H77.4012C79.8904 118.115 82.0363 116.356 82.3582 113.997C82.6157 112.238 81.8861 110.501 80.5556 109.493C80.4698 109.407 78.5171 107.627 73.882 106.962C72.7876 106.812 71.4143 106.404 71.0924 105.396C71.0495 105.31 71.0924 105.225 71.1353 105.182C71.1568 105.139 71.2426 105.053 71.4572 105.053L76.7789 104.624L77.6158 103.144H81.2209L83.2809 105.032L83.7744 104.774C84.9547 104.174 85.9418 104.002 86.607 104.002C86.1563 105.353 85.1049 105.997 83.4096 105.997V107.584C84.0534 107.584 84.6328 107.498 85.1692 107.348C88.6885 109.621 90.7914 113.439 90.7914 117.643C90.7914 123.584 87.1864 128.453 81.8217 129.74L81.8432 129.761Z" fill="white"/>
<path id="Vector_71" d="M111.585 115.498C111.585 114.619 111.413 113.782 111.113 113.01C114.954 111.723 116.628 109.579 116.649 109.514C117.636 108.42 118.151 107.005 118.087 105.525C118.022 104.045 117.379 102.694 116.284 101.686C115.64 101.107 114.911 100.721 114.095 100.485C114.889 98.6186 114.761 97.2674 114.761 97.2459C114.718 95.2727 113.087 93.6855 111.134 93.6855C111.113 93.6855 111.07 93.6855 111.048 93.6855C109.053 93.7284 107.443 95.4014 107.486 97.3103C107.486 97.3961 107.379 99.3049 108.881 101.643C108.752 101.75 108.624 101.857 108.516 101.986C108.409 102.072 106.177 104.174 105.362 108.613C105.126 108.592 104.911 108.549 104.654 108.549C104.353 108.549 104.053 108.592 103.774 108.635C103.645 105.761 102.551 104.152 102.529 104.152C102.336 103.831 102.122 103.53 101.864 103.273C103.259 101.664 103.452 100.227 103.452 100.227C103.645 99.3693 103.495 98.5114 103.023 97.7821C102.551 97.0529 101.843 96.5381 100.984 96.3451C99.2461 95.959 97.4865 97.0529 97.1217 98.7258C97.1217 98.7902 96.6711 100.12 97.1861 102.093C96.9071 102.179 96.6496 102.308 96.3921 102.436C96.3706 102.436 96.3492 102.479 96.3063 102.501C95.7698 101.771 95.2333 101.45 95.2119 101.428C94.096 100.656 92.5725 100.935 91.7785 102.05C91.006 103.166 91.285 104.688 92.3364 105.418C92.4223 105.482 93.0016 105.954 94.096 106.211C94.0531 107.026 94.2462 107.841 94.6325 108.528C94.6754 108.613 95.6196 110.672 98.4951 112.388C98.023 113.311 97.7225 114.34 97.7225 115.434C97.7225 115.606 97.4007 119.166 100.083 123.799H95.5981L99.2032 139.713H110.083L113.688 123.799H109.203C111.885 119.166 111.585 115.584 111.563 115.498H111.585ZM94.4608 104.646C93.7527 104.495 93.3879 104.195 93.3235 104.152C92.9373 103.873 92.83 103.337 93.1089 102.93C93.3879 102.544 93.9244 102.436 94.375 102.737C94.375 102.737 94.7398 102.973 95.1046 103.509C94.8256 103.852 94.6325 104.217 94.4608 104.624V104.646ZM109.074 97.3961C109.053 96.2593 109.954 95.3371 111.07 95.2942C111.606 95.2513 112.143 95.4872 112.529 95.8518C112.915 96.2379 113.151 96.7312 113.173 97.3532C113.173 97.3532 113.28 98.5757 112.465 100.249C112.4 100.249 112.357 100.249 112.293 100.249C111.542 100.292 110.834 100.463 110.19 100.763C109.01 98.9189 109.074 97.5033 109.074 97.3746V97.3961ZM109.632 103.144C110.34 102.372 111.306 101.9 112.379 101.857C112.679 101.857 112.98 101.857 113.28 101.922L113.344 101.965C113.344 101.965 113.344 101.965 113.344 101.943C114.031 102.093 114.675 102.393 115.211 102.887C115.984 103.595 116.456 104.56 116.499 105.632C116.542 106.683 116.177 107.691 115.426 108.528C115.426 108.528 113.881 110.479 110.362 111.595C109.525 110.394 108.323 109.471 106.907 108.999C107.615 105.074 109.546 103.23 109.632 103.166V103.144ZM98.6667 99.1548C98.8813 98.254 99.7611 97.6963 100.662 97.8894C101.092 97.9966 101.478 98.254 101.714 98.6186C101.95 99.0047 102.036 99.4336 101.907 99.9484C101.907 99.9913 101.735 101.085 100.598 102.329C100.362 102.2 100.104 102.115 99.8255 102.029C99.4822 101.943 99.1388 101.9 98.7955 101.879C98.3234 100.292 98.6453 99.2621 98.6667 99.1548ZM96.0488 107.82C95.6625 107.134 95.5767 106.34 95.7913 105.589C96.0059 104.839 96.4994 104.217 97.1861 103.831C97.8728 103.444 98.6667 103.359 99.4178 103.573C100.169 103.788 100.791 104.281 101.22 105.01C101.22 105.01 102.164 106.469 102.229 109.042C101.113 109.471 100.169 110.158 99.4178 111.037C96.95 109.6 96.1346 107.884 96.0917 107.798L96.0488 107.82ZM99.3105 115.498C99.3105 112.56 101.714 110.158 104.654 110.158C107.594 110.158 109.997 112.56 109.997 115.584C109.997 115.627 110.276 119.252 107.336 123.799H101.95C99.0101 119.252 99.289 115.606 99.289 115.498H99.3105ZM111.714 125.386L108.817 138.126H100.491L97.5938 125.386H111.714Z" fill="white"/>
<path id="Vector_72" d="M126.091 103.551V100.463H124.503V103.551C123.366 103.895 122.507 104.946 122.507 106.211V114.04C122.507 115.284 123.344 116.334 124.503 116.699V127.681H126.091V116.699C127.228 116.356 128.086 115.305 128.086 114.04V106.211C128.086 104.967 127.25 103.916 126.091 103.551ZM126.477 114.018C126.477 114.683 125.941 115.219 125.275 115.219C124.61 115.219 124.074 114.683 124.074 114.018V106.19C124.074 105.525 124.61 104.988 125.275 104.988C125.941 104.988 126.477 105.525 126.477 106.19V114.018Z" fill="white"/>
<path id="Vector_73" d="M133.644 96.7956V93.707H132.056V96.7956C130.919 97.1387 130.061 98.1897 130.061 99.4551V107.284C130.061 108.528 130.897 109.579 132.056 109.943V118.951H133.644V109.943C134.781 109.6 135.64 108.549 135.64 107.284V99.4551C135.64 98.2111 134.803 97.1602 133.644 96.7956ZM134.052 107.284C134.052 107.949 133.515 108.485 132.85 108.485C132.185 108.485 131.648 107.949 131.648 107.284V99.4551C131.648 98.7902 132.185 98.254 132.85 98.254C133.515 98.254 134.052 98.7902 134.052 99.4551V107.284Z" fill="white"/>
<path id="Vector_74" d="M115.769 113.418C115.769 113.418 118.13 116.292 119.589 121.89C117.808 119.359 115.748 118.287 115.598 118.223L114.889 119.638C115.125 119.767 120.705 122.684 120.705 131.156H122.293C122.293 118.78 117.207 112.646 116.971 112.389L115.769 113.418Z" fill="white"/>
<path id="Vector_75" d="M140.232 101.171C141.391 96.6026 143.129 94.9296 143.15 94.9082L142.099 93.7285C141.927 93.8787 137.657 97.8037 137.657 110.222H139.245C139.245 101.9 143.515 100.528 143.708 100.463L143.279 98.9404C143.15 98.9833 141.67 99.4337 140.253 101.171H140.232Z" fill="white"/>
</g>
<defs>
<clipPath id="clip0_75_1530">
<rect width="148" height="149" fill="white"/>
</clipPath>
</defs>
</svg>
