<svg width="193" height="61" viewBox="0 0 193 61" fill="none" xmlns="http://www.w3.org/2000/svg">
<g id="celyon" clip-path="url(#clip0_75_1467)">
<path id="Vector" d="M148.281 34.5706C150.729 30.6103 149.503 25.4155 145.543 22.9676C141.582 20.5197 136.388 21.7458 133.94 25.7062C131.492 29.6665 132.718 34.8613 136.678 37.3092C140.639 39.757 145.834 38.5309 148.281 34.5706Z" fill="white"/>
<g id="Group">
<path id="Vector_2" d="M179.33 12.0605C175.53 12.0605 172.1 13.6605 169.69 16.2305V12.0605H155.24C160.47 16.2805 163.82 22.8205 163.82 30.1305C163.82 37.4405 160.47 43.9705 155.24 48.2005H169.69V25.9205C169.69 22.2605 172.66 19.2905 176.32 19.2905C179.98 19.2905 182.95 22.2605 182.95 25.9205V48.2105H192.59V25.3105C192.59 17.9905 186.66 12.0605 179.34 12.0605H179.33Z" fill="white"/>
<path id="Vector_3" d="M18.07 19.3706C21.43 19.3706 24.33 21.8306 25.73 25.3906H34.8C33.27 17.1706 26.38 12.1406 18.06 12.1406C8.09 12.1406 0 20.2306 0 30.2106C0 40.1906 8.09 48.2806 18.07 48.2806C26.38 48.2806 32.89 43.2506 34.81 35.0306H25.74C24.34 38.6006 21.44 41.0506 18.08 41.0506C13.36 41.0506 9.53 36.1906 9.53 30.2006C9.53 24.2106 13.36 19.3606 18.08 19.3606L18.07 19.3706Z" fill="white"/>
<path id="Vector_4" d="M109.79 34.1408L102.22 12.0508H92.58L104.32 46.3108C104.45 46.7708 104.52 47.2508 104.52 47.7408C104.52 50.6608 102.15 53.0308 99.23 53.0308H95V60.2608H102.27C104.56 60.2608 106.69 59.6008 108.48 58.4408C110.56 57.1008 112.18 55.1208 113.05 52.7708L127 12.0708H117.36L109.79 34.1508V34.1408Z" fill="white"/>
<path id="Vector_5" d="M87.76 0H78.18V48.27H87.76V0Z" fill="white"/>
<path id="Vector_6" d="M55.28 12.0605C45.3 12.0605 37.2 20.1505 37.2 30.1305C37.2 40.1105 45.29 48.2005 55.28 48.2005C63.9 48.2005 68.8 45.0605 72.86 37.3605H63.14C61 40.7505 57.85 40.9705 55.28 40.9705C50.37 40.9705 47.08 36.7505 47.08 33.7405H72.99C73.23 32.5705 73.35 31.3605 73.35 30.1305C73.35 20.1505 65.26 12.0605 55.28 12.0605ZM47.08 26.5205C47.08 22.4705 51.49 19.2905 55.28 19.2905C59.07 19.2905 63.47 22.4705 63.47 26.5205H47.08Z" fill="white"/>
</g>
</g>
<defs>
<clipPath id="clip0_75_1467">
<rect width="192.58" height="60.26" fill="white"/>
</clipPath>
</defs>
</svg>
