<svg width="242" height="37" viewBox="0 0 242 37" fill="none" xmlns="http://www.w3.org/2000/svg">
<g id="crever" clip-path="url(#clip0_75_1606)">
<path id="Vector" d="M87.2632 24.4284C85.7375 27.0681 83.2611 28.8279 80.5192 28.8279C76.0195 28.8279 72.2274 24.0984 72.2274 18.5C72.2274 12.9016 76.0306 8.17212 80.5192 8.17212C83.2611 8.17212 85.7486 9.93193 87.2632 12.5716L96.0858 10.3939C93.2665 4.24554 87.3627 0 80.5192 0C70.967 0 63.2169 8.2821 63.2169 18.5C63.2169 28.7179 70.967 37 80.5192 37C87.3627 37 93.2776 32.7545 96.0858 26.5951L87.2632 24.4174V24.4284Z" fill="white"/>
<g id="Group">
<path id="Vector_2" d="M0 18.5C0 28.7179 8.325 37 18.5958 37V0C8.325 0 0 8.2821 0 18.5Z" fill="white"/>
<path id="Vector_3" d="M18.5958 18.5C18.5958 27.541 24.9529 35.0972 33.4659 36.989V0C24.9529 1.8918 18.5958 9.44798 18.5958 18.489V18.5Z" fill="white"/>
<path id="Vector_4" d="M33.4658 18.5C33.4658 26.5071 37.9876 33.4694 44.6211 36.989V0C37.9876 3.53062 33.4658 10.4819 33.4658 18.489V18.5Z" fill="white"/>
<path id="Vector_5" d="M44.6211 18.5C44.6211 25.6712 47.4514 32.1825 52.0616 37V0C47.4514 4.80648 44.6211 11.3288 44.6211 18.5Z" fill="white"/>
</g>
<path id="Vector_6" d="M118.617 1.1215V9.24962C117.777 9.00765 116.893 8.87566 115.975 8.87566C110.646 8.87566 106.147 13.2862 106.147 18.4996V36.0317H97.9321V0.978516H106.147V5.719C108.877 2.78232 112.581 0.978516 116.65 0.978516C117.313 0.978516 117.965 1.02251 118.606 1.1215H118.617Z" fill="white"/>
<path id="Vector_7" d="M242 1.1215V9.24962C241.16 9.00765 240.275 8.87566 239.358 8.87566C234.029 8.87566 229.529 13.2862 229.529 18.4996V36.0317H221.315V0.978516H229.529V5.719C232.26 2.78232 235.963 0.978516 240.032 0.978516C240.695 0.978516 241.348 1.02251 241.989 1.1215H242Z" fill="white"/>
<path id="Vector_8" d="M143.261 24.6373C141.636 27.1671 139.06 28.8389 136.218 28.8389C132.15 28.8389 128.634 25.4183 127.661 20.9637H152.846C152.946 20.1608 153.001 19.3469 153.001 18.511C153.001 8.2931 145.251 0 135.699 0C126.146 0 118.396 8.2821 118.396 18.5C118.396 28.7179 126.146 37 135.699 37C142.542 37 148.446 32.7545 151.265 26.5951L143.272 24.6263L143.261 24.6373ZM136.218 8.18312C139.767 8.18312 142.896 10.7788 144.289 14.4084H128.159C129.541 10.7788 132.68 8.18312 136.229 8.18312H136.218Z" fill="white"/>
<path id="Vector_9" d="M209.728 24.6373C208.103 27.1671 205.527 28.8389 202.686 28.8389C198.617 28.8389 195.101 25.4183 194.129 20.9637H219.314C219.413 20.1608 219.468 19.3469 219.468 18.511C219.468 8.2931 211.718 0 202.166 0C192.614 0 184.864 8.2821 184.864 18.5C184.864 28.7179 192.614 37 202.166 37C209.01 37 214.913 32.7545 217.733 26.5951L209.739 24.6263L209.728 24.6373ZM202.686 8.18312C206.235 8.18312 209.363 10.7788 210.756 14.4084H194.626C196.008 10.7788 199.148 8.18312 202.697 8.18312H202.686Z" fill="white"/>
<path id="Vector_10" d="M177.279 0.978516L168.932 23.999L160.574 0.978516H151.851L164.565 36.0317H173.299L186.014 0.978516H177.279Z" fill="white"/>
</g>
<defs>
<clipPath id="clip0_75_1606">
<rect width="242" height="37" fill="white"/>
</clipPath>
</defs>
</svg>
