<svg width="123" height="123" viewBox="0 0 123 123" fill="none" xmlns="http://www.w3.org/2000/svg">
<g id="lddl" clip-path="url(#clip0_75_1666)">
<path id="Vector" d="M61.5 0C27.5348 0 0 27.5348 0 61.5C0 95.4652 27.5348 123 61.5 123C95.4652 123 123 95.4652 123 61.5C123 27.5348 95.4652 0 61.5 0ZM61.5 119.015C29.73 119.015 3.98468 93.2581 3.98468 61.5C3.98468 29.7419 29.73 3.98468 61.5 3.98468C93.27 3.98468 119.015 29.7419 119.015 61.5C119.015 93.2581 93.2581 119.015 61.5 119.015Z" fill="white"/>
<path id="Vector_2" d="M61.5 23.4902C40.5029 23.4902 23.4905 40.5146 23.4905 61.4997C23.4905 82.4849 40.5148 99.5092 61.5 99.5092C82.4851 99.5092 99.5095 82.4849 99.5095 61.4997C99.5095 40.5146 82.4851 23.4902 61.5 23.4902ZM31.5672 41.1588H55.8093C56.8234 41.1588 57.6585 41.982 57.6585 43.008V44.7259H29.4436C30.0879 43.4971 30.8037 42.3041 31.5791 41.1588H31.5672ZM28.4654 46.7302H57.6465V65.1742L49.8561 57.3838H25.5544C25.9839 53.6258 26.986 50.0468 28.4654 46.7302ZM25.3158 61.4997C25.3158 60.7839 25.3397 60.0681 25.3874 59.3642H49.0449L56.2626 66.5701H25.6976C25.459 64.9118 25.3397 63.2177 25.3397 61.4997H25.3158ZM27.3081 73.3583H37.3175L38.7849 77.0328H28.8113C28.2506 75.8398 27.7495 74.6229 27.3081 73.3583ZM29.8373 79.0132H41.7317L38.6776 71.366H26.6878C26.4253 70.4474 26.1986 69.5168 26.0077 68.5743H57.6585V79.9915C57.6585 81.0056 56.8234 81.8407 55.8093 81.8407H31.5672C30.9468 80.934 30.3742 79.9915 29.8373 79.0132ZM53.817 83.833V87.9489C53.817 88.963 52.9938 89.7981 51.9678 89.7981C50.9418 89.7981 50.1186 88.9749 50.1186 87.9489V83.833H53.817ZM65.3415 44.7379V35.0625C65.3415 34.0484 66.1647 33.2133 67.1907 33.2133H70.6981C71.7122 33.2133 72.5473 34.0365 72.5473 35.0625V44.7379H65.3415ZM72.5592 46.7302V87.9489C72.5592 88.963 71.7241 89.7981 70.7101 89.7981H67.2026C66.1885 89.7981 65.3534 88.9749 65.3534 87.9489V46.7302H72.5592ZM83.7378 90.0367C80.97 92.1961 77.8801 93.9617 74.5397 95.2502V79.0371H83.7378V90.0248V90.0367ZM83.7378 77.0447H74.5397V73.3464H83.7378V77.0447ZM83.7378 71.366H74.5397V43.0199C74.5397 42.0059 75.3748 41.1707 76.3888 41.1707H81.8886C82.9027 41.1707 83.7378 41.9939 83.7378 43.0199V71.366ZM83.7378 39.6675C83.189 39.3574 82.5687 39.1665 81.8886 39.1665H76.3888C75.7207 39.1665 75.0884 39.3574 74.5397 39.6675V35.0506C74.5397 32.9389 72.8217 31.2091 70.6981 31.2091H67.1907C65.079 31.2091 63.3492 32.927 63.3492 35.0506V87.937C63.3492 90.0486 65.0671 91.7785 67.1907 91.7785H70.6981C71.3662 91.7785 71.9985 91.5876 72.5473 91.2774V95.9421C69.0637 97.0636 65.3534 97.672 61.4881 97.672C49.9277 97.672 39.6439 92.2438 33.0227 83.8091H48.1143V87.925C48.1143 90.0367 49.8323 91.7666 51.9559 91.7666C54.0794 91.7666 55.7974 90.0486 55.7974 87.925V83.7972H55.8332C57.9329 83.7734 59.6389 82.0673 59.6389 79.9557V42.9841C59.6389 40.8725 57.9209 39.1426 55.7974 39.1426H33.0227C39.6439 30.708 49.9277 25.2798 61.4881 25.2798C69.875 25.2798 77.5938 28.143 83.7259 32.9389V39.6437L83.7378 39.6675ZM97.6842 61.4997C97.6842 72.1653 93.0672 81.7452 85.7301 88.3665V59.3642H97.6126C97.6484 60.0681 97.6842 60.7839 97.6842 61.4997ZM85.7301 57.3719V43.008V34.6211C92.1128 40.3714 96.4196 48.3766 97.4456 57.36H85.7301V57.3719Z" fill="white"/>
<path id="Vector_3" d="M15.1752 73.2998C14.1253 73.6099 13.5288 74.7195 13.839 75.7812C14.1492 76.843 15.2587 77.4276 16.3204 77.1174C17.3703 76.8072 17.9668 75.6977 17.6566 74.6359C17.3464 73.5742 16.2369 72.9896 15.1752 73.2998Z" fill="white"/>
<path id="Vector_4" d="M107.837 73.2988C106.787 72.9886 105.677 73.5851 105.355 74.635C105.033 75.6848 105.642 76.7944 106.691 77.1165C107.741 77.4266 108.851 76.8301 109.173 75.7803C109.495 74.7304 108.887 73.6209 107.837 73.2988Z" fill="white"/>
<path id="Vector_5" d="M51.9677 71.3672H48.7227C46.6111 71.3672 44.8812 73.0851 44.8812 75.2087C44.8812 77.3323 46.5992 79.0502 48.7227 79.0502H51.9677C54.0794 79.0502 55.8093 77.3323 55.8093 75.2087C55.8093 73.0851 54.0913 71.3672 51.9677 71.3672ZM51.9677 77.0459H48.7227C47.7087 77.0459 46.8736 76.2228 46.8736 75.1968C46.8736 74.1708 47.6967 73.3476 48.7227 73.3476H51.9677C52.9818 73.3476 53.8169 74.1708 53.8169 75.1968C53.8169 76.2228 52.9937 77.0459 51.9677 77.0459Z" fill="white"/>
<path id="Vector_6" d="M20.5438 42.2572C22.906 43.7485 25.8885 43.2474 27.2127 41.1477C27.7019 40.3722 27.8928 39.4775 27.8092 38.5827L28.537 39.036L30.6606 35.6598L22.0947 30.2793L19.9711 33.6555L20.6989 34.1089C19.8638 34.431 19.136 34.9798 18.6469 35.7672C17.3346 37.8669 18.1816 40.7659 20.5438 42.2572ZM22.035 36.7216C22.4765 36.0177 23.4667 35.8626 24.2541 36.3518C25.0415 36.8528 25.3278 37.8192 24.8864 38.5111C24.4449 39.215 23.4547 39.3701 22.6673 38.8809C21.88 38.3799 21.5936 37.4135 22.035 36.7216Z" fill="white"/>
<path id="Vector_7" d="M75.339 24.0512C77.9159 24.9818 79.7054 24.3018 80.3377 22.5361C81.2444 20.0308 78.6675 18.7781 76.8422 17.5851C76.4723 17.3465 76.7109 16.571 77.6892 16.9289C78.3573 17.1675 78.6675 17.776 78.5124 18.1935L81.5069 19.2792C81.5069 19.2792 82.6999 15.9626 78.3096 14.3759C75.7327 13.4453 73.9431 14.1253 73.3108 15.891C72.4042 18.3963 74.9811 19.649 76.8064 20.842C77.1762 21.0806 76.9376 21.8561 75.9593 21.4982C75.2912 21.2596 74.9811 20.6511 75.1362 20.2336L72.1417 19.1479C72.1417 19.1479 70.9487 22.4645 75.339 24.0512Z" fill="white"/>
<path id="Vector_8" d="M102.122 48.2814C101.955 47.7922 102.623 47.1122 103.649 46.6589L105.487 52.1467L105.57 52.4092C105.725 52.3734 105.88 52.3495 106.035 52.3018C108.684 51.419 110.115 48.5557 109.233 45.9072C108.35 43.2588 105.487 41.8271 102.838 42.71C100.19 43.5928 98.7579 46.456 99.6408 49.1045C100.392 51.3355 102.552 52.6836 104.795 52.5285L103.542 48.7705C102.814 48.8182 102.253 48.6512 102.122 48.2814ZM106.751 46.7304C106.882 47.1361 106.465 47.6491 105.761 48.0785L105.152 46.2532C105.976 46.1578 106.62 46.3248 106.751 46.7304Z" fill="white"/>
<path id="Vector_9" d="M87.8895 31.4006C90.0012 33.2259 93.1984 32.9873 95.0238 30.8757C96.8491 28.764 96.6105 25.5667 94.4988 23.7414C92.3872 21.9161 89.1899 22.1547 87.3646 24.2664C85.5393 26.378 85.7779 29.5753 87.8895 31.4006ZM90.3829 26.8791C91.2658 25.8531 92.3395 25.3401 92.7928 25.7338C93.2462 26.1275 92.8883 27.2608 92.0054 28.2868C91.1226 29.3128 90.0489 29.8258 89.5955 29.4321C89.1422 29.0384 89.5001 27.9051 90.3829 26.8791Z" fill="white"/>
<path id="Vector_10" d="M87.472 16.9046C88.4264 17.4534 89.6433 17.1313 90.1921 16.1769C90.7409 15.2225 90.4188 14.0056 89.4644 13.4568C88.5099 12.908 87.2931 13.2301 86.7443 14.1845C86.1955 15.139 86.5176 16.3558 87.472 16.9046Z" fill="white"/>
<path id="Vector_11" d="M85.0118 17.1848L79.9351 25.9355L83.3817 27.9351L88.4584 19.1843L85.0118 17.1848Z" fill="white"/>
<path id="Vector_12" d="M28.1075 25.4596L30.8753 29.2892L33.2136 32.5103L37.6635 29.2892C40.5029 27.2372 41.1352 23.2644 39.0832 20.4251C37.0312 17.5857 33.0585 16.9534 30.2191 19.0054L25.7692 22.2265L28.1075 25.4476V25.4596ZM32.5574 22.2504C33.6192 21.4868 35.0986 21.7254 35.8621 22.7753C36.6256 23.8371 36.387 25.3164 35.3252 26.0799L34.1084 26.9628L31.3406 23.1332L32.5574 22.2504Z" fill="white"/>
<path id="Vector_13" d="M94.1051 38.4038L99.1873 35.0514C99.8316 34.6219 100.702 34.8009 101.132 35.4451C101.561 36.0894 101.382 36.9603 100.738 37.3897L95.656 40.7421L97.8512 44.0587L103.124 40.5751C104.866 39.4179 105.355 37.0676 104.198 35.3258C103.518 34.2998 102.432 33.7272 101.299 33.6437L102.552 32.8205L100.357 29.5039L91.9219 35.0753L94.117 38.3919L94.1051 38.4038Z" fill="white"/>
<path id="Vector_14" d="M63.7906 21.5698C65.0075 21.6891 66.1409 21.1999 66.9282 20.3648L66.7851 21.8561L70.7459 22.2378L71.7242 12.1688L67.7634 11.787L67.1788 17.8475C67.1072 18.623 66.4152 19.1837 65.6398 19.1121C64.8643 19.0406 64.3036 18.3486 64.3752 17.5731L64.9598 11.5126L60.999 11.1309L60.3905 17.4181C60.1877 19.5058 61.7148 21.355 63.8025 21.5578L63.7906 21.5698Z" fill="white"/>
<path id="Vector_15" d="M24.4091 45.7053L21.2118 44.7031L20.0188 48.4969L11.107 45.7053L9.91394 49.4991L22.0231 53.3048L24.4091 45.7053Z" fill="white"/>
<path id="Vector_16" d="M42.6474 14.9272L39.0146 16.5645L43.1714 25.7878L46.8042 24.1506L42.6474 14.9272Z" fill="white"/>
<path id="Vector_17" d="M40.2166 14.4229C41.2187 13.9696 41.6601 12.7885 41.2187 11.7864C40.7654 10.7842 39.5843 10.3428 38.5821 10.7842C37.58 11.2376 37.1386 12.4187 37.58 13.4208C38.0333 14.4229 39.2144 14.8643 40.2166 14.4229Z" fill="white"/>
<path id="Vector_18" d="M45.7045 17.9673L47.1241 17.5736L48.7705 23.479L52.6001 22.4053L50.9537 16.4999L52.3734 16.1062L51.2997 12.2766L49.8919 12.6703C49.6772 11.8949 50.1305 11.0836 50.906 10.8569L49.8323 7.02734C46.9333 7.83859 45.2392 10.845 46.0504 13.744L44.6307 14.1377L45.7045 17.9673Z" fill="white"/>
<path id="Vector_19" d="M53.0177 16.0451L54.4732 15.8781L55.1413 21.9744L59.1021 21.533L58.434 15.4367L59.8895 15.2697L59.4481 11.3089L57.9926 11.4759C57.9091 10.6766 58.4817 9.94883 59.293 9.85339L58.8516 5.89258C55.869 6.22662 53.6977 8.92284 54.0318 11.9054L52.5763 12.0724L53.0177 16.0332V16.0451Z" fill="white"/>
<path id="Vector_20" d="M87.1379 104.889C86.6727 104.078 86.8755 103.088 87.5913 102.682L88.8917 101.942L87.2095 99.0195C87.2095 99.0195 86.9232 99.1866 86.78 99.2701C85.9807 99.7353 85.3961 100.427 85.0502 101.25L84.6207 100.511L81.1729 102.503L86.2193 111.26L89.6671 109.268L89.2376 108.528L87.1379 104.889Z" fill="white"/>
<path id="Vector_21" d="M48.1893 102.328L44.812 114.564L48.6531 115.625L52.0304 103.388L48.1893 102.328Z" fill="white"/>
<path id="Vector_22" d="M91.5998 95.3935C89.5121 97.2547 89.3331 100.452 91.1942 102.528C93.0553 104.616 96.2526 104.795 98.3284 102.933C100.404 101.072 100.595 97.875 98.7341 95.7992C96.873 93.7114 93.6757 93.5324 91.5998 95.3935ZM96.5986 100.989C96.1572 101.382 95.0715 100.893 94.1767 99.8793C93.282 98.8772 92.9121 97.7319 93.3536 97.3382C93.795 96.9445 94.8806 97.4336 95.7754 98.4477C96.6701 99.4498 97.04 100.595 96.5986 100.989Z" fill="white"/>
<path id="Vector_23" d="M68.2724 106.469L64.3098 106.889L65.3743 116.949L69.3369 116.53L68.2724 106.469Z" fill="white"/>
<path id="Vector_24" d="M66.1169 105.224C67.2145 105.105 68.0019 104.127 67.8826 103.041C67.7633 101.955 66.785 101.156 65.6994 101.275C64.6018 101.395 63.8144 102.373 63.9337 103.459C64.053 104.544 65.0313 105.344 66.1169 105.224Z" fill="white"/>
<path id="Vector_25" d="M59.4958 104.306L55.523 104.115L54.9265 116.797L62.8839 117.167L63.039 113.826L59.0663 113.636L59.4958 104.306Z" fill="white"/>
<path id="Vector_26" d="M33.7862 94.2243L29.5629 90.7168L27.0098 93.7828L23.9796 97.4216L21.4265 100.476L25.6379 103.983C28.3222 106.226 32.3426 105.856 34.5736 103.172C36.8164 100.488 36.4466 96.4671 33.7623 94.2362L33.7862 94.2243ZM31.5433 100.619C30.7082 101.621 29.2169 101.752 28.2148 100.917L27.0576 99.9507L30.0878 96.312L31.245 97.2784C32.2472 98.1135 32.3784 99.6048 31.5552 100.607L31.5433 100.619Z" fill="white"/>
<path id="Vector_27" d="M41.7913 102.456C39.2741 101.239 36.2557 102.289 35.0389 104.806C33.822 107.323 34.8718 110.342 37.3891 111.559C39.5127 112.585 41.9822 111.976 43.4377 110.258L39.8706 108.528C39.3934 109.089 38.8804 109.363 38.5225 109.196C38.0572 108.97 38.0333 108.015 38.427 106.965L43.6405 109.483L43.891 109.602C43.9745 109.471 44.07 109.34 44.1416 109.196C45.3584 106.679 44.3086 103.661 41.7913 102.444V102.456ZM40.9204 106.452L39.1905 105.617C39.7035 104.961 40.2643 104.615 40.646 104.806C41.0278 104.997 41.1113 105.653 40.9204 106.452Z" fill="white"/>
<path id="Vector_28" d="M76.2338 104.46C75.3509 104.734 74.6351 105.295 74.1221 106.034L73.0842 102.766L69.2904 103.971L73.1438 116.068L76.9376 114.863L76.6752 114.052C77.5222 114.35 78.4289 114.386 79.3117 114.111C81.6739 113.36 82.8908 110.592 82.0437 107.931C81.1967 105.271 78.5959 103.72 76.2457 104.472L76.2338 104.46ZM77.3194 111.188C76.532 111.439 75.6611 110.926 75.3867 110.031C75.1004 109.148 75.5179 108.218 76.3053 107.967C77.0927 107.717 77.9636 108.23 78.238 109.124C78.5124 110.019 78.1068 110.938 77.3194 111.188Z" fill="white"/>
</g>
<defs>
<clipPath id="clip0_75_1666">
<rect width="123" height="123" fill="white"/>
</clipPath>
</defs>
</svg>
