<svg width="250" height="48" viewBox="0 0 250 48" fill="none" xmlns="http://www.w3.org/2000/svg">
<g id="de-core" clip-path="url(#clip0_75_1618)">
<g id="Group">
<path id="Vector" d="M225.6 41.9922C223.612 41.9922 221.98 43.3393 221.98 45.0055C221.98 46.6717 223.595 48.0188 225.6 48.0188C227.605 48.0188 229.22 46.6717 229.22 45.0055C229.22 43.3393 227.605 41.9922 225.6 41.9922Z" fill="white"/>
<path id="Vector_2" d="M234.331 27.8996C236.318 27.8996 237.951 26.5525 237.951 24.8863C237.951 23.2202 236.336 21.873 234.331 21.873C232.325 21.873 230.711 23.2202 230.711 24.8863C230.711 26.5525 232.325 27.8996 234.331 27.8996Z" fill="white"/>
<path id="Vector_3" d="M250 35.9999V30.0087H246.114V24.0176H240.116V30.0087H234.118H231.314V47.9999H237.312V35.9999H240.116V42.0087C240.116 45.3056 242.795 47.9999 246.114 47.9999H250V43.0722H247.179C246.593 43.0722 246.114 42.5937 246.114 42.0087V35.9999H250Z" fill="white"/>
</g>
<g id="Group_2">
<path id="Vector_4" d="M59.572 32.9867H71.8519C72.0116 32.0118 72.1181 31.0192 72.1181 30.0089C72.1181 20.065 64.0439 12 54.0886 12C47.2033 12 41.223 15.8464 38.1885 21.5185V0H26.1925V15.9705C23.4242 13.4712 19.9283 11.9823 16.0953 11.9823C7.20471 11.9823 0 20.0473 0 29.9911C0 39.935 7.20471 48 16.0953 48C19.9283 48 23.4242 46.4934 26.1925 44.0118V48H38.1885V38.4815C41.223 44.1536 47.2033 48 54.0886 48C62.0386 48 68.7642 42.8597 71.1776 35.7164H57.7442C56.7327 36.6558 55.4727 37.223 54.1063 37.223C51.6574 37.223 49.5812 35.4682 48.6229 32.969H59.5897L59.572 32.9867ZM20.159 37.223C16.8228 37.223 14.1255 33.9793 14.1255 29.9911C14.1255 26.003 16.8228 22.7592 20.159 22.7592C23.4952 22.7592 26.1925 26.003 26.1925 29.9911C26.1925 33.9793 23.4952 37.223 20.159 37.223ZM54.0886 22.7592C56.5375 22.7592 58.6137 24.4963 59.572 27.0133H48.6052C49.5635 24.514 51.6397 22.7592 54.0886 22.7592Z" fill="white"/>
<path id="Vector_5" d="M212.717 32.9867H224.996C225.156 32.0118 225.263 31.0192 225.263 30.0089C225.263 20.065 217.188 12 207.233 12C201.04 12 195.592 15.1196 192.345 19.8523V12.2659C185.992 12.2659 180.828 16.3072 180.828 21.288V12H168.832V21.5185C165.797 15.8464 159.817 12 152.932 12C146.774 12 141.344 15.0842 138.079 19.7991C134.831 15.0842 129.419 12 123.261 12C113.306 12 105.231 20.065 105.231 30.0089C105.231 39.9527 113.306 48.0177 123.261 48.0177C129.419 48.0177 134.831 44.9158 138.079 40.2186C141.326 44.9335 146.756 48.0177 152.932 48.0177C159.817 48.0177 165.797 44.1713 168.832 38.4993V48.0177H180.828V31.4092C180.828 28.0768 184.075 25.3826 188.068 25.3826H189.825C189.434 26.8538 189.204 28.4136 189.204 30.0089C189.204 39.9527 197.278 48.0177 207.233 48.0177C215.183 48.0177 221.909 42.8774 224.322 35.7341H210.889C209.877 36.6736 208.617 37.2408 207.251 37.2408C204.802 37.2408 202.726 35.486 201.767 32.9867H212.734H212.717ZM128.212 34.1034C127.13 35.9823 125.319 37.223 123.261 37.223C119.925 37.223 117.227 33.9793 117.227 29.9911C117.227 26.003 119.925 22.7592 123.261 22.7592C125.319 22.7592 127.13 24 128.212 25.8789H135.381C135.08 27.2083 134.884 28.5731 134.884 29.9911C134.884 31.4092 135.062 32.774 135.381 34.1034H128.212ZM152.932 37.223C149.595 37.223 146.898 33.9793 146.898 29.9911C146.898 26.003 149.595 22.7592 152.932 22.7592C156.268 22.7592 158.965 26.003 158.965 29.9911C158.965 33.9793 156.268 37.223 152.932 37.223ZM207.233 22.7592C209.682 22.7592 211.758 24.4963 212.717 27.0133H201.75C202.708 24.514 204.784 22.7592 207.233 22.7592Z" fill="white"/>
<g id="Group_3">
<path id="Vector_6" d="M81.9492 35.4688L78.3114 31.8352C75.8447 29.4245 75.2946 25.7731 76.8917 22.5294C77.5483 21.2 78.6308 20.1188 79.9439 19.4629C82.943 17.974 86.3146 18.3462 88.6748 20.296C91.0527 18.3462 94.4066 17.9563 97.4056 19.4629C98.7188 20.1188 99.8013 21.2 100.458 22.5294C102.055 25.7731 101.505 29.4245 99.0205 31.8529L96.5361 29.3182C97.6186 28.2724 98.3639 26.3403 97.2637 24.1069C96.962 23.4866 96.4296 22.9548 95.8085 22.6357C93.3951 21.4304 91.2479 22.3699 90.1832 23.8233L89.6508 24.5501L88.657 24.6033C88.0537 24.6033 87.4858 24.3196 87.1309 23.8233C86.0662 22.3699 83.919 21.4482 81.5056 22.6357C80.8845 22.9371 80.3521 23.4688 80.0504 24.1069C78.9502 26.3403 79.6955 28.2547 80.778 29.3182L84.4336 32.9696L81.9315 35.4688H81.9492Z" fill="#606060"/>
<path id="Vector_7" d="M88.6748 40.8928C87.8408 40.8928 87.06 40.5737 86.4566 39.971L83.3689 36.8868L85.871 34.3876L88.6748 37.1882L95.1165 30.7539L97.6186 33.2532L90.8753 39.9888C90.2897 40.5737 89.4911 40.9105 88.6571 40.9105L88.6748 40.8928Z" fill="white"/>
</g>
</g>
</g>
<defs>
<clipPath id="clip0_75_1618">
<rect width="250" height="48" fill="white"/>
</clipPath>
</defs>
</svg>
