<svg width="203" height="57" viewBox="0 0 203 57" fill="none" xmlns="http://www.w3.org/2000/svg">
<g id="esobit" clip-path="url(#clip0_75_1629)">
<path id="Vector" d="M37.3273 35.7994C39.046 32.553 38.8491 28.643 36.7903 25.5939C32.9232 19.8365 26.4603 16.5004 19.5319 16.6977C9.05879 17.0026 0.304319 25.7733 -2.90428e-05 36.2836C-0.143252 41.772 1.86186 46.9554 5.69307 50.9013C9.50637 54.8293 14.6266 56.9995 20.1048 56.9995C27.1943 56.9995 33.8542 53.1792 37.4527 47.0451L30.2736 42.8123C28.1611 46.4174 24.2762 48.6414 20.1048 48.6414C16.9002 48.6414 13.8926 47.368 11.6547 45.0722C10.5089 43.8884 9.63169 42.5074 9.0767 41.0187H28.6624C32.2966 41.0187 35.6266 39.0278 37.3273 35.7994ZM19.7647 25.0558C23.8465 24.9661 27.6061 26.8853 29.8798 30.2751C30.3452 30.9567 30.1304 31.5845 29.9693 31.8894C29.8082 32.1763 29.4322 32.6785 28.6624 32.6785H9.1125C10.7954 28.356 14.9667 25.1814 19.7647 25.0558Z" fill="white"/>
<path id="Vector_2" d="M76.7135 29.3779C76.7135 17.3071 61.9258 16.6973 59.6701 16.6973C54.5141 16.6973 42.6266 18.6881 42.6266 29.3779C42.6266 44.3184 68.4066 38.292 68.4066 44.3184C68.4066 44.3184 69.1049 48.6409 59.6701 48.6409C50.2353 48.6409 50.9335 44.3184 50.9335 44.3184H42.6445C42.6445 56.9811 58.1841 56.9811 59.688 56.9811C68.4962 56.9811 76.7314 52.9097 76.7314 44.3184C76.7314 28.8577 50.9514 35.4761 50.9514 29.3779C50.9514 29.3779 50.2174 25.0912 59.688 25.0912C69.1586 25.0912 68.4245 29.3779 68.4245 29.3779H76.7135Z" fill="white"/>
<path id="Vector_3" d="M145.371 16.6982C140.967 16.6982 136.903 18.1331 133.591 20.5544V0H125.266V56.9641H133.591V53.1259C136.903 55.5293 140.967 56.9821 145.371 56.9821C156.453 56.9821 165.476 47.9424 165.476 36.8401C165.476 25.7379 156.453 16.6982 145.371 16.6982ZM145.371 48.6419C138.872 48.6419 133.591 43.3508 133.591 36.8401C133.591 30.3295 138.872 25.0384 145.371 25.0384C151.87 25.0384 157.151 30.3295 157.151 36.8401C157.151 43.3508 151.87 48.6419 145.371 48.6419Z" fill="white"/>
<path id="Vector_4" d="M199.545 8.33984H191.22V16.68H199.545V8.33984Z" fill="white"/>
<path id="Vector_5" d="M191.22 0H182.895V8.34015H191.22V0Z" fill="white"/>
<path id="Vector_6" d="M191.22 36.8395V16.6797H182.895V36.8395C182.895 47.9418 191.918 56.9814 203 56.9814V48.6413C196.501 48.6413 191.22 43.3502 191.22 36.8395Z" fill="white"/>
<path id="Vector_7" d="M100.99 16.6973C89.9079 16.6973 80.8849 25.7369 80.8849 36.8392C80.8849 47.9414 89.9079 56.9811 100.99 56.9811C112.072 56.9811 121.095 47.9414 121.095 36.8392C121.095 25.7369 112.072 16.6973 100.99 16.6973ZM100.99 48.6409C94.491 48.6409 89.2097 43.3499 89.2097 36.8392C89.2097 30.3285 94.491 25.0374 100.99 25.0374C107.488 25.0374 112.77 30.3285 112.77 36.8392C112.77 43.3499 107.488 48.6409 100.99 48.6409Z" fill="white"/>
<path id="Vector_8" d="M169.647 18.2404V55.4751C169.647 56.9638 171.545 57.5736 172.422 56.3719C176.379 50.8835 178.742 44.1576 178.742 36.8577C178.742 29.5579 176.396 22.8319 172.422 17.3436C171.563 16.1419 169.647 16.7696 169.647 18.2404Z" fill="white"/>
</g>
<defs>
<clipPath id="clip0_75_1629">
<rect width="203" height="57" fill="white"/>
</clipPath>
</defs>
</svg>
