<svg width="250" height="79" viewBox="0 0 250 79" fill="none" xmlns="http://www.w3.org/2000/svg">
<g id="estix" clip-path="url(#clip0_75_1487)">
<g id="Group">
<path id="Vector" d="M46.8849 21.7617H32.2163L21.8494 32.1062V46.743L32.2163 57.0874H46.8849L57.2518 46.743V32.1062L46.8849 21.7617Z" fill="#8D8D8D"/>
<g id="Group_2">
<path id="Vector_2" d="M70.7373 32.2566L60.3704 21.9121V57.2164L70.7373 46.8719V32.2566Z" fill="#606060"/>
<path id="Vector_3" d="M60.3704 8.43359V18.7781H70.7373L60.3704 8.43359Z" fill="#606060"/>
<path id="Vector_4" d="M32.2162 8.30469L21.8492 18.6492H57.2517L46.8847 8.30469H32.2162Z" fill="#606060"/>
<path id="Vector_5" d="M18.7306 8.43359L8.36365 18.7781H18.7306V8.43359Z" fill="#606060"/>
<path id="Vector_6" d="M8.36365 46.743L18.7306 57.0874V21.7617L8.36365 32.1062V46.743Z" fill="#606060"/>
<path id="Vector_7" d="M18.7306 70.6941V60.3496H8.36365L18.7306 70.6941Z" fill="#606060"/>
<path id="Vector_8" d="M32.2162 70.5437H46.8847L57.2517 60.1992H21.8492L32.2162 70.5437Z" fill="#606060"/>
<path id="Vector_9" d="M60.3704 60.3496V70.6941L70.7373 60.3496H60.3704Z" fill="#606060"/>
</g>
<g id="Group_3">
<path id="Vector_10" d="M73.8776 52.0438L79.061 46.8715V32.2562L73.8776 27.084V52.0438Z" fill="#333333"/>
<path id="Vector_11" d="M73.8776 13.6074V18.7797H79.061L73.8776 13.6074Z" fill="#333333"/>
<path id="Vector_12" d="M60.3705 0.171875V5.34411H65.554L60.3705 0.171875Z" fill="#333333"/>
<path id="Vector_13" d="M32.2163 0L27.0328 5.17224H52.0683L46.8849 0H32.2163Z" fill="#333333"/>
<path id="Vector_14" d="M18.7306 0.150391L13.5471 5.32263H18.7306V0.150391Z" fill="#333333"/>
<path id="Vector_15" d="M5.24499 18.7797V13.6074L0.0615234 18.7797H5.24499Z" fill="#333333"/>
<path id="Vector_16" d="M0.0400391 46.8715L5.22351 52.0438V27.084L0.0400391 32.2562V46.8715Z" fill="#333333"/>
<path id="Vector_17" d="M5.22351 65.5218V60.3496H0.0400391L5.22351 65.5218Z" fill="#333333"/>
<path id="Vector_18" d="M18.7306 78.9574V73.7852H13.5471L18.7306 78.9574Z" fill="#333333"/>
<path id="Vector_19" d="M32.2163 78.85H46.8849L52.0683 73.6777H27.0328L32.2163 78.85Z" fill="#333333"/>
<path id="Vector_20" d="M60.3705 79.0004L65.554 73.8281H60.3705V79.0004Z" fill="#333333"/>
<path id="Vector_21" d="M73.8346 65.5218L79.0181 60.3496H73.8346V65.5218Z" fill="#333333"/>
</g>
</g>
<g id="Group_4">
<path id="Vector_22" d="M148.554 35.7763C141.994 35.5187 141.607 34.2096 141.607 32.6214C141.607 30.7328 142.188 29.4666 148.554 29.4666C152.985 29.4666 154.232 30.7328 154.232 33.2438H164.341C164.341 25.6679 161.803 21.8906 148.532 21.8906C133.993 21.8906 131.476 25.6679 131.476 33.8662C131.476 40.7983 134.767 42.7727 148.532 43.3307C155.092 43.5883 155.48 44.8974 155.48 46.4856C155.48 48.3742 154.899 49.6404 148.532 49.6404C142.166 49.6404 141.585 48.3742 141.585 45.2193H131.476C131.476 53.4177 134.014 57.1949 148.532 57.1949C163.05 57.1949 165.588 53.4177 165.588 45.2193C165.588 38.2873 162.298 36.3128 148.532 35.7548L148.554 35.7763Z" fill="#E5E5E5"/>
<path id="Vector_23" d="M108.742 21.9121C93.5791 21.9121 91.0411 28.2218 91.0411 39.575C91.0411 50.9281 93.5576 57.2378 108.742 57.2378C123.927 57.2378 126.444 53.4606 126.444 45.2623H116.335C116.335 47.7733 115.711 49.6834 108.742 49.6834C101.774 49.6834 101.15 47.1724 101.15 42.7513H126.422V39.5964C126.422 38.5019 126.401 37.4503 126.336 36.4416C125.798 27.0843 122.422 21.9336 108.721 21.9336L108.742 21.9121ZM101.15 36.4201C101.15 31.999 101.774 29.488 108.742 29.488C115.711 29.488 116.335 32.0205 116.335 36.4201H101.171H101.15Z" fill="#E5E5E5"/>
<path id="Vector_24" d="M183.311 13.0703H173.202V21.891H168.148V29.4669H173.202V45.2412C173.202 53.4395 174.471 57.2167 183.311 57.2167H190.904V49.6408H185.849C183.978 49.6408 183.311 48.4819 183.311 47.1298V29.4669H190.904V21.891H183.311V13.0703Z" fill="#E5E5E5"/>
<path id="Vector_25" d="M207.314 9.29297H197.205V18.1137H207.314V9.29297Z" fill="#E5E5E5"/>
<path id="Vector_26" d="M207.314 21.9121H197.205V57.2378H207.314V21.9121Z" fill="#E5E5E5"/>
<path id="Vector_27" d="M249.04 21.9121H237.662L230.07 33.2653L222.478 21.9121H211.1C211.1 21.9121 220.499 35.9265 222.929 39.532C220.52 43.1591 211.164 57.2164 211.164 57.2164H222.499L230.091 45.8632L237.684 57.2164H249.019C249.019 57.2164 239.663 43.1376 237.254 39.532C239.663 35.9265 249.083 21.9121 249.083 21.9121H249.04Z" fill="#E5E5E5"/>
</g>
</g>
<defs>
<clipPath id="clip0_75_1487">
<rect width="249" height="79" fill="white" transform="translate(0.0400391)"/>
</clipPath>
</defs>
</svg>
