<svg width="218" height="64" viewBox="0 0 218 64" fill="none" xmlns="http://www.w3.org/2000/svg">
<g id="euroedile" clip-path="url(#clip0_75_1638)">
<path id="Vector" d="M172.899 33.8164H164.855V63.4613H172.899V33.8164Z" fill="white"/>
<path id="Vector_2" d="M168.867 23.0312C166.649 23.0312 164.855 24.8192 164.855 27.0301C164.855 29.2409 166.649 31.0288 168.867 31.0288C171.086 31.0288 172.88 29.2409 172.88 27.0301C172.88 24.8192 171.086 23.0312 168.867 23.0312Z" fill="white"/>
<path id="Vector_3" d="M48.2065 50.2533C48.2065 55.4825 45.6795 57.0782 42.5352 57.0782C39.3909 57.0782 36.8638 55.4825 36.8638 50.2533V33.816H28.8197V39.0067C25.9841 35.0848 21.2001 33.2969 15.7795 33.2969C7.06026 33.2969 0 37.9109 0 48.6576C0 59.4044 7.07955 64.0184 15.7795 64.0184C21.9138 64.0184 27.2379 61.7306 29.8421 56.6168C31.8869 62.0575 36.8059 63.9992 42.5159 63.9992C50.0777 63.9992 56.2313 60.6156 56.2313 50.2533V33.816H48.1872V50.2533H48.2065ZM15.7795 38.9106C19.8305 38.9106 23.1098 40.8907 23.1098 45.524H8.46845C8.46845 40.91 11.7478 38.9106 15.7988 38.9106H15.7795ZM23.0905 54.2906C21.5859 56.2131 18.8852 57.0782 15.7988 57.0782C11.7478 57.0782 8.46845 55.0403 8.46845 50.2533H28.839C28.839 51.7529 28.9741 53.0794 29.2248 54.2906H23.0905Z" fill="white"/>
<path id="Vector_4" d="M154.072 37.6804C151.969 34.6813 148.844 33.2971 145.353 33.2971C139.643 33.2971 134.357 35.7963 131.946 41.41C129.477 35.7963 123.96 33.2971 117.555 33.2971C111.151 33.2971 105.595 35.8156 103.145 41.4485C100.696 35.8156 95.1592 33.2971 88.7356 33.2971C84.0094 33.2971 79.7848 34.6621 76.8913 37.6227V33.8354C67.0339 33.8354 67.0339 39.526 67.0339 39.526V33.8354H58.9899V63.4803H67.0339V49.1962C67.0339 46.2355 67.0532 42.7173 74.1135 41.9868C73.3804 43.8708 72.9561 46.0817 72.9561 48.6579C72.9561 59.4046 80.0163 64.0186 88.7356 64.0186C95.1785 64.0186 100.696 61.5002 103.145 55.8672C105.615 61.5002 111.132 64.0186 117.555 64.0186C123.979 64.0186 129.477 61.5194 131.946 55.9057C134.338 61.5194 139.643 64.0186 145.353 64.0186C148.844 64.0186 151.969 62.6344 154.072 59.6353V63.4803H162.116V23.0117H154.072V37.6804ZM88.7163 57.0784C84.4724 57.0784 81.0387 54.5599 81.0387 48.6386C81.0387 42.7173 84.4724 40.1989 88.7163 40.1989C92.9601 40.1989 96.4131 42.7366 96.4131 48.6386C96.4131 54.5407 92.9601 57.0784 88.7163 57.0784ZM117.555 38.9108C121.606 38.9108 124.886 40.891 124.886 45.5242H110.244C110.244 40.9102 113.524 38.9108 117.575 38.9108H117.555ZM124.847 54.2908C123.342 56.2133 120.642 57.0784 117.555 57.0784C113.504 57.0784 110.225 55.0406 110.225 50.2535H130.653C130.75 51.7339 131.001 53.0604 131.367 54.2908H124.847ZM146.375 57.0784C142.131 57.0784 138.678 54.5599 138.678 48.6386C138.678 42.7173 142.131 40.1989 146.375 40.1989C150.619 40.1989 154.053 42.7366 154.053 48.6386C154.053 54.5407 150.619 57.0784 146.375 57.0784Z" fill="white"/>
<path id="Vector_5" d="M218 48.6386C218 37.8919 210.92 33.2779 202.221 33.2779C193.521 33.2779 186.441 37.8919 186.441 48.6386C186.441 52.0607 187.155 54.8483 188.428 57.0784H187.213C185.264 57.0784 183.702 56.021 183.702 53.5795V23.0117H175.658V53.5795C175.658 60.5005 179.265 63.4803 183.702 63.4803H190.627V59.9045C193.521 62.6921 197.649 63.9994 202.24 63.9994C209.242 63.9994 215.164 61.0388 217.248 54.2908H209.551C208.046 56.2133 205.346 57.0784 202.259 57.0784C198.208 57.0784 194.929 55.0406 194.929 50.2535H217.981C218.019 49.7345 218.039 49.1962 218.039 48.6386H218ZM194.89 45.5242C194.89 40.9102 198.17 38.9108 202.221 38.9108C206.271 38.9108 209.551 40.891 209.551 45.5242H194.909H194.89Z" fill="white"/>
<path id="Vector_6" d="M171.819 0C173.459 3.97957 175.638 10.9967 175.638 20.2631H183.683C183.683 10.1123 176.371 2.74917 171.819 0Z" fill="white"/>
<path id="Vector_7" d="M164.855 20.2631H172.899C172.899 10.5545 170.411 3.44127 168.887 0C167.363 3.44127 164.874 10.5545 164.874 20.2631H164.855Z" fill="white"/>
<path id="Vector_8" d="M165.935 0C161.383 2.74917 154.072 10.1316 154.072 20.2631H162.116C162.116 10.9775 164.315 3.96035 165.935 0Z" fill="white"/>
</g>
<defs>
<clipPath id="clip0_75_1638">
<rect width="218" height="64" fill="white"/>
</clipPath>
</defs>
</svg>
