<svg width="279" height="27" viewBox="0 0 279 27" fill="none" xmlns="http://www.w3.org/2000/svg">
<g clip-path="url(#clip0_75_1647)">
<path d="M64.9256 17.9945L49.9988 3.07538C45.8806 -1.04075 39.2052 -1.04075 35.0869 3.07538L57.4622 25.4392C59.5288 27.5047 62.8591 27.5047 64.9107 25.4392C66.9773 23.3885 66.9773 20.0451 64.9107 17.9945H64.9256Z" fill="#8D8D8D"/>
<path d="M31.3701 3.09081C29.3184 1.02532 26.6125 0 23.9216 0C21.2306 0 18.5247 1.02532 16.4582 3.07595L1.54626 17.995C-0.520301 20.0605 -0.520301 23.3891 1.54626 25.4546C2.5721 26.4799 3.92503 27 5.27795 27C6.63088 27 7.96894 26.4948 9.00965 25.4546L14.5998 19.8674C16.6663 21.9329 19.3573 22.9582 22.0631 22.9433C24.7541 22.9433 27.46 21.918 29.5265 19.8674L22.0631 12.4078L23.9216 10.5504L33.2434 19.8674C35.3099 21.9329 38.0009 22.9582 40.7068 22.9433C43.3977 22.9433 46.1036 21.918 48.1702 19.8674L31.3701 3.09081Z" fill="white"/>
<path d="M77.0276 21.7248C77.0276 24.6373 79.3915 27 82.3055 27V15.8107H91.9841V10.5355H82.3055V5.26032H94.6305V0H77.0425V21.7248H77.0276Z" fill="white"/>
<path d="M113.348 11.1148C115.028 11.1148 116.396 12.0064 116.396 13.1208H121.674C121.674 9.83685 117.972 7.16211 113.423 7.16211C108.873 7.16211 105.171 9.82199 105.171 13.1208C105.171 16.4197 107.431 17.8611 110.449 18.6635C113.408 19.4659 116.545 19.1984 116.545 21.041C116.545 22.1406 115.177 23.0471 113.497 23.0471C111.817 23.0471 110.449 22.1555 110.449 21.041H105.171C105.171 24.325 108.873 26.9998 113.423 26.9998C117.972 26.9998 121.674 24.3399 121.674 21.041C121.674 17.7422 119.414 16.3008 116.396 15.4984C113.438 14.696 110.301 14.9634 110.301 13.1208C110.301 12.0212 111.668 11.1148 113.348 11.1148Z" fill="white"/>
<path d="M141.433 7.16211C136.333 7.16211 132.2 11.2931 132.2 16.39V17.7719C132.2 22.8688 136.333 26.9998 141.433 26.9998C146.532 26.9998 150.665 22.8688 150.665 17.7719V16.39C150.665 11.2931 146.532 7.16211 141.433 7.16211ZM145.432 19.0647C145.432 21.2639 143.648 23.0322 141.463 23.0322C139.277 23.0322 137.493 21.2491 137.493 19.0647V15.0823C137.493 12.8831 139.277 11.1148 141.463 11.1148C143.648 11.1148 145.432 12.8979 145.432 15.0823V19.0647Z" fill="white"/>
<path d="M175.137 7.14767C172.595 7.14767 170.424 8.66336 169.458 10.8477C168.476 8.66336 166.306 7.14767 163.764 7.14767C161.623 7.14767 159.735 8.21757 158.619 9.88185V7.14767H153.342V26.9853H158.619V14.1466C158.619 12.4674 159.987 11.1003 161.667 11.1003C163.347 11.1003 164.715 12.4674 164.715 14.1466V26.9853H169.993V14.1466C169.993 12.4674 171.346 11.1003 173.041 11.1003C174.736 11.1003 176.089 12.4674 176.089 14.1466V26.9853H181.366V14.1466H181.307C181.352 13.894 181.366 13.6265 181.366 13.359C181.366 9.92643 178.586 7.13281 175.152 7.13281L175.137 7.14767Z" fill="white"/>
<path d="M193.216 7.16211C188.116 7.16211 183.983 11.2931 183.983 16.39V17.7719C183.983 22.8688 188.116 26.9998 193.216 26.9998C196.293 26.9998 199.014 25.4989 200.694 23.1808L196.724 20.9965C196.04 22.2149 194.747 23.0471 193.245 23.0471C191.045 23.0471 189.276 21.2639 189.276 19.0796L202.463 19.035V16.4048C202.463 11.308 198.33 7.17697 193.231 7.17697L193.216 7.16211ZM197.215 15.0823C197.215 15.0823 197.215 15.0823 197.215 15.0674H189.261C189.261 15.0674 189.261 15.0674 189.261 15.0823V15.0674C189.261 12.8831 191.045 11.1148 193.231 11.1148C195.416 11.1148 197.2 12.8831 197.2 15.0674L197.215 15.0823Z" fill="white"/>
<path d="M216.914 8.05394C215.71 7.48927 214.372 7.1475 212.959 7.1475C207.86 7.1475 203.727 11.2785 203.727 16.3753V17.7573C203.727 22.8542 207.86 26.9851 212.959 26.9851C214.877 26.9851 216.468 26.0341 216.914 24.7116V26.9851H222.192V0H216.914V8.05394ZM216.914 19.4959C216.691 21.4871 215.026 23.0473 212.974 23.0473C210.774 23.0473 209.005 21.2642 209.005 19.0798V15.0974C209.005 12.8982 210.789 11.1299 212.974 11.1299C215.026 11.1299 216.691 12.6901 216.914 14.6813V19.5256V19.4959Z" fill="white"/>
<path d="M231.425 7.16211H226.147V26.9998H231.425V7.16211Z" fill="white"/>
<path d="M228.793 0C227.336 0 226.162 1.17391 226.162 2.63016C226.162 4.08641 227.336 5.26032 228.793 5.26032C230.25 5.26032 231.425 4.08641 231.425 2.63016C231.425 1.17391 230.235 0 228.793 0Z" fill="white"/>
<path d="M102.54 7.16211H97.262V26.9998H102.54V7.16211Z" fill="white"/>
<path d="M99.8935 0C98.4365 0 97.262 1.17391 97.262 2.63016C97.262 4.08641 98.4365 5.26032 99.8935 5.26032C101.35 5.26032 102.525 4.08641 102.525 2.63016C102.525 1.17391 101.35 0 99.8935 0Z" fill="white"/>
<path d="M273.722 0V26.9851H279V5.27518C279 2.36269 276.636 0 273.722 0Z" fill="white"/>
<path d="M243.304 11.1148C245.281 11.1148 246.901 12.5562 247.214 14.4433H252.298C251.406 10.2826 247.704 7.16211 243.274 7.16211C238.174 7.16211 234.041 11.2931 234.041 16.39V17.7719C234.041 22.8688 238.174 26.9998 243.274 26.9998C247.704 26.9998 251.406 23.8792 252.298 19.7185H247.214C246.901 21.6057 245.281 23.0471 243.304 23.0471C241.103 23.0471 239.334 21.2639 239.334 19.0796V15.0972C239.334 12.8979 241.118 11.1296 243.304 11.1296V11.1148Z" fill="white"/>
<path d="M262.468 7.1633C258.632 7.1633 255.391 9.65972 254.276 13.1369H260.163C260.55 11.9778 261.635 11.116 262.929 11.116C264.519 11.116 265.813 12.4088 265.813 13.9987V14.4445H262.943C259.806 14.4445 253.83 15.4253 253.83 20.0615C253.83 23.8804 256.937 26.9861 260.758 26.9861C262.75 26.9861 264.534 26.1539 265.798 24.8017V26.9861H271.076V15.7819C271.076 12.0818 269.738 7.14844 262.438 7.14844L262.468 7.1633ZM265.813 20.0169C265.813 21.6069 264.519 22.9145 262.914 22.9145C261.308 22.9145 260.015 21.6217 260.015 20.0169C260.015 18.0257 262.453 17.5056 264.207 17.5056H265.798V20.0169H265.813Z" fill="white"/>
<path d="M129.569 7.16211H124.291V26.9998H129.569V7.16211Z" fill="white"/>
<path d="M126.937 0C125.48 0 124.306 1.17391 124.306 2.63016C124.306 4.08641 125.48 5.26032 126.937 5.26032C128.394 5.26032 129.569 4.08641 129.569 2.63016C129.569 1.17391 128.394 0 126.937 0Z" fill="white"/>
</g>
<defs>
<clipPath id="clip0_75_1647">
<rect width="279" height="27" fill="white"/>
</clipPath>
</defs>
</svg>
