<svg width="199" height="58" viewBox="0 0 199 58" fill="none" xmlns="http://www.w3.org/2000/svg">
<g id="lucar" clip-path="url(#clip0_75_1695)">
<g id="Group">
<path id="Vector" d="M57.74 0H0V57.74H57.74V0Z" fill="white"/>
<path id="Vector_2" d="M28.87 15.7598C18.24 15.7598 9.62 21.6298 9.62 28.8698C9.62 36.1098 18.24 41.9798 28.87 41.9798C39.5 41.9798 48.11 36.1098 48.11 28.8698C48.11 21.6298 39.49 15.7598 28.87 15.7598ZM28.87 36.2298C27.27 36.2298 25.96 33.0298 25.88 28.7398C26.84 28.8198 27.84 28.8698 28.87 28.8698C29.9 28.8698 30.9 28.8198 31.86 28.7398C31.78 33.0298 30.47 36.2298 28.87 36.2298ZM16.87 21.1998C17.48 19.0998 22.25 17.5298 27.82 17.3498C26.14 18.3198 24.81 21.5498 24.34 25.6498C19.43 24.9498 16.3 23.1498 16.87 21.1998ZM28.87 25.9498C27.88 25.9498 26.92 25.9098 26.01 25.8298C26.39 22.5198 27.53 20.3898 28.87 20.3898C30.21 20.3898 31.35 22.5198 31.73 25.8298C30.82 25.9098 29.86 25.9498 28.87 25.9498ZM29.92 17.3498C35.49 17.5298 40.26 19.0998 40.87 21.1998C41.44 23.1498 38.31 24.9498 33.4 25.6498C32.94 21.5498 31.6 18.3198 29.92 17.3498ZM12.42 28.5198C12.42 26.4298 13.16 24.4698 14.46 22.7598C14.49 25.3798 18.39 27.7098 24.17 28.5398C24.17 28.6298 24.17 28.7198 24.17 28.8098C24.17 34.7598 25.94 39.6798 28.23 40.4598C19.44 40.2098 12.43 34.9698 12.43 28.5198H12.42ZM29.51 40.4598C31.8 39.6798 33.57 34.7598 33.57 28.8098C33.57 28.7198 33.57 28.6298 33.57 28.5398C39.35 27.7098 43.25 25.3798 43.28 22.7598C44.58 24.4698 45.31 26.4298 45.31 28.5198C45.31 34.9598 38.29 40.2098 29.51 40.4598Z" fill="#1D1D1B"/>
</g>
<g id="Group_2">
<path id="Vector_3" d="M169 40.8996H174.23L164.03 16.8496H158.8L148.6 40.8996H153.82L155.86 36.0896H166.95L168.99 40.8996H169ZM157.92 31.2696L161.42 23.0096L164.92 31.2696H157.91H157.92Z" fill="white"/>
<path id="Vector_4" d="M141.57 33.1798C140.25 34.9298 138.18 36.0798 135.82 36.0798C131.84 36.0798 128.61 32.8498 128.61 28.8698C128.61 24.8898 131.84 21.6598 135.82 21.6598C138.18 21.6598 140.26 22.8098 141.57 24.5598L145.43 21.6598C143.24 18.7398 139.75 16.8398 135.82 16.8398C129.18 16.8398 123.79 22.2198 123.79 28.8698C123.79 35.5198 129.17 40.8998 135.82 40.8998C139.75 40.8998 143.23 38.9998 145.43 36.0798L141.57 33.1798Z" fill="white"/>
<path id="Vector_5" d="M198.69 25.0098C198.69 20.4998 195.03 16.8398 190.52 16.8398H179.05V40.8898H183.86V33.1798H190.17L193.44 40.8898H198.67L194.86 31.9098C197.16 30.4598 198.69 27.9198 198.69 25.0098ZM183.86 21.6498H190.52C192.38 21.6498 193.88 23.1498 193.88 25.0098C193.88 26.8698 192.38 28.3698 190.52 28.3698H183.86V21.6498Z" fill="white"/>
<path id="Vector_6" d="M118.98 30.1798V16.8398H114.17V30.1798C114.17 33.4398 111.53 36.0798 108.27 36.0798C105.01 36.0798 102.37 33.4398 102.37 30.1798V16.8398H97.56V30.1798C97.56 36.0998 102.36 40.8898 108.27 40.8898C114.18 40.8898 118.98 36.0898 118.98 30.1798Z" fill="white"/>
<path id="Vector_7" d="M81.79 36.0898V16.8398H79.39H76.98V40.8898V40.8998H92.74V38.4898V36.0898H81.79Z" fill="white"/>
</g>
</g>
<defs>
<clipPath id="clip0_75_1695">
<rect width="198.69" height="57.74" fill="white"/>
</clipPath>
</defs>
</svg>
