<svg width="96" height="90" viewBox="0 0 96 90" fill="none" xmlns="http://www.w3.org/2000/svg">
<g id="marameo" clip-path="url(#clip0_75_1705)">
<path id="Vector" d="M27.4999 30.7096C23.1899 37.3996 25.2999 73.3196 27.4999 82.6696C29.6999 92.0196 85.3299 89.6796 88.3899 86.6596C95.0599 80.1096 95.1799 34.6296 90.6399 28.4396C86.1599 22.3396 31.8099 24.0096 27.4999 30.7096Z" fill="white"/>
<g id="Group">
<path id="Vector_2" d="M14.55 60.1504C9.54999 60.1504 5.48999 65.2404 5.48999 71.4904C5.48999 77.7404 9.54999 82.8304 14.55 82.8304C19.55 82.8304 23.61 77.7404 23.61 71.4904C23.61 65.2404 19.55 60.1504 14.55 60.1504ZM19.49 71.4904C19.49 77.1904 17.23 82.0104 14.55 82.0104C11.87 82.0104 9.60999 77.1904 9.60999 71.4904C9.60999 65.7904 11.87 60.9804 14.55 60.9804C17.23 60.9804 19.49 65.7904 19.49 71.4904ZM6.31999 71.4904C6.31999 67.0104 8.52999 63.1804 11.63 61.6704C9.91999 63.6104 8.77999 67.2404 8.77999 71.4904C8.77999 75.7404 9.90999 79.3604 11.63 81.3104C8.52999 79.8004 6.31999 75.9704 6.31999 71.4904ZM17.47 81.3104C19.18 79.3604 20.32 75.7404 20.32 71.4904C20.32 67.2404 19.19 63.6204 17.47 61.6704C20.57 63.1804 22.78 67.0104 22.78 71.4904C22.78 75.9704 20.57 79.8004 17.47 81.3104Z" fill="white"/>
<path id="Vector_3" d="M27.4399 21.8298H25.3699L21.6699 0.349766C21.6699 0.349766 21.6599 0.319766 21.6499 0.299766C21.6499 0.269766 21.6299 0.249766 21.6199 0.219766C21.5999 0.189766 21.5799 0.169766 21.5599 0.139766C21.5499 0.129766 21.5399 0.109766 21.5199 0.0997656C21.4899 0.0797656 21.4599 0.0597656 21.4199 0.0397656C21.4099 0.0397656 21.3999 0.0297656 21.3899 0.0197656C21.3899 0.0197656 21.3899 0.0197656 21.3799 0.0197656C21.3499 0.0197656 21.3199 0.00976562 21.2899 0.00976562C21.2599 0.00976562 21.2399 0.00976562 21.2199 0.00976562H21.1999C21.1799 0.00976562 21.1599 0.0297656 21.1399 0.0297656C21.1199 0.0297656 21.0899 0.0397656 21.0699 0.0597656C21.0399 0.0697656 21.0199 0.0897656 20.9999 0.109766C20.9799 0.129766 20.9599 0.139766 20.9499 0.159766C20.9299 0.179766 20.9199 0.209766 20.8999 0.239766C20.8999 0.259766 20.8799 0.269766 20.8699 0.289766L15.2899 16.4398L11.4699 0.319766C11.4699 0.319766 11.4599 0.289766 11.4499 0.279766C11.4499 0.259766 11.4299 0.229766 11.4199 0.209766C11.4099 0.179766 11.3899 0.159766 11.3699 0.139766C11.3499 0.119766 11.3399 0.109766 11.3199 0.0897656C11.2899 0.0697656 11.2699 0.0597656 11.2399 0.0397656C11.2299 0.0397656 11.2199 0.0197656 11.2099 0.0197656C11.2099 0.0197656 11.1899 0.0197656 11.1799 0.0197656C11.1499 0.0197656 11.1199 0.00976562 11.0899 0.00976562C11.0699 0.00976562 11.0399 0.00976562 11.0199 0.00976562C11.0099 0.00976562 10.9899 0.00976562 10.9799 0.00976562C10.9599 0.00976562 10.9499 0.0297656 10.9299 0.0297656C10.9099 0.0297656 10.8899 0.0497656 10.8699 0.0597656C10.8399 0.0797656 10.8199 0.0897656 10.7899 0.119766C10.7699 0.129766 10.7599 0.149766 10.7499 0.169766C10.7299 0.199766 10.7199 0.219766 10.6999 0.249766C10.6999 0.259766 10.6799 0.269766 10.6799 0.279766L3.22994 21.8298H1.09994C0.869941 21.8298 0.689941 22.0198 0.689941 22.2398C0.689941 22.4598 0.879941 22.6498 1.09994 22.6498H5.93994C6.16994 22.6498 6.34994 22.4598 6.34994 22.2398C6.34994 22.0198 6.15994 21.8298 5.93994 21.8298H4.09994L9.47994 6.26977L13.3199 22.3398C13.3199 22.3398 13.3199 22.3498 13.3299 22.3598C13.3499 22.4398 13.3999 22.5098 13.4599 22.5598C13.4599 22.5598 13.4799 22.5598 13.4899 22.5798C13.5199 22.5998 13.5499 22.6198 13.5899 22.6398C13.6299 22.6598 13.6799 22.6598 13.7299 22.6598C13.7599 22.6598 13.7899 22.6598 13.8299 22.6498C13.8799 22.6398 13.9199 22.6198 13.9599 22.5898C13.9599 22.5898 13.9699 22.5898 13.9799 22.5898C14.0399 22.5398 14.0899 22.4798 14.1199 22.4098C14.1199 22.4098 14.1299 22.3998 14.1399 22.3898L21.1299 2.07977L24.5299 21.8298H22.5999C22.3699 21.8298 22.1899 22.0198 22.1899 22.2398C22.1899 22.4598 22.3799 22.6498 22.5999 22.6498H27.4399C27.6699 22.6498 27.8499 22.4598 27.8499 22.2398C27.8499 22.0198 27.6599 21.8298 27.4399 21.8298ZM10.9899 1.90977L14.7899 17.8998L13.7999 20.7698L9.98994 4.81977L10.9999 1.90977H10.9899Z" fill="white"/>
<path id="Vector_4" d="M33.97 22.6597C34.2 22.6597 34.38 22.4697 34.38 22.2497C34.38 22.0297 34.19 21.8397 33.97 21.8397H32.18L34.56 16.1997H44.12L46.36 21.8397H44.55C44.32 21.8397 44.14 22.0297 44.14 22.2497C44.14 22.4697 44.33 22.6597 44.55 22.6597H52.13C52.36 22.6597 52.54 22.4697 52.54 22.2497C52.54 22.0297 52.35 21.8397 52.13 21.8397H49.99L41.15 0.259713C41.15 0.259713 41.15 0.259713 41.14 0.239713C41.12 0.199713 41.09 0.159713 41.06 0.119713C41.03 0.0797129 40.98 0.0597129 40.94 0.0397129C40.94 0.0397129 40.94 0.0397129 40.93 0.0397129C40.83 -0.000287093 40.72 -0.0102871 40.61 0.0397129C40.57 0.0597129 40.54 0.0797129 40.51 0.109713C40.5 0.109713 40.49 0.119713 40.48 0.129713C40.44 0.169713 40.41 0.209713 40.39 0.259713L33.91 15.6097L31.29 21.8197H29.15C28.92 21.8197 28.74 22.0097 28.74 22.2297C28.74 22.4497 28.93 22.6397 29.15 22.6397H33.99L33.97 22.6597ZM34.91 15.3597L39.48 4.53971L43.79 15.3597H34.91ZM39.94 3.44971L40.76 1.49971L49.1 21.8297H47.25L39.94 3.44971Z" fill="white"/>
<path id="Vector_5" d="M95.1899 21.8297H93.0499L84.2099 0.259713C84.2099 0.259713 84.2099 0.259713 84.1999 0.239713C84.1799 0.199713 84.1499 0.159713 84.1199 0.119713C84.0899 0.0797129 84.0399 0.0597129 83.9999 0.0397129C83.9999 0.0397129 83.9999 0.0397129 83.9899 0.0397129C83.8899 -0.000287093 83.7799 -0.0102871 83.6699 0.0397129C83.6399 0.0497129 83.6199 0.0697129 83.5899 0.0897129C83.5699 0.0997129 83.5499 0.109713 83.5299 0.129713C83.4899 0.169713 83.4599 0.209713 83.4399 0.259713L82.1599 3.27971L76.9499 15.6097L74.3299 21.8197H72.1899C71.9599 21.8197 71.7799 22.0097 71.7799 22.2297C71.7799 22.4497 71.9699 22.6397 72.1899 22.6397H77.0299C77.2599 22.6397 77.4399 22.4497 77.4399 22.2297C77.4399 22.0097 77.2499 21.8197 77.0299 21.8197H75.2399L77.6199 16.1797H87.1799L89.4199 21.8197H87.6099C87.3799 21.8197 87.1999 22.0097 87.1999 22.2297C87.1999 22.4497 87.3899 22.6397 87.6099 22.6397H95.1899C95.4199 22.6397 95.5999 22.4497 95.5999 22.2297C95.5999 22.0097 95.4099 21.8197 95.1899 21.8197V21.8297ZM77.9699 15.3597L82.5399 4.53971L86.8499 15.3597H77.9699ZM87.8399 15.6197L82.9999 3.45971L83.8199 1.50971L92.1599 21.8397H90.3099L87.8399 15.6297V15.6197Z" fill="white"/>
<path id="Vector_6" d="M53.8299 22.66H58.6699C58.8999 22.66 59.0799 22.47 59.0799 22.25C59.0799 22.03 58.8899 21.84 58.6699 21.84H56.6699V11.88H63.6799C64.1699 12.4 64.9199 13.64 64.9199 16.38C64.9199 19.49 65.2999 22.67 68.1499 22.67H70.5199C70.7499 22.67 70.9299 22.48 70.9299 22.26C70.9299 22.04 70.7399 21.85 70.5199 21.85C69.2799 21.85 68.1199 21.19 68.1199 16.39C68.1199 13.32 67.2299 11.88 66.5799 11.24C68.5299 10.26 69.8799 8.27 69.8799 5.95C69.8599 2.67 67.1999 0 63.9199 0H56.2699C56.2699 0 56.2499 0 56.2399 0C56.0099 0 55.8299 0.19 55.8299 0.41V21.83H53.8299C53.5999 21.83 53.4199 22.02 53.4199 22.24C53.4199 22.46 53.6099 22.65 53.8299 22.65V22.66ZM67.2699 16.37C67.2699 18.51 67.4499 20.68 68.4899 21.83H68.1299C66.8899 21.83 65.7299 21.17 65.7299 16.37C65.7299 14.02 65.2199 12.63 64.6599 11.79C65.0099 11.75 65.3499 11.67 65.6899 11.57C66.0299 11.79 67.2699 12.84 67.2699 16.37ZM69.0299 5.94C69.0299 8.75 66.7399 11.04 63.9299 11.04H56.6699V0.84H63.9299C66.7399 0.84 69.0299 3.13 69.0299 5.94Z" fill="white"/>
<path id="Vector_7" d="M8.86992 51.9205H7.19992C6.96992 51.9205 6.78992 52.1105 6.78992 52.3305C6.78992 52.5505 6.97992 52.7405 7.19992 52.7405H21.9099C22.1399 52.7405 22.3199 52.5505 22.3199 52.3305V46.3205C22.3199 46.0905 22.1299 45.9105 21.9099 45.9105C21.6899 45.9105 21.4999 46.1005 21.4999 46.3205V46.3505C21.4999 46.3505 21.4799 46.4005 21.4799 46.4305C21.4799 49.4505 19.0199 51.9105 15.9999 51.9105H9.69992V41.8105H15.5799V44.5505C15.5799 44.7805 15.7699 44.9605 15.9899 44.9605C16.2099 44.9605 16.3999 44.7705 16.3999 44.5505V38.2405C16.3999 38.0105 16.2099 37.8305 15.9899 37.8305C15.7699 37.8305 15.5799 38.0205 15.5799 38.2405V40.9805H9.69992V30.8805H15.9999C19.0199 30.8805 21.4799 33.3405 21.4799 36.3605C21.4799 36.4805 21.5299 36.5905 21.6099 36.6605C21.6899 36.7405 21.7899 36.7905 21.9099 36.7905C22.1399 36.7905 22.3199 36.6005 22.3199 36.3805V30.4705C22.3199 30.2405 22.1299 30.0605 21.9099 30.0605H7.19992C6.96992 30.0605 6.78992 30.2505 6.78992 30.4705C6.78992 30.6905 6.97992 30.8805 7.19992 30.8805H8.86992V51.9105V51.9205ZM21.4899 49.5305V51.9205H19.1099C20.0999 51.3505 20.9299 50.5205 21.4899 49.5305ZM21.4899 30.8905V33.2805C20.9299 32.2805 20.0999 31.4505 19.1099 30.8905H21.4899Z" fill="white"/>
</g>
<g id="Group_2">
<path id="Vector_8" d="M49.0398 34.8401C49.3198 34.9601 49.6498 34.8401 49.7698 34.5501C49.8298 34.4101 51.2498 31.0901 49.3298 29.4501C48.3198 28.5801 46.6798 28.2401 44.9398 28.5501C42.8398 28.9301 38.7598 30.5801 34.9598 37.4301C31.3698 43.9101 32.5098 47.9301 34.7698 49.5201C35.5698 50.0901 36.6198 50.4201 37.8298 50.4201C40.2498 50.4201 43.2998 49.1001 46.2698 45.7401C47.5498 44.2901 47.5498 43.2401 47.3198 42.6101C47.0698 41.9001 46.4298 41.4201 45.5498 41.2701C44.3298 41.0701 43.0298 41.5901 42.2398 42.6001C41.3298 43.7601 41.1398 45.2101 41.7798 46.1301C41.9798 46.4101 42.4698 46.9301 43.4298 46.9401C40.2498 49.5301 37.1298 49.8401 35.4098 48.6201C33.0598 46.9601 33.2598 42.7801 35.9298 37.9601C39.4998 31.5101 43.2298 29.9801 45.1298 29.6401C46.5398 29.3901 47.8298 29.6401 48.5998 30.2901C49.6698 31.2101 49.0698 33.3601 48.7398 34.1101C48.6198 34.3901 48.7398 34.7201 49.0298 34.8401H49.0398ZM42.6998 45.4901C42.3998 45.0601 42.4498 44.1401 43.1198 43.2801C43.6498 42.6101 44.4198 42.3401 45.0598 42.3401C45.1698 42.3401 45.2798 42.3401 45.3798 42.3701C45.8398 42.4501 46.1698 42.6701 46.2798 42.9801C46.3898 43.3001 46.2998 43.7301 46.0198 44.2101C45.9698 44.2501 45.9198 44.3001 45.8798 44.3501C45.1998 45.3601 44.2898 45.6801 44.2798 45.6801C43.8398 45.8301 43.0398 45.9901 42.6898 45.4901H42.6998Z" fill="#898989"/>
<path id="Vector_9" d="M51.6899 75.7902H51.7099C52.0099 75.7902 52.2499 75.5602 52.2599 75.2602C52.2699 74.9502 52.0299 74.7002 51.7299 74.6902C43.1499 74.3602 36.8999 70.3602 33.1499 62.8002C30.3299 57.1102 30.0599 51.4202 30.0599 51.3702C30.0499 51.0602 29.7999 50.7802 29.4799 50.8402C29.1699 50.8502 28.9399 51.1102 28.9499 51.4102C28.9499 51.6502 30.1699 74.9702 51.6799 75.8002L51.6899 75.7902Z" fill="#898989"/>
<path id="Vector_10" d="M88.9799 58.8403C88.8999 58.8403 88.8099 58.8803 88.7199 58.9003V30.6203C88.7199 30.3103 88.4699 30.0703 88.1699 30.0703H54.9399C54.6299 30.0703 54.3899 30.3203 54.3899 30.6203C54.3899 30.9203 54.6399 31.1703 54.9399 31.1703H87.6099V59.4103C85.5099 60.7503 82.6599 64.1703 80.5999 66.8703C80.6699 66.3903 80.6699 65.9203 80.5699 65.5103C80.4399 64.9803 80.1299 64.5603 79.6899 64.3003C79.2599 64.0503 78.7599 64.0003 78.2699 64.1603C77.8099 64.3103 77.3699 64.6403 76.9499 65.0603C77.0099 64.4703 76.9899 63.9003 76.8299 63.4203C76.6499 62.8703 76.3099 62.4803 75.8299 62.2403C75.3699 62.0103 74.8599 62.0003 74.3599 62.2003C73.6299 62.5003 72.9699 63.2503 72.4199 64.1003C73.0399 60.1803 73.9999 54.1703 74.4399 51.4303C74.7699 49.4103 73.7999 48.1603 72.6799 47.9703C71.5799 47.7703 70.2499 48.6203 69.8299 50.9203C69.1799 54.5203 67.6199 62.7503 67.1299 65.3603C63.1099 62.8303 59.9799 61.9703 57.7999 62.8103C56.0199 63.5003 55.5999 65.0703 55.5899 65.1403C55.5499 65.2903 55.5799 65.4403 55.6599 65.5703C55.7399 65.7003 55.8699 65.7903 56.0199 65.8203C67.3399 68.0903 67.3899 79.4603 67.2599 82.0303L30.9799 82.0103V69.1403C30.9799 68.8303 30.7299 68.5903 30.4299 68.5903C30.1299 68.5903 29.8799 68.8403 29.8799 69.1403V82.5603C29.8799 82.8703 30.1299 83.1103 30.4299 83.1103L67.7799 83.1303C67.8499 83.1303 67.9199 83.1103 67.9899 83.0903C68.0099 83.0903 68.0299 83.0603 68.0499 83.0503C68.0899 83.0303 68.1299 83.0103 68.1599 82.9803C68.1799 82.9603 68.1899 82.9403 68.2099 82.9103C68.2299 82.8803 68.2599 82.8503 68.2799 82.8103C68.2899 82.7803 68.2999 82.7503 68.3099 82.7203C68.3099 82.6903 68.3299 82.6603 68.3399 82.6303C68.3599 82.4803 69.6999 67.9403 56.9299 64.8703C57.1499 64.5303 57.5399 64.0903 58.2199 63.8303C59.5599 63.3103 62.2099 63.3903 67.2399 66.7203C67.3899 66.8203 67.5899 66.8403 67.7599 66.7703C67.9299 66.7003 68.0499 66.5503 68.0899 66.3603C68.0899 66.3603 70.1599 55.4103 70.9399 51.1003C71.2199 49.5503 71.9499 48.9503 72.5199 49.0503C73.0899 49.1503 73.5799 49.9503 73.3799 51.2403C72.6899 55.4903 70.7799 67.6003 70.7799 67.6003C70.7399 67.8803 70.9099 68.1503 71.1899 68.2203C71.4599 68.2903 71.7499 68.1403 71.8499 67.8703C72.3999 66.3103 73.6999 63.6603 74.8199 63.2003C75.0299 63.1103 75.1999 63.1203 75.3899 63.2003C75.5999 63.3003 75.7399 63.4703 75.8299 63.7303C76.1899 64.8103 75.4799 66.8603 74.9199 68.1303C74.7199 68.5303 74.5899 68.8303 74.5399 68.9303C74.4199 69.2003 74.5399 69.5203 74.8099 69.6503C75.0799 69.7803 75.3999 69.6703 75.5399 69.4003C75.5899 69.3003 75.7499 68.9903 75.9399 68.5503C76.6499 67.1603 77.7599 65.4603 78.6499 65.1603C78.8399 65.1003 78.9999 65.1103 79.1699 65.2103C79.3599 65.3203 79.4699 65.4903 79.5399 65.7303C79.8599 67.0103 78.5599 69.5503 78.0299 70.4203C77.8699 70.6803 77.9499 71.0103 78.1999 71.1703C78.4499 71.3303 78.7899 71.2703 78.9599 71.0203C81.8499 66.8303 87.1699 60.1103 89.1399 59.9003C89.3099 59.8803 89.3699 59.9303 89.3999 59.9603C90.0799 60.6003 89.4599 61.4503 87.3399 63.9103C84.5399 67.1603 79.8699 72.6003 76.8799 82.3603C76.8799 82.3903 76.8799 82.4203 76.8799 82.4403C76.8799 82.4703 76.8599 82.4903 76.8599 82.5203C76.8599 82.5203 76.8599 82.5403 76.8599 82.5503C76.8599 82.5903 76.8699 82.6303 76.8799 82.6603C76.8799 82.6903 76.8899 82.7303 76.9099 82.7603C76.9299 82.7903 76.9499 82.8203 76.9699 82.8503C76.9899 82.8803 77.0099 82.9103 77.0399 82.9303C77.0699 82.9503 77.0999 82.9703 77.1199 82.9903C77.1499 83.0103 77.1799 83.0303 77.2199 83.0403C77.2199 83.0403 77.2399 83.0503 77.2499 83.0503C77.2799 83.0503 77.3099 83.0503 77.3299 83.0503C77.3599 83.0503 77.3799 83.0703 77.4099 83.0703H88.1999C88.5099 83.0703 88.7499 82.8203 88.7499 82.5203V63.9503C90.5099 61.8803 91.5199 60.4303 90.1499 59.1503C89.9399 58.9603 89.5799 58.7403 89.0199 58.7903L88.9799 58.8403ZM87.6099 82.0103H78.1399C80.8799 73.5103 84.9199 68.4503 87.6099 65.2903V82.0103Z" fill="#898989"/>
<path id="Vector_11" d="M46.4699 69.5095C46.4699 69.5095 46.5699 69.5095 46.6199 69.4895L53.5099 67.6095C53.7899 67.5295 53.9599 67.2595 53.9099 66.9795L50.6099 48.3795C50.5599 48.0795 50.2599 47.8795 49.9699 47.9295C49.6699 47.9795 49.4699 48.2695 49.5199 48.5695L52.7299 66.6695L46.3199 68.4195C46.0299 68.4995 45.8499 68.7995 45.9299 69.0995C45.9999 69.3495 46.2199 69.5095 46.4599 69.5095H46.4699Z" fill="#898989"/>
</g>
</g>
<defs>
<clipPath id="clip0_75_1705">
<rect width="94.92" height="89.32" fill="white" transform="translate(0.689941)"/>
</clipPath>
</defs>
</svg>
