<svg width="300" height="72" viewBox="0 0 300 72" fill="none" xmlns="http://www.w3.org/2000/svg">
<g clip-path="url(#clip0_75_1475)">
<path d="M0.580078 71.11H7.69008H43.2401L36.1301 64H7.69008V7.11H64.5801V28.44H71.6901V0H0.580078V71.11Z" fill="white"/>
<path d="M55.7501 54.4308L36.1301 35.5508L53.9101 63.9908H57.4701L64.5801 54.5108V71.1108H71.6901V42.6608H64.5801L55.7501 54.4308Z" fill="white"/>
<path d="M173.01 42.6602H165.9V71.1002H173.01V42.6602Z" fill="white"/>
<path d="M211.93 42.6702V71.1102H233.27V64.0002H219.04V60.4402H229.71V53.3302H219.04V49.7802H233.27V42.6702L211.93 42.6602V42.6702Z" fill="white"/>
<path d="M245.71 42.6699H238.6V71.1199H259.93V64.0099H245.71V42.6699Z" fill="white"/>
<path d="M299.04 42.6602H291.93V71.1002H299.04V42.6602Z" fill="white"/>
<path d="M135.68 49.7802H144.82V71.1102H151.93V49.7802H160.57V42.6602H135.68V49.7802Z" fill="white"/>
<path d="M199.49 59.7302L188.82 42.6602H180.12V71.1102H187.23V53.5402L198.21 71.1102H206.6V42.6602H199.49V59.7302Z" fill="white"/>
<path d="M272.37 42.6699H265.26V71.1199H286.6V64.0099H272.37V42.6699Z" fill="white"/>
<path d="M132.12 53.3299C132.12 47.4499 127.34 42.6699 121.45 42.6699H107.23V71.1099H114.34V63.9999H119.29L123.74 71.1099H132.13L126.77 62.5299C129.96 60.6799 132.13 57.2799 132.13 53.3299H132.12ZM121.46 56.8899H114.35V49.7799H121.46C123.42 49.7799 125.02 51.3699 125.02 53.3399C125.02 55.3099 123.42 56.8999 121.46 56.8999V56.8899Z" fill="white"/>
<path d="M85.3201 42.6699L75.2401 71.1199H82.7901L84.0501 67.5499H94.8801L96.1401 71.1099H103.68L93.6001 42.6699H85.3301H85.3201ZM86.5701 60.4399L89.4601 52.2799L92.3501 60.4399H86.5601H86.5701Z" fill="white"/>
</g>
<defs>
<clipPath id="clip0_75_1475">
<rect width="298.46" height="71.12" fill="white" transform="translate(0.580078)"/>
</clipPath>
</defs>
</svg>
