<svg width="139" height="84" viewBox="0 0 139 84" fill="none" xmlns="http://www.w3.org/2000/svg">
<g id="menici" clip-path="url(#clip0_75_1719)">
<path id="Vector" d="M15.1396 64.6117H17.5612V84H15.1396V70.029L10.4389 79.4381H7.73236L3.03159 70.029V84H0.609985V64.6117H3.03159L9.0777 76.7294L15.1238 64.6117H15.1396ZM70.8208 79.5489L61.1344 64.6117H58.7127V84H61.1344V69.0628L70.8208 84H73.2424V64.6117H70.8208V79.5489ZM32.0751 84H44.1831V81.5765H34.4967V75.5256H42.9644V73.102H34.4967V67.0511H44.1831V64.6276H32.0751V84.0158V84ZM87.772 84H90.1936V64.6117H87.772V84ZM136.188 64.6117V84H138.61V64.6117H136.188ZM113.191 67.0353C118.193 67.0353 119.237 69.6647 119.237 71.8665H121.659C121.659 67.3204 118.493 64.6117 113.191 64.6117C107.889 64.6117 104.723 68.3183 104.723 74.3059C104.723 80.2934 107.968 84 113.191 84C118.414 84 121.659 81.2914 121.659 76.7452H119.237C119.237 78.947 118.193 81.5765 113.191 81.5765C111.371 81.5765 107.145 80.8637 107.145 74.3059C107.145 67.7481 111.371 67.0353 113.191 67.0353ZM48.1241 10.2644C48.045 9.17141 48.4882 8.14181 49.3112 7.44484C54.9616 2.6453 62.179 0 69.6021 0C77.0252 0 84.2267 2.6453 89.8929 7.44484C90.7318 8.15765 91.1591 9.18725 91.08 10.2802C91.0009 11.3732 90.4152 12.3553 89.4814 12.9414C80.4123 18.6596 74.1129 27.5776 71.7863 38.0637C71.1532 40.9308 70.8208 43.8612 70.8208 46.7758H68.3992C68.3992 43.8612 68.0826 40.9308 67.4337 38.0637C65.1071 27.5776 58.8235 18.6596 49.7386 12.9414C48.8047 12.3553 48.2191 11.3732 48.14 10.2802L48.1241 10.2644ZM50.5458 10.106C50.5616 10.4228 50.7357 10.7079 51.0206 10.8821C60.4221 16.7905 66.9905 25.9461 69.6021 36.7015C72.2294 25.9302 78.7979 16.7905 88.1836 10.8821C88.4685 10.7079 88.6426 10.4228 88.6584 10.106C88.6584 9.9159 88.6584 9.58326 88.3102 9.29813C83.0871 4.86291 76.4396 2.42353 69.5863 2.42353C62.7329 2.42353 56.0854 4.86291 50.8623 9.29813C50.5299 9.58326 50.5141 9.9159 50.5141 10.106H50.5458ZM99.7535 22.6513C100.023 23.5701 99.8643 24.568 99.3419 25.3758C98.8038 26.2154 97.9175 26.7698 96.9362 26.9123H96.8254C85.5879 28.5914 77.5158 38.7607 78.4496 50.0705H76.0122C74.6827 36.5114 81.4252 23.3641 93.2167 16.5054C94.0397 16.0302 95.021 15.9193 95.9232 16.2044C96.8254 16.4895 97.5693 17.139 97.965 17.9785C98.6772 19.4833 99.2628 21.0515 99.7218 22.6355L99.7535 22.6513ZM97.4268 23.3325C96.9995 21.8593 96.4613 20.4179 95.7966 19.0398C95.6383 18.723 95.3692 18.5963 95.2268 18.5487C95.1318 18.5171 95.0369 18.5012 94.9261 18.5012C94.752 18.5012 94.5937 18.5487 94.4513 18.6279C88.4368 22.1286 83.831 27.3875 81.0928 33.5018C84.7648 28.8131 90.1778 25.4709 96.4772 24.5521H96.588C96.8887 24.4888 97.1578 24.3304 97.316 24.0769C97.3952 23.9502 97.5218 23.6809 97.4268 23.3483V23.3325ZM42.3946 26.9282H42.2838C41.3025 26.7698 40.4162 26.2154 39.878 25.3758C39.3557 24.568 39.2133 23.5701 39.4665 22.6513C39.9255 21.0515 40.5269 19.4833 41.2234 17.9785C41.619 17.139 42.3629 16.4895 43.2651 16.2044C44.1673 15.9193 45.1644 16.0302 45.9716 16.5054C57.7789 23.3483 64.5214 36.5114 63.1761 50.0705H60.7387C61.6725 38.7607 53.6005 28.5914 42.3629 26.9282H42.3946ZM58.143 33.5176C55.4206 27.3875 50.799 22.1128 44.7687 18.6121C44.6263 18.5329 44.4522 18.4854 44.2939 18.4854C44.1989 18.4854 44.104 18.4854 43.9932 18.5329C43.8507 18.5804 43.5658 18.7071 43.4234 19.024C42.7745 20.402 42.2205 21.8593 41.7931 23.3325C41.6982 23.6651 41.8248 23.9344 41.9039 24.0611C42.0622 24.3145 42.3313 24.4729 42.6162 24.5205H42.7428C49.058 25.4709 54.471 28.8131 58.143 33.5176Z" fill="white"/>
</g>
<defs>
<clipPath id="clip0_75_1719">
<rect width="138" height="84" fill="white" transform="translate(0.609985)"/>
</clipPath>
</defs>
</svg>
