<svg width="194" height="53" viewBox="0 0 194 53" fill="none" xmlns="http://www.w3.org/2000/svg">
<g id="mevas" clip-path="url(#clip0_75_1721)">
<path id="Vector" d="M160.787 13.6973C157.339 13.6973 154.174 15.445 152.349 18.412C152.065 18.8997 152.186 19.5094 152.673 19.8345C153.16 20.119 153.769 19.9971 154.093 19.5094C155.554 17.152 158.069 15.7701 160.828 15.7701C165.169 15.7701 168.74 19.3062 168.74 23.6957V25.5247H154.458C152.511 25.5247 150.888 27.1098 150.888 29.1014V29.3859C150.888 34.8729 155.351 39.3437 160.828 39.3437C164.033 39.3437 166.914 37.7993 168.74 35.4013V38.3276C168.74 38.8967 169.186 39.3437 169.754 39.3437C170.322 39.3437 170.768 38.8967 170.768 38.3276V23.6957C170.768 18.2088 166.305 13.7379 160.828 13.7379L160.787 13.6973ZM168.658 29.3453C168.658 33.6942 165.129 37.2709 160.747 37.2709C156.365 37.2709 152.835 33.7348 152.835 29.3453V29.0608C152.835 28.2072 153.525 27.5163 154.377 27.5163H168.658V29.3453Z" fill="white"/>
<path id="Vector_2" d="M147.115 13.7788C146.587 13.5756 146.019 13.8601 145.816 14.3885L137.864 35.4015L129.912 14.3885C129.709 13.8601 129.141 13.6162 128.614 13.7788C128.087 13.982 127.803 14.551 128.005 15.0794L136.931 38.6124C137.093 39.0188 137.459 39.2627 137.864 39.2627C138.27 39.2627 138.676 39.0188 138.797 38.6124L147.723 15.0794C147.926 14.551 147.642 13.982 147.115 13.7788Z" fill="white"/>
<path id="Vector_3" d="M114.941 13.6973C109.464 13.6973 105.001 18.1681 105.001 23.6551V28.0447C105.001 34.2226 110.032 39.2625 116.199 39.2625C119.404 39.2625 122.488 37.8806 124.597 35.4419C124.963 35.0355 124.922 34.3852 124.516 34.0194C124.111 33.6536 123.461 33.6942 123.096 34.1006C121.352 36.0922 118.836 37.2302 116.24 37.2302C111.168 37.2302 107.07 33.1252 107.07 28.0447V27.5163H121.311C123.259 27.5163 124.881 25.9312 124.881 23.9396V23.6551C124.881 18.1681 120.419 13.6973 114.941 13.6973ZM122.812 23.9396C122.812 24.7931 122.123 25.4841 121.271 25.4841H107.03V23.6551C107.03 19.3062 110.56 15.7295 114.941 15.7295C119.323 15.7295 122.853 19.2655 122.853 23.6551V23.9396H122.812Z" fill="white"/>
<path id="Vector_4" d="M90.7199 13.6973C87.4336 13.6973 84.553 15.5669 83.0924 18.2901C81.6318 15.5669 78.7512 13.6973 75.4649 13.6973C72.8277 13.6973 70.434 14.9166 68.8517 16.7862V14.7134C68.8517 14.1444 68.4054 13.6973 67.8374 13.6973C67.2694 13.6973 66.8231 14.1444 66.8231 14.7134V38.2463C66.8231 38.8154 67.2694 39.2625 67.8374 39.2625C68.4054 39.2625 68.8517 38.8154 68.8517 38.2463V22.3545C68.8517 18.6965 71.8135 15.7295 75.4649 15.7295C79.1164 15.7295 82.0781 18.6965 82.0781 22.3545V38.2463C82.0781 38.8154 82.5244 39.2625 83.0924 39.2625C83.6604 39.2625 84.1067 38.8154 84.1067 38.2463V22.3545C84.1067 18.6965 87.0684 15.7295 90.7199 15.7295C94.3714 15.7295 97.3331 18.6965 97.3331 22.3545V38.2463C97.3331 38.8154 97.7794 39.2625 98.3474 39.2625C98.9154 39.2625 99.3617 38.8154 99.3617 38.2463V22.3545C99.3617 17.5585 95.4668 13.6973 90.7199 13.6973Z" fill="white"/>
<path id="Vector_5" d="M185.171 25.5251C180.952 24.7122 178.355 24.0213 178.355 20.6478C178.355 17.9653 181.317 15.7705 184.968 15.7705C188.62 15.7705 191.581 17.9653 191.581 20.6478C191.581 21.2168 192.028 21.6639 192.596 21.6639C193.164 21.6639 193.61 21.2168 193.61 20.6478C193.61 16.8272 189.715 13.7383 184.968 13.7383C180.221 13.7383 176.326 16.8272 176.326 20.6478C176.326 25.8909 181.033 26.8257 184.806 27.5573C189.025 28.3702 191.622 29.0611 191.622 32.4346C191.622 35.1171 188.66 37.3119 185.009 37.3119C181.357 37.3119 178.396 35.1171 178.396 32.4346C178.396 31.8656 177.949 31.4185 177.381 31.4185C176.813 31.4185 176.367 31.8656 176.367 32.4346C176.367 36.2552 180.262 39.3441 185.009 39.3441C189.756 39.3441 193.651 36.2552 193.651 32.4346C193.651 27.1915 188.944 26.2567 185.171 25.5251Z" fill="white"/>
<path id="Vector_6" d="M18.0153 16.2975C18.0153 17.0698 18.6644 17.7201 19.4353 17.7201C20.2061 17.7201 20.8553 17.0698 20.8553 16.2975C20.8553 15.5253 20.2061 14.875 19.4353 14.875C18.6644 14.875 18.0153 15.5253 18.0153 16.2975Z" fill="white"/>
<path id="Vector_7" d="M23.0868 16.2975C23.0868 17.0698 23.7359 17.7201 24.5068 17.7201C25.2777 17.7201 25.9268 17.0698 25.9268 16.2975C25.9268 15.5253 25.2777 14.875 24.5068 14.875C23.7359 14.875 23.0868 15.5253 23.0868 16.2975Z" fill="white"/>
<path id="Vector_8" d="M28.1989 16.2975C28.1989 17.0698 28.848 17.7201 29.6189 17.7201C30.3897 17.7201 31.0389 17.0698 31.0389 16.2975C31.0389 15.5253 30.3897 14.875 29.6189 14.875C28.848 14.875 28.1989 15.5253 28.1989 16.2975Z" fill="white"/>
<path id="Vector_9" d="M21.9913 22.8412C22.7756 22.8412 23.4113 22.2043 23.4113 21.4186C23.4113 20.633 22.7756 19.9961 21.9913 19.9961C21.207 19.9961 20.5713 20.633 20.5713 21.4186C20.5713 22.2043 21.207 22.8412 21.9913 22.8412Z" fill="white"/>
<path id="Vector_10" d="M24.5068 27.9232C25.2777 27.9232 25.9268 27.2729 25.9268 26.5007C25.9268 25.7284 25.2777 25.0781 24.5068 25.0781C23.7359 25.0781 23.0868 25.7284 23.0868 26.5007C23.0868 27.2729 23.7359 27.9232 24.5068 27.9232Z" fill="white"/>
<path id="Vector_11" d="M27.0628 33.0443C27.8337 33.0443 28.4828 32.394 28.4828 31.6218C28.4828 30.8495 27.8337 30.1992 27.0628 30.1992C26.292 30.1992 25.6428 30.8495 25.6428 31.6218C25.6428 32.394 26.292 33.0443 27.0628 33.0443Z" fill="white"/>
<path id="Vector_12" d="M29.6189 27.9232C30.3897 27.9232 31.0389 27.2729 31.0389 26.5007C31.0389 25.7284 30.3897 25.0781 29.6189 25.0781C28.848 25.0781 28.1989 25.7284 28.1989 26.5007C28.1989 27.2729 28.848 27.9232 29.6189 27.9232Z" fill="white"/>
<path id="Vector_13" d="M32.1749 22.8412C32.9458 22.8412 33.5949 22.1909 33.5949 21.4186C33.5949 20.6464 32.9458 19.9961 32.1749 19.9961C31.404 19.9961 30.7549 20.6464 30.7549 21.4186C30.7549 22.1909 31.404 22.8412 32.1749 22.8412Z" fill="white"/>
<path id="Vector_14" d="M33.3108 16.2975C33.3108 17.0698 33.9599 17.7201 34.7308 17.7201C35.5017 17.7201 36.1508 17.0698 36.1508 16.2975C36.1508 15.5253 35.5017 14.875 34.7308 14.875C33.9599 14.875 33.3108 15.5253 33.3108 16.2975Z" fill="white"/>
<path id="Vector_15" d="M39.8023 7.51892C40.5866 7.51892 41.2223 6.88202 41.2223 6.09637C41.2223 5.31072 40.5866 4.67383 39.8023 4.67383C39.0181 4.67383 38.3823 5.31072 38.3823 6.09637C38.3823 6.88202 39.0181 7.51892 39.8023 7.51892Z" fill="white"/>
<path id="Vector_16" d="M44.9144 7.51892C45.6853 7.51892 46.3344 6.86861 46.3344 6.09637C46.3344 5.32414 45.6853 4.67383 44.9144 4.67383C44.1435 4.67383 43.4944 5.32414 43.4944 6.09637C43.4944 6.86861 44.1435 7.51892 44.9144 7.51892Z" fill="white"/>
<path id="Vector_17" d="M47.4298 9.79492C46.6589 9.79492 46.0098 10.4452 46.0098 11.2175C46.0098 11.9897 46.6589 12.64 47.4298 12.64C48.2006 12.64 48.8498 11.9897 48.8498 11.2175C48.8498 10.4452 48.2006 9.79492 47.4298 9.79492Z" fill="white"/>
<path id="Vector_18" d="M44.9144 14.875C44.1435 14.875 43.4944 15.5253 43.4944 16.2975C43.4944 17.0698 44.1435 17.7201 44.9144 17.7201C45.6853 17.7201 46.3344 17.0698 46.3344 16.2975C46.3344 15.5253 45.6853 14.875 44.9144 14.875Z" fill="white"/>
<path id="Vector_19" d="M42.3584 19.9961C41.5875 19.9961 40.9384 20.6464 40.9384 21.4186C40.9384 22.1909 41.5875 22.8412 42.3584 22.8412C43.1292 22.8412 43.7784 22.1909 43.7784 21.4186C43.7784 20.6464 43.1292 19.9961 42.3584 19.9961Z" fill="white"/>
<path id="Vector_20" d="M39.8023 25.0781C39.0315 25.0781 38.3823 25.7284 38.3823 26.5007C38.3823 27.2729 39.0315 27.9232 39.8023 27.9232C40.5732 27.9232 41.2223 27.2729 41.2223 26.5007C41.2223 25.7284 40.5732 25.0781 39.8023 25.0781Z" fill="white"/>
<path id="Vector_21" d="M37.2463 30.1992C36.4754 30.1992 35.8263 30.8495 35.8263 31.6218C35.8263 32.394 36.4754 33.0443 37.2463 33.0443C38.0172 33.0443 38.6663 32.394 38.6663 31.6218C38.6663 30.8495 38.0172 30.1992 37.2463 30.1992Z" fill="white"/>
<path id="Vector_22" d="M34.6903 35.2793C33.9194 35.2793 33.2703 35.9296 33.2703 36.7018C33.2703 37.4741 33.9194 38.1244 34.6903 38.1244C35.4611 38.1244 36.1103 37.4741 36.1103 36.7018C36.1103 35.9296 35.4611 35.2793 34.6903 35.2793Z" fill="white"/>
<path id="Vector_23" d="M32.1749 40.4004C31.404 40.4004 30.7549 41.0507 30.7549 41.8229C30.7549 42.5952 31.404 43.2455 32.1749 43.2455C32.9458 43.2455 33.5949 42.5952 33.5949 41.8229C33.5949 41.0507 32.9458 40.4004 32.1749 40.4004Z" fill="white"/>
<path id="Vector_24" d="M29.6189 45.4805C28.848 45.4805 28.1989 46.1308 28.1989 46.903C28.1989 47.6753 28.848 48.3256 29.6189 48.3256C30.3897 48.3256 31.0389 47.6753 31.0389 46.903C31.0389 46.1308 30.3897 45.4805 29.6189 45.4805Z" fill="white"/>
<path id="Vector_25" d="M24.5068 45.4805C23.7359 45.4805 23.0868 46.1308 23.0868 46.903C23.0868 47.6753 23.7359 48.3256 24.5068 48.3256C25.2777 48.3256 25.9268 47.6753 25.9268 46.903C25.9268 46.1308 25.2777 45.4805 24.5068 45.4805Z" fill="white"/>
<path id="Vector_26" d="M21.9913 40.4004C21.2204 40.4004 20.5713 41.0507 20.5713 41.8229C20.5713 42.5952 21.2204 43.2455 21.9913 43.2455C22.7622 43.2455 23.4113 42.5952 23.4113 41.8229C23.4113 41.0507 22.7622 40.4004 21.9913 40.4004Z" fill="white"/>
<path id="Vector_27" d="M19.4353 35.2793C18.6644 35.2793 18.0153 35.9296 18.0153 36.7018C18.0153 37.4741 18.6644 38.1244 19.4353 38.1244C20.2061 38.1244 20.8553 37.4741 20.8553 36.7018C20.8553 35.9296 20.2061 35.2793 19.4353 35.2793Z" fill="white"/>
<path id="Vector_28" d="M16.8792 30.1992C16.1084 30.1992 15.4592 30.8495 15.4592 31.6218C15.4592 32.394 16.1084 33.0443 16.8792 33.0443C17.6501 33.0443 18.2993 32.394 18.2993 31.6218C18.2993 30.8495 17.6501 30.1992 16.8792 30.1992Z" fill="white"/>
<path id="Vector_29" d="M14.3232 25.0781C13.5523 25.0781 12.9032 25.7284 12.9032 26.5007C12.9032 27.2729 13.5523 27.9232 14.3232 27.9232C15.0941 27.9232 15.7432 27.2729 15.7432 26.5007C15.7432 25.7284 15.0941 25.0781 14.3232 25.0781Z" fill="white"/>
<path id="Vector_30" d="M11.8078 19.9961C11.037 19.9961 10.3878 20.6464 10.3878 21.4186C10.3878 22.1909 11.037 22.8412 11.8078 22.8412C12.5787 22.8412 13.2278 22.1909 13.2278 21.4186C13.2278 20.6464 12.5787 19.9961 11.8078 19.9961Z" fill="white"/>
<path id="Vector_31" d="M9.2518 14.875C8.48094 14.875 7.83179 15.5253 7.83179 16.2975C7.83179 17.0698 8.48094 17.7201 9.2518 17.7201C10.0227 17.7201 10.6718 17.0698 10.6718 16.2975C10.6718 15.5253 10.0227 14.875 9.2518 14.875Z" fill="white"/>
<path id="Vector_32" d="M6.69577 9.79492C5.92491 9.79492 5.27576 10.4452 5.27576 11.2175C5.27576 11.9897 5.92491 12.64 6.69577 12.64C7.46663 12.64 8.11578 11.9897 8.11578 11.2175C8.11578 10.4452 7.46663 9.79492 6.69577 9.79492Z" fill="white"/>
<path id="Vector_33" d="M9.2518 7.51892C10.0227 7.51892 10.6718 6.86861 10.6718 6.09637C10.6718 5.32414 10.0227 4.67383 9.2518 4.67383C8.48094 4.67383 7.83179 5.32414 7.83179 6.09637C7.83179 6.86861 8.48094 7.51892 9.2518 7.51892Z" fill="white"/>
<path id="Vector_34" d="M14.3232 7.51892C15.0941 7.51892 15.7432 6.86861 15.7432 6.09637C15.7432 5.32414 15.0941 4.67383 14.3232 4.67383C13.5523 4.67383 12.9032 5.32414 12.9032 6.09637C12.9032 6.86861 13.5523 7.51892 14.3232 7.51892Z" fill="white"/>
<path id="Vector_35" d="M19.4353 7.51892C20.2061 7.51892 20.8553 6.86861 20.8553 6.09637C20.8553 5.32414 20.2061 4.67383 19.4353 4.67383C18.6644 4.67383 18.0153 5.32414 18.0153 6.09637C18.0153 6.86861 18.6644 7.51892 19.4353 7.51892Z" fill="white"/>
<path id="Vector_36" d="M24.5068 7.51892C25.2777 7.51892 25.9268 6.86861 25.9268 6.09637C25.9268 5.32414 25.2777 4.67383 24.5068 4.67383C23.7359 4.67383 23.0868 5.32414 23.0868 6.09637C23.0868 6.86861 23.7359 7.51892 24.5068 7.51892Z" fill="white"/>
<path id="Vector_37" d="M29.6189 7.51892C30.4031 7.51892 31.0389 6.88202 31.0389 6.09637C31.0389 5.31072 30.4031 4.67383 29.6189 4.67383C28.8346 4.67383 28.1989 5.31072 28.1989 6.09637C28.1989 6.88202 28.8346 7.51892 29.6189 7.51892Z" fill="white"/>
<path id="Vector_38" d="M34.6903 7.51892C35.4611 7.51892 36.1103 6.86861 36.1103 6.09637C36.1103 5.32414 35.4611 4.67383 34.6903 4.67383C33.9194 4.67383 33.2703 5.32414 33.2703 6.09637C33.2703 6.86861 33.9194 7.51892 34.6903 7.51892Z" fill="white"/>
<path id="Vector_39" d="M16.8792 1.95092C17.417 1.95092 17.853 1.51419 17.853 0.97546C17.853 0.436728 17.417 0 16.8792 0C16.3415 0 15.9055 0.436728 15.9055 0.97546C15.9055 1.51419 16.3415 1.95092 16.8792 1.95092Z" fill="white"/>
<path id="Vector_40" d="M21.9913 1.95092C22.5291 1.95092 22.965 1.51419 22.965 0.97546C22.965 0.436728 22.5291 0 21.9913 0C21.4535 0 21.0176 0.436728 21.0176 0.97546C21.0176 1.51419 21.4535 1.95092 21.9913 1.95092Z" fill="white"/>
<path id="Vector_41" d="M27.0628 1.99194C27.6308 1.99194 28.0366 1.54485 28.0366 1.01648C28.0366 0.488102 27.5903 0.0410156 27.0628 0.0410156C26.5354 0.0410156 26.0891 0.488102 26.0891 1.01648C26.0891 1.54485 26.5354 1.99194 27.0628 1.99194Z" fill="white"/>
<path id="Vector_42" d="M32.1749 1.99194C32.7429 1.99194 33.1486 1.54485 33.1486 1.01648C33.1486 0.488102 32.7023 0.0410156 32.1749 0.0410156C31.6475 0.0410156 31.2012 0.488102 31.2012 1.01648C31.2012 1.54485 31.6475 1.99194 32.1749 1.99194Z" fill="white"/>
<path id="Vector_43" d="M11.8078 1.95092C12.3456 1.95092 12.7816 1.51419 12.7816 0.97546C12.7816 0.436728 12.3456 0 11.8078 0C11.2701 0 10.8341 0.436728 10.8341 0.97546C10.8341 1.51419 11.2701 1.95092 11.8078 1.95092Z" fill="white"/>
<path id="Vector_44" d="M6.69577 1.99194C7.26377 1.99194 7.66949 1.54485 7.66949 1.01648C7.66949 0.488102 7.2232 0.0410156 6.69577 0.0410156C6.16834 0.0410156 5.72205 0.488102 5.72205 1.01648C5.72205 1.54485 6.16834 1.99194 6.69577 1.99194Z" fill="white"/>
<path id="Vector_45" d="M4.13974 7.07201C4.67751 7.07201 5.11346 6.63529 5.11346 6.09655C5.11346 5.55782 4.67751 5.12109 4.13974 5.12109C3.60197 5.12109 3.16602 5.55782 3.16602 6.09655C3.16602 6.63529 3.60197 7.07201 4.13974 7.07201Z" fill="white"/>
<path id="Vector_46" d="M1.58371 10.2012C1.0157 10.2012 0.609985 10.6483 0.609985 11.1766C0.609985 11.705 1.05628 12.1521 1.58371 12.1521C2.11114 12.1521 2.55743 11.705 2.55743 11.1766C2.55743 10.6483 2.11114 10.2012 1.58371 10.2012Z" fill="white"/>
<path id="Vector_47" d="M1.58371 0C1.0157 0 0.609985 0.447086 0.609985 0.97546C0.609985 1.50383 1.05628 1.95092 1.58371 1.95092C2.11114 1.95092 2.55743 1.50383 2.55743 0.97546C2.55743 0.447086 2.11114 0 1.58371 0Z" fill="white"/>
<path id="Vector_48" d="M1.58371 20.4043C1.0157 20.4043 0.609985 20.8514 0.609985 21.3798C0.609985 21.9081 1.05628 22.3552 1.58371 22.3552C2.11114 22.3552 2.55743 21.9081 2.55743 21.3798C2.55743 20.8514 2.11114 20.4043 1.58371 20.4043Z" fill="white"/>
<path id="Vector_49" d="M1.58371 30.6055C1.0157 30.6055 0.609985 31.0526 0.609985 31.5809C0.609985 32.1093 1.05628 32.5564 1.58371 32.5564C2.11114 32.5564 2.55743 32.1093 2.55743 31.5809C2.55743 31.0526 2.11114 30.6055 1.58371 30.6055Z" fill="white"/>
<path id="Vector_50" d="M1.58371 40.8066C1.0157 40.8066 0.609985 41.2537 0.609985 41.7821C0.609985 42.3105 1.05628 42.7576 1.58371 42.7576C2.11114 42.7576 2.55743 42.3105 2.55743 41.7821C2.55743 41.2537 2.11114 40.8066 1.58371 40.8066Z" fill="white"/>
<path id="Vector_51" d="M4.13974 27.4763C4.67751 27.4763 5.11346 27.0396 5.11346 26.5008C5.11346 25.9621 4.67751 25.5254 4.13974 25.5254C3.60197 25.5254 3.16602 25.9621 3.16602 26.5008C3.16602 27.0396 3.60197 27.4763 4.13974 27.4763Z" fill="white"/>
<path id="Vector_52" d="M6.69577 30.6055C6.12776 30.6055 5.72205 31.0526 5.72205 31.5809C5.72205 32.1093 6.16834 32.5564 6.69577 32.5564C7.2232 32.5564 7.66949 32.1093 7.66949 31.5809C7.66949 31.0526 7.2232 30.6055 6.69577 30.6055Z" fill="white"/>
<path id="Vector_53" d="M4.13974 37.6775C4.67751 37.6775 5.11346 37.2408 5.11346 36.702C5.11346 36.1633 4.67751 35.7266 4.13974 35.7266C3.60197 35.7266 3.16602 36.1633 3.16602 36.702C3.16602 37.2408 3.60197 37.6775 4.13974 37.6775Z" fill="white"/>
<path id="Vector_54" d="M9.2518 37.6775C9.78957 37.6775 10.2255 37.2408 10.2255 36.702C10.2255 36.1633 9.78957 35.7266 9.2518 35.7266C8.71403 35.7266 8.27808 36.1633 8.27808 36.702C8.27808 37.2408 8.71403 37.6775 9.2518 37.6775Z" fill="white"/>
<path id="Vector_55" d="M6.69577 40.8066C6.12776 40.8066 5.72205 41.2537 5.72205 41.7821C5.72205 42.3105 6.16834 42.7576 6.69577 42.7576C7.2232 42.7576 7.66949 42.3105 7.66949 41.7821C7.66949 41.2537 7.2232 40.8066 6.69577 40.8066Z" fill="white"/>
<path id="Vector_56" d="M4.13974 45.9277C3.57173 45.9277 3.16602 46.3748 3.16602 46.9032C3.16602 47.4316 3.61231 47.8787 4.13974 47.8787C4.66717 47.8787 5.11346 47.4316 5.11346 46.9032C5.11346 46.3748 4.66717 45.9277 4.13974 45.9277Z" fill="white"/>
<path id="Vector_57" d="M9.2518 45.9277C8.68379 45.9277 8.27808 46.3748 8.27808 46.9032C8.27808 47.4316 8.72437 47.8787 9.2518 47.8787C9.77923 47.8787 10.2255 47.4316 10.2255 46.9032C10.2255 46.3748 9.77923 45.9277 9.2518 45.9277Z" fill="white"/>
<path id="Vector_58" d="M14.3232 45.9277C13.7552 45.9277 13.3495 46.3748 13.3495 46.9032C13.3495 47.4316 13.7958 47.8787 14.3232 47.8787C14.8506 47.8787 15.2969 47.4316 15.2969 46.9032C15.2969 46.3748 14.8506 45.9277 14.3232 45.9277Z" fill="white"/>
<path id="Vector_59" d="M11.8078 40.8066C11.2398 40.8066 10.8341 41.2537 10.8341 41.7821C10.8341 42.3105 11.2804 42.7576 11.8078 42.7576C12.3353 42.7576 12.7816 42.3105 12.7816 41.7821C12.7816 41.2537 12.3353 40.8066 11.8078 40.8066Z" fill="white"/>
<path id="Vector_60" d="M4.13974 15.3223C3.57173 15.3223 3.16602 15.7694 3.16602 16.2977C3.16602 16.8261 3.61231 17.2732 4.13974 17.2732C4.66717 17.2732 5.11346 16.8261 5.11346 16.2977C5.11346 15.7694 4.66717 15.3223 4.13974 15.3223Z" fill="white"/>
<path id="Vector_61" d="M6.69577 20.4043C6.12776 20.4043 5.72205 20.8514 5.72205 21.3798C5.72205 21.9081 6.16834 22.3552 6.69577 22.3552C7.2232 22.3552 7.66949 21.9081 7.66949 21.3798C7.66949 20.8514 7.2232 20.4043 6.69577 20.4043Z" fill="white"/>
<path id="Vector_62" d="M9.2518 27.4763C9.78957 27.4763 10.2255 27.0396 10.2255 26.5008C10.2255 25.9621 9.78957 25.5254 9.2518 25.5254C8.71403 25.5254 8.27808 25.9621 8.27808 26.5008C8.27808 27.0396 8.71403 27.4763 9.2518 27.4763Z" fill="white"/>
<path id="Vector_63" d="M11.8078 32.5974C12.3456 32.5974 12.7816 32.1607 12.7816 31.6219C12.7816 31.0832 12.3456 30.6465 11.8078 30.6465C11.2701 30.6465 10.8341 31.0832 10.8341 31.6219C10.8341 32.1607 11.2701 32.5974 11.8078 32.5974Z" fill="white"/>
<path id="Vector_64" d="M14.3232 35.7266C13.7552 35.7266 13.3495 36.1736 13.3495 36.702C13.3495 37.2304 13.7958 37.6775 14.3232 37.6775C14.8506 37.6775 15.2969 37.2304 15.2969 36.702C15.2969 36.1736 14.8506 35.7266 14.3232 35.7266Z" fill="white"/>
<path id="Vector_65" d="M16.8792 42.7986C17.417 42.7986 17.853 42.3618 17.853 41.8231C17.853 41.2844 17.417 40.8477 16.8792 40.8477C16.3415 40.8477 15.9055 41.2844 15.9055 41.8231C15.9055 42.3618 16.3415 42.7986 16.8792 42.7986Z" fill="white"/>
<path id="Vector_66" d="M19.4353 45.9277C18.8673 45.9277 18.4615 46.3748 18.4615 46.9032C18.4615 47.4316 18.9078 47.8787 19.4353 47.8787C19.9627 47.8787 20.409 47.4316 20.409 46.9032C20.409 46.3748 19.9627 45.9277 19.4353 45.9277Z" fill="white"/>
<path id="Vector_67" d="M21.9913 52.9997C22.5291 52.9997 22.965 52.563 22.965 52.0243C22.965 51.4856 22.5291 51.0488 21.9913 51.0488C21.4535 51.0488 21.0176 51.4856 21.0176 52.0243C21.0176 52.563 21.4535 52.9997 21.9913 52.9997Z" fill="white"/>
<path id="Vector_68" d="M16.8792 52.9997C17.417 52.9997 17.853 52.563 17.853 52.0243C17.853 51.4856 17.417 51.0488 16.8792 51.0488C16.3415 51.0488 15.9055 51.4856 15.9055 52.0243C15.9055 52.563 16.3415 52.9997 16.8792 52.9997Z" fill="white"/>
<path id="Vector_69" d="M11.8078 51.0078C11.2398 51.0078 10.8341 51.4549 10.8341 51.9833C10.8341 52.5116 11.2804 52.9587 11.8078 52.9587C12.3353 52.9587 12.7816 52.5116 12.7816 51.9833C12.7816 51.4549 12.3353 51.0078 11.8078 51.0078Z" fill="white"/>
<path id="Vector_70" d="M6.69577 51.0078C6.12776 51.0078 5.72205 51.4549 5.72205 51.9833C5.72205 52.5116 6.16834 52.9587 6.69577 52.9587C7.2232 52.9587 7.66949 52.5116 7.66949 51.9833C7.66949 51.4549 7.2232 51.0078 6.69577 51.0078Z" fill="white"/>
<path id="Vector_71" d="M1.58371 51.0078C1.0157 51.0078 0.609985 51.4549 0.609985 51.9833C0.609985 52.5116 1.05628 52.9587 1.58371 52.9587C2.11114 52.9587 2.55743 52.5116 2.55743 51.9833C2.55743 51.4549 2.11114 51.0078 1.58371 51.0078Z" fill="white"/>
<path id="Vector_72" d="M27.0628 51.0078C26.4948 51.0078 26.0891 51.4549 26.0891 51.9833C26.0891 52.5116 26.5354 52.9587 27.0628 52.9587C27.5903 52.9587 28.0366 52.5116 28.0366 51.9833C28.0366 51.4549 27.5903 51.0078 27.0628 51.0078Z" fill="white"/>
<path id="Vector_73" d="M32.1749 51.0078C31.6069 51.0078 31.2012 51.4549 31.2012 51.9833C31.2012 52.5116 31.6475 52.9587 32.1749 52.9587C32.7023 52.9587 33.1486 52.5116 33.1486 51.9833C33.1486 51.4549 32.7023 51.0078 32.1749 51.0078Z" fill="white"/>
<path id="Vector_74" d="M37.2463 52.9997C37.7841 52.9997 38.22 52.563 38.22 52.0243C38.22 51.4856 37.7841 51.0488 37.2463 51.0488C36.7085 51.0488 36.2726 51.4856 36.2726 52.0243C36.2726 52.563 36.7085 52.9997 37.2463 52.9997Z" fill="white"/>
<path id="Vector_75" d="M42.3584 52.9997C42.8961 52.9997 43.3321 52.563 43.3321 52.0243C43.3321 51.4856 42.8961 51.0488 42.3584 51.0488C41.8206 51.0488 41.3846 51.4856 41.3846 52.0243C41.3846 52.563 41.8206 52.9997 42.3584 52.9997Z" fill="white"/>
<path id="Vector_76" d="M47.4298 52.9997C47.9675 52.9997 48.4035 52.563 48.4035 52.0243C48.4035 51.4856 47.9675 51.0488 47.4298 51.0488C46.892 51.0488 46.4561 51.4856 46.4561 52.0243C46.4561 52.563 46.892 52.9997 47.4298 52.9997Z" fill="white"/>
<path id="Vector_77" d="M34.6903 45.9277C34.1223 45.9277 33.7166 46.3748 33.7166 46.9032C33.7166 47.4316 34.1628 47.8787 34.6903 47.8787C35.2177 47.8787 35.664 47.4316 35.664 46.9032C35.664 46.3748 35.2177 45.9277 34.6903 45.9277Z" fill="white"/>
<path id="Vector_78" d="M37.2463 40.8066C36.6783 40.8066 36.2726 41.2537 36.2726 41.7821C36.2726 42.3105 36.7189 42.7576 37.2463 42.7576C37.7737 42.7576 38.22 42.3105 38.22 41.7821C38.22 41.2537 37.7737 40.8066 37.2463 40.8066Z" fill="white"/>
<path id="Vector_79" d="M39.8023 37.6775C40.3401 37.6775 40.7761 37.2408 40.7761 36.702C40.7761 36.1633 40.3401 35.7266 39.8023 35.7266C39.2646 35.7266 38.8286 36.1633 38.8286 36.702C38.8286 37.2408 39.2646 37.6775 39.8023 37.6775Z" fill="white"/>
<path id="Vector_80" d="M42.3584 30.6055C41.7904 30.6055 41.3846 31.0526 41.3846 31.5809C41.3846 32.1093 41.8309 32.5564 42.3584 32.5564C42.8858 32.5564 43.3321 32.1093 43.3321 31.5809C43.3321 31.0526 42.8858 30.6055 42.3584 30.6055Z" fill="white"/>
<path id="Vector_81" d="M44.9144 25.5254C44.3464 25.5254 43.9407 25.9725 43.9407 26.5008C43.9407 27.0292 44.387 27.4763 44.9144 27.4763C45.4418 27.4763 45.8881 27.0292 45.8881 26.5008C45.8881 25.9725 45.4418 25.5254 44.9144 25.5254Z" fill="white"/>
<path id="Vector_82" d="M47.4298 20.4043C46.8618 20.4043 46.4561 20.8514 46.4561 21.3798C46.4561 21.9081 46.9023 22.3552 47.4298 22.3552C47.9572 22.3552 48.4035 21.9081 48.4035 21.3798C48.4035 20.8514 47.9572 20.4043 47.4298 20.4043Z" fill="white"/>
<path id="Vector_83" d="M49.9858 27.4763C50.5236 27.4763 50.9595 27.0396 50.9595 26.5008C50.9595 25.9621 50.5236 25.5254 49.9858 25.5254C49.448 25.5254 49.0121 25.9621 49.0121 26.5008C49.0121 27.0396 49.448 27.4763 49.9858 27.4763Z" fill="white"/>
<path id="Vector_84" d="M47.4298 30.6055C46.8618 30.6055 46.4561 31.0526 46.4561 31.5809C46.4561 32.1093 46.9023 32.5564 47.4298 32.5564C47.9572 32.5564 48.4035 32.1093 48.4035 31.5809C48.4035 31.0526 47.9572 30.6055 47.4298 30.6055Z" fill="white"/>
<path id="Vector_85" d="M49.9858 37.6365C50.5236 37.6365 50.9595 37.1997 50.9595 36.661C50.9595 36.1223 50.5236 35.6855 49.9858 35.6855C49.448 35.6855 49.0121 36.1223 49.0121 36.661C49.0121 37.1997 49.448 37.6365 49.9858 37.6365Z" fill="white"/>
<path id="Vector_86" d="M44.9144 35.6855C44.3464 35.6855 43.9407 36.1326 43.9407 36.661C43.9407 37.1894 44.387 37.6365 44.9144 37.6365C45.4418 37.6365 45.8881 37.1894 45.8881 36.661C45.8881 36.1326 45.4418 35.6855 44.9144 35.6855Z" fill="white"/>
<path id="Vector_87" d="M42.3584 40.8066C41.7904 40.8066 41.3846 41.2537 41.3846 41.7821C41.3846 42.3105 41.8309 42.7576 42.3584 42.7576C42.8858 42.7576 43.3321 42.3105 43.3321 41.7821C43.3321 41.2537 42.8858 40.8066 42.3584 40.8066Z" fill="white"/>
<path id="Vector_88" d="M39.8023 45.9277C39.2343 45.9277 38.8286 46.3748 38.8286 46.9032C38.8286 47.4316 39.2749 47.8787 39.8023 47.8787C40.3298 47.8787 40.7761 47.4316 40.7761 46.9032C40.7761 46.3748 40.3298 45.9277 39.8023 45.9277Z" fill="white"/>
<path id="Vector_89" d="M44.9144 45.9277C44.3464 45.9277 43.9407 46.3748 43.9407 46.9032C43.9407 47.4316 44.387 47.8787 44.9144 47.8787C45.4418 47.8787 45.8881 47.4316 45.8881 46.9032C45.8881 46.3748 45.4418 45.9277 44.9144 45.9277Z" fill="white"/>
<path id="Vector_90" d="M49.9858 45.9277C49.4178 45.9277 49.0121 46.3748 49.0121 46.9032C49.0121 47.4316 49.4584 47.8787 49.9858 47.8787C50.5132 47.8787 50.9595 47.4316 50.9595 46.9032C50.9595 46.3748 50.5132 45.9277 49.9858 45.9277Z" fill="white"/>
<path id="Vector_91" d="M47.4298 40.8066C46.8618 40.8066 46.4561 41.2537 46.4561 41.7821C46.4561 42.3105 46.9023 42.7576 47.4298 42.7576C47.9572 42.7576 48.4035 42.3105 48.4035 41.7821C48.4035 41.2537 47.9572 40.8066 47.4298 40.8066Z" fill="white"/>
<path id="Vector_92" d="M49.9858 15.3223C49.4178 15.3223 49.0121 15.7694 49.0121 16.2977C49.0121 16.8261 49.4584 17.2732 49.9858 17.2732C50.5132 17.2732 50.9595 16.8261 50.9595 16.2977C50.9595 15.7694 50.5132 15.3223 49.9858 15.3223Z" fill="white"/>
<path id="Vector_93" d="M52.5418 10.2012C51.9738 10.2012 51.5681 10.6483 51.5681 11.1766C51.5681 11.705 52.0144 12.1521 52.5418 12.1521C53.0693 12.1521 53.5156 11.705 53.5156 11.1766C53.5156 10.6483 53.0693 10.2012 52.5418 10.2012Z" fill="white"/>
<path id="Vector_94" d="M52.5418 20.4043C51.9738 20.4043 51.5681 20.8514 51.5681 21.3798C51.5681 21.9081 52.0144 22.3552 52.5418 22.3552C53.0693 22.3552 53.5156 21.9081 53.5156 21.3798C53.5156 20.8514 53.0693 20.4043 52.5418 20.4043Z" fill="white"/>
<path id="Vector_95" d="M52.5418 30.6055C51.9738 30.6055 51.5681 31.0526 51.5681 31.5809C51.5681 32.1093 52.0144 32.5564 52.5418 32.5564C53.0693 32.5564 53.5156 32.1093 53.5156 31.5809C53.5156 31.0526 53.0693 30.6055 52.5418 30.6055Z" fill="white"/>
<path id="Vector_96" d="M52.5418 40.8066C51.9738 40.8066 51.5681 41.2537 51.5681 41.7821C51.5681 42.3105 52.0144 42.7576 52.5418 42.7576C53.0693 42.7576 53.5156 42.3105 53.5156 41.7821C53.5156 41.2537 53.0693 40.8066 52.5418 40.8066Z" fill="white"/>
<path id="Vector_97" d="M52.5418 51.0078C51.9738 51.0078 51.5681 51.4549 51.5681 51.9833C51.5681 52.5116 52.0144 52.9587 52.5418 52.9587C53.0693 52.9587 53.5156 52.5116 53.5156 51.9833C53.5156 51.4549 53.0693 51.0078 52.5418 51.0078Z" fill="white"/>
<path id="Vector_98" d="M49.9858 7.07201C50.5236 7.07201 50.9595 6.63529 50.9595 6.09655C50.9595 5.55782 50.5236 5.12109 49.9858 5.12109C49.448 5.12109 49.0121 5.55782 49.0121 6.09655C49.0121 6.63529 49.448 7.07201 49.9858 7.07201Z" fill="white"/>
<path id="Vector_99" d="M47.4298 1.95092C47.9675 1.95092 48.4035 1.51419 48.4035 0.97546C48.4035 0.436728 47.9675 0 47.4298 0C46.892 0 46.4561 0.436728 46.4561 0.97546C46.4561 1.51419 46.892 1.95092 47.4298 1.95092Z" fill="white"/>
<path id="Vector_100" d="M52.5418 0C51.9738 0 51.5681 0.447086 51.5681 0.97546C51.5681 1.50383 52.0144 1.95092 52.5418 1.95092C53.0693 1.95092 53.5156 1.50383 53.5156 0.97546C53.5156 0.447086 53.0693 0 52.5418 0Z" fill="white"/>
<path id="Vector_101" d="M42.3584 1.95092C42.8961 1.95092 43.3321 1.51419 43.3321 0.97546C43.3321 0.436728 42.8961 0 42.3584 0C41.8206 0 41.3846 0.436728 41.3846 0.97546C41.3846 1.51419 41.8206 1.95092 42.3584 1.95092Z" fill="white"/>
<path id="Vector_102" d="M37.2463 1.95092C37.7841 1.95092 38.22 1.51419 38.22 0.97546C38.22 0.436728 37.7841 0 37.2463 0C36.7085 0 36.2726 0.436728 36.2726 0.97546C36.2726 1.51419 36.7085 1.95092 37.2463 1.95092Z" fill="white"/>
<path id="Vector_103" d="M27.0628 22.3943C27.6006 22.3943 28.0366 21.9576 28.0366 21.4188C28.0366 20.8801 27.6006 20.4434 27.0628 20.4434C26.5251 20.4434 26.0891 20.8801 26.0891 21.4188C26.0891 21.9576 26.5251 22.3943 27.0628 22.3943Z" fill="white"/>
<path id="Vector_104" d="M14.3232 18.4125C15.4998 18.4125 16.433 17.4777 16.433 16.299C16.433 15.1204 15.4998 14.1855 14.3232 14.1855C13.1467 14.1855 12.2135 15.1204 12.2135 16.299C12.2135 17.4777 13.1467 18.4125 14.3232 18.4125Z" fill="white"/>
<path id="Vector_105" d="M44.4681 11.217C44.4681 10.0383 43.535 9.10352 42.3584 9.10352C41.1818 9.10352 40.2487 10.0383 40.2487 11.217C40.2487 12.3957 41.1818 13.3305 42.3584 13.3305C43.535 13.3305 44.4681 12.3957 44.4681 11.217Z" fill="white"/>
<path id="Vector_106" d="M13.9176 11.217C13.9176 10.0383 12.9844 9.10352 11.8079 9.10352C10.6313 9.10352 9.69812 10.0383 9.69812 11.217C9.69812 12.3957 10.6313 13.3305 11.8079 13.3305C12.9844 13.3305 13.9176 12.3957 13.9176 11.217Z" fill="white"/>
<path id="Vector_107" d="M16.8793 9.06445C15.7027 9.06445 14.7695 9.99927 14.7695 11.1779C14.7695 12.3566 15.7027 13.2914 16.8793 13.2914C18.0558 13.2914 18.989 12.3566 18.989 11.1779C18.989 9.99927 18.0558 9.06445 16.8793 9.06445Z" fill="white"/>
<path id="Vector_108" d="M21.9913 9.06445C20.8147 9.06445 19.8816 9.99927 19.8816 11.1779C19.8816 12.3566 20.8147 13.2914 21.9913 13.2914C23.1679 13.2914 24.1011 12.3566 24.1011 11.1779C24.1011 9.99927 23.1679 9.06445 21.9913 9.06445Z" fill="white"/>
<path id="Vector_109" d="M27.0627 9.06445C25.8862 9.06445 24.953 9.99927 24.953 11.1779C24.953 12.3566 25.8862 13.2914 27.0627 13.2914C28.2393 13.2914 29.1725 12.3566 29.1725 11.1779C29.1725 9.99927 28.2393 9.06445 27.0627 9.06445Z" fill="white"/>
<path id="Vector_110" d="M32.1748 9.06445C30.9982 9.06445 30.0651 9.99927 30.0651 11.1779C30.0651 12.3566 30.9982 13.2914 32.1748 13.2914C33.3514 13.2914 34.2845 12.3566 34.2845 11.1779C34.2845 9.99927 33.3514 9.06445 32.1748 9.06445Z" fill="white"/>
<path id="Vector_111" d="M37.2463 13.3305C38.4229 13.3305 39.3561 12.3957 39.3561 11.217C39.3561 10.0383 38.4229 9.10352 37.2463 9.10352C36.0697 9.10352 35.1366 10.0383 35.1366 11.217C35.1366 12.3957 36.0697 13.3305 37.2463 13.3305Z" fill="white"/>
<path id="Vector_112" d="M16.8793 23.5336C18.0558 23.5336 18.989 22.5988 18.989 21.4201C18.989 20.2415 18.0558 19.3066 16.8793 19.3066C15.7027 19.3066 14.7695 20.2415 14.7695 21.4201C14.7695 22.5988 15.7027 23.5336 16.8793 23.5336Z" fill="white"/>
<path id="Vector_113" d="M19.4353 28.6547C20.6119 28.6547 21.545 27.7199 21.545 26.5412C21.545 25.3626 20.6119 24.4277 19.4353 24.4277C18.2587 24.4277 17.3256 25.3626 17.3256 26.5412C17.3256 27.7199 18.2587 28.6547 19.4353 28.6547Z" fill="white"/>
<path id="Vector_114" d="M21.9913 33.7348C23.1679 33.7348 24.1011 32.8 24.1011 31.6213C24.1011 30.4426 23.1679 29.5078 21.9913 29.5078C20.8147 29.5078 19.8816 30.4426 19.8816 31.6213C19.8816 32.8 20.8147 33.7348 21.9913 33.7348Z" fill="white"/>
<path id="Vector_115" d="M24.5068 38.8149C25.672 38.8149 26.6166 37.8686 26.6166 36.7014C26.6166 35.5341 25.672 34.5879 24.5068 34.5879C23.3417 34.5879 22.3971 35.5341 22.3971 36.7014C22.3971 37.8686 23.3417 38.8149 24.5068 38.8149Z" fill="white"/>
<path id="Vector_116" d="M27.0627 43.936C28.2393 43.936 29.1725 43.0012 29.1725 41.8225C29.1725 40.6438 28.2393 39.709 27.0627 39.709C25.8862 39.709 24.953 40.6438 24.953 41.8225C24.953 43.0012 25.8862 43.936 27.0627 43.936Z" fill="white"/>
<path id="Vector_117" d="M29.6188 38.8149C30.7839 38.8149 31.7285 37.8686 31.7285 36.7014C31.7285 35.5341 30.7839 34.5879 29.6188 34.5879C28.4536 34.5879 27.509 35.5341 27.509 36.7014C27.509 37.8686 28.4536 38.8149 29.6188 38.8149Z" fill="white"/>
<path id="Vector_118" d="M34.2845 31.6213C34.2845 30.4426 33.3514 29.5078 32.1748 29.5078C30.9982 29.5078 30.0651 30.4426 30.0651 31.6213C30.0651 32.8 30.9982 33.7348 32.1748 33.7348C33.3514 33.7348 34.2845 32.8 34.2845 31.6213Z" fill="white"/>
<path id="Vector_119" d="M36.8406 26.5002C36.8406 25.3215 35.9074 24.3867 34.7308 24.3867C33.5542 24.3867 32.6211 25.3215 32.6211 26.5002C32.6211 27.6789 33.5542 28.6137 34.7308 28.6137C35.9074 28.6137 36.8406 27.6789 36.8406 26.5002Z" fill="white"/>
<path id="Vector_120" d="M39.3966 21.4201C39.3966 20.2415 38.4634 19.3066 37.2869 19.3066C36.1103 19.3066 35.1771 20.2415 35.1771 21.4201C35.1771 22.5988 36.1103 23.5336 37.2869 23.5336C38.4634 23.5336 39.3966 22.5988 39.3966 21.4201Z" fill="white"/>
<path id="Vector_121" d="M41.9121 16.299C41.9121 15.1204 40.9789 14.1855 39.8024 14.1855C38.6258 14.1855 37.6926 15.1204 37.6926 16.299C37.6926 17.4777 38.6258 18.4125 39.8024 18.4125C40.9789 18.4125 41.9121 17.4777 41.9121 16.299Z" fill="white"/>
</g>
<defs>
<clipPath id="clip0_75_1721">
<rect width="193" height="53" fill="white" transform="translate(0.609985)"/>
</clipPath>
</defs>
</svg>
