<svg width="285" height="44" viewBox="0 0 285 44" fill="none" xmlns="http://www.w3.org/2000/svg">
<g clip-path="url(#clip0_75_1843)">
<path d="M7.15515 20.002H0V42.6217H7.15515V20.002Z" fill="white"/>
<path d="M40.7029 20.002H33.5477V42.6217H40.7029V20.002Z" fill="white"/>
<path d="M33.3481 0.320312H32.853L20.3155 19.9059L7.77801 0.320312H7.33081V12.3285L20.1398 31.6011H20.3714L33.3481 12.1359V0.320312Z" fill="white"/>
<path d="M71.8549 43.3203C68.6606 43.3203 65.7459 42.7584 63.1106 41.6266C60.4674 40.4949 58.2074 38.9617 56.3148 37.0272C54.4222 35.0847 52.9449 32.8212 51.8828 30.2285C50.8207 27.6358 50.2856 24.8745 50.2856 21.9447V21.8243C50.2856 18.8945 50.8207 16.1333 51.8828 13.5406C52.9449 10.9479 54.4462 8.66827 56.3707 6.70971C58.3032 4.75115 60.5871 3.19394 63.2224 2.04609C65.8577 0.898248 68.7804 0.320312 71.9667 0.320312C75.153 0.320312 78.0757 0.882194 80.711 2.01398C83.3462 3.14577 85.6142 4.67891 87.5068 6.61339C89.3994 8.55589 90.8767 10.8195 91.9388 13.4122C93.0009 16.0048 93.5359 18.7661 93.5359 21.6959V21.8163C93.5359 24.7461 93.0009 27.5074 91.9388 30.1C90.8767 32.6927 89.3754 34.9724 87.4509 36.9309C85.5183 38.8895 83.2345 40.4467 80.5992 41.5945C77.9559 42.7424 75.0412 43.3203 71.8549 43.3203ZM71.9747 36.6098C74.011 36.6098 75.8876 36.2245 77.5966 35.454C79.3055 34.6834 80.7669 33.6319 81.9807 32.3074C83.1945 30.983 84.1448 29.4258 84.8316 27.6438C85.5184 25.8618 85.8617 23.9595 85.8617 21.9447V21.8243C85.8617 19.8016 85.5184 17.8912 84.8316 16.0931C84.1448 14.2951 83.1865 12.7299 81.9488 11.3974C80.711 10.073 79.2336 9.01342 77.5087 8.21876C75.7838 7.4241 73.8992 7.03078 71.8629 7.03078C69.8265 7.03078 67.9499 7.41608 66.241 8.18666C64.532 8.95724 63.0707 10.0088 61.8569 11.3332C60.643 12.6576 59.6927 14.2148 59.006 15.9968C58.3192 17.7788 57.9758 19.6811 57.9758 21.6959V21.8163C57.9758 23.8391 58.3192 25.7495 59.006 27.5475C59.6927 29.3535 60.651 30.9108 61.8888 32.2432C63.1266 33.5677 64.6039 34.6272 66.3288 35.4219C68.0537 36.2165 69.9383 36.6098 71.9747 36.6098Z" fill="white"/>
<path d="M102.344 1.03516H120.863C125.622 1.03516 129.216 2.26327 131.659 4.71949C133.504 6.58173 134.43 8.87742 134.43 11.6066V11.727C134.43 12.9952 134.263 14.1109 133.935 15.0822C133.6 16.0534 133.177 16.9043 132.65 17.6347C132.123 18.3652 131.5 19.0073 130.773 19.5612C130.046 20.1151 129.32 20.5886 128.577 20.99C129.791 21.4234 130.893 21.9291 131.899 22.5071C132.897 23.085 133.76 23.7673 134.486 24.5539C135.213 25.3486 135.772 26.2797 136.163 27.3473C136.555 28.4148 136.754 29.667 136.754 31.0878V31.2082C136.754 33.0704 136.387 34.7159 135.66 36.1367C134.934 37.5655 133.903 38.7535 132.562 39.7006C131.22 40.6478 129.615 41.3702 127.723 41.8679C125.838 42.3656 123.746 42.6064 121.47 42.6064H102.36V1.03516H102.344ZM119.449 18.5578C121.805 18.5578 123.69 18.0923 125.103 17.1612C126.517 16.23 127.227 14.8173 127.227 12.9149V12.7945C127.227 11.133 126.613 9.83262 125.375 8.9015C124.137 7.97038 122.34 7.50482 119.984 7.50482H109.563V18.5498H119.457L119.449 18.5578ZM121.574 36.1367C124.049 36.1367 125.99 35.6631 127.411 34.7079C128.825 33.7607 129.535 32.332 129.535 30.4296V30.3092C129.535 28.5272 128.841 27.1546 127.443 26.1834C126.046 25.2121 123.921 24.7305 121.054 24.7305H109.563V36.1367H121.582H121.574Z" fill="white"/>
<path d="M145.427 1.03516H152.638V42.6144H145.427V1.03516Z" fill="white"/>
<path d="M163.738 1.03516H180.045C182.448 1.03516 184.62 1.36426 186.577 2.01444C188.533 2.66461 190.178 3.61179 191.544 4.83187C192.901 6.05998 193.948 7.5289 194.674 9.2306C195.401 10.9323 195.768 12.8347 195.768 14.9297V15.0501C195.768 17.3859 195.337 19.4328 194.467 21.1987C193.596 22.9646 192.414 24.4335 190.913 25.6215C189.412 26.8095 187.655 27.7085 185.642 28.3266C183.63 28.9446 181.474 29.2496 179.182 29.2496H170.949V42.6144H163.738V1.03516ZM179.43 22.6515C182.193 22.6515 184.381 21.9532 185.978 20.5646C187.575 19.1759 188.382 17.3859 188.382 15.1946V15.0742C188.382 12.6099 187.567 10.7477 185.954 9.49549C184.333 8.2433 182.161 7.6172 179.43 7.6172H170.949V22.6435H179.43V22.6515Z" fill="white"/>
<path d="M217.873 0.738281H224.612L242.812 42.6145H235.13L230.937 32.5729H211.38L207.124 42.6145H199.681L217.873 0.738281ZM228.27 26.1032L221.123 9.47153L214.031 26.1032H228.27Z" fill="white"/>
<path d="M249.895 1.03516H268.334C270.937 1.03516 273.237 1.40439 275.249 2.13484C277.262 2.86529 278.931 3.8847 280.272 5.19308C281.374 6.34092 282.221 7.66536 282.812 9.17441C283.403 10.6835 283.698 12.345 283.698 14.1671V14.2875C283.698 15.9892 283.451 17.5224 282.956 18.8869C282.461 20.2515 281.782 21.4636 280.919 22.5071C280.049 23.5586 279.019 24.4496 277.821 25.18C276.615 25.9105 275.289 26.4804 273.836 26.8737L285.008 42.6144H276.439L266.242 28.1179H257.114V42.6144H249.903V1.03516H249.895ZM267.775 21.6482C270.386 21.6482 272.454 21.0221 273.996 19.7699C275.537 18.5177 276.312 16.816 276.312 14.6728V14.5524C276.312 12.2888 275.561 10.5631 274.06 9.39114C272.558 8.21921 270.442 7.63325 267.719 7.63325H257.106V21.6482H267.775Z" fill="white"/>
</g>
<defs>
<clipPath id="clip0_75_1843">
<rect width="285" height="43" fill="white" transform="translate(0 0.320312)"/>
</clipPath>
</defs>
</svg>
