<svg width="211" height="59" viewBox="0 0 211 59" fill="none" xmlns="http://www.w3.org/2000/svg">
<g id="neonform" clip-path="url(#clip0_75_1854)">
<path id="Vector" d="M211 0.320312H0V58.3203H211V0.320312Z" fill="white"/>
<g id="Group">
<path id="Vector_2" d="M28.9732 18.4414C25.3469 18.4414 22.6303 19.3517 21.733 22.9682V18.4414H18.1067V40.1898H21.733V26.5971C21.733 22.9682 25.3593 22.0703 27.6897 22.0703C28.9857 22.0703 32.5995 22.0703 32.5995 25.6992V40.2023H36.2259V25.6992C36.2259 18.4539 30.7926 18.4539 28.9857 18.4539L28.9732 18.4414Z" fill="#221F20"/>
<path id="Vector_3" d="M73.349 18.4414C67.9158 18.4414 63.3922 21.16 63.3922 29.3156C63.3922 37.4713 67.9158 40.1898 73.349 40.1898C78.7823 40.1898 83.3059 37.4713 83.3059 29.3156C83.3059 21.16 78.7823 18.4414 73.349 18.4414ZM73.349 36.5734C69.7227 36.5734 67.0061 35.6631 67.0061 29.3281C67.0061 22.9931 69.7227 22.0828 73.349 22.0828C76.9504 22.0828 79.692 22.9931 79.692 29.3281C79.692 35.6631 76.9629 36.5734 73.349 36.5734Z" fill="#221F20"/>
<path id="Vector_4" d="M133.127 18.4414C127.694 18.4414 123.171 21.16 123.171 29.3156C123.171 37.4713 127.694 40.1898 133.127 40.1898C138.561 40.1898 143.084 37.4713 143.084 29.3156C143.084 21.16 138.561 18.4414 133.127 18.4414ZM133.127 36.5734C129.501 36.5734 126.784 35.6631 126.784 29.3281C126.784 22.9931 129.501 22.0828 133.127 22.0828C136.729 22.0828 139.47 22.9931 139.47 29.3281C139.47 35.6631 136.741 36.5734 133.127 36.5734Z" fill="#221F20"/>
<path id="Vector_5" d="M97.7987 18.4414C94.1723 18.4414 91.4557 19.3517 90.5585 22.9682V18.4414H86.9321V40.1898H90.5585V26.5971C90.5585 22.9682 94.1848 22.0703 96.5151 22.0703C97.8111 22.0703 101.425 22.0703 101.425 25.6992V40.2023H105.051V25.6992C105.051 18.4539 99.618 18.4539 97.8111 18.4539L97.7987 18.4414Z" fill="#221F20"/>
<path id="Vector_6" d="M185.653 18.4414C182.027 18.4414 179.31 19.3517 178.089 22.9682V22.9931C176.917 18.4414 172.705 18.4414 171.16 18.4414C167.534 18.4414 164.817 19.3517 163.92 22.9682V18.4414H160.294V40.1898H163.92V26.5971C163.92 22.9682 167.546 22.0703 169.877 22.0703C171.173 22.0703 174.787 22.0703 174.787 25.6992V40.2023H178.413V26.6095C178.413 22.9806 182.039 22.0828 184.37 22.0828C185.666 22.0828 189.279 22.0828 189.279 25.7117V40.2148H192.906V25.7117C192.906 18.4663 187.472 18.4663 185.666 18.4663L185.653 18.4414Z" fill="#221F20"/>
<path id="Vector_7" d="M150.324 22.9799V18.4531H146.698V40.2016H150.324V26.6088C150.324 22.9799 153.951 22.082 157.565 22.082V18.4531C153.938 18.4531 151.222 19.3635 150.324 22.9799Z" fill="#221F20"/>
<path id="Vector_8" d="M55.7158 32.9445C54.8061 36.0372 52.563 36.5734 49.809 36.5734C46.3571 36.5734 43.7402 35.7504 43.491 30.226H59.7658V29.3156C59.7658 21.16 55.2423 18.4414 49.809 18.4414C44.3757 18.4414 39.8522 21.16 39.8522 29.3156C39.8522 37.4713 44.3757 40.1898 49.809 40.1898C54.345 40.1898 58.233 38.2943 59.4044 32.9445H55.7033H55.7158ZM49.809 22.0703C53.0366 22.0703 55.5663 22.8061 56.0647 27.5074H43.5657C44.0517 22.8061 46.569 22.0703 49.8215 22.0703H49.809Z" fill="#221F20"/>
<g id="Group_2">
<path id="Vector_9" d="M115.918 16.6324C115.918 14.8242 116.828 14.8242 117.725 14.8242H121.351V11.1953H117.725C113.201 11.1953 112.291 13.0035 112.291 16.6324V18.4406H108.665V22.0695H121.339V18.4406H115.905V16.6324H115.918Z" fill="#221F20"/>
<path id="Vector_10" d="M112.292 22.9929V40.1897H115.918V31.1237C115.918 25.6866 114.111 22.9805 112.292 22.9805V22.9929Z" fill="#221F20"/>
</g>
</g>
</g>
<defs>
<clipPath id="clip0_75_1854">
<rect width="211" height="58" fill="white" transform="translate(0 0.320312)"/>
</clipPath>
</defs>
</svg>
