<svg width="237" height="30" viewBox="0 0 237 30" fill="none" xmlns="http://www.w3.org/2000/svg">
<g clip-path="url(#clip0_75_1867)">
<path d="M215.458 14.82C215.458 16.8022 216.27 18.6335 217.572 19.9478L212.491 25.0756C209.886 22.4686 208.285 18.8275 208.285 14.82C208.285 10.8126 209.886 7.19298 212.491 4.56445L217.572 9.69224C216.27 11.0065 215.458 12.8163 215.458 14.7985V14.82Z" fill="#8D8D8D"/>
<path d="M237 14.8203C237 18.8277 235.399 22.4474 232.794 25.0759L227.713 19.9481C229.015 18.6338 229.827 16.824 229.827 14.8203C229.827 12.8166 229.015 11.0068 227.713 9.71407C226.411 8.42135 224.617 7.58108 222.632 7.58108C220.646 7.58108 218.853 8.37826 217.572 9.71407L212.491 4.58629C215.095 1.93621 218.682 0.320312 222.632 0.320312C226.581 0.320312 230.19 1.93621 232.794 4.56474C235.399 7.19327 237 10.7913 237 14.7988V14.8203Z" fill="#F6F6F6"/>
<path d="M226.24 18.4405V29.3208H219.045V11.1797L222.653 14.8208L226.24 18.4405Z" fill="#F6F6F6"/>
<path d="M163.366 22.0595H148.998V7.58108L141.824 0.320312V29.3203H163.366V22.0595Z" fill="#F6F6F6"/>
<path d="M61.038 0.320312H32.323L39.4964 7.58108H61.038V0.320312Z" fill="#F6F6F6"/>
<path d="M39.4965 29.3213H61.038V22.0605H46.6699V18.4409H53.8646V11.2016H43.0832L39.4965 7.58203V29.3213Z" fill="#F6F6F6"/>
<path d="M77.1995 29.3213H70.0261V7.58203L77.1995 14.8213V29.3213Z" fill="#F6F6F6"/>
<path d="M98.7411 29.3204H88.5788L81.5122 22.0596V14.8204H84.373C86.3371 14.7988 87.9597 13.1829 87.9597 11.1792C87.9597 9.1755 86.3585 7.5596 84.373 7.5596H70.0048L62.8101 0.298828H84.5011C90.3722 0.363464 95.1331 5.21116 95.1331 11.1577C95.1331 15.0789 93.0622 18.5262 89.9665 20.4437L98.7411 29.2988V29.3204Z" fill="#F6F6F6"/>
<path d="M14.3682 29.3213H7.17346V7.58203L14.3682 14.8213V29.3213Z" fill="#F6F6F6"/>
<path d="M32.323 11.1792C32.323 15.876 29.3341 19.8835 25.1923 21.3916L18.6807 14.8203H21.5629C23.5271 14.8203 25.1496 13.1829 25.1496 11.1792C25.1496 9.17544 23.5484 7.55954 21.5629 7.55954H7.19476L0 0.320312H21.5629C27.4981 0.320312 32.323 5.18955 32.323 11.1792Z" fill="#F6F6F6"/>
<path d="M109.501 29.3203H102.328V0.320312L109.501 7.58108V29.3203Z" fill="#F6F6F6"/>
<path d="M183.135 29.3203H175.941C170.005 29.3203 165.18 24.4511 165.18 18.4615V11.2007C165.159 5.18956 169.984 0.320312 175.919 0.320312H183.114C189.049 0.320312 193.874 5.18955 193.874 11.1792V18.4399C193.874 24.4295 189.049 29.2988 183.114 29.2988L183.135 29.3203ZM175.919 7.58108C173.955 7.58108 172.333 9.19698 172.333 11.2007V18.4615C172.333 20.4436 173.934 22.0811 175.919 22.0811H183.114C185.078 22.0811 186.701 20.4652 186.701 18.4615V11.2007C186.701 9.21853 185.099 7.58108 183.114 7.58108H175.919Z" fill="#F6F6F6"/>
<path d="M138.237 22.0595H123.869V7.58108L116.696 0.320312V29.3203H138.237V22.0595Z" fill="#F6F6F6"/>
</g>
<defs>
<clipPath id="clip0_75_1867">
<rect width="237" height="29" fill="white" transform="translate(0 0.320312)"/>
</clipPath>
</defs>
</svg>
