<svg width="226" height="40" viewBox="0 0 226 40" fill="none" xmlns="http://www.w3.org/2000/svg">
<g id="pontlab" clip-path="url(#clip0_75_1882)">
<path id="Vector" d="M16.9146 24.9087H14.5207V22.5328V10.8875L7.68557 4.10352L3.81129 7.94881L13.0403 17.1087H0V22.5328H13.0403L3.81129 31.6927L7.68557 35.5224L16.9146 26.3781V39.3208H22.3795V26.3624L31.6085 35.5224L35.467 31.6927L28.6319 24.9087H16.9146Z" fill="white"/>
<path id="Vector_2" d="M39.2941 17.1083V22.5323H16.9146V0.320312H22.3795V13.263L31.6085 4.10308L35.467 7.94837L26.2538 17.1083H39.2941Z" fill="#8D8D8D"/>
<path id="Vector_3" d="M135.442 20.6876V39.3201H127.584V22.4227C127.584 19.3746 125.095 16.8892 122.024 16.8892C118.953 16.8892 116.449 19.359 116.449 22.4227V39.3201H108.59V10.6211H116.449V15.7638C118.181 12.6844 121.489 10.6211 125.3 10.6211C130.907 10.6211 135.442 15.1229 135.442 20.6876Z" fill="white"/>
<path id="Vector_4" d="M73.9422 5.74436C71.6743 2.4618 67.863 0.320312 63.532 0.320312H47.1371V39.3203H54.996V25.4554H63.532C67.8472 25.4554 71.6743 23.3139 73.9422 20.0313C75.3596 18.0149 76.1943 15.5452 76.1943 12.9035C76.1943 10.2618 75.3596 7.79206 73.9264 5.75999L73.9422 5.74436ZM55.0117 20.0313V5.74436H61.1539C65.1384 5.74436 68.3512 8.93314 68.3512 12.8878C68.3512 16.8426 65.1384 20.0157 61.1539 20.0157H55.0117V20.0313Z" fill="white"/>
<path id="Vector_5" d="M91.2662 10.6211C81.5175 10.6211 76.9818 17.0455 76.9818 24.9706C76.9818 32.8956 81.5018 39.3201 91.2662 39.3201C101.015 39.3201 105.551 32.8956 105.551 24.9706C105.551 17.0455 101.031 10.6211 91.2662 10.6211ZM91.282 33.896C86.573 33.896 84.8563 29.9101 84.8563 24.9706C84.8563 20.0311 86.573 16.0451 91.282 16.0451C95.9909 16.0451 97.7076 20.0311 97.7076 24.9706C97.7076 29.9101 95.9909 33.896 91.282 33.896Z" fill="white"/>
<path id="Vector_6" d="M213.857 39.3203C207.259 39.3203 205.054 34.4434 205.054 34.4277V39.3203H199.573V0.320312H205.054V15.4201C205.054 15.4201 207.4 10.6213 213.826 10.6213C221.039 10.6213 226 16.0141 226 24.9239C226 37.8353 217.055 39.3359 213.842 39.3359L213.857 39.3203ZM212.692 34.8341C218.094 34.8341 220.519 30.1448 220.519 24.8614C220.519 22.8919 220.11 15.045 212.692 15.045C208.156 15.045 205.038 18.0462 205.038 24.8614C205.038 30.348 207.164 34.8341 212.692 34.8341Z" fill="#8D8D8D"/>
<path id="Vector_7" d="M166.232 28.0502V0.320312H160.751V22.6105L166.232 28.0502Z" fill="#8D8D8D"/>
<path id="Vector_8" d="M183.792 10.6211C181.887 10.6211 175.304 10.6211 170.784 17.5926L174.721 20.5001C175.666 18.3586 178.453 14.9197 183.304 14.9197C187.352 14.9197 189.021 16.8111 189.021 19.953C189.021 20.969 188.612 21.2347 188.202 21.5005C187.714 21.8131 186.895 22.0007 185.824 22.1257C184.753 22.2508 183.32 22.4071 181.556 22.6103C180.154 22.7666 178.8 22.9854 177.477 23.2824C176.154 23.5794 174.941 24.0327 173.855 24.6267C172.768 25.2207 171.902 26.0179 171.256 27.0027C170.61 27.9874 170.232 29.2848 170.232 30.8636C170.232 31.4576 170.28 31.9265 170.374 32.1766L177.241 38.9918C178.186 39.2107 179.162 39.3201 180.217 39.3201C186.265 39.3201 189.021 34.9121 189.021 34.9121V39.3357H194.502V20.3281C194.502 11.559 187.163 10.6367 183.808 10.6367L183.792 10.6211ZM189.021 28.6908C189.021 29.785 188.69 30.8167 188.092 31.7858C187.493 32.755 186.627 33.5522 185.477 34.1618C184.344 34.7714 182.958 35.0684 181.335 35.0684C179.698 35.0684 178.343 34.7245 177.288 34.0211C176.233 33.3333 175.697 32.3017 175.697 30.9417C175.697 29.957 175.965 29.1598 176.516 28.5814C177.067 27.9874 177.808 27.5497 178.737 27.2371C179.666 26.9245 180.69 26.69 181.792 26.5494C182.265 26.5025 182.863 26.4399 183.572 26.3461C184.281 26.268 185.021 26.1586 185.777 26.0335C186.533 25.9085 187.194 25.7678 187.777 25.5958C188.36 25.4395 188.785 25.252 188.99 25.0487V28.6908H189.021Z" fill="#8D8D8D"/>
<path id="Vector_9" d="M154.798 33.272L153.79 33.4595C150.766 33.8503 149.932 31.0992 149.932 30.0363V16.0463H155.412V10.6066H149.932V2.82227H142.073V10.6223H136.592V16.0619H142.073V31.1149C142.073 33.694 142.86 35.7104 144.451 37.1641C146.026 38.6179 148.247 39.3369 151.097 39.3369C151.885 39.3369 152.672 39.2744 153.475 39.1493C154.278 39.0243 155.097 38.8523 155.932 38.6022L154.814 33.2876L154.798 33.272Z" fill="white"/>
</g>
<defs>
<clipPath id="clip0_75_1882">
<rect width="226" height="39" fill="white" transform="translate(0 0.320312)"/>
</clipPath>
</defs>
</svg>
