<svg width="349" height="85" viewBox="0 0 349 85" fill="none" xmlns="http://www.w3.org/2000/svg">
<g clip-path="url(#clip0_75_1892)">
<path d="M280.41 71.4006C279.61 71.4006 278.95 71.6306 278.45 72.0906C277.95 72.5506 277.7 73.1406 277.7 73.8606C277.7 74.5806 277.95 75.1906 278.45 75.6506C278.95 76.1006 279.6 76.3306 280.42 76.3306C281.24 76.3306 281.89 76.1006 282.39 75.6506C282.89 75.2006 283.14 74.6006 283.14 73.8606C283.14 73.1206 282.89 72.5306 282.39 72.0706C281.89 71.6206 281.23 71.3906 280.41 71.3906V71.4006Z" fill="white"/>
<path d="M305.59 72.14C305.25 72.14 304.78 72.39 304.18 72.87C303.88 73.1 303.65 73.27 303.47 73.38C302.97 73.72 302.44 73.98 301.88 74.15C301.32 74.32 300.73 74.41 300.11 74.41C298.75 74.41 297.64 73.97 296.78 73.1C295.92 72.23 295.49 71.1 295.49 69.73C295.49 68.36 295.94 67.28 296.84 66.43C297.74 65.58 298.91 65.16 300.35 65.16C301.17 65.16 301.9 65.35 302.53 65.73C303.16 66.11 303.7 66.68 304.14 67.43C304.4 67.88 304.62 68.18 304.8 68.32C304.98 68.46 305.19 68.53 305.44 68.53C305.79 68.53 306.05 68.44 306.23 68.27C306.41 68.1 306.49 67.84 306.49 67.5V64.92C306.49 64.23 306.42 63.77 306.28 63.55C306.14 63.33 305.88 63.22 305.5 63.22C305.12 63.22 304.86 63.29 304.68 63.43C304.51 63.57 304.42 63.8 304.42 64.1V64.16C303.63 63.76 302.88 63.47 302.17 63.28C301.46 63.09 300.76 63 300.06 63C298.07 63 296.4 63.64 295.07 64.93C293.74 66.22 293.08 67.82 293.08 69.74C293.08 71.66 293.75 73.26 295.08 74.55C296.41 75.84 298.08 76.47 300.09 76.47C301.64 76.47 303.11 76.09 304.49 75.33C305.87 74.57 306.56 73.82 306.56 73.09C306.56 72.8 306.47 72.57 306.29 72.39C306.11 72.21 305.88 72.12 305.59 72.12V72.14Z" fill="white"/>
<path d="M320.11 63.041C317.97 63.041 316.22 63.671 314.88 64.921C313.54 66.171 312.86 67.781 312.86 69.761C312.86 71.741 313.53 73.351 314.88 74.611C316.23 75.871 317.97 76.491 320.11 76.491C322.25 76.491 324.01 75.861 325.36 74.611C326.71 73.361 327.38 71.741 327.38 69.761C327.38 67.781 326.7 66.181 325.35 64.931C324 63.671 322.25 63.051 320.11 63.051V63.041ZM323.61 73.181C322.7 74.081 321.54 74.531 320.11 74.531C318.68 74.531 317.53 74.081 316.62 73.191C315.71 72.301 315.26 71.151 315.26 69.751C315.26 68.351 315.72 67.211 316.62 66.301C317.52 65.391 318.69 64.941 320.1 64.941C321.51 64.941 322.68 65.391 323.59 66.301C324.5 67.211 324.96 68.361 324.96 69.751C324.96 71.141 324.5 72.291 323.6 73.191L323.61 73.181Z" fill="white"/>
<path d="M348.55 74.3905C348.36 74.2505 347.98 74.1805 347.41 74.1805H347.19V67.9105C347.19 66.1705 346.91 64.9205 346.36 64.1405C345.81 63.3605 344.94 62.9805 343.75 62.9805C343.09 62.9805 342.51 63.1205 342 63.3905C341.49 63.6605 341.04 64.0905 340.66 64.6705C340.46 64.1005 340.14 63.6805 339.72 63.4005C339.3 63.1205 338.76 62.9805 338.12 62.9805C337.58 62.9805 337.08 63.0805 336.65 63.2705C336.22 63.4605 335.81 63.7605 335.43 64.1705C335.41 63.8305 335.35 63.6105 335.26 63.5005C335.17 63.3905 334.96 63.3405 334.66 63.3405H332.54C332.17 63.3405 331.89 63.4205 331.71 63.5805C331.53 63.7405 331.43 63.9805 331.43 64.3005C331.43 64.6705 331.55 64.9205 331.78 65.0705C332.01 65.2205 332.45 65.2905 333.09 65.2905H333.34V74.1805H333.07C332.45 74.1805 332.03 74.2505 331.81 74.3805C331.59 74.5105 331.49 74.7705 331.49 75.1305C331.49 75.4705 331.57 75.7205 331.75 75.8805C331.92 76.0405 332.19 76.1205 332.54 76.1205H336.21C336.65 76.1205 336.95 76.0505 337.11 75.9105C337.27 75.7705 337.34 75.5105 337.34 75.1305C337.34 74.7505 337.24 74.5205 337.05 74.3805C336.86 74.2405 336.49 74.1705 335.94 74.1705H335.43V66.5405C335.68 66.0605 335.98 65.7005 336.32 65.4505C336.66 65.2005 337.05 65.0805 337.46 65.0805C338 65.0805 338.43 65.2805 338.75 65.6805C339.06 66.0805 339.22 66.6305 339.22 67.3205V74.6505C339.22 75.2605 339.29 75.6605 339.43 75.8405C339.57 76.0305 339.84 76.1205 340.24 76.1205H342C342.32 76.1205 342.56 76.0405 342.72 75.8705C342.88 75.7005 342.96 75.4505 342.96 75.1205C342.96 74.7505 342.87 74.5005 342.68 74.3705C342.49 74.2405 342.12 74.1705 341.56 74.1705H341.31V68.4105C341.31 67.3805 341.51 66.5605 341.91 65.9705C342.31 65.3805 342.85 65.0805 343.53 65.0805C344.1 65.0805 344.5 65.3105 344.74 65.7705C344.98 66.2305 345.09 67.1105 345.09 68.4105V74.7405C345.09 75.2205 345.18 75.5705 345.35 75.7905C345.52 76.0105 345.8 76.1205 346.17 76.1205H347.84C348.16 76.1205 348.41 76.0405 348.57 75.8705C348.73 75.7005 348.82 75.4505 348.82 75.1205C348.82 74.7605 348.72 74.5105 348.53 74.3705L348.55 74.3905Z" fill="white"/>
<path d="M105.83 17.2403C110.502 17.2403 114.29 13.4526 114.29 8.78031C114.29 4.10798 110.502 0.320312 105.83 0.320312C101.158 0.320312 97.37 4.10798 97.37 8.78031C97.37 13.4526 101.158 17.2403 105.83 17.2403Z" fill="white"/>
<path d="M249.93 25.7113C242.31 25.7113 235.49 29.0713 230.83 34.3813C226.18 29.0713 219.35 25.7113 211.73 25.7113C207.54 25.7113 203.59 26.7313 200.1 28.5312C194.75 16.8813 182.98 8.78125 169.32 8.78125H143.93V31.0412C139.9 27.7112 134.74 25.7113 129.11 25.7113C123.48 25.7113 118.31 27.7112 114.29 31.0412V25.7113H97.36V53.2313C97.36 59.0812 92.62 63.8213 86.77 63.8213C80.92 63.8213 76.18 59.0812 76.18 53.2313V25.7113H63.17C57.31 15.5913 46.38 8.78125 33.85 8.78125C15.16 8.78125 0 23.9412 0 42.6413C0 61.3413 15.16 76.5013 33.86 76.5013C35.36 76.5013 36.84 76.3913 38.29 76.2012L45.63 84.9613H67.72L54.64 69.3613C57.13 67.4213 59.35 65.1312 61.22 62.5812C64.83 70.7812 73.01 76.5013 82.54 76.5013C88.17 76.5013 93.34 74.5013 97.36 71.1712V76.5013H114.29V48.9813C114.29 43.1313 119.03 38.3913 124.88 38.3913C130.73 38.3913 135.47 43.1313 135.47 48.9813V76.5013H169.33C178.21 76.5013 186.29 73.0813 192.33 67.4813C196.99 72.9913 203.95 76.5013 211.73 76.5013C219.51 76.5013 226.18 73.1512 230.83 67.8412C235.48 73.1512 242.31 76.5013 249.92 76.5013C260.98 76.5013 270.38 69.4313 273.87 59.5713H260.55C258.62 62.1513 255.54 63.8213 252.07 63.8213C246.95 63.8213 242.68 60.1913 241.7 55.3613V55.3312H274.97V55.3613C275.2 53.9813 275.33 52.5513 275.33 51.1012C275.33 37.0812 263.96 25.7113 249.94 25.7113H249.93ZM33.86 59.5713C24.51 59.5713 16.93 51.9912 16.93 42.6413C16.93 33.2913 24.51 25.7113 33.86 25.7113C43.21 25.7113 50.79 33.2913 50.79 42.6413C50.79 51.9912 43.21 59.5713 33.86 59.5713ZM169.33 59.5713H160.87V25.7113H169.33C178.68 25.7113 186.26 33.2913 186.26 42.6413C186.26 51.9912 178.68 59.5713 169.33 59.5713ZM213.87 38.3913C218.99 38.3913 223.26 42.0212 224.24 46.8512V46.8813H203.49C204.47 42.0413 208.74 38.4013 213.87 38.4013V38.3913ZM222.36 59.5713C220.43 62.1513 217.35 63.8213 213.88 63.8213C208.76 63.8213 204.49 60.1913 203.51 55.3613V55.3312H224.9C225.14 56.7912 225.51 58.2013 225.99 59.5613H222.37L222.36 59.5713ZM262.44 46.8813H241.69C242.67 42.0413 246.94 38.4013 252.07 38.4013C257.2 38.4013 261.46 42.0312 262.44 46.8613V46.8913V46.8813Z" fill="white"/>
</g>
<defs>
<clipPath id="clip0_75_1892">
<rect width="348.84" height="84.65" fill="white" transform="translate(0 0.320312)"/>
</clipPath>
</defs>
</svg>
