<svg width="193" height="35" viewBox="0 0 193 35" fill="none" xmlns="http://www.w3.org/2000/svg">
<g id="sadas" clip-path="url(#clip0_75_1899)">
<path id="Vector" d="M12.83 5.85086C16.67 5.85086 19.34 7.99086 19.34 9.91086H24.82C24.81 4.57086 19.55 0.380859 12.83 0.380859C6.10997 0.380859 0.839966 4.57086 0.839966 9.92086C0.839966 16.8709 7.89997 18.7709 12.12 19.9109C17.66 21.4009 19.34 22.5009 19.34 24.6109C19.34 26.5309 16.67 28.6709 12.83 28.6709C8.98997 28.6709 6.31997 26.5309 6.31997 24.6109H0.839966C0.839966 29.9609 6.10997 34.1509 12.83 34.1509C19.55 34.1509 24.82 29.9609 24.82 24.6109C24.82 17.6609 17.76 15.7609 13.55 14.6209C8.00997 13.1309 6.32997 12.0309 6.32997 9.92086C6.32997 8.00086 8.99997 5.86086 12.84 5.86086L12.83 5.85086Z" fill="#DADADA"/>
<path id="Vector_2" d="M94.2899 0.320312H81.7V34.2003H94.2899C103.63 34.2003 111.23 26.6003 111.23 17.2603C111.23 7.92031 103.63 0.320312 94.2899 0.320312ZM94.2899 28.7303H87.17V5.80031H94.2899C100.61 5.80031 105.76 10.9403 105.76 17.2703C105.76 23.6003 100.62 28.7403 94.2899 28.7403V28.7303Z" fill="#DADADA"/>
<path id="Vector_3" d="M180.8 14.6209C175.26 13.1309 173.58 12.0309 173.58 9.92086C173.58 8.00086 176.25 5.86086 180.09 5.86086C183.93 5.86086 186.6 8.00086 186.6 9.92086H192.08C192.08 4.57086 186.81 0.380859 180.09 0.380859C173.37 0.380859 168.1 4.57086 168.1 9.92086C168.1 16.8709 175.16 18.7709 179.38 19.9109C184.92 21.4009 186.6 22.5009 186.6 24.6109C186.6 26.5309 183.93 28.6709 180.09 28.6709C176.25 28.6709 173.58 26.5309 173.58 24.6109H168.1C168.1 29.9609 173.37 34.1509 180.09 34.1509C186.81 34.1509 192.08 29.9609 192.08 24.6109C192.08 17.6609 185.02 15.7609 180.81 14.6209H180.8Z" fill="#DADADA"/>
<path id="Vector_4" d="M46.2599 22.5903L46.3499 22.6103C46.3499 22.6103 46.54 22.6603 46.88 22.7303C49.35 16.2003 53.2799 5.80031 53.2799 5.80031L59.7 22.7303C60.05 22.6603 60.25 22.6103 60.25 22.6003L60.34 22.5803L60.41 22.5603C61.77 22.2403 63.09 21.8303 64.3899 21.3403L56.43 0.320312H50.15L42.2 21.3503C43.49 21.8403 44.82 22.2503 46.17 22.5703L46.2599 22.5903Z" fill="#DADADA"/>
<path id="Vector_5" d="M53.27 29.1495C48.68 29.1495 44.29 28.2995 40.24 26.7695L38.35 31.7795C42.99 33.5395 48.02 34.5095 53.28 34.5095C58.54 34.5095 63.57 33.5395 68.21 31.7795L66.32 26.7695C62.27 28.2995 57.88 29.1495 53.29 29.1495H53.27Z" fill="#DADADA"/>
<path id="Vector_6" d="M132.57 22.5803L132.66 22.6003C132.66 22.6003 132.86 22.6503 133.21 22.7303L139.63 5.80031C139.63 5.80031 143.56 16.2003 146.03 22.7303C146.37 22.6603 146.56 22.6103 146.56 22.6103L146.65 22.5903L146.74 22.5703C148.09 22.2503 149.42 21.8403 150.71 21.3503L142.76 0.320312H136.48L128.51 21.3403C129.81 21.8403 131.14 22.2503 132.49 22.5603L132.56 22.5803H132.57Z" fill="#DADADA"/>
<path id="Vector_7" d="M139.64 28.8605C135.05 28.8605 130.66 28.0105 126.61 26.4805L124.72 31.4905C129.36 33.2505 134.39 34.2205 139.65 34.2205C144.91 34.2205 149.94 33.2505 154.58 31.4905L152.69 26.4805C148.64 28.0105 144.25 28.8605 139.66 28.8605H139.64Z" fill="#DADADA"/>
</g>
<defs>
<clipPath id="clip0_75_1899">
<rect width="191.23" height="34.18" fill="white" transform="translate(0.839966 0.320312)"/>
</clipPath>
</defs>
</svg>
