<svg width="359" height="82" viewBox="0 0 359 82" fill="none" xmlns="http://www.w3.org/2000/svg">
<g clip-path="url(#clip0_75_1907)">
<path d="M110.44 36.957C110.44 40.6816 113.479 43.707 117.219 43.707H130.777C132.022 43.707 133.037 44.7178 133.037 45.957C133.037 47.1963 132.022 48.207 130.777 48.207H110.44V52.707H130.777C134.518 52.707 137.557 49.6816 137.557 45.957C137.557 42.2324 134.518 39.207 130.777 39.207H117.219C115.975 39.207 114.96 38.1963 114.96 36.957C114.96 35.7178 115.975 34.707 117.219 34.707H137.557V30.207H117.219C113.479 30.207 110.44 33.2324 110.44 36.957Z" fill="white"/>
<path d="M214.379 48.207H214.171L198.645 30.207H191.782V52.707H196.302V34.707H196.573L212.092 52.707H218.899V30.207H214.379V48.207Z" fill="white"/>
<path d="M295.728 39.207H277.651V30.207H273.131V52.707H277.651V43.707H295.728V52.707H300.248V30.207H295.728V39.207Z" fill="white"/>
<path d="M318.325 30.207H313.806V52.707H318.325V30.207Z" fill="white"/>
<path d="M232.457 41.457C232.457 47.6601 237.526 52.707 243.755 52.707H259.573V48.207H243.755C240.015 48.207 236.976 45.1816 236.976 41.457C236.976 37.7324 240.015 34.707 243.755 34.707H259.573V30.207H243.755C237.526 30.207 232.457 35.254 232.457 41.457Z" fill="white"/>
<path d="M352.221 30.207H331.884V52.707H336.403V43.707H352.221C355.961 43.707 359 40.6816 359 36.957C359 33.2324 355.961 30.207 352.221 30.207ZM352.221 39.207H336.403V34.707H352.221C353.465 34.707 354.481 35.7178 354.481 36.957C354.481 38.1963 353.465 39.207 352.221 39.207Z" fill="white"/>
<path d="M161.19 30.207L151.087 52.7278H151.108V52.707H156.044L158.061 48.207H171.271L173.295 52.707H178.217V52.7416L178.252 52.7278L168.129 30.207H161.176H161.19ZM160.084 43.707L164.124 34.707H165.215L169.262 43.707H160.091H160.084Z" fill="white"/>
<path d="M72.4077 0.970703H50.2279L39.4648 19.5315C39.2631 19.8776 39.2631 20.3069 39.4648 20.6599L50.2279 39.2207H71.7541C72.1574 39.2207 72.5328 39.0061 72.7345 38.6599L83.1708 20.6599C83.3724 20.3138 83.3724 19.8846 83.1708 19.5315L72.4077 0.970703ZM42.3989 18.9707L51.5281 3.2207H71.0936L80.2228 18.9707H42.3919H42.3989Z" fill="white"/>
<path d="M33.5965 19.5315C33.3949 19.1853 33.0194 18.9707 32.6161 18.9707H11.7435C11.3402 18.9707 10.9647 19.1853 10.7631 19.5384L0 38.0922L11.0899 57.2138H32.6161C33.0194 57.2138 33.3949 56.9992 33.5965 56.653L44.3596 38.0922L33.5965 19.5315ZM12.3971 54.9707L2.60734 38.0922L11.7365 22.3422L30.6554 54.9638H12.3901L12.3971 54.9707Z" fill="white"/>
<path d="M67.8396 43.7207H46.3134L35.5503 62.2815C35.3486 62.6276 35.3486 63.0569 35.5503 63.4099L45.9866 81.4099C46.1882 81.7561 46.5637 81.9707 46.967 81.9707H68.4932L79.5831 62.8422L68.82 44.2815C68.6184 43.9353 68.2429 43.7207 67.8396 43.7207ZM67.186 79.7207H48.9207L67.8396 47.0992L76.9688 62.8492L67.186 79.7207Z" fill="white"/>
</g>
<defs>
<clipPath id="clip0_75_1907">
<rect width="359" height="81" fill="white" transform="translate(0 0.970703)"/>
</clipPath>
</defs>
</svg>
