<svg width="287" height="76" viewBox="0 0 287 76" fill="none" xmlns="http://www.w3.org/2000/svg">
<g clip-path="url(#clip0_75_1920)">
<path d="M1.51039 75.0347L0.866129 75.0047C0.887462 73.5378 0.59733 71.7751 0 69.7164C0.251732 69.6435 0.418131 69.6006 0.503464 69.5921C0.755196 70.3855 0.951461 70.9559 1.09226 71.3119C1.23306 71.6636 1.41653 71.9767 1.64266 72.2469C1.86879 72.5171 2.18025 72.7573 2.58132 72.9674C3.26398 73.3277 4.05331 73.6494 4.94504 73.9324C5.83677 74.2155 6.79676 74.3613 7.82929 74.3613C8.72102 74.3613 9.61701 74.1383 10.513 73.6965C11.409 73.2548 11.8613 72.2769 11.8613 70.7672C11.8613 70.0081 11.729 69.3519 11.4687 68.8029C11.2042 68.2539 10.8629 67.8122 10.4362 67.4733C10.0095 67.1345 9.51888 66.8343 8.95568 66.5727C8.39249 66.3111 7.66716 66.0065 6.77543 65.672C5.5381 65.2174 4.51411 64.7542 3.71198 64.2781C2.90985 63.802 2.26985 63.2188 1.79626 62.5197C1.32266 61.8249 1.08799 60.9714 1.08799 59.9721C1.08799 58.3766 1.67252 57.0513 2.83732 55.9877C4.00211 54.9283 5.6661 54.3965 7.82929 54.3965C8.93008 54.3965 10.0181 54.5123 11.089 54.7439C11.5199 54.8297 11.7887 54.8683 11.8911 54.8683C12.2069 54.8683 12.5226 54.761 12.8383 54.5509L12.9621 54.4866C13.0474 54.4866 13.1498 54.508 13.2778 54.5509C13.2479 54.7954 13.2181 55.0355 13.1925 55.2714C13.1669 55.5073 13.1413 55.7689 13.1157 56.0563C13.0901 56.3394 13.073 56.5624 13.0602 56.7211C13.0474 56.8798 13.0389 56.987 13.0303 57.0384C13.1669 58.3165 13.2309 59.0113 13.2181 59.1271L12.7445 59.1572C12.6591 58.0806 12.3093 57.2315 11.6906 56.6138C11.0719 55.9962 10.3722 55.5759 9.59568 55.3529C8.81915 55.1299 8.07249 55.0184 7.35996 55.0184C5.6149 55.0184 4.46291 55.4773 3.90398 56.3865C3.34505 57.2958 3.06345 58.1621 3.06345 58.977C3.06345 59.8305 3.27252 60.5425 3.69491 61.1086C4.11304 61.6747 4.63784 62.1165 5.26077 62.4382C5.8837 62.7598 6.7669 63.1416 7.89756 63.5833C9.17755 64.0894 10.2101 64.5526 10.9866 64.9815C11.7631 65.4104 12.4586 66.028 13.0645 66.8343C13.6746 67.6406 13.9775 68.6442 13.9775 69.8365C13.9775 70.853 13.713 71.7665 13.1882 72.5771C12.6634 73.3877 11.8741 74.0354 10.8245 74.5114C9.77488 74.9875 8.48635 75.2234 6.96743 75.2234C5.4485 75.2234 3.94664 75.0089 2.35092 74.5758C2.06932 74.5114 1.89439 74.4814 1.83039 74.4814C1.55732 74.4814 1.45066 74.6658 1.51466 75.0347H1.51039Z" fill="white"/>
<path d="M15.5178 75.1947V74.7187C16.3157 74.4871 16.8405 74.3112 17.0837 74.1954C17.3311 74.0796 17.4762 73.8952 17.5189 73.6422C17.6767 73.0417 17.7535 70.597 17.7535 66.3124C17.7535 65.6476 17.7535 64.9228 17.745 64.1422C17.7407 63.3617 17.7322 62.7569 17.7194 62.328C17.7066 61.8991 17.681 61.2386 17.6426 60.3423C17.6213 59.729 17.5829 58.9655 17.5317 58.0563C17.4805 57.1428 17.4293 56.5637 17.3823 56.315C17.3354 56.0662 17.2629 55.8647 17.169 55.706C17.0239 55.4829 16.8021 55.3328 16.5077 55.2471C16.2133 55.1613 15.7866 55.0884 15.2319 55.024C15.2106 54.801 15.2106 54.5909 15.2319 54.3893C16.0725 54.4536 17.0581 54.4836 18.193 54.4836C18.5173 54.4836 19.089 54.4622 19.9082 54.415L20.9023 54.3292C21.1455 54.3078 21.4783 54.2949 21.9092 54.2949C23.3898 54.2949 24.6868 54.5008 25.8004 54.9125C26.914 55.3243 27.8441 55.8732 28.5951 56.5552C29.346 57.2371 29.9007 57.9662 30.2633 58.7425C30.626 59.5188 30.8052 60.2779 30.8052 61.0156C30.8052 62.1565 30.4596 63.2287 29.7641 64.2323C29.0729 65.2359 28.0489 66.0508 26.6921 66.6727C25.3396 67.2946 23.7396 67.6077 21.905 67.6077C21.201 67.6077 20.5226 67.5562 19.8741 67.449C19.8869 68.2724 19.8996 69.2375 19.9082 70.3397C19.921 71.4419 19.9338 72.111 19.9423 72.3426C19.9764 72.9774 20.0575 73.432 20.1855 73.7022C20.3092 73.9767 20.5695 74.174 20.962 74.2898C21.3546 74.4056 22.0074 74.4914 22.929 74.5428L22.8991 75.2548C22.498 75.1819 21.9647 75.1261 21.2906 75.0961C20.4714 75.0532 19.9082 75.0318 19.6053 75.0318C18.449 75.0318 17.5487 75.0832 16.8959 75.1904L16.0938 75.2848C15.8847 75.2848 15.6885 75.2548 15.5093 75.1904L15.5178 75.1947ZM20.0362 55.4015C20.0362 55.4958 20.0234 56.0491 19.9978 57.057C19.9722 58.0649 19.9508 58.8969 19.9338 59.5445C19.9167 60.1965 19.8996 60.9041 19.8783 61.6718C19.857 62.4395 19.8485 62.8813 19.8485 62.9971C19.8485 64.0221 19.857 65.1501 19.8783 66.3768C20.7914 66.6212 21.6404 66.7413 22.4298 66.7413C23.3002 66.7413 24.1791 66.5698 25.0666 66.2266C25.954 65.8835 26.7007 65.296 27.3108 64.4682C27.9209 63.6404 28.2239 62.5468 28.2239 61.1958C28.2239 60.1493 28.002 59.1628 27.554 58.2407C27.106 57.3143 26.4233 56.5637 25.4975 55.989C24.5716 55.4143 23.4708 55.1227 22.1908 55.1227C21.5295 55.1227 20.8084 55.217 20.0319 55.41L20.0362 55.4015Z" fill="white"/>
<path d="M32.418 55.1312V54.4492C33.6041 54.5136 34.3465 54.5564 34.6409 54.5779C35.7118 54.6208 36.4329 54.6422 36.7998 54.6422C36.9278 54.6422 37.4739 54.6208 38.4382 54.5779C39.4025 54.535 40.3113 54.4921 41.1646 54.4492V55.1955C40.2387 55.1955 39.6115 55.247 39.2745 55.3456C38.9374 55.4442 38.6857 55.6458 38.5193 55.9375C38.1737 56.6022 37.9987 59.1456 37.9987 63.5588C37.9987 66.5997 37.9987 68.5254 38.0073 69.336C38.0115 70.1423 38.0286 71.0087 38.0627 71.9265C38.0841 72.6642 38.1395 73.1874 38.2377 73.4962C38.3315 73.8007 38.5875 74.0323 39.0099 74.1867C39.4323 74.3411 40.1065 74.4226 41.0409 74.4312L40.9769 75.0316C40.8318 75.0316 40.5374 75.0231 40.1022 75.0102C39.667 74.9931 39.2147 74.9802 38.7497 74.9716C38.2803 74.963 37.9219 74.9544 37.6702 74.9459C37.4185 74.9416 37.1283 74.9373 36.8041 74.9373C36.3433 74.9373 35.955 74.9373 35.6478 74.9459C35.3364 74.9502 34.9268 74.9587 34.4105 74.9716C33.8942 74.9802 33.4292 74.9973 33.0153 75.0102C32.6014 75.0274 32.3497 75.0316 32.2686 75.0316L32.2388 74.4312C33.3737 74.3669 34.1417 74.2339 34.5385 74.0366C34.9396 73.835 35.2126 73.5134 35.3577 73.0716C35.5668 72.5012 35.7033 71.4247 35.7587 69.8378C35.8142 68.2509 35.8441 66.5739 35.8441 64.8155C35.8441 63.2243 35.7929 60.934 35.6862 57.949C35.6564 57.1255 35.5753 56.5379 35.443 56.1862C35.3108 55.8345 35.0164 55.5729 34.5598 55.4014C34.1033 55.2298 33.3908 55.144 32.4265 55.1312H32.418Z" fill="white"/>
<path d="M52.0615 67.9115L50.2482 65.3167C48.8615 65.3167 47.7138 65.2481 46.8008 65.1108L46.7709 68.9108C46.7709 69.7128 46.7965 70.6092 46.8434 71.6042C46.8904 72.595 46.997 73.2984 47.1677 73.7101C47.253 73.9631 47.3981 74.1433 47.6029 74.2505C47.8077 74.3577 48.2685 74.5035 48.981 74.6922C49.2114 74.7437 49.3266 74.8295 49.3266 74.9453C49.3266 75.1769 49.2541 75.2927 49.1047 75.2927C48.9383 75.2927 48.4946 75.2412 47.7821 75.134C46.8776 75.0482 46.3272 75.0096 46.1266 75.0096C45.1069 75.0096 44.0573 75.0825 42.9778 75.2326C42.9053 75.2326 42.8157 75.2412 42.709 75.2627C42.5 75.2627 42.3933 75.1683 42.3933 74.9753C42.3933 74.8681 42.4317 74.7909 42.5128 74.7394C42.5938 74.688 42.7688 74.6236 43.0418 74.5507C43.5154 74.4263 43.8568 74.2333 44.0658 73.9717C44.2749 73.7144 44.4285 73.2083 44.5224 72.4534C44.6162 71.6986 44.6674 70.4891 44.6802 68.8207V61.8213C44.7016 60.11 44.693 58.8533 44.6546 58.0513C44.6162 57.2493 44.5309 56.6617 44.3944 56.2843C44.2578 55.9112 44.0488 55.6581 43.7629 55.5337C43.477 55.4094 43.0333 55.3064 42.4232 55.2335L42.4872 54.7103C43.0418 54.7317 43.7544 54.7403 44.612 54.7403C44.8637 54.7403 45.781 54.676 47.3597 54.543C48.9383 54.41 49.941 54.3457 50.3591 54.3457C51.4599 54.3457 52.4541 54.5001 53.3373 54.8046C54.2204 55.1091 54.9586 55.5166 55.5516 56.0227C56.1447 56.5288 56.5927 57.1078 56.8999 57.7554C57.2028 58.403 57.3564 59.0721 57.3564 59.7583C57.3564 60.4445 57.1986 61.1522 56.8828 61.817C56.5671 62.4817 56.0892 63.0865 55.4492 63.6312C54.8092 64.1759 53.9858 64.6348 52.9746 65.0165L53.6871 66.093C54.677 67.5941 55.5004 68.8036 56.1532 69.7257C56.806 70.6478 57.5058 71.5399 58.2567 72.3934C59.0076 73.2469 59.7713 73.9417 60.5521 74.4778C61.3329 75.0096 62.0967 75.3098 62.8391 75.3742C63.0396 75.4042 63.1377 75.5114 63.1377 75.6916C63.1377 75.7859 63.0908 75.8588 62.9969 75.906C62.9031 75.9532 62.6769 75.9789 62.3185 75.9789C61.2988 75.9789 60.3175 75.7559 59.3746 75.3056C58.4316 74.8552 57.5314 74.2505 56.6823 73.4914C55.8332 72.7322 55.0738 71.9345 54.4124 71.0981C53.7511 70.2661 52.9703 69.2025 52.0658 67.9158L52.0615 67.9115ZM46.8946 64.1887C47.5986 64.356 48.4477 64.4418 49.4461 64.4418C49.9495 64.4418 50.4829 64.4032 51.0461 64.3303C51.6093 64.2574 52.1853 64.0944 52.7783 63.8413C53.3714 63.5883 53.8834 63.1594 54.3143 62.559C54.7452 61.9585 54.9586 61.1522 54.9586 60.14C54.9586 59.4238 54.7708 58.6732 54.3996 57.8883C54.0284 57.1035 53.4524 56.4301 52.6759 55.864C51.8994 55.3021 50.9522 55.0191 49.8386 55.0191C49.3778 55.0191 48.853 55.0791 48.2727 55.1992C47.6882 55.3193 47.3512 55.5123 47.2573 55.7782C47.0141 56.2929 46.8946 59.0978 46.8946 64.1887Z" fill="white"/>
<path d="M61.2605 55.2729L61.3245 54.6725C61.8194 54.6939 62.5703 54.7025 63.5773 54.7025C65.3607 54.7025 67.1143 54.6596 68.838 54.5781L69.013 55.1014C68.0359 55.2172 67.3789 55.3587 67.0375 55.5303C66.6962 55.6975 66.4487 55.9334 66.2909 56.2251C65.9751 56.8169 65.8173 59.2916 65.8173 63.6534C65.8173 65.1546 65.8386 66.4712 65.8813 67.6121C65.9239 68.7529 66.0093 69.6407 66.133 70.2712C66.4786 71.8667 67.3234 72.9218 68.6674 73.445C70.0114 73.9682 71.2658 74.2299 72.4306 74.2299C73.0919 74.2299 73.8855 74.1355 74.8113 73.9468C75.7372 73.7581 76.6119 73.415 77.4439 72.9175C78.2759 72.42 78.8305 71.7466 79.1121 70.8931C79.6881 69.2076 79.9782 65.888 79.9782 60.9429C79.9782 59.4675 79.9356 58.3566 79.846 57.6104C79.7564 56.8684 79.6113 56.328 79.4108 55.9978C79.2103 55.6675 78.9585 55.4616 78.6556 55.3887C78.3527 55.3158 77.8663 55.2772 77.2049 55.2772L77.1409 54.7239C77.6145 54.651 78.1393 54.6124 78.7153 54.6124C80.9724 54.6124 82.4913 54.6253 83.2678 54.6425V55.2901C82.5425 55.3201 82.0476 55.4016 81.7788 55.526C81.51 55.6546 81.3478 55.8819 81.2924 56.2079C81.2326 56.5339 81.1942 57.233 81.1729 58.2966C81.143 60.2909 81.0961 62.0623 81.0321 63.6106C80.9681 65.1588 80.8913 66.4284 80.7974 67.4277C80.7036 68.427 80.567 69.3148 80.3964 70.0954C80.2214 70.8759 80.0124 71.5107 79.7564 71.9954C79.2743 72.8917 78.5233 73.5908 77.5036 74.084C76.4839 74.5816 75.4556 74.9032 74.4145 75.0576C73.3735 75.212 72.4306 75.2892 71.5772 75.2892C70.1607 75.2892 68.8508 75.0748 67.6562 74.6502C66.4573 74.2213 65.4802 73.5136 64.7165 72.5229C63.957 71.5322 63.573 70.2541 63.573 68.6929C63.573 68.3155 63.5858 67.2733 63.6114 65.5749C63.637 63.8765 63.6498 62.6112 63.6498 61.7792C63.6498 58.8584 63.509 56.9156 63.2231 55.9549C63.1506 55.7104 63.0269 55.5603 62.8519 55.5045C62.677 55.4488 62.1437 55.3716 61.252 55.2729H61.2605Z" fill="white"/>
<path d="M85.3029 55.165V54.6117C86.6256 54.6246 87.4917 54.6332 87.9013 54.6417C88.3109 54.6503 88.6522 54.6632 88.9253 54.6718C90.6874 54.6718 91.848 54.6503 92.4069 54.6074L92.377 55.225C91.6517 55.2894 91.1098 55.3751 90.7557 55.4866C90.3973 55.5982 90.1413 55.834 89.9834 56.19C89.8896 56.4216 89.8213 57.0049 89.7786 57.9313C89.736 58.862 89.7018 60.0543 89.6677 61.5083C89.625 63.1466 89.5952 64.6263 89.5738 65.9601C89.5525 67.2897 89.544 68.6107 89.544 69.9188C89.544 71.1111 89.5738 71.9946 89.6378 72.565C89.7018 73.1355 89.8042 73.4957 89.9536 73.6416C90.1328 73.7788 90.4272 73.8775 90.8453 73.9418C91.2592 74.0061 92.1466 74.0361 93.4992 74.0361C94.9925 74.0361 96.2383 73.916 97.241 73.6716C98.2437 73.4271 98.9989 73.1698 99.5023 72.8953C100.172 72.4836 100.637 71.7802 100.889 70.7894L101.41 70.8538C101.346 71.287 101.205 71.9346 100.983 72.8009C100.761 73.6673 100.505 74.4522 100.211 75.1598C99.3061 75.0526 98.5893 75.0011 98.0517 75.0011C97.7274 74.9883 97.4245 74.984 97.1471 74.9754C96.8698 74.9711 96.5455 74.9668 96.1786 74.9668H85.1195L85.0896 74.4779C85.704 74.3535 86.152 74.212 86.4336 74.0662C86.7152 73.9203 86.9243 73.663 87.0651 73.2985C87.2059 72.9339 87.2955 72.3892 87.3381 71.6601C87.3808 70.931 87.4021 69.8802 87.4021 68.5077L87.432 61.5383C87.4533 59.9643 87.4533 58.7719 87.432 57.9613C87.4107 57.1507 87.3381 56.546 87.2101 56.1471C87.0864 55.7526 86.8859 55.4909 86.6128 55.3708C86.3397 55.2508 85.9045 55.1778 85.3072 55.1564L85.3029 55.165Z" fill="white"/>
<path d="M102.596 55.1312V54.4492C103.782 54.5136 104.524 54.5564 104.819 54.5779C105.89 54.6208 106.611 54.6422 106.978 54.6422C107.106 54.6422 107.652 54.6208 108.616 54.5779C109.58 54.535 110.489 54.4921 111.342 54.4492V55.1955C110.416 55.1955 109.789 55.247 109.452 55.3456C109.115 55.4442 108.863 55.6458 108.697 55.9375C108.351 56.6022 108.176 59.1456 108.176 63.5588C108.176 66.5997 108.176 68.5254 108.185 69.336C108.189 70.1423 108.206 71.0087 108.24 71.9265C108.262 72.6642 108.317 73.1874 108.415 73.4962C108.509 73.8007 108.765 74.0323 109.188 74.1867C109.61 74.3411 110.284 74.4226 111.219 74.4312L111.155 75.0316C111.01 75.0316 110.715 75.0231 110.28 75.0102C109.845 74.9931 109.392 74.9802 108.927 74.9716C108.458 74.963 108.1 74.9544 107.848 74.9459C107.596 74.9416 107.306 74.9373 106.982 74.9373C106.521 74.9373 106.133 74.9373 105.826 74.9459C105.514 74.9502 105.104 74.9587 104.588 74.9716C104.072 74.9802 103.607 74.9973 103.193 75.0102C102.779 75.0274 102.527 75.0316 102.446 75.0316L102.417 74.4312C103.551 74.3669 104.319 74.2339 104.716 74.0366C105.117 73.835 105.39 73.5134 105.535 73.0716C105.744 72.5012 105.881 71.4247 105.936 69.8378C105.992 68.2509 106.022 66.5739 106.022 64.8155C106.022 63.2243 105.971 60.934 105.864 57.949C105.834 57.1255 105.753 56.5379 105.621 56.1862C105.488 55.8345 105.194 55.5729 104.738 55.4014C104.281 55.2298 103.568 55.144 102.604 55.1312H102.596Z" fill="white"/>
<path d="M112.571 55.0999V54.4522C113.514 54.5166 114.12 54.5552 114.384 54.5723C114.649 54.5895 114.956 54.5895 115.314 54.5809L116.667 54.5509C117.298 55.3529 118.037 56.2021 118.89 57.0985C119.739 57.9949 120.695 58.9599 121.749 59.9892C122.802 61.0185 123.4 61.6018 123.536 61.7391L132.829 70.6085C132.914 69.2875 132.957 67.2889 132.957 64.6084V61.5547C132.957 59.9292 132.919 58.7025 132.838 57.8791C132.761 57.0556 132.607 56.4509 132.39 56.0563C132.168 55.666 131.882 55.4044 131.523 55.2714C131.165 55.1385 130.568 55.0055 129.727 54.8683L129.902 54.4265C130.047 54.4051 130.307 54.3965 130.674 54.3965C130.999 54.3965 131.327 54.4008 131.651 54.4136C131.976 54.4222 132.36 54.4522 132.803 54.4908C133.064 54.5123 133.337 54.5209 133.623 54.5209H134.314L136.315 54.4908L136.345 55.027C135.713 55.1213 135.261 55.2714 134.992 55.4687C134.719 55.6703 134.523 56.0005 134.408 56.468C134.22 57.3344 134.083 59.0285 134.007 61.5504C133.93 64.0722 133.887 66.474 133.887 68.7557C133.887 69.6521 133.896 70.5142 133.913 71.3376C133.93 72.1611 133.947 72.8988 133.968 73.555C133.99 74.2112 134.019 74.8159 134.062 75.3778L133.418 75.3478C132.693 73.7737 130.508 71.2819 126.864 67.8722L120.955 62.331C120.754 62.1851 120.268 61.7434 119.496 61.0185C118.724 60.2894 117.751 59.3759 116.573 58.2779L116.368 67.9751C116.317 69.9695 116.36 71.3634 116.496 72.1611C116.633 72.9588 116.932 73.4864 117.392 73.7437C117.853 74.001 118.732 74.2584 120.025 74.5114C120.025 74.7387 120.004 74.9403 119.961 75.1119C119.794 75.1119 119.287 75.0904 118.45 75.0475C117.589 75.0047 117.068 74.9832 116.889 74.9832C116.722 74.9832 116.142 75.0047 115.157 75.0475C114.99 75.0561 114.764 75.0733 114.478 75.0947C114.197 75.1162 113.825 75.1419 113.377 75.1719C113.232 75.1719 113.121 75.1419 113.053 75.0861C112.985 75.0261 112.951 74.9317 112.951 74.7945C112.951 74.6358 112.976 74.5415 113.028 74.5114C113.079 74.4814 113.194 74.4557 113.373 74.4342C113.834 74.3828 114.167 74.297 114.372 74.1812C114.576 74.0654 114.743 73.8424 114.867 73.5164C114.995 73.1904 115.084 72.6672 115.144 71.9552C115.199 71.2433 115.238 70.3255 115.25 69.2061L115.357 61.6533C115.378 59.9978 115.349 58.7669 115.263 57.9648C115.178 57.1628 114.943 56.5152 114.555 56.0177C114.167 55.5202 113.505 55.22 112.571 55.117V55.0999Z" fill="white"/>
<path d="M149.606 75.0355V74.5123C150.088 74.4265 150.476 74.315 150.762 74.1777C151.052 74.0405 151.197 73.8089 151.197 73.4829C151.197 73.1784 151.103 72.7324 150.915 72.1534C150.728 71.5744 150.587 71.1712 150.489 70.9482L149.324 67.7658C148.714 67.68 147.72 67.6371 146.342 67.6371H145.096C143.841 67.5943 142.745 67.6586 141.798 67.8259L140.641 70.7552C140.129 71.9818 139.878 72.7452 139.878 73.0497C139.878 73.4186 140.044 73.7274 140.373 73.9761C140.705 74.2249 141.379 74.4222 142.399 74.568V75.0913C141.17 74.9454 140.125 74.8682 139.263 74.8682C138.401 74.8682 137.424 74.9111 136.396 74.9969V74.538C137.027 74.3793 137.51 74.1305 137.847 73.7917C138.098 73.5687 138.431 73.0455 138.849 72.2177C139.263 71.3899 139.686 70.485 140.112 69.5114C140.539 68.5335 140.846 67.7701 141.034 67.2211L143.555 61.1566C143.871 60.4275 144.195 59.6641 144.524 58.8706C144.857 58.0729 145.168 57.2752 145.463 56.4731C145.757 55.6711 145.975 55.0278 146.111 54.5431C146.111 54.4059 146.141 54.3072 146.205 54.2429L146.726 54.2129C147.05 55.3838 147.408 56.5075 147.796 57.584L151.103 66.5006C151.952 68.7265 152.596 70.3735 153.032 71.4328C153.467 72.4922 153.847 73.2513 154.171 73.7059C154.444 74.0962 155.003 74.3321 155.852 74.4179V74.9712C154.99 74.8854 154.162 74.8468 153.364 74.8468C152.733 74.8468 152.148 74.8639 151.607 74.894C151.065 74.924 150.638 74.954 150.322 74.9797C150.007 75.0055 149.772 75.0226 149.614 75.0355H149.606ZM144.618 60.7706L142.839 65.3769C142.595 66.0331 142.433 66.4448 142.352 66.6121C143.15 66.7365 144.067 66.8008 145.104 66.8008L146.551 66.7708C147.421 66.7708 148.202 66.7493 148.897 66.7065C148.53 65.6299 148.296 64.9909 148.189 64.7893L147.058 61.8772C146.935 61.5598 146.696 60.9851 146.342 60.153C145.987 59.321 145.736 58.7505 145.578 58.4417C145.377 58.8835 145.207 59.2867 145.066 59.6512C144.925 60.0158 144.776 60.3889 144.618 60.7663V60.7706Z" fill="white"/>
<path d="M173.708 63.7692C175.197 64.0437 176.4 64.494 177.309 65.1159C178.218 65.7378 178.849 66.4283 179.207 67.1831C179.566 67.938 179.745 68.74 179.745 69.5849C179.745 71.9095 178.896 73.4021 177.194 74.0711C175.491 74.7402 173.755 75.0704 171.98 75.0704C171.813 75.0704 171.506 75.0619 171.067 75.0447C170.627 75.0275 170.184 75.0147 169.736 75.0061C169.288 74.9932 168.946 74.9889 168.712 74.9804C168.477 74.9761 168.208 74.9718 167.918 74.9718C167.286 74.9718 166.262 75.0147 164.846 75.0962V74.4957C165.264 74.4528 165.601 74.3971 165.853 74.3285C166.105 74.2598 166.326 74.1355 166.514 73.9553C166.702 73.7752 166.826 73.535 166.877 73.2262C166.984 72.7716 167.065 71.828 167.12 70.3912C167.176 68.9545 167.218 67.4962 167.24 66.0123C167.261 64.5283 167.269 63.3832 167.269 62.5683C167.269 61.6934 167.257 60.8441 167.24 60.0207C167.218 59.1972 167.163 58.3909 167.073 57.5975C166.984 56.804 166.864 56.2765 166.719 56.0148C166.57 55.7189 166.352 55.5088 166.058 55.3801C165.763 55.2514 165.371 55.1528 164.876 55.0799V54.4794C165.989 54.5652 166.971 54.6038 167.82 54.6038C168.02 54.6038 168.75 54.5609 170.009 54.4794C171.353 54.3851 172.061 54.3379 172.133 54.3379C173.153 54.3379 174.083 54.5266 174.924 54.9083C175.764 55.29 176.438 55.8562 176.946 56.611C177.454 57.3659 177.71 58.2451 177.71 59.2444C177.71 60.308 177.386 61.2302 176.733 62.0064C176.08 62.7827 175.073 63.3703 173.708 63.7692ZM169.262 61.7019V63.6491C169.492 63.6276 169.761 63.6191 170.064 63.6191C171.011 63.5976 171.839 63.5118 172.552 63.366C173.264 63.2202 173.9 62.8556 174.459 62.2724C175.013 61.6934 175.295 60.8013 175.295 59.5961C175.295 58.6482 175.099 57.8376 174.706 57.1729C174.314 56.5081 173.785 56.002 173.123 55.6546C172.462 55.3072 171.754 55.1313 170.998 55.1313C170.243 55.1313 169.834 55.2171 169.676 55.3844C169.539 55.5002 169.437 56.3065 169.369 57.799C169.3 59.2916 169.266 60.5954 169.266 61.7019H169.262ZM169.262 64.3954V70.6014C169.262 71.6779 169.283 72.437 169.326 72.8831C169.369 73.3249 169.467 73.6551 169.625 73.8738C169.782 74.0883 170.017 74.2212 170.333 74.2641C170.649 74.307 171.203 74.3285 172.001 74.3285C172.85 74.3285 173.674 74.1955 174.467 73.9253C175.261 73.6551 175.931 73.1833 176.477 72.51C177.023 71.8323 177.296 70.9274 177.296 69.7865C177.296 69.1518 177.177 68.5041 176.933 67.8393C176.69 67.1746 176.327 66.5784 175.845 66.0595C175.363 65.5362 174.723 65.1073 173.93 64.7771C173.136 64.4468 172.214 64.2796 171.165 64.2796C170.913 64.2796 170.61 64.2881 170.26 64.3096C169.906 64.331 169.573 64.361 169.262 64.4039V64.3954Z" fill="white"/>
<path d="M197.447 70.3349H197.934C197.767 71.4328 197.584 72.3421 197.383 73.0669C197.183 73.7917 196.927 74.478 196.611 75.1342C196.266 75.1041 195.792 75.0784 195.195 75.0613C194.597 75.0441 193.757 75.0355 192.673 75.0355C192.02 75.0355 191.325 75.0269 190.578 75.0055C189.832 74.984 189.512 74.9755 189.618 74.9755C188.936 74.9755 188.142 74.9841 187.233 75.0012C186.324 75.0184 185.228 75.0441 183.948 75.087C182.668 75.1299 181.725 75.1642 181.128 75.1985L181.162 74.6624C181.49 74.5895 181.823 74.508 182.16 74.4179C182.497 74.3278 182.728 74.2292 182.851 74.1263C182.975 74.0191 183.06 73.8904 183.112 73.7403C183.163 73.5859 183.218 73.3114 183.269 72.9082C183.333 72.5094 183.393 71.7802 183.453 70.7295C183.508 69.6787 183.56 68.4992 183.594 67.1911C183.632 65.883 183.645 65.0638 183.632 64.7379L183.521 59.7027C183.491 58.1415 183.427 57.0865 183.342 56.5375C183.252 55.9885 183.082 55.624 182.83 55.4438C182.578 55.2637 182.1 55.105 181.396 54.9678C181.396 54.8005 181.405 54.6632 181.426 54.556H191.525C192.66 54.556 194.371 54.5131 196.662 54.4316C196.611 55.3409 196.517 56.2458 196.381 57.1551C196.244 58.0643 196.069 58.519 195.86 58.519C195.596 58.519 195.468 58.4418 195.468 58.2831C195.468 58.2187 195.489 58.0172 195.532 57.6826C195.574 57.3438 195.596 57.1508 195.596 57.095C195.596 56.323 195.135 55.8341 194.218 55.624C193.3 55.4138 192.2 55.3066 190.92 55.3066C189.375 55.3066 187.762 55.4138 186.085 55.624C185.898 57.3781 185.8 58.8492 185.8 60.0415C185.8 60.8221 185.804 61.7185 185.817 62.7349C185.825 63.7471 185.834 64.2232 185.834 64.1589C186.085 64.1803 186.858 64.1889 188.15 64.1889C190.378 64.1889 191.905 64.146 192.733 64.0602C193.206 64.0088 193.522 63.9444 193.684 63.8715C193.846 63.7986 194 63.6099 194.149 63.3097C194.294 63.0094 194.461 62.5462 194.636 61.9243L195.092 61.9544C195.092 63.0523 195.092 64.0345 195.084 64.9008C195.079 65.7672 195.071 66.7579 195.062 67.8773H194.512C194.482 66.9081 194.337 66.2304 194.077 65.8487C193.821 65.467 193.322 65.2268 192.588 65.1196C191.854 65.0124 190.544 64.9609 188.667 64.9609C187.459 64.9609 186.512 65.0124 185.829 65.1196L185.765 67.367C185.693 70.1119 185.787 72.2263 186.047 73.7145C186.235 73.766 186.461 73.826 186.725 73.8904C186.986 73.9547 187.237 74.0019 187.472 74.0405C187.707 74.0791 188.048 74.1134 188.488 74.152C188.927 74.1906 189.477 74.2078 190.139 74.2078C191.786 74.2078 193.078 74.0877 194.017 73.8432C194.956 73.5987 195.673 73.2084 196.172 72.6723C196.671 72.1362 197.098 71.3599 197.452 70.3435L197.447 70.3349Z" fill="white"/>
<path d="M217.641 71.7887C217.59 71.9259 217.364 72.7065 216.963 74.1304C215.828 74.4692 214.8 74.7309 213.874 74.9153C212.948 75.0997 211.945 75.1941 210.866 75.1941C209.565 75.1941 208.259 74.9625 206.958 74.4993C205.656 74.0361 204.483 73.3456 203.446 72.432C202.405 71.5185 201.582 70.4034 200.972 69.091C200.362 67.7786 200.059 66.2817 200.059 64.6005C200.059 62.2973 200.622 60.3588 201.752 58.7719C202.883 57.1893 204.321 56.0227 206.07 55.2721C207.82 54.5216 209.624 54.1484 211.48 54.1484C212.94 54.1484 214.348 54.4058 215.7 54.9247C216.332 55.1263 216.801 55.225 217.117 55.225C217.262 55.1949 217.373 55.1735 217.441 55.1606C217.509 55.1478 217.594 55.1392 217.701 55.1306C217.765 55.1306 217.833 55.1735 217.906 55.255L217.671 56.1556C217.449 56.9491 217.257 57.957 217.087 59.1793C216.899 59.1493 216.771 59.0807 216.707 58.982C216.643 58.8834 216.613 58.7204 216.613 58.4974C216.592 57.8326 216.502 57.378 216.344 57.1335C216.063 56.6703 215.35 56.1942 214.22 55.7096C213.085 55.225 211.945 54.9805 210.802 54.9805C209.292 54.9805 207.922 55.3579 206.697 56.1128C205.473 56.8676 204.509 57.9741 203.8 59.4281C203.092 60.8863 202.738 62.5933 202.738 64.5576C202.738 66.3632 203.05 67.9158 203.677 69.2196C204.3 70.5235 205.085 71.5571 206.023 72.3162C206.962 73.0754 207.918 73.6243 208.891 73.9632C209.863 74.302 210.704 74.4692 211.421 74.4692C212.556 74.4692 213.494 74.2805 214.241 73.9074C214.988 73.5343 215.572 73.0839 215.999 72.5607C216.425 72.0374 216.835 71.4113 217.236 70.6821C217.394 70.3776 217.53 70.2232 217.646 70.2232C217.846 70.2232 217.944 70.3176 217.944 70.5063C217.944 70.6436 217.846 71.0639 217.646 71.7715L217.641 71.7887Z" fill="white"/>
<path d="M232.447 75.0355V74.5123C232.929 74.4265 233.317 74.315 233.603 74.1777C233.893 74.0405 234.038 73.8089 234.038 73.4829C234.038 73.1784 233.944 72.7324 233.757 72.1534C233.569 71.5744 233.428 71.1712 233.33 70.9482L232.165 67.7658C231.555 67.68 230.561 67.6371 229.183 67.6371H227.937C226.682 67.5943 225.586 67.6586 224.639 67.8259L223.482 70.7552C222.97 71.9818 222.719 72.7452 222.719 73.0497C222.719 73.4186 222.885 73.7274 223.214 73.9761C223.546 74.2249 224.221 74.4222 225.24 74.568V75.0913C224.012 74.9454 222.966 74.8682 222.104 74.8682C221.242 74.8682 220.265 74.9111 219.237 74.9969V74.538C219.869 74.3793 220.351 74.1305 220.688 73.7917C220.94 73.5687 221.272 73.0455 221.691 72.2177C222.104 71.3899 222.527 70.485 222.953 69.5114C223.38 68.5335 223.687 67.7701 223.875 67.2211L226.397 61.1566C226.712 60.4275 227.037 59.6641 227.365 58.8706C227.698 58.0729 228.009 57.2752 228.304 56.4731C228.598 55.6711 228.816 55.0278 228.952 54.5431C228.952 54.4059 228.982 54.3072 229.046 54.2429L229.567 54.2129C229.891 55.3838 230.249 56.5075 230.638 57.584L233.944 66.5006C234.793 68.7265 235.438 70.3735 235.873 71.4328C236.308 72.4922 236.688 73.2513 237.012 73.7059C237.285 74.0962 237.844 74.3321 238.693 74.4179V74.9712C237.831 74.8854 237.003 74.8468 236.206 74.8468C235.574 74.8468 234.99 74.8639 234.448 74.894C233.906 74.924 233.479 74.954 233.163 74.9797C232.848 75.0055 232.613 75.0226 232.455 75.0355H232.447ZM227.463 60.7706L225.684 65.3769C225.441 66.0331 225.279 66.4448 225.198 66.6121C225.996 66.7365 226.913 66.8008 227.95 66.8008L229.396 66.7708C230.266 66.7708 231.047 66.7493 231.743 66.7065C231.376 65.6299 231.141 64.9909 231.034 64.7893L229.904 61.8772C229.78 61.5598 229.541 60.9851 229.187 60.153C228.833 59.321 228.581 58.7505 228.423 58.4417C228.223 58.8835 228.052 59.2867 227.911 59.6512C227.77 60.0158 227.621 60.3889 227.463 60.7663V60.7706Z" fill="white"/>
<path d="M259.041 64.9169V65.5174C258.631 65.6546 258.371 65.7575 258.26 65.8262C258.149 65.8948 258.051 66.0406 257.97 66.2593C257.919 66.3966 257.884 66.581 257.867 66.8126C257.85 67.0442 257.837 67.3916 257.829 67.8548C257.82 68.318 257.812 69.1887 257.812 70.4625C257.812 71.4017 257.833 72.0708 257.876 72.4697C257.919 72.8685 257.983 73.1473 258.072 73.2974C258.162 73.4475 258.311 73.6148 258.52 73.7949L258.362 74.1595C258.196 74.1681 257.466 74.3053 256.173 74.5712C255.312 74.7299 254.488 74.8586 253.699 74.9572C252.909 75.0559 252.282 75.1202 251.809 75.1459C251.335 75.1717 250.78 75.1845 250.14 75.1845C248.199 75.1845 246.505 74.8843 245.067 74.2839C243.63 73.6834 242.443 72.8685 241.509 71.8392C240.575 70.8099 239.892 69.6905 239.461 68.481C239.03 67.2715 238.817 66.0492 238.817 64.814C238.817 63.1971 239.145 61.7217 239.802 60.3878C240.459 59.054 241.355 57.926 242.495 57.0168C243.634 56.1075 244.927 55.417 246.369 54.9581C247.811 54.4992 249.296 54.2676 250.819 54.2676C251.395 54.2676 251.95 54.3062 252.483 54.3791C253.012 54.452 253.477 54.5335 253.878 54.6236C254.275 54.7136 254.535 54.778 254.65 54.8208C255.103 55.0224 255.397 55.1211 255.533 55.1211C256.088 54.645 256.412 54.4091 256.493 54.4091C256.639 54.4091 256.715 54.6107 256.715 55.0096C256.715 55.3141 256.788 55.9703 256.929 56.9739C257.069 57.9775 257.142 58.6637 257.142 59.0325C257.142 59.1912 257.078 59.2684 256.954 59.2684C256.86 59.2684 256.801 59.2513 256.775 59.2213C256.749 59.1912 256.698 59.084 256.626 58.9039C256.237 57.9946 255.508 57.1454 254.445 56.3477C253.379 55.55 251.928 55.1511 250.089 55.1511C248.344 55.1511 246.804 55.5929 245.46 56.4721C244.116 57.3556 243.088 58.5136 242.371 59.9547C241.654 61.3957 241.3 62.8797 241.3 64.4108C241.3 65.5002 241.5 66.6153 241.906 67.7605C242.311 68.9056 242.926 69.9864 243.749 71.0072C244.572 72.0279 245.575 72.8342 246.757 73.439C247.939 74.0394 249.24 74.3396 250.657 74.3396C251.856 74.3396 252.871 74.1724 253.703 73.8335C254.535 73.4947 255.081 73.1688 255.333 72.8514C255.448 72.7056 255.521 72.4697 255.555 72.1566C255.585 71.8392 255.602 71.02 255.602 69.7033C255.602 68.3866 255.551 67.5203 255.452 67.0099C255.354 66.5038 255.115 66.165 254.736 65.9977C254.356 65.8305 253.686 65.7447 252.718 65.7447C252.308 65.7447 251.975 65.7661 251.723 65.809L251.787 65.1271C253.238 65.1185 254.582 65.0971 255.828 65.0713C257.074 65.0456 258.145 64.9898 259.049 64.9041L259.041 64.9169Z" fill="white"/>
<path d="M260.961 55.165V54.6117C262.283 54.6246 263.149 54.6332 263.559 54.6417C263.969 54.6503 264.31 54.6632 264.583 54.6718C266.345 54.6718 267.506 54.6503 268.065 54.6074L268.035 55.225C267.309 55.2894 266.768 55.3751 266.413 55.4866C266.055 55.5982 265.799 55.834 265.641 56.19C265.547 56.4216 265.479 57.0049 265.436 57.9313C265.394 58.862 265.36 60.0543 265.325 61.5083C265.283 63.1466 265.253 64.6263 265.232 65.9601C265.21 67.2897 265.202 68.6107 265.202 69.9188C265.202 71.1111 265.232 71.9946 265.296 72.565C265.36 73.1355 265.462 73.4957 265.611 73.6416C265.79 73.7788 266.085 73.8775 266.503 73.9418C266.917 74.0061 267.804 74.0361 269.157 74.0361C270.65 74.0361 271.896 73.916 272.899 73.6716C273.901 73.4271 274.657 73.1698 275.16 72.8953C275.83 72.4836 276.295 71.7802 276.547 70.7894L277.067 70.8538C277.003 71.287 276.862 71.9346 276.641 72.8009C276.419 73.6673 276.163 74.4522 275.868 75.1598C274.964 75.0526 274.247 75.0011 273.709 75.0011C273.385 74.9883 273.082 74.984 272.805 74.9754C272.528 74.9711 272.203 74.9668 271.836 74.9668H260.777L260.747 74.4779C261.362 74.3535 261.81 74.212 262.091 74.0662C262.373 73.9203 262.582 73.663 262.723 73.2985C262.864 72.9339 262.953 72.3892 262.996 71.6601C263.039 70.931 263.06 69.8802 263.06 68.5077L263.09 61.5383C263.111 59.9643 263.111 58.7719 263.09 57.9613C263.068 57.1507 262.996 56.546 262.868 56.1471C262.744 55.7526 262.544 55.4909 262.271 55.3708C261.997 55.2508 261.562 55.1778 260.965 55.1564L260.961 55.165Z" fill="white"/>
<path d="M278.258 55.1312V54.4492C279.444 54.5136 280.186 54.5564 280.481 54.5779C281.552 54.6208 282.273 54.6422 282.64 54.6422C282.768 54.6422 283.314 54.6208 284.278 54.5779C285.242 54.535 286.151 54.4921 287.004 54.4492V55.1955C286.078 55.1955 285.451 55.247 285.114 55.3456C284.777 55.4442 284.525 55.6458 284.359 55.9375C284.013 56.6022 283.838 59.1456 283.838 63.5588C283.838 66.5997 283.838 68.5254 283.847 69.336C283.851 70.1423 283.868 71.0087 283.902 71.9265C283.924 72.6642 283.979 73.1874 284.077 73.4962C284.171 73.8007 284.427 74.0323 284.85 74.1867C285.272 74.3411 285.946 74.4226 286.881 74.4312L286.817 75.0316C286.672 75.0316 286.377 75.0231 285.942 75.0102C285.507 74.9931 285.054 74.9802 284.589 74.9716C284.12 74.963 283.762 74.9544 283.51 74.9459C283.258 74.9416 282.968 74.9373 282.644 74.9373C282.183 74.9373 281.795 74.9373 281.488 74.9459C281.176 74.9502 280.766 74.9587 280.25 74.9716C279.734 74.9802 279.269 74.9973 278.855 75.0102C278.441 75.0274 278.189 75.0316 278.108 75.0316L278.078 74.4312C279.213 74.3669 279.981 74.2339 280.378 74.0366C280.779 73.835 281.052 73.5134 281.197 73.0716C281.406 72.5012 281.543 71.4247 281.598 69.8378C281.654 68.2509 281.684 66.5739 281.684 64.8155C281.684 63.2243 281.633 60.934 281.526 57.949C281.496 57.1255 281.415 56.5379 281.283 56.1862C281.15 55.8345 280.856 55.5729 280.4 55.4014C279.943 55.2298 279.23 55.144 278.266 55.1312H278.258Z" fill="white"/>
<path d="M175.065 8.31312C175.039 7.87994 174.988 7.45533 174.907 7.03931C174.74 6.20726 174.446 5.35377 173.968 4.5689C173.494 3.78404 172.837 3.08494 172.086 2.56599C171.336 2.04274 170.521 1.68247 169.706 1.44658C168.072 0.970517 166.472 0.923339 164.931 0.99625C163.391 1.08203 161.902 1.30505 160.443 1.62243C157.533 2.25719 154.747 3.15786 152.029 4.20006C149.311 5.23368 146.657 6.39169 144.055 7.63547C142.753 8.25736 141.461 8.90498 140.189 9.5569C138.952 10.1917 137.697 10.7964 136.43 11.3625C136.114 11.5041 135.799 11.6413 135.483 11.7785C134.877 11.3582 134.263 10.9465 133.635 10.5476C131.186 8.98218 128.575 7.6226 125.776 6.65331C124.377 6.16866 122.926 5.79982 121.429 5.60253C119.931 5.41382 118.378 5.39666 116.821 5.7312C116.432 5.81697 116.044 5.92849 115.66 6.06573C115.276 6.20726 114.896 6.37882 114.534 6.58898C113.804 7.00929 113.121 7.60545 112.648 8.36458C112.157 9.11514 111.914 10.0072 111.867 10.8564C111.803 11.6971 111.935 12.602 112.294 13.4126C112.644 14.2318 113.207 14.9352 113.847 15.4842C114.487 16.0417 115.208 16.4534 115.937 16.7751C117.405 17.4184 118.937 17.723 120.447 17.8688C123.481 18.1519 126.463 17.7873 129.348 17.1611C131.933 16.5993 134.455 15.8101 136.904 14.8708C137.847 15.5142 138.768 16.1875 139.677 16.8866C140.791 17.7573 141.887 18.6537 142.941 19.6015C143.47 20.0733 143.991 20.5536 144.507 21.0383C145.023 21.5186 145.548 22.0333 146.081 22.5137C146.943 23.2985 147.826 24.0577 148.735 24.7911C146.79 25.2929 144.853 25.829 142.924 26.3865C141.537 26.7897 140.198 27.1886 138.837 27.5617C138.171 27.7461 137.505 27.9263 136.84 28.1021C136.251 27.6689 135.654 27.2529 135.039 26.8497C132.599 25.2586 129.983 23.8518 127.103 22.9897C125.665 22.5651 124.159 22.2692 122.598 22.2649C121.045 22.2606 119.402 22.578 117.96 23.4572C117.243 23.899 116.599 24.4866 116.1 25.2028C115.6 25.9191 115.251 26.7683 115.169 27.6989C115.152 27.9348 115.144 28.1579 115.157 28.3852C115.165 28.6125 115.195 28.8484 115.242 29.08C115.336 29.5475 115.511 30.0149 115.763 30.4353C116.014 30.8556 116.339 31.2201 116.688 31.5246C117.038 31.8292 117.414 32.0779 117.798 32.2838C118.561 32.6955 119.347 32.9443 120.119 33.133C120.895 33.3174 121.663 33.4246 122.427 33.489C123.954 33.6176 125.448 33.5447 126.92 33.4075C129.864 33.1373 132.722 32.5883 135.543 31.9321C136.315 31.7477 137.087 31.5547 137.855 31.3531C138.845 32.0565 139.818 32.777 140.782 33.5276L141.614 34.1838L142.459 34.8614C143.031 35.3032 143.594 35.7535 144.174 36.1867C145.326 37.0573 146.508 37.8937 147.732 38.67C150.182 40.2097 152.801 41.5307 155.604 42.3327C156.304 42.53 157.017 42.6972 157.734 42.8216C158.45 42.946 159.176 43.0361 159.901 43.0875C161.356 43.1947 162.811 43.1304 164.249 42.9631L164.155 42.1354C162.76 42.2984 161.36 42.3284 159.969 42.2083C158.578 42.0968 157.209 41.8094 155.878 41.3977C154.546 40.986 153.254 40.4413 152.008 39.8022C150.766 39.1546 149.563 38.4255 148.398 37.6363C147.238 36.8429 146.111 35.9937 145.019 35.0973C144.477 34.647 143.935 34.188 143.415 33.7163L142.63 33L141.836 32.2623C141.273 31.7477 140.701 31.2373 140.121 30.7312C141.379 30.3752 142.638 29.9978 143.867 29.6375C146.585 28.8355 149.311 28.0807 152.046 27.403C152.102 27.3901 152.157 27.3773 152.212 27.3601C152.451 27.5188 152.69 27.6818 152.929 27.8362C155.37 29.4059 157.989 30.7698 160.84 31.6147C162.265 32.0307 163.745 32.3267 165.277 32.3738C166.804 32.421 168.4 32.2409 169.945 31.4946C170.329 31.3102 170.717 31.0915 171.088 30.8127C171.459 30.5382 171.813 30.1994 172.112 29.7833C172.406 29.3673 172.641 28.8784 172.756 28.3509C172.812 28.0892 172.846 27.819 172.846 27.5531C172.85 27.2872 172.82 27.0127 172.782 26.7854C172.705 26.3051 172.556 25.8118 172.313 25.3443C172.074 24.8811 171.754 24.4522 171.382 24.0963C170.636 23.3886 169.774 22.9854 168.963 22.7195C168.144 22.4536 167.342 22.3207 166.557 22.2349C165.772 22.1534 165.004 22.1277 164.249 22.1405C162.734 22.1663 161.262 22.3035 159.807 22.4965C158.352 22.6852 156.919 22.9383 155.494 23.2213C154.073 23.5044 152.66 23.8175 151.257 24.152C150.967 24.2206 150.676 24.2978 150.386 24.3665C150.327 24.3236 150.267 24.2807 150.207 24.2335C149.089 23.38 148.006 22.4751 146.96 21.5229C146.435 21.0469 145.932 20.5665 145.411 20.0647C144.895 19.5629 144.37 19.0697 143.837 18.585C142.775 17.6157 141.699 16.6507 140.594 15.7243C139.963 15.1925 139.323 14.6693 138.674 14.1546C139.72 13.7171 140.748 13.2496 141.768 12.7607C143.052 12.1431 144.315 11.5341 145.595 10.9379C146.871 10.3418 148.155 9.75847 149.443 9.19663C150.728 8.63049 152.025 8.09009 153.326 7.584C155.929 6.5804 158.557 5.64542 161.207 5.00637C162.529 4.69328 163.856 4.42737 165.157 4.31157C166.459 4.19148 167.743 4.21721 168.874 4.48742C169.437 4.62037 169.949 4.82624 170.384 5.10073C170.824 5.37522 171.182 5.71833 171.472 6.14722C171.762 6.57182 171.976 7.0822 172.116 7.64405C172.185 7.92711 172.236 8.21447 172.266 8.49754C172.287 8.77632 172.304 9.05081 172.278 9.31243C172.253 9.57405 172.21 9.83138 172.138 10.0716C172.061 10.316 171.958 10.5476 171.83 10.7707C171.574 11.221 171.195 11.6327 170.734 12.0016C170.269 12.3661 169.727 12.6835 169.147 12.9537C168.567 13.2282 167.944 13.4512 167.304 13.6442C166.019 14.0259 164.663 14.279 163.289 14.4548C161.919 14.6307 160.503 14.7164 159.137 14.7336L159.039 16.1575C159.786 16.2433 160.503 16.2905 161.236 16.3162C161.966 16.3419 162.696 16.3419 163.429 16.3205C164.897 16.2733 166.373 16.1275 167.85 15.8058C169.322 15.4756 170.824 14.9909 172.21 14.0388C172.893 13.5584 173.554 12.958 174.053 12.186C174.305 11.8043 174.514 11.3925 174.676 10.9594C174.834 10.5262 174.941 10.0759 175.005 9.62981C175.069 9.17947 175.073 8.73772 175.06 8.30025L175.065 8.31312ZM130.67 29.556C129.305 29.8262 127.94 30.0793 126.578 30.2508C125.217 30.4267 123.861 30.5339 122.538 30.5639C122.205 30.5682 121.881 30.5639 121.552 30.5596C121.228 30.5468 120.908 30.5253 120.592 30.4953C119.965 30.4267 119.359 30.3109 118.835 30.105C117.764 29.6976 117.196 28.9642 117.264 27.8705C117.299 27.3687 117.486 26.8412 117.798 26.378C118.105 25.9105 118.536 25.5159 119.031 25.2071C120.029 24.5809 121.301 24.3364 122.585 24.3579C123.873 24.3793 125.192 24.6495 126.48 25.057C129.053 25.889 131.515 27.21 133.879 28.6854C133.938 28.724 133.998 28.7626 134.062 28.8012C132.932 29.0714 131.805 29.333 130.67 29.556ZM160.259 25.7046C161.625 25.4944 162.99 25.34 164.325 25.2929C164.991 25.2714 165.652 25.2714 166.288 25.3186C166.92 25.3658 167.538 25.4559 168.08 25.6103C168.622 25.7647 169.083 25.992 169.386 26.2622C169.684 26.5367 169.872 26.8455 169.962 27.3001C169.983 27.4202 170 27.5059 170.004 27.6003C170.017 27.6904 170.013 27.7804 170.013 27.8705C170.004 28.0506 169.97 28.2351 169.893 28.4323C169.753 28.8269 169.399 29.2558 168.912 29.556C168.426 29.8606 167.833 30.0536 167.218 30.1951C166.6 30.328 165.951 30.3967 165.294 30.4095C163.976 30.4353 162.623 30.2466 161.296 29.9206C158.809 29.303 156.402 28.2351 154.145 26.9098C156.18 26.438 158.224 26.0263 160.255 25.7089L160.259 25.7046ZM128.639 14.176C127.312 14.5277 125.968 14.8151 124.624 15.0081C123.28 15.2054 121.932 15.3212 120.597 15.304C119.27 15.2826 117.951 15.1153 116.765 14.7036C116.181 14.4891 115.626 14.2189 115.165 13.863C114.704 13.507 114.333 13.0824 114.094 12.5934C113.86 12.1002 113.753 11.5469 113.779 10.9637C113.808 10.3847 113.953 9.84854 114.244 9.39392C114.538 8.94787 114.96 8.57045 115.477 8.30025C115.737 8.16729 116.014 8.05149 116.3 7.95714C116.595 7.86707 116.893 7.79845 117.205 7.74698C118.455 7.54969 119.79 7.63118 121.109 7.84562C122.431 8.06007 123.754 8.39889 125.055 8.82349C127.666 9.66841 130.197 10.865 132.641 12.2203C132.885 12.3575 133.124 12.4948 133.362 12.6363C131.805 13.2282 130.226 13.7514 128.631 14.176H128.639Z" fill="white"/>
</g>
<defs>
<clipPath id="clip0_75_1920">
<rect width="287" height="75" fill="white" transform="translate(0 0.970703)"/>
</clipPath>
</defs>
</svg>
