<svg width="306" height="58" viewBox="0 0 306 58" fill="none" xmlns="http://www.w3.org/2000/svg">
<g clip-path="url(#clip0_75_1939)">
<path d="M78.73 37.6607C77.1 37.6607 75.87 37.2907 75.04 36.5507C74.21 35.8107 73.79 34.7307 73.79 33.3107V26.0207H70.79V22.8207H73.79V19.0907L77.63 18.2207V22.8207H81.81V26.0207H77.63V32.5207C77.63 33.1907 77.78 33.6707 78.08 33.9607C78.38 34.2507 78.9 34.3907 79.65 34.3907C80.02 34.3907 80.37 34.3707 80.67 34.3207C80.98 34.2707 81.32 34.1907 81.69 34.0507V37.2207C81.3 37.3507 80.81 37.4507 80.22 37.5307C79.63 37.6007 79.13 37.6407 78.72 37.6407L78.73 37.6607Z" fill="white"/>
<path d="M90.6701 37.7201C89.2101 37.7201 87.8901 37.3801 86.7001 36.7101C85.5101 36.0401 84.5701 35.1301 83.8801 33.9901C83.1901 32.8501 82.8401 31.5701 82.8401 30.1501C82.8401 28.7301 83.1701 27.4501 83.8401 26.3101C84.5101 25.1701 85.4101 24.2601 86.5501 23.5901C87.6901 22.9201 88.9601 22.5801 90.3601 22.5801C91.7601 22.5801 93.0101 22.9301 94.0901 23.6201C95.1701 24.3101 96.0301 25.2501 96.6601 26.4201C97.2901 27.5901 97.6001 28.9301 97.6001 30.4301V31.4401H86.7801C86.9501 32.0201 87.2201 32.5401 87.6101 33.0101C87.9901 33.4801 88.4701 33.8401 89.0401 34.1001C89.6101 34.3601 90.2201 34.4901 90.8801 34.4901C91.5401 34.4901 92.1401 34.3901 92.6901 34.1801C93.2401 33.9701 93.7101 33.6801 94.1101 33.3101L96.6301 35.6101C95.7301 36.3401 94.8101 36.8701 93.8701 37.2101C92.9301 37.5501 91.8701 37.7101 90.6901 37.7101L90.6701 37.7201ZM86.7201 28.6901H93.8101C93.6801 28.1101 93.4401 27.6001 93.0901 27.1601C92.7401 26.7201 92.3301 26.3701 91.8601 26.1201C91.3801 25.8701 90.8601 25.7401 90.2801 25.7401C89.7001 25.7401 89.1401 25.8601 88.6501 26.1001C88.1601 26.3401 87.7601 26.6801 87.4301 27.1201C87.1001 27.5601 86.8601 28.0801 86.7201 28.6801V28.6901Z" fill="white"/>
<path d="M107.05 37.721C105.61 37.721 104.31 37.391 103.15 36.721C101.99 36.061 101.07 35.151 100.4 34.001C99.73 32.851 99.39 31.561 99.39 30.141C99.39 28.721 99.73 27.411 100.4 26.271C101.07 25.131 101.99 24.221 103.15 23.551C104.31 22.881 105.61 22.541 107.05 22.541C108.21 22.541 109.32 22.761 110.37 23.211C111.43 23.661 112.34 24.301 113.1 25.151L110.75 27.651C110.21 27.051 109.64 26.611 109.05 26.321C108.46 26.031 107.82 25.891 107.13 25.891C106.38 25.891 105.71 26.081 105.13 26.451C104.54 26.831 104.07 27.331 103.73 27.961C103.38 28.601 103.21 29.321 103.21 30.151C103.21 30.981 103.38 31.651 103.73 32.291C104.08 32.941 104.56 33.441 105.17 33.801C105.79 34.161 106.47 34.351 107.22 34.351C107.87 34.351 108.49 34.211 109.06 33.941C109.63 33.671 110.18 33.261 110.7 32.721L113 35.131C112.25 35.931 111.35 36.561 110.31 37.021C109.26 37.481 108.18 37.711 107.06 37.711L107.05 37.721Z" fill="white"/>
<path d="M114.98 37.4408V22.8308H118.82V24.0408C119.92 23.0508 121.29 22.5508 122.91 22.5508C124.05 22.5508 125.06 22.8008 125.92 23.2908C126.79 23.7908 127.47 24.4708 127.95 25.3408C128.44 26.2108 128.68 27.2208 128.68 28.3808V37.4408H124.84V28.9408C124.84 27.9908 124.57 27.2308 124.03 26.6808C123.49 26.1308 122.75 25.8508 121.81 25.8508C121.16 25.8508 120.58 25.9808 120.07 26.2308C119.57 26.4808 119.14 26.8408 118.81 27.3108V37.4308H114.97L114.98 37.4408Z" fill="white"/>
<path d="M138.73 37.7208C137.27 37.7208 135.95 37.3808 134.78 36.7108C133.6 36.0408 132.67 35.1308 131.98 33.9908C131.29 32.8508 130.94 31.5708 130.94 30.1508C130.94 28.7308 131.28 27.4408 131.96 26.2908C132.64 25.1408 133.58 24.2308 134.76 23.5608C135.95 22.8908 137.27 22.5508 138.73 22.5508C140.19 22.5508 141.51 22.8908 142.7 23.5608C143.89 24.2308 144.82 25.1408 145.5 26.2908C146.18 27.4408 146.52 28.7308 146.52 30.1508C146.52 31.5708 146.18 32.8508 145.5 33.9908C144.82 35.1308 143.89 36.0408 142.71 36.7108C141.53 37.3808 140.2 37.7208 138.73 37.7208ZM138.73 34.3808C139.5 34.3808 140.18 34.1908 140.79 33.8208C141.4 33.4508 141.88 32.9408 142.25 32.2908C142.61 31.6508 142.8 30.9308 142.8 30.1508C142.8 29.3708 142.62 28.6308 142.25 27.9908C141.89 27.3508 141.4 26.8408 140.79 26.4608C140.18 26.0808 139.5 25.8808 138.73 25.8808C137.96 25.8808 137.3 26.0708 136.68 26.4608C136.06 26.8408 135.58 27.3508 135.22 27.9908C134.86 28.6308 134.69 29.3508 134.69 30.1508C134.69 30.9508 134.87 31.6508 135.22 32.2908C135.57 32.9408 136.06 33.4408 136.68 33.8208C137.3 34.1908 137.98 34.3808 138.73 34.3808Z" fill="white"/>
<path d="M155.22 37.6607C153.59 37.6607 152.36 37.2907 151.53 36.5507C150.7 35.8107 150.28 34.7307 150.28 33.3107V26.0207H147.28V22.8207H150.28V19.0907L154.12 18.2207V22.8207H158.3V26.0207H154.12V32.5207C154.12 33.1907 154.27 33.6707 154.57 33.9607C154.87 34.2507 155.39 34.3907 156.14 34.3907C156.51 34.3907 156.85 34.3707 157.16 34.3207C157.47 34.2707 157.81 34.1907 158.18 34.0507V37.2207C157.79 37.3507 157.3 37.4507 156.71 37.5307C156.12 37.6007 155.62 37.6407 155.21 37.6407L155.22 37.6607Z" fill="white"/>
<path d="M160.19 37.44V22.83H164.03V24.46C164.5 23.82 165.06 23.34 165.71 23C166.36 22.66 167.1 22.5 167.92 22.5C168.63 22.52 169.16 22.63 169.52 22.84V26.21C169.24 26.08 168.93 25.98 168.6 25.92C168.26 25.86 167.92 25.82 167.56 25.82C166.81 25.82 166.13 26.01 165.51 26.38C164.89 26.75 164.4 27.29 164.02 27.98V37.46H160.18L160.19 37.44Z" fill="white"/>
<path d="M175.89 37.6908C174.84 37.6908 173.92 37.5008 173.11 37.1208C172.3 36.7408 171.68 36.2108 171.23 35.5408C170.78 34.8708 170.56 34.0908 170.56 33.2108C170.56 31.8108 171.09 30.7208 172.14 29.9408C173.2 29.1608 174.65 28.7808 176.5 28.7808C177.77 28.7808 178.97 28.9808 180.09 29.3708V28.3008C180.09 27.4608 179.83 26.8208 179.3 26.3908C178.78 25.9608 178.01 25.7508 177 25.7508C176.38 25.7508 175.72 25.8508 175.01 26.0408C174.3 26.2408 173.48 26.5408 172.54 26.9508L171.14 24.1208C172.3 23.6008 173.41 23.2008 174.46 22.9408C175.52 22.6808 176.58 22.5508 177.64 22.5508C179.6 22.5508 181.13 23.0208 182.22 23.9708C183.31 24.9108 183.86 26.2508 183.86 27.9708V37.4508H180.07V36.4108C179.47 36.8608 178.83 37.1908 178.14 37.3908C177.45 37.6008 176.69 37.7008 175.87 37.7008L175.89 37.6908ZM174.21 33.1208C174.21 33.6808 174.45 34.1208 174.94 34.4508C175.43 34.7808 176.07 34.9408 176.87 34.9408C177.5 34.9408 178.09 34.8608 178.64 34.7008C179.18 34.5408 179.67 34.3008 180.1 33.9908V31.8608C179.63 31.6708 179.15 31.5308 178.64 31.4408C178.14 31.3508 177.59 31.3008 177.01 31.3008C176.13 31.3008 175.44 31.4608 174.95 31.7908C174.45 32.1208 174.21 32.5608 174.21 33.1208Z" fill="white"/>
<path d="M192.26 37.7205C190.91 37.7205 189.67 37.5505 188.53 37.2005C187.39 36.8505 186.4 36.3505 185.56 35.7005L187.47 33.1505C188.31 33.7105 189.12 34.1305 189.89 34.4105C190.66 34.6905 191.44 34.8305 192.2 34.8305C193.06 34.8305 193.75 34.6905 194.26 34.4005C194.77 34.1105 195.03 33.7305 195.03 33.2605C195.03 32.8905 194.89 32.5905 194.6 32.3605C194.31 32.1305 193.85 31.9805 193.21 31.8805L190.41 31.4605C188.95 31.2405 187.85 30.7605 187.1 30.0405C186.35 29.3205 185.98 28.3705 185.98 27.1905C185.98 26.2405 186.23 25.4205 186.72 24.7405C187.22 24.0605 187.92 23.5305 188.82 23.1405C189.73 22.7605 190.81 22.5605 192.06 22.5605C193.13 22.5605 194.17 22.7105 195.19 23.0105C196.21 23.3105 197.17 23.7705 198.06 24.3805L196.21 26.8805C195.41 26.3805 194.64 26.0105 193.91 25.7905C193.18 25.5705 192.44 25.4505 191.69 25.4505C191 25.4505 190.44 25.5805 190.02 25.8405C189.6 26.1005 189.39 26.4505 189.39 26.8805C189.39 27.2705 189.54 27.5805 189.84 27.8005C190.14 28.0205 190.65 28.1805 191.38 28.2805L194.16 28.7005C195.62 28.9105 196.73 29.3705 197.5 30.0905C198.27 30.8105 198.65 31.7405 198.65 32.8805C198.65 33.8205 198.37 34.6405 197.81 35.3605C197.25 36.0805 196.49 36.6505 195.54 37.0705C194.59 37.4905 193.49 37.7005 192.26 37.7005V37.7205Z" fill="white"/>
<path d="M200.56 37.4408V22.8308H204.4V23.9508C205.45 23.0208 206.72 22.5508 208.21 22.5508C209.16 22.5508 210.01 22.7408 210.76 23.1308C211.51 23.5208 212.12 24.0508 212.61 24.7408C213.21 24.0308 213.91 23.4908 214.73 23.1108C215.54 22.7408 216.44 22.5508 217.44 22.5508C218.54 22.5508 219.51 22.8008 220.34 23.2908C221.17 23.7908 221.83 24.4708 222.3 25.3408C222.77 26.2108 223.01 27.2208 223.01 28.3808V37.4408H219.2V28.9408C219.2 27.9908 218.95 27.2308 218.44 26.6808C217.94 26.1308 217.26 25.8508 216.42 25.8508C215.84 25.8508 215.31 25.9708 214.84 26.2208C214.37 26.4708 213.96 26.8308 213.62 27.3108C213.64 27.4808 213.66 27.6508 213.68 27.8108C213.7 27.9808 213.71 28.1708 213.71 28.3708V37.4308H209.87V28.9308C209.87 27.9808 209.62 27.2208 209.13 26.6708C208.63 26.1208 207.97 25.8408 207.13 25.8408C206.55 25.8408 206.03 25.9508 205.57 26.1808C205.11 26.4108 204.72 26.7408 204.41 27.1908V37.4208H200.57L200.56 37.4408Z" fill="white"/>
<path d="M227.85 21.0907C227.25 21.0907 226.74 20.8807 226.31 20.4507C225.88 20.0207 225.66 19.5107 225.66 18.9107C225.66 18.3107 225.87 17.7807 226.31 17.3507C226.74 16.9307 227.25 16.7207 227.85 16.7207C228.45 16.7207 228.99 16.9307 229.41 17.3507C229.83 17.7707 230.04 18.2907 230.04 18.9107C230.04 19.5307 229.83 20.0207 229.41 20.4507C228.99 20.8807 228.47 21.0907 227.85 21.0907ZM225.94 37.4407V22.8307H229.78V37.4407H225.94Z" fill="white"/>
<path d="M238.25 37.7205C236.9 37.7205 235.66 37.5505 234.52 37.2005C233.38 36.8505 232.39 36.3505 231.55 35.7005L233.46 33.1505C234.3 33.7105 235.11 34.1305 235.88 34.4105C236.65 34.6905 237.43 34.8305 238.19 34.8305C239.05 34.8305 239.74 34.6905 240.25 34.4005C240.76 34.1105 241.02 33.7305 241.02 33.2605C241.02 32.8905 240.88 32.5905 240.59 32.3605C240.3 32.1305 239.84 31.9805 239.2 31.8805L236.4 31.4605C234.94 31.2405 233.84 30.7605 233.09 30.0405C232.34 29.3205 231.97 28.3705 231.97 27.1905C231.97 26.2405 232.22 25.4205 232.71 24.7405C233.21 24.0605 233.91 23.5305 234.81 23.1405C235.72 22.7605 236.8 22.5605 238.05 22.5605C239.12 22.5605 240.16 22.7105 241.18 23.0105C242.2 23.3105 243.16 23.7705 244.05 24.3805L242.2 26.8805C241.4 26.3805 240.63 26.0105 239.9 25.7905C239.17 25.5705 238.43 25.4505 237.68 25.4505C236.99 25.4505 236.43 25.5805 236.01 25.8405C235.59 26.1005 235.38 26.4505 235.38 26.8805C235.38 27.2705 235.53 27.5805 235.83 27.8005C236.13 28.0205 236.64 28.1805 237.37 28.2805L240.15 28.7005C241.61 28.9105 242.72 29.3705 243.49 30.0905C244.26 30.8105 244.64 31.7405 244.64 32.8805C244.64 33.8205 244.36 34.6405 243.8 35.3605C243.24 36.0805 242.48 36.6505 241.53 37.0705C240.58 37.4905 239.48 37.7005 238.25 37.7005V37.7205Z" fill="white"/>
<path d="M252.02 37.7205C250.67 37.7205 249.43 37.5505 248.29 37.2005C247.15 36.8505 246.16 36.3505 245.32 35.7005L247.23 33.1505C248.07 33.7105 248.88 34.1305 249.65 34.4105C250.42 34.6905 251.2 34.8305 251.96 34.8305C252.82 34.8305 253.51 34.6905 254.02 34.4005C254.53 34.1105 254.79 33.7305 254.79 33.2605C254.79 32.8905 254.65 32.5905 254.36 32.3605C254.07 32.1305 253.61 31.9805 252.97 31.8805L250.17 31.4605C248.71 31.2405 247.61 30.7605 246.86 30.0405C246.11 29.3205 245.74 28.3705 245.74 27.1905C245.74 26.2405 245.99 25.4205 246.48 24.7405C246.98 24.0605 247.68 23.5305 248.58 23.1405C249.49 22.7605 250.57 22.5605 251.82 22.5605C252.89 22.5605 253.93 22.7105 254.95 23.0105C255.97 23.3105 256.93 23.7705 257.82 24.3805L255.97 26.8805C255.17 26.3805 254.4 26.0105 253.67 25.7905C252.94 25.5705 252.2 25.4505 251.45 25.4505C250.76 25.4505 250.2 25.5805 249.78 25.8405C249.36 26.1005 249.15 26.4505 249.15 26.8805C249.15 27.2705 249.3 27.5805 249.6 27.8005C249.9 28.0205 250.41 28.1805 251.14 28.2805L253.92 28.7005C255.38 28.9105 256.49 29.3705 257.26 30.0905C258.03 30.8105 258.41 31.7405 258.41 32.8805C258.41 33.8205 258.13 34.6405 257.57 35.3605C257.01 36.0805 256.25 36.6505 255.3 37.0705C254.35 37.4905 253.25 37.7005 252.02 37.7005V37.7205Z" fill="white"/>
<path d="M262.22 21.0907C261.62 21.0907 261.11 20.8807 260.68 20.4507C260.25 20.0207 260.03 19.5107 260.03 18.9107C260.03 18.3107 260.24 17.7807 260.68 17.3507C261.11 16.9307 261.62 16.7207 262.22 16.7207C262.82 16.7207 263.36 16.9307 263.78 17.3507C264.2 17.7707 264.41 18.2907 264.41 18.9107C264.41 19.5307 264.2 20.0207 263.78 20.4507C263.36 20.8807 262.84 21.0907 262.22 21.0907ZM260.32 37.4407V22.8307H264.16V37.4407H260.32Z" fill="white"/>
<path d="M274.28 37.7208C272.82 37.7208 271.5 37.3808 270.33 36.7108C269.15 36.0408 268.22 35.1308 267.53 33.9908C266.84 32.8508 266.49 31.5708 266.49 30.1508C266.49 28.7308 266.83 27.4408 267.51 26.2908C268.19 25.1408 269.13 24.2308 270.31 23.5608C271.5 22.8908 272.82 22.5508 274.28 22.5508C275.74 22.5508 277.06 22.8908 278.25 23.5608C279.44 24.2308 280.37 25.1408 281.05 26.2908C281.73 27.4408 282.07 28.7308 282.07 30.1508C282.07 31.5708 281.73 32.8508 281.05 33.9908C280.37 35.1308 279.44 36.0408 278.26 36.7108C277.08 37.3808 275.76 37.7208 274.28 37.7208ZM274.28 34.3808C275.05 34.3808 275.73 34.1908 276.34 33.8208C276.95 33.4508 277.43 32.9408 277.8 32.2908C278.16 31.6508 278.35 30.9308 278.35 30.1508C278.35 29.3708 278.17 28.6308 277.8 27.9908C277.43 27.3508 276.95 26.8408 276.34 26.4608C275.73 26.0808 275.05 25.8808 274.28 25.8808C273.51 25.8808 272.85 26.0708 272.23 26.4608C271.61 26.8408 271.13 27.3508 270.77 27.9908C270.41 28.6308 270.24 29.3508 270.24 30.1508C270.24 30.9508 270.42 31.6508 270.77 32.2908C271.12 32.9408 271.61 33.4408 272.23 33.8208C272.85 34.1908 273.53 34.3808 274.28 34.3808Z" fill="white"/>
<path d="M284.43 37.4408V22.8308H288.27V24.0408C289.37 23.0508 290.74 22.5508 292.36 22.5508C293.5 22.5508 294.51 22.8008 295.37 23.2908C296.24 23.7908 296.92 24.4708 297.4 25.3408C297.89 26.2108 298.13 27.2208 298.13 28.3808V37.4408H294.29V28.9408C294.29 27.9908 294.02 27.2308 293.48 26.6808C292.94 26.1308 292.2 25.8508 291.27 25.8508C290.61 25.8508 290.04 25.9808 289.53 26.2308C289.03 26.4808 288.61 26.8408 288.27 27.3108V37.4308H284.43V37.4408Z" fill="white"/>
<path d="M302.97 21.0907C302.37 21.0907 301.86 20.8807 301.43 20.4507C301 20.0207 300.78 19.5107 300.78 18.9107C300.78 18.3107 300.99 17.7807 301.43 17.3507C301.86 16.9307 302.37 16.7207 302.97 16.7207C303.57 16.7207 304.11 16.9307 304.53 17.3507C304.95 17.7707 305.16 18.2907 305.16 18.9107C305.16 19.5307 304.95 20.0207 304.53 20.4507C304.11 20.8807 303.59 21.0907 302.97 21.0907ZM301.06 37.4407V22.8307H304.9V37.4407H301.06Z" fill="white"/>
<path d="M47.53 47.8212H29.88C35.25 47.7512 39.85 43.9112 40.86 38.6112L40.89 38.4412L42.67 29.0712L44.27 20.6612C44.36 20.1612 43.98 19.7012 43.48 19.7012C38.61 19.7012 34.43 23.1612 33.52 27.9512L33.31 29.0712L31.53 38.4412L30.1 45.9512V45.9212C29.9 46.9712 29.02 47.7412 27.96 47.8012C27.91 47.8012 27.87 47.8012 27.82 47.8012H10.99H2.28995C1.89995 47.8012 1.56995 48.0812 1.49995 48.4612L0.00995453 56.2412C-0.0800455 56.7412 0.299955 57.2012 0.799955 57.2012H9.18995H18.56H19.33C24.32 57.2012 28.6 53.6512 29.54 48.7512L29.72 47.8312L28.12 56.2412C28.03 56.7412 28.41 57.2012 28.91 57.2012H38.08C43.07 57.2012 47.35 53.6512 48.29 48.7512C48.38 48.2712 48.01 47.8312 47.53 47.8312V47.8212Z" fill="white"/>
<path d="M56.3999 0.970703H48.0099H38.6399H37.8699C32.8799 0.970703 28.5999 4.5207 27.6599 9.4207L27.4799 10.3407L29.0799 1.9307C29.1699 1.4307 28.7899 0.970703 28.2899 0.970703H19.1199C14.1299 0.970703 9.84992 4.5207 8.90992 9.4207C8.81992 9.9007 9.18992 10.3407 9.66992 10.3407H27.3199C21.9499 10.4107 17.3499 14.2507 16.3399 19.5507L16.3099 19.7207L14.5299 29.0907L12.9299 37.5007C12.8399 38.0007 13.2199 38.4607 13.7199 38.4607C18.5899 38.4607 22.7699 35.0007 23.6799 30.2107L23.8899 29.0907L25.6699 19.7207L27.0999 12.2107V12.2407C27.2999 11.1907 28.1799 10.4207 29.2399 10.3607C29.2899 10.3607 29.3299 10.3607 29.3799 10.3607H46.1999H54.8999C55.2899 10.3607 55.6199 10.0807 55.6899 9.7007L57.1699 1.9407C57.2899 1.4307 56.9099 0.970703 56.3999 0.970703Z" fill="white"/>
</g>
<defs>
<clipPath id="clip0_75_1939">
<rect width="305.15" height="56.22" fill="white" transform="translate(0 0.970703)"/>
</clipPath>
</defs>
</svg>
