<svg width="213" height="45" viewBox="0 0 213 45" fill="none" xmlns="http://www.w3.org/2000/svg">
<g id="winet" clip-path="url(#clip0_75_1961)">
<g id="Group">
<path id="Vector" d="M35.8854 5.47461L18.2372 22.9707L35.8854 40.4667L39.7902 36.5908L26.0905 22.9707L39.7902 9.35059L35.8854 5.47461Z" fill="#8D8D8D"/>
<path id="Vector_2" d="M195.374 5.47461L191.447 9.35059L205.168 22.9707L191.447 36.5908L195.374 40.4667L213 22.9707L195.374 5.47461Z" fill="#8D8D8D"/>
</g>
<g id="Group_2">
<path id="Vector_3" d="M19.3934 16.3231L8.44234 5.47464L4.53748 9.35062L15.4667 20.2207H0V25.7207H15.4667L4.53748 36.5908L8.44234 40.4668L19.3934 29.6183V44.9707H24.9344V29.6183L18.2372 22.9707L24.9344 16.3231V0.970703H19.3934V16.3231Z" fill="white"/>
<path id="Vector_4" d="M26.0905 22.9707L28.861 25.7207H44.3277V20.2207H28.861L26.0905 22.9707Z" fill="white"/>
<path id="Vector_5" d="M122.992 10.6074C120.527 10.6074 118.28 11.6035 116.666 13.2275V10.6074H111.125V35.3574H116.666V19.4421C116.666 16.7787 118.847 14.635 121.509 14.635C124.17 14.635 126.352 16.7787 126.352 19.4421V35.3574H131.892V19.4421C131.892 14.57 127.9 10.6074 122.992 10.6074Z" fill="white"/>
<path id="Vector_6" d="M104.209 10.6074H98.6685V35.3574H104.209V10.6074Z" fill="white"/>
<path id="Vector_7" d="M104.209 0.970703H98.6685V6.4707H104.209V0.970703Z" fill="white"/>
<path id="Vector_8" d="M174.824 14.7207V10.5849H169.981V3.7207H164.44V10.5849H160.972V14.7207H164.44V29.142C164.44 29.8565 164.571 30.5494 164.789 31.199C165.64 33.6026 167.952 35.3132 170.657 35.3132H174.802V31.1774H172.424C171.05 31.1774 169.959 30.0731 169.959 28.7305V14.699H174.802L174.824 14.7207Z" fill="white"/>
<path id="Vector_9" d="M82.8745 27.1724L77.7262 10.6074H77.5735H72.6434H72.5125L67.3642 27.1724L62.2159 10.6074H56.4131L64.092 35.3358H69.8947L75.1085 18.5543L80.3222 35.3358H86.1249L93.8038 10.6074H88.0228L82.8745 27.1724Z" fill="white"/>
<path id="Vector_10" d="M147.817 10.6074C141.578 10.6074 137.433 14.7216 137.433 20.2216V25.7432C137.433 31.2432 141.6 35.3574 147.817 35.3574C149.475 35.3574 153.838 35.3574 157.176 30.3338L153.707 28.0602C151.613 31.2433 149.235 31.2432 147.817 31.2432C145.047 31.2432 142.974 29.1862 142.974 25.7432V24.3574H158.201V20.2216C158.201 14.7216 154.035 10.6074 147.817 10.6074ZM142.974 20.2216C142.974 16.7787 145.047 14.7216 147.817 14.7216C150.588 14.7216 152.66 16.7787 152.66 20.2216H142.974Z" fill="white"/>
</g>
</g>
<defs>
<clipPath id="clip0_75_1961">
<rect width="213" height="44" fill="white" transform="translate(0 0.970703)"/>
</clipPath>
</defs>
</svg>
