<svg width="22" height="23" viewBox="0 0 22 23" fill="none" xmlns="http://www.w3.org/2000/svg">
<rect y="0.573303" width="22" height="22" rx="11" fill="white" fill-opacity="0.8"/>
<path fill-rule="evenodd" clip-rule="evenodd" d="M11 16.0001C13.4449 16.0001 15.4268 14.0182 15.4268 11.5733C15.4268 9.12844 13.4449 7.14648 11 7.14648V9.42696C12.1854 9.42697 13.1463 10.3879 13.1463 11.5733C13.1463 12.7587 12.1854 13.7196 11 13.7196V16.0001ZM11 16.9392C13.9635 16.9392 16.3659 14.5368 16.3659 11.5733C16.3659 8.60983 13.9635 6.20746 11 6.20746C8.03653 6.20746 5.63416 8.60983 5.63416 11.5733C5.63416 14.5368 8.03653 16.9392 11 16.9392ZM11 9.42696C9.81461 9.42696 8.85366 10.3879 8.85366 11.5733C8.85366 12.7587 9.81461 13.7196 11 13.7196V9.42696Z" fill="black"/>
</svg>
