<svg width="148" height="67" viewBox="0 0 148 67" fill="none" xmlns="http://www.w3.org/2000/svg">
<g id="katman_1" clip-path="url(#clip0_458_609)">
<g id="Group">
<path id="Vector" d="M34.8045 46.8718V57.6052H31.4071V31.1064H40.4159C42.7042 31.1064 44.6482 31.871 46.25 33.4003C47.8745 34.9295 48.6867 36.7935 48.6867 38.9881C48.6867 41.1827 47.8745 43.1087 46.25 44.6131C44.675 46.1175 42.731 46.8697 40.4159 46.8697H34.8045V46.8718ZM34.8045 34.3633V43.615H40.4901C41.8425 43.615 42.9639 43.1583 43.8504 42.2449C44.7616 41.3315 45.2172 40.2466 45.2172 38.9881C45.2172 37.7296 44.7616 36.6819 43.8504 35.7685C42.9639 34.8303 41.8445 34.3612 40.4901 34.3612H34.8045V34.3633Z" fill="white"/>
<path id="Vector_2" d="M57.7697 38.8789C60.2806 38.8789 62.2617 39.5505 63.713 40.8958C65.1643 42.2411 65.892 44.0844 65.892 46.4278V57.6056H62.6431V55.0886H62.4947C61.0908 57.1613 59.221 58.1966 56.8832 58.1966C54.8898 58.1966 53.222 57.6056 51.88 56.4194C50.5379 55.2353 49.8679 53.7557 49.8679 51.9785C49.8679 50.1042 50.575 48.6101 51.9913 47.5004C53.4075 46.3906 55.2959 45.8348 57.6584 45.8348C59.6766 45.8348 61.3382 46.2047 62.6431 46.9445V46.1675C62.6431 44.9834 62.1751 43.979 61.2413 43.1524C60.3054 42.3258 59.2107 41.9125 57.9552 41.9125C56.0586 41.9125 54.5579 42.7143 53.4508 44.3179L50.4596 42.4312C52.1088 40.063 54.5455 38.8789 57.7697 38.8789ZM53.3766 52.0549C53.3766 52.9435 53.7518 53.6833 54.5022 54.2764C55.2526 54.8695 56.1329 55.165 57.1409 55.165C58.5675 55.165 59.8415 54.6339 60.963 53.5738C62.0824 52.5137 62.6431 51.2676 62.6431 49.8355C61.5855 48.9965 60.1074 48.577 58.2129 48.577C56.8338 48.577 55.6834 48.9097 54.762 49.5772C53.8384 50.2426 53.3766 51.0713 53.3766 52.057V52.0549Z" fill="white"/>
<path id="Vector_3" d="M69.7306 39.4716H72.9795V42.4329H73.128C74.136 40.1143 76.2161 38.955 79.3682 38.955L80.0691 39.0294V42.5817L78.5559 42.4329C76.9809 42.4329 75.6822 42.9206 74.6617 43.894C73.6392 44.8693 73.13 46.1092 73.13 47.6137V57.6073H69.7327V39.4737L69.7306 39.4716ZM90.9229 57.9007C89.4469 57.9007 88.2223 57.444 87.2493 56.5306C86.2763 55.6172 85.7774 54.3463 85.7547 52.7179V42.5776H82.58V39.4696H85.7547V33.9189H89.1521V39.4696H93.5823V42.5776H89.1521V51.6082C89.1521 52.8171 89.385 53.6375 89.853 54.0694C90.321 54.5013 90.8508 54.7162 91.4404 54.7162C91.7104 54.7162 91.9764 54.6852 92.234 54.6232C92.4917 54.5613 92.7329 54.4807 92.9535 54.3835L94.0234 57.4172C93.137 57.7375 92.1042 57.8987 90.9229 57.8987V57.9007Z" fill="white"/>
<path id="Vector_4" d="M97.0147 39.472H100.264V41.989H100.412C100.93 41.1004 101.723 40.3606 102.793 39.7675C103.863 39.1765 104.976 38.8789 106.135 38.8789C108.351 38.8789 110.054 39.5133 111.247 40.7842C112.441 42.0551 113.039 43.8633 113.039 46.2067V57.6056H109.641V46.4278C109.567 43.4665 108.079 41.9869 105.174 41.9869C103.82 41.9869 102.688 42.5366 101.777 43.6339C100.866 44.7312 100.41 46.0455 100.41 47.5748V57.6035H97.0126V39.4699L97.0147 39.472Z" fill="white"/>
<path id="Vector_5" d="M125.148 58.1985C122.491 58.1985 120.299 57.2851 118.576 55.4604C116.853 53.6357 115.991 51.3274 115.991 48.5397C115.991 45.752 116.828 43.4768 118.502 41.6376C120.176 39.8005 122.318 38.8809 124.925 38.8809C127.533 38.8809 129.743 39.7509 131.331 41.4909C132.918 43.2309 133.712 45.6673 133.712 48.8001L133.675 49.17H119.46C119.51 50.9472 120.099 52.3772 121.233 53.4621C122.365 54.5491 123.72 55.0905 125.295 55.0905C127.461 55.0905 129.158 54.0056 130.388 51.8337L133.415 53.3133C132.603 54.8425 131.477 56.039 130.036 56.9028C128.595 57.7666 126.964 58.1985 125.144 58.1985H125.148ZM119.72 46.3554H130.096C129.997 45.0969 129.486 44.0554 128.564 43.2288C127.641 42.4022 126.404 41.9889 124.853 41.9889C123.573 41.9889 122.472 42.3836 121.549 43.173C120.625 43.9624 120.017 45.0246 119.72 46.3554Z" fill="white"/>
<path id="Vector_6" d="M140.21 57.6054H136.812V39.4718H140.061V42.4331H140.21C140.554 41.4701 141.261 40.6518 142.333 39.9719C143.403 39.2941 144.456 38.9531 145.489 38.9531C146.522 38.9531 147.309 39.1019 148 39.3974L146.967 42.6914C146.549 42.5199 145.883 42.4331 144.974 42.4331C143.694 42.4331 142.58 42.9518 141.632 43.9871C140.684 45.0245 140.21 46.2334 140.21 47.6138V57.6075V57.6054Z" fill="white"/>
</g>
<path id="Vector_7" d="M39.1048 15.6225V17.9349H44.6234C44.4441 19.3939 43.8401 20.5284 42.8114 21.3405C41.8095 22.1382 40.5726 22.5371 39.1048 22.5371C37.402 22.5371 35.9672 21.9378 34.8024 20.7413C33.6356 19.5592 33.0522 18.1065 33.0522 16.3871C33.0522 14.6678 33.6356 13.2151 34.8024 12.033C35.9692 10.8365 37.404 10.2372 39.1048 10.2372C40.6963 10.2372 42.0837 10.7869 43.2649 11.8884L44.8914 10.2579C43.2587 8.70388 41.3291 7.9248 39.1048 7.9248C37.5958 7.9248 36.1671 8.30917 34.823 9.07998C33.4913 9.83632 32.442 10.8758 31.673 12.1963C30.9185 13.4899 30.5413 14.8869 30.5413 16.3851C30.5413 17.8833 30.9185 19.303 31.673 20.5966C32.4275 21.9047 33.4769 22.9359 34.823 23.6922C36.1692 24.463 37.5958 24.8474 39.1048 24.8474C41.3827 24.8474 43.2711 24.1324 44.7677 22.7003C46.25 21.2827 46.9921 19.4042 46.9921 17.065C46.9921 16.5153 46.9509 16.0338 46.8684 15.6205H39.1048V15.6225Z" fill="white"/>
<path id="Vector_8" d="M53.2715 13.9502C51.7192 13.9502 50.4225 14.473 49.3794 15.5187C48.3363 16.5499 47.8147 17.8435 47.8147 19.3996C47.8147 20.9556 48.3424 22.2203 49.4 23.2805C50.4431 24.3261 51.7336 24.8489 53.2715 24.8489C54.8094 24.8489 56.0999 24.3261 57.143 23.2805C58.2006 22.2203 58.7283 20.9267 58.7283 19.3996C58.7283 17.8724 58.2006 16.5519 57.143 15.5187C56.0999 14.473 54.8094 13.9502 53.2715 13.9502ZM55.432 21.7512C54.8424 22.3836 54.1209 22.7018 53.2695 22.7018C52.418 22.7018 51.6759 22.3857 51.0863 21.7512C50.4967 21.1189 50.2019 20.3336 50.2019 19.3975C50.2019 18.4614 50.4967 17.6492 51.0863 17.0438C51.6759 16.4114 52.4036 16.0952 53.2695 16.0952C54.1353 16.0952 54.8609 16.4114 55.4526 17.0438C56.0422 17.6492 56.337 18.4345 56.337 19.3975C56.337 20.3605 56.0339 21.1044 55.432 21.7512Z" fill="white"/>
<path id="Vector_9" d="M86.0722 8.50098H83.6829V24.5184H86.0722V8.50098Z" fill="white"/>
<path id="Vector_10" d="M65.1726 13.9502C63.6224 13.9502 62.3236 14.473 61.2805 15.5187C60.2374 16.5499 59.7158 17.8435 59.7158 19.3996C59.7158 20.9556 60.2436 22.2203 61.3011 23.2805C62.3442 24.3261 63.6348 24.8489 65.1726 24.8489C66.7105 24.8489 68.001 24.3261 69.0442 23.2805C70.1017 22.2203 70.6295 20.9267 70.6295 19.3996C70.6295 17.8724 70.1017 16.5519 69.0442 15.5187C68.001 14.473 66.7105 13.9502 65.1726 13.9502ZM67.3331 21.7512C66.7435 22.3836 66.022 22.7018 65.1706 22.7018C64.3192 22.7018 63.577 22.3857 62.9874 21.7512C62.3978 21.1189 62.103 20.3336 62.103 19.3975C62.103 18.4614 62.3978 17.6492 62.9874 17.0438C63.577 16.4114 64.3047 16.0952 65.1706 16.0952C66.0364 16.0952 66.7621 16.4114 67.3537 17.0438C67.9433 17.6492 68.2402 18.4345 68.2402 19.3975C68.2402 20.3605 67.9371 21.1044 67.3331 21.7512Z" fill="white"/>
<path id="Vector_11" d="M92.6175 22.7018C91.4239 22.7018 90.5436 22.1521 89.9808 21.0507L97.2497 18.0377L97.0023 17.4178C96.8106 16.9094 96.5591 16.4403 96.2499 16.0146C95.9407 15.5889 95.5881 15.219 95.1903 14.9111C94.7924 14.6011 94.3533 14.3635 93.873 14.1982C93.3926 14.0329 92.8855 13.9502 92.3495 13.9502C90.8941 13.9502 89.6737 14.4668 88.6841 15.498C87.709 16.5437 87.2225 17.8435 87.2225 19.3996C87.2225 20.9556 87.7379 22.2348 88.7666 23.2805C89.7953 24.3261 91.0796 24.8489 92.6175 24.8489C94.5388 24.8489 96.0479 24.043 97.1466 22.4332L95.2933 21.1954C94.6213 22.1997 93.7287 22.7018 92.6175 22.7018ZM90.4158 16.9632C91.0198 16.3577 91.6919 16.056 92.434 16.056C92.8999 16.056 93.3184 16.1634 93.6895 16.3763C94.0606 16.5891 94.3141 16.8681 94.4502 17.2111L89.5912 19.2342C89.5644 18.3126 89.8386 17.5562 90.4158 16.9632Z" fill="white"/>
<path id="Vector_12" d="M79.7702 15.1674H79.6877C79.0012 14.3552 78.0467 13.9502 76.8263 13.9502C75.4266 13.9502 74.2041 14.4875 73.161 15.56C72.1323 16.6325 71.6169 17.9199 71.6169 19.4202C71.6169 20.9205 72.1323 22.1852 73.161 23.2598C74.2185 24.3199 75.4389 24.8489 76.8263 24.8489C78.0488 24.8489 79.0012 24.4356 79.6877 23.6111H79.7702V24.1691C79.7702 26.4525 78.8033 27.5953 76.8676 27.5953C76.2491 27.5953 75.7007 27.4155 75.2204 27.058C74.7401 26.7005 74.3752 26.2314 74.1299 25.6549L72.0498 26.5207C72.256 27.0022 72.5157 27.4383 72.8332 27.8309C73.1486 28.2235 73.5155 28.5604 73.934 28.8414C74.3525 29.1225 74.8081 29.3436 75.3029 29.5027C75.7976 29.6598 76.3192 29.7404 76.8676 29.7404C78.4879 29.7404 79.7537 29.2485 80.6669 28.2649C81.5802 27.2812 82.0358 25.8801 82.0358 24.0637V14.2808H79.7702V15.1674ZM79.0899 21.7719C78.5271 22.3919 77.8406 22.7018 77.0304 22.7018C76.179 22.7018 75.4575 22.3857 74.8679 21.7512C74.2907 21.1189 74.0021 20.3419 74.0021 19.4182C74.0021 18.4944 74.2968 17.6988 74.8885 17.0644C75.4925 16.4176 76.2058 16.0952 77.0304 16.0952C77.855 16.0952 78.5394 16.4114 79.0899 17.0438C79.6527 17.6906 79.9351 18.482 79.9351 19.4182C79.9351 20.3543 79.6527 21.1251 79.0899 21.7719Z" fill="white"/>
<path id="Vector_13" d="M17.327 0.311523H0V66.3115H17.327V0.311523Z" fill="white"/>
</g>
<defs>
<clipPath id="clip0_458_609">
<rect width="148" height="66" fill="white" transform="translate(0 0.311523)"/>
</clipPath>
</defs>
</svg>
