<svg width="2024" height="2330" viewBox="0 0 2024 2330" fill="none" xmlns="http://www.w3.org/2000/svg">
<g clip-path="url(#clip0_176_1587)">
<path d="M351.83 277.207C334.013 306.073 269.396 532.606 233.878 648.302C198.359 763.998 151.618 986.77 144.445 969.184C93.4229 844.695 83.2995 608.329 40.9548 430.736C35.6906 408.638 26.0879 403.142 26.0879 403.142" stroke="#E6007E" stroke-width="52.0632" stroke-linecap="round" stroke-linejoin="round"/>
<path d="M560.892 853.839C503.334 583.457 493.789 316.836 497.838 253.898C501.83 190.959 504.838 85.2129 517.391 66.4701C529.944 47.7274 547.356 34.3645 559.388 26.3237C571.421 18.2828 582.123 172.216 612.955 308.795C643.788 445.374 679.828 539.261 723.966 619.554" stroke="#E6007E" stroke-width="52.0632" stroke-linecap="round" stroke-linejoin="round"/>
<path d="M472.388 634.069C608.909 510.911 698.168 438.601 706.672 432.469C722.58 420.957 729.406 420.957 729.406 420.957" stroke="#E6007E" stroke-width="52.0632" stroke-linecap="round" stroke-linejoin="round"/>
<path d="M164.522 1089.45C172.505 1079.21 195.24 1066.72 208.892 1060.99C222.544 1055.26 386.022 1013.21 495.528 960.914" stroke="#E6007E" stroke-width="52.0632" stroke-linecap="round" stroke-linejoin="round"/>
<path d="M326.553 1025.18C342.172 1081.29 378.616 1280.64 395.797 1354.39C428.307 1494.15 448.381 1534.82 448.381 1534.82" stroke="#E6007E" stroke-width="52.0632" stroke-linecap="round" stroke-linejoin="round"/>
<path d="M889.525 704.646C897.508 694.406 920.243 681.911 933.895 676.184C947.547 670.457 1111.03 628.402 1220.53 576.107" stroke="#E6007E" stroke-width="52.0632" stroke-linecap="round" stroke-linejoin="round"/>
<path d="M1051.56 640.379C1067.18 696.491 1103.62 895.835 1120.81 969.592C1153.32 1109.35 1173.39 1150.02 1173.39 1150.02" stroke="#E6007E" stroke-width="52.0632" stroke-linecap="round" stroke-linejoin="round"/>
<path d="M1322.98 460.181C1330.97 449.942 1353.7 437.446 1367.35 431.72C1381.01 425.993 1544.48 383.937 1653.99 331.643" stroke="#E6007E" stroke-width="52.0632" stroke-linecap="round" stroke-linejoin="round"/>
<path d="M1484.96 395.914C1500.58 452.027 1537.02 651.371 1554.2 725.127C1586.71 864.887 1606.79 905.555 1606.79 905.555" stroke="#E6007E" stroke-width="52.0632" stroke-linecap="round" stroke-linejoin="round"/>
<path d="M631.235 911.507C626.376 973.058 650.961 1335.88 703.776 1348.55C763.36 1362.84 780.251 834.917 810.043 878.65C820.398 893.864 870.783 1057.17 943.325 1149.84" stroke="#E6007E" stroke-width="52.0632" stroke-linecap="round" stroke-linejoin="round"/>
<path d="M1713.46 428.827C1790.74 538.796 1889.78 651.194 1924.14 596.239C1958.5 541.283 1945.43 469.205 1912.74 408.233C1880.06 347.261 1785.59 288.603 1752.97 331.642C1720.34 374.681 1736.08 460.18 1792.71 530.928" stroke="#E6007E" stroke-width="52.0632" stroke-linecap="round" stroke-linejoin="round"/>
<path d="M259.678 1794.21C275.817 1810.35 287.56 1810.41 281.776 1888.85C279.057 1926.11 281.024 2091.84 301.618 2304.03" stroke="#E6007E" stroke-width="52.0632" stroke-linecap="round" stroke-linejoin="round"/>
<path d="M254.127 2229.05C254.127 2240.56 259.507 2257.92 297.745 2260.23C335.982 2262.55 497.436 2219.85 573.564 2125.27C649.692 2030.69 701.581 1941.03 610.471 1871.15C519.36 1801.27 322.33 1958.09 330.891 1968.45C339.453 1978.8 473.197 1892.32 488.238 1800.05C503.278 1707.78 407.598 1701.88 352.18 1728.55C289.877 1758.52 212.072 1824.81 236.831 1857.73" stroke="#E6007E" stroke-width="52.0632" stroke-linecap="round" stroke-linejoin="round"/>
<path d="M936.325 1327.96C927.474 1349.42 816.406 1422.59 725.585 1556.4" stroke="#E6007E" stroke-width="52.0632" stroke-linecap="round" stroke-linejoin="round"/>
<path d="M731.139 1515.27C731.139 1495.48 764.112 1432.89 770.707 1436.19C777.301 1439.49 736.634 1540.49 769.608 1814.11C802.581 2087.73 835.554 2167.85 857.479 2204.12" stroke="#E6007E" stroke-width="52.0632" stroke-linecap="round" stroke-linejoin="round"/>
<path d="M909.078 1638.31C918.97 1648.2 961.835 1678.86 765.152 1774.49" stroke="#E6007E" stroke-width="52.0632" stroke-linecap="round" stroke-linejoin="round"/>
<path d="M1073.89 1865.71C1060.7 1867.91 992.611 1896.25 893.691 2049.09C794.829 2201.92 782.738 2220.55 782.738 2220.55" stroke="#E6007E" stroke-width="52.0632" stroke-linecap="round" stroke-linejoin="round"/>
<path d="M1859.46 944.256C1850.61 965.717 1739.54 1038.9 1648.72 1172.7" stroke="#E6007E" stroke-width="52.0632" stroke-linecap="round" stroke-linejoin="round"/>
<path d="M1654.22 1131.56C1654.22 1111.78 1687.19 1049.19 1693.79 1052.48C1700.38 1055.78 1659.72 1156.78 1692.69 1430.4C1725.66 1704.02 1758.64 1784.14 1780.56 1820.41" stroke="#E6007E" stroke-width="52.0632" stroke-linecap="round" stroke-linejoin="round"/>
<path d="M1832.22 1254.61C1842.11 1264.5 1884.97 1295.16 1688.29 1390.78" stroke="#E6007E" stroke-width="52.0632" stroke-linecap="round" stroke-linejoin="round"/>
<path d="M1997.02 1482.01C1983.84 1484.21 1915.75 1512.55 1816.83 1665.39C1717.91 1818.22 1705.88 1836.85 1705.88 1836.85" stroke="#E6007E" stroke-width="52.0632" stroke-linecap="round" stroke-linejoin="round"/>
<path d="M1178.54 2107.06C1192.48 2076.11 1194.04 2030.29 1178.54 1741.23C1163.03 1452.16 1177.38 1425.84 1189.59 1425.84C1201.79 1425.84 1240.49 1591.51 1302.39 1811.39C1364.29 2031.27 1389.1 2071.54 1410.8 2065.35C1432.49 2059.16 1514.52 2035.32 1527.59 1025.3" stroke="#E6007E" stroke-width="52.0632" stroke-linecap="round" stroke-linejoin="round"/>
</g>
<defs>
<clipPath id="clip0_176_1587">
<rect width="2023.06" height="2330" fill="white"/>
</clipPath>
</defs>
</svg>
