<svg width="217" height="173" viewBox="0 0 217 173" fill="none" xmlns="http://www.w3.org/2000/svg">
<path id="&#226;&#128;&#156;" d="M70.8158 80.7468C87.5082 87.8292 97.6247 103.006 97.6247 123.747C97.6247 153.088 76.8858 172.312 49.0653 172.312C20.7389 172.312 0 152.582 0 123.747C0 110.594 2.02331 100.982 13.6573 73.1586L42.9953 0.311523H93.0723L70.8158 80.7468ZM190.191 80.7468C206.883 87.8292 217 103.006 217 123.747C217 153.088 196.261 172.312 168.441 172.312C140.114 172.312 119.375 152.582 119.375 123.747C119.375 110.594 121.399 100.982 133.033 73.1586L162.371 0.311523H212.448L190.191 80.7468Z" fill="url(#paint0_linear_379_1533)"/>
<defs>
<linearGradient id="paint0_linear_379_1533" x1="0" y1="86.3115" x2="217" y2="86.3115" gradientUnits="userSpaceOnUse">
<stop stop-color="#E6007E"/>
<stop offset="1" stop-color="#F9B000"/>
</linearGradient>
</defs>
</svg>
