<svg width="113" height="36" viewBox="0 0 113 36" fill="none" xmlns="http://www.w3.org/2000/svg">
<g style="mix-blend-mode:exclusion">
<path d="M80.719 17.92L74.6587 9.31119H72.7946V25.8174H74.6587V12.553L80.719 21.1528L86.7794 12.553V25.8174H88.6525V9.31119H86.7794L80.719 17.92Z" fill="#221F20"/>
<path d="M94.2446 9.31119H92.3805V25.8174H94.2446V9.31119Z" fill="#221F20"/>
<path d="M105.438 9.31119H103.574L96.1086 25.8174H98.1527L100.26 21.1528H108.734L110.841 25.8174H112.885L105.42 9.31119H105.438ZM101.106 19.2888L104.501 11.7786L107.896 19.2888H101.106Z" fill="#221F20"/>
<path d="M56.9367 25.8174H69.0665V23.9534H58.8098V18.4963H68.13V16.6323H58.8098V11.1752H69.0665V9.31119H56.9367V25.8174Z" fill="#221F20"/>
<path d="M44.9601 9.31119H38.2873V25.8174H44.9601C49.5166 25.8174 53.2087 22.1253 53.2087 17.5688C53.2087 13.0123 49.5166 9.32019 44.9601 9.32019V9.31119ZM44.9601 23.9534H40.1514V11.1842H44.9601C48.49 11.1842 51.3446 14.0478 51.3446 17.5688C51.3446 21.0898 48.481 23.9534 44.9601 23.9534Z" fill="#221F20"/>
<path d="M14.7391 31.1394C19.6829 31.1394 23.6991 27.1322 23.6991 22.1794C23.6991 17.2266 19.6919 13.2194 14.7391 13.2194C9.78638 13.2194 5.77914 17.2266 5.77914 22.1794C5.77914 27.1322 9.78638 31.1394 14.7391 31.1394Z" fill="#221F20"/>
<path d="M16.9634 8.70786C11.0921 8.70786 6.20238 12.9222 5.1668 18.4963C6.64363 14.6512 10.3807 11.9227 14.7391 11.9227C20.4033 11.9227 24.9959 16.5152 24.9959 22.1794C24.9959 25.5022 23.411 28.4559 20.9616 30.3289L19.6559 32.3911C24.9869 31.1664 28.9581 26.3937 28.9581 20.6936C28.9581 14.0659 23.5821 8.69885 16.9634 8.69885V8.70786Z" fill="#221F20"/>
<path d="M3.66297 20.7026C3.66297 14.273 8.22852 8.90598 14.2979 7.67229L19.1246 0.0540383C18.6563 0.0180182 18.1791 7.71091e-06 17.7018 7.71091e-06C7.99439 -0.00899732 0.11499 7.8704 0.11499 17.5868C0.11499 27.3033 7.40906 34.5883 16.6212 35.1466L18.8905 31.5626C17.6208 32.1209 16.216 32.4361 14.7482 32.4361C8.63375 32.4361 3.67198 27.1862 3.67198 20.7026H3.66297Z" fill="#221F20"/>
</g>
</svg>
