<svg width="759" height="366" viewBox="0 0 759 366" fill="none" xmlns="http://www.w3.org/2000/svg">
<g filter="url(#filter0_d_173_1835)">
<path d="M723.912 224.239C721.146 222.081 720.389 217.971 717.563 215.945C716.357 215.964 716.462 214.337 716.515 213.522C715.111 213.038 714.85 211.429 713.839 210.993C713.059 211.135 712.88 210.163 712.969 209.543C710.045 206.141 706.325 203.381 704.155 199.889C701.653 198.932 701.998 194.574 699.171 193.56C698.993 192.586 698.143 192.339 697.399 192.676L695.289 191.051C694.329 185.796 693.445 189.778 692.912 186.859C690.565 186.358 689.912 183.228 689.859 181.182C688.941 180.645 687.382 179.636 687.146 178.459C685.935 177.072 687.211 180.47 685.908 180.495L685.323 180.602C684.595 179.85 683.943 178.266 684.099 177.205C683.469 176.246 681.69 173.409 680.516 173.033L680.319 170.855C677.998 170.273 675.073 168.595 674.61 166.066C674.407 165.092 672.345 164.68 671.896 163.343C668.841 163.847 671.809 160.06 667.926 161.452C668.266 162.157 667.737 163.694 667.094 162.409C665.061 162.795 667.454 160.894 667.978 160.639C667.358 160.551 667.02 159.808 666.914 159.224C664.966 159.579 665.32 159.314 664.999 157.563L661.594 154.364L660.09 156.045C660.143 155.232 660.39 154.383 660.867 153.691C659.017 151.061 655.888 153.292 655.585 151.236C653.852 149.219 650.771 147.367 648.635 146.27C648.843 145.407 653.911 141.997 653.914 144.3C654.372 145.594 655.026 142.657 655.153 142.265C655.737 142.159 656.481 141.822 656.534 141.007L658.181 140.103C658.497 138.277 661.374 139.62 661.214 138.007C662.611 137.812 663.91 136.954 664.712 135.76C664.871 135.906 665.015 136.059 665.122 136.224C665.919 135.073 666.484 133.762 667.051 132.454C666.89 130.471 669.335 130.629 669.122 129.461C669.512 129.389 670.292 129.247 670.184 128.664C670.837 128.95 672.317 131.022 672.081 129.122C672.702 129.211 673.942 129.386 673.763 128.413C669.217 129.121 671.803 126.854 673.885 125.777C675.894 125.114 676.553 124.288 676.523 123.567C677.634 123.047 678.238 121.984 678.346 120.876C680.004 119.386 681.589 118.268 682.825 116.304L685.164 115.877C689.016 112.297 686.081 111.461 691.274 112.954C692.851 109.072 704.573 99.0771 704.106 96.134C706.426 94.5037 706.529 90.6641 708.654 89.0709C709.676 84.9701 708.983 81.3521 709.051 76.9324C708.271 77.0746 707.934 76.3318 708.023 75.7119C706.854 75.9245 707.969 74.3134 708.128 74.0841C706.834 70.3829 700.039 68.1045 700.874 66.3589C701.07 66.3231 701.247 67.2951 701.247 67.2951C702.063 67.3476 702.861 68.4094 703.287 68.5323C704.384 66.893 701.321 64.6595 700.57 63.5977C699.192 63.266 695.991 62.3849 695.094 61.1785L694.226 61.9405L692.808 60.7917C690.326 60.7098 690.315 58.0216 687.33 58.3725L687.968 57.4517C687.101 56.7396 684.827 56.8433 686.675 58.0894C685.693 58.0075 683.888 57.6835 683.397 56.6768L684.177 56.5347C684.25 57.9434 685.218 56.8177 685.541 56.2862C683.72 54.5112 680.591 58.375 679.251 56.0249L681.482 55.0145C680.53 54.1897 678.918 53.7415 677.689 54.0975C677.431 52.9064 676.192 52.7463 675.066 52.9679C675.328 54.0847 673.638 54.1474 673.472 53.0576C671.329 53.4482 669.875 52.1047 667.926 52.4595C667.66 52.106 666.401 50.7267 666.686 52.284C665.163 51.3235 663 50.856 661.228 51.0686C659.582 48.9926 656.589 49.9429 654.546 48.6673C654.219 49.6996 652.999 49.7072 652.12 49.7136C652.429 50.8932 651.278 50.6383 650.562 49.998C649.807 50.1376 648.329 50.6268 647.886 49.6816C646.565 49.7047 638.351 50.9137 638.371 49.4063C634.278 50.1529 628.804 49.9454 624.482 50.5333C619.979 48.3856 605.859 52.8322 600.264 53.5429C600.332 55.5178 597.923 53.6556 596.917 53.9528C596.708 54.4638 593.043 55.0606 592.879 56.0967C584.265 56.8792 575.411 59.2254 568.043 61.231C567.426 61.9777 566.169 63.088 565.089 62.7973C565.157 61.993 563.976 61.9264 563.492 61.6588C563.175 61.7164 563.367 63.1303 563.197 64.0332C562.777 64.3726 561.409 64.1497 560.923 64.1382C560.123 64.7632 558.863 65.1986 557.871 65.2934C557.034 62.0545 552.495 64.8183 550.436 64.0409C547.836 64.653 549.212 66.829 547.85 68.1647C547.718 67.8932 547.612 67.3195 547.585 67.1748C545.664 67.3669 545.728 66.4832 545.174 65.0014C544.59 65.1077 543.58 65.0911 543.083 64.5788C539.151 69.2418 540.041 62.0391 537.702 70.3868L537.189 70.8824C536.94 69.5197 535.629 71.1667 535.38 69.804C534.506 69.3571 534.007 70.5558 533.645 71.3268C532.047 71.355 529.772 73.1287 528.74 74.2327L529.203 76.7621C528.483 76.8325 527.517 77.0451 527.811 77.9391C526.298 78.2746 525.022 79.3952 523.409 79.2262C521.53 79.5694 523.414 83.6459 524.314 80.8719L524.814 80.8014C524.25 83.5076 524.611 87.2869 520.759 86.749C520.652 93.9338 518.675 104.497 514.434 109.42C514.613 110.392 515.253 113.895 513.888 114.143C514.515 117.208 511.69 119.12 512.123 122.108C510.232 132.323 505.989 141.443 504.83 151.591C503.855 151.769 503.608 152.618 503.945 153.361C502.097 155.126 497.837 155.171 495.234 156.357C495.448 157.525 488.325 158.22 487.156 158.433C485.207 158.789 486.182 160.822 484.234 161.178L478.158 162.085L477.233 157.025C479.572 156.599 477.919 150.867 477.705 149.699C476.488 149.843 476.632 152.229 476.522 153.133L476.393 146.922L474.783 148.02C474.654 147.936 475.247 146.44 475.278 146.322C476.943 146.318 477.329 143.936 475.914 143.19C476.463 142.889 476.442 139.474 476.459 138.465C475.893 139.775 474.743 141.192 473.716 142.183C474.258 139.716 475.366 137.031 475.747 134.573C475.637 134.932 476.622 135.762 476.811 135.988C476.665 136.936 477.173 138.212 477.93 138.801C477.717 137.634 476.651 134.007 477.713 133.21C477.083 130.789 477.558 127.333 479.621 126.026C479.407 124.858 478.626 122.788 479.652 121.797C477.418 121.529 479.41 118.161 480.464 117.426C480.461 116.255 480.002 113.107 481.364 112.435C480.875 111.214 480.53 108.988 481.324 107.817C481.329 106.802 479.687 103.184 482.313 104.419C482.567 101.165 483.176 96.9959 483.847 94.0836C483.268 92.7261 483.665 90.417 484.357 89.1657C480.151 80.1201 492.249 66.9173 486.654 58.7836C486.239 62.3708 485.792 67.2157 484.432 70.8517C484.827 71.0117 485.649 71.9966 484.733 71.3998C483.63 71.4395 483.707 72.7061 484.079 73.3285L483.531 75.8426C481.892 70.292 484.538 65.7391 484.175 60.6432C484.637 54.9018 488.256 49.031 486.04 44.4166C486.594 41.3929 488.257 37.123 487.608 34.2773C486.861 35.0509 487.3 33.7842 487.235 33.3398C483.928 34.4067 484.993 36.3546 485.822 38.8264C485.256 38.8955 483.669 39.281 485.186 39.7472C485.031 40.49 484.665 41.813 483.788 42.0141C484.089 42.4303 484.274 42.9835 483.54 42.8632C483.734 43.606 482.632 44.8867 483.737 45.0404C483.413 45.5757 482.448 49.4293 481.49 49.2705C482.616 52.544 480.148 50.637 480.75 54.0309C480.893 55.432 478.83 56.057 478.981 57.5708C480.751 57.508 478.327 59.689 478.045 60.1552C475.12 60.752 476.055 71.8775 472.401 70.0333L473.214 67.874C473.409 67.8382 474.543 67.4309 473.727 67.3784L474.08 64.9015C472.999 64.4955 473.21 63.4505 474.257 63.6631C472.796 61.2451 477.029 57.8692 475.453 54.798C475.683 54.1218 474.78 54.5137 474.444 54.7814C472.995 56.6717 473.704 56.6884 473.526 58.5684C471.338 57.6578 473.717 65.1525 471.262 63.8078C471.015 64.6569 471.671 64.9399 471.458 65.9837C472.323 66.0644 472.568 66.9045 472.364 67.6294C470.397 66.7009 472.333 70.7915 471.053 71.1616C470.913 70.9375 470.688 70.7799 470.475 70.6198C470.427 70.5328 469.798 69.936 469.546 69.6785C469.625 69.425 469.704 69.1816 469.777 68.905C468.37 67.5615 471.203 65.0949 469.898 64.0562C470.041 63.0176 472.201 58.8809 471.275 58.375C468.715 60.93 470.786 64.1651 465.681 65.2268C464.922 69.886 462.898 78.0774 460.713 78.8023C460.771 78.8509 460.791 78.9342 460.827 79.0059C460.469 79.1647 460.106 79.312 459.742 79.4503C459.732 79.2941 459.729 79.134 459.74 78.9803C458.765 79.1583 458.463 78.6102 458.906 77.7239L456.178 78.2221C456.122 76.6481 459.436 68.289 456.245 71.9761C455.997 72.8252 455.238 76.383 454.193 76.1717L453.344 78.1363C452.032 77.2462 444.34 76.173 447.338 79.4324C446.435 79.9997 442.999 81.0281 443.247 82.3908C443.27 83.0299 442.205 83.2565 442.133 84.0019C438.814 83.847 439.903 87.3574 437.493 87.26C437.778 88.8174 433.791 87.935 434.147 89.8816C434.432 91.4377 431.385 92.3957 430.216 92.6095C430.587 94.5921 431.096 96.3914 428.554 96.7334C427.767 99.2756 425.023 101.414 424.007 103.798C421.864 104.188 419.493 108.844 418.573 110.419C418.964 112.56 416.43 110.81 416.857 113.146C416.929 113.535 416.149 113.677 415.954 113.713C416.097 114.492 415.459 115.411 414.716 115.748C414.964 117.111 414.042 116.474 413.546 115.962C413.459 116.582 412.52 116.953 411.935 117.061L412.805 118.512C413.007 117.59 413.641 117.305 413.779 118.334C412.544 120.635 410.391 120.393 411.285 123.414C408.108 123.974 410.162 126.21 408.435 126.548C408.578 127.327 408.152 127.203 407.567 127.31C407.177 127.382 407.249 127.771 407.32 128.159C407.462 128.938 406.646 128.885 406.79 129.663C404.545 131.408 403.445 137.405 401.533 137.257C399.658 143.738 394.84 148.888 392.139 155.259C390.97 155.473 392.461 159.221 390.903 159.506C388.51 160.381 388.741 161.793 387.344 163.171C386.729 163.996 387.292 166.062 386.549 166.534C386.497 167.348 385.859 168.268 385.081 168.411C384.604 169.561 385.022 171.41 384.199 172.392L383.314 174.162C381.366 174.518 382.908 177.454 380.96 177.808C380.91 181.046 378.166 184.681 376.451 187.278L375.76 189.012C374.785 189.19 375.85 190.605 374.097 190.924C374.297 192.233 372.098 195.049 371.408 196.039L371.055 198.517C371.979 198.849 371.747 199.259 371.002 199.332C365.766 201.203 371.554 205.685 361.866 206.628C361.973 207.212 357.315 209.269 357.137 208.296L354.019 208.864C353.93 209.484 353.187 209.821 352.603 209.927C353.298 211.759 348.353 213.35 346.8 213.471C347.396 211.739 348.915 210.872 348.425 209.081L345.537 209.808C345.239 204.986 347.293 207.577 347.128 205.295C347.899 204.038 347.176 202.622 347.816 201.349L348.435 201.437C348.937 202.986 350.81 200.54 351.181 199.931L350.754 197.596C355.468 197.15 347.823 193.657 350.165 193.279C351.021 193.979 352.502 194.098 352.079 192.729C353.496 192.599 351.662 191.078 352.962 190.959L353.579 186.623C354.687 185.663 354.646 184.002 355.312 182.889C355.135 181.916 354.55 182.023 353.77 182.165C352.781 182.24 352.347 179.541 353.432 179.211C354.152 176.051 354.551 172.554 356.543 169.795C356.503 169.652 356.485 169.516 356.481 169.386C356.625 169.262 356.775 169.151 356.949 169.055C357.144 169.059 357.339 169.068 357.525 169.002C357.01 171.159 360.977 169.97 360.386 167.688C362.094 166.708 360.244 164.465 359.282 164.891C359.238 164.602 359.223 164.307 359.15 164.027C359.374 163.968 359.578 163.869 359.639 163.602C357.947 162.442 360.494 159.265 362.144 158.588C362.157 158.631 362.155 158.673 362.169 158.717C362.704 158.736 363.969 158.862 363.851 158.007C365.22 157.9 363.798 156.417 364.931 156.202C364.753 155.228 364.362 153.088 365.495 152.681C365.281 151.513 365.937 149.584 367.3 149.336C367.024 148.222 366.91 144.938 368.04 144.575C368.49 143.088 371.441 137.457 367.91 138.365C368.367 133.983 371.77 130.5 370.877 125.96C372.241 125.712 371.513 122.828 372.841 122.385L373.422 117.855C373.993 117.267 374.374 115.739 373.102 116.103C372.8 115.555 372.658 114.776 373.436 114.634C372.071 112.641 369.811 117.78 370.41 119.006C369.348 119.803 368.516 120.759 367.914 121.875L365.203 121.364C366.461 121.351 365.46 119.384 365.325 118.728C366.57 114.104 369.692 110.203 370.329 105.347C375.284 100.774 368.898 101.988 368.594 106.87C367.46 107.279 368.614 110.286 367.056 110.57C365.887 110.783 366.152 111.136 366.33 112.11C365.438 115.484 363.186 118.302 362.282 121.898C362.373 122.616 363.485 124.486 362.425 124.887C361.462 126.646 361.293 128.862 358.796 128.163C357.697 128.538 356.712 127.856 357.962 126.908C359.521 124.74 358.773 120.772 360.738 118.961C360.444 118.09 360.686 117.41 361.657 117.386C361.421 117.177 364.653 111.059 362.45 111.811L360.997 110.468C361.538 109.797 362.415 108.59 361.897 107.689C364.402 105.081 360.799 105.878 359.345 106.948C361.151 112.298 357.483 111.12 358.093 114.416C356.986 112.627 355.223 112.263 354.352 110.473C355.096 110.136 355.344 109.287 355.006 108.544C356.508 106.859 356.695 104.211 356.631 102.014C358.741 101.603 358.515 95.9061 358.592 94.0145C359.999 92.6492 360.83 90.5694 359.101 89.0953C357.893 90.6462 356.018 92.078 357.033 94.2988C356.499 95.2094 355.113 95.4322 355.866 96.7232C353.5 97.1176 355.999 95.0467 355.562 93.9632C358.688 88.6253 357.185 81.6813 360.791 76.319L358.949 75.046L358.064 76.8159C358.983 70.657 363.286 65.6981 364.021 59.8427C362.462 60.127 363.067 63.4364 361.508 63.7207L360.889 65.8441C358.436 68.1955 358.328 71.6047 356.325 73.9164C358.327 74.6553 356.452 75.1471 355.581 74.2532L355.723 75.0306C354.264 75.3559 355.071 76.5649 356.08 76.9773L354.894 78.1991C353.853 76.9094 348.751 88.5343 348.206 90.0763C346.855 91.024 344.894 98.4636 343.004 99.0681C343.548 100.079 343.516 100.911 342.12 100.838C341.904 105.119 338.801 108.404 339.01 112.464L337.932 114.27C337.347 114.376 337.223 114.802 337.331 115.386C337.165 115.9 336.269 117.588 336.27 118.394C333.754 120.84 333.649 124.518 333.159 127.81C331.83 128.253 331.318 130.96 331.533 132.128C329.57 132.269 330.943 134.409 329.887 135.243C330.348 135.863 331.04 137.056 329.854 137.26C327.488 139.633 326.089 143.405 326.353 146.746C324.988 146.995 324.902 149.825 324.886 150.834C323.521 151.083 323.557 151.277 323.806 152.64C322.507 153.196 322.915 157.329 322.268 158.55C319.91 160.007 320.192 162.887 320.52 165.506L317.902 168.799C317.551 171.292 317.042 174.607 315.941 176.798C315.845 177.383 315.426 178.455 314.897 178.798L315.466 181.912C313.748 182.427 314.227 183.948 314.283 185.345C313.681 186.461 312.956 188 313.205 189.363C312.346 190.077 312.806 190.973 313.242 191.769C308.388 197.307 305.976 168.331 303.92 166.121C301.47 166.415 299.482 147.475 299.968 144.52C300.109 142.512 298.214 141.274 298.035 139.444C297.786 138.081 296.369 139.144 295.626 139.481C295.591 138.721 294.845 137.229 295.942 136.808L295.178 133.73C297.945 134.696 295.381 126.047 293.949 125.91C291.615 125.337 290.874 122.312 288.366 122.907C287.674 122.429 287.496 121.457 287.39 120.873C286.755 121.012 285.821 121.049 285.653 120.184L281.081 119.41C281.011 119.02 280.672 118.277 280.053 118.189C279.84 117.022 279.29 117.323 278.316 117.501C277.594 114.462 273.579 120.881 272.348 121.204C270.623 118.663 269.822 121.938 269.192 117.154C268.152 117.555 268.86 115.679 269.066 115.368L267.612 114.024L267.118 117.935C264.975 118.326 266.235 119.705 265.012 120.734C263.96 120.478 261.468 119.751 261.505 121.373C260.778 122.609 260.216 123.696 260.978 125.089L258.25 127.798C258.745 129.201 257.441 128.847 256.727 128.277C257.456 130.622 255.013 129.352 253.751 129.624C253.917 130.306 253.932 131.111 253.523 131.676L252.264 130.298C254.015 128.891 251.295 127.274 250.385 128.83C250.403 129.704 251.656 132.47 249.785 132.158L250.105 133.91C246.04 135.29 245.923 140.544 245.313 144.035C245.562 145.398 243.455 145.983 243.739 147.539C243.283 149.76 241.113 152.354 240.627 154.743C240.783 156.031 241.147 157.951 239.743 158.725L239.443 160.387C238.413 160.603 239.551 161.89 238.327 161.998C238.684 163.945 238.736 163.13 237.089 164.034L237.976 166.688C234.371 171.822 233.358 179.153 230.539 185.302C230.562 179.013 230.661 173.148 228.061 167.491C227.956 166.907 228.238 166.251 228.859 166.34C227.455 166.278 228.008 165.206 227.493 164.378C227.337 159.817 224.369 154.94 221.869 152.333C221.611 150.198 219.788 148.765 218.179 147.576C216.367 142.075 203.358 137.008 202.1 135.628C200.202 136.192 198.166 135.461 196.607 134.217C194.109 133.543 188.393 133.903 186.931 131.96C181.614 132.884 173.091 130.892 168.505 132.506C164.788 131.264 160.759 134.946 157.486 133.914C156.919 134.942 152.033 134.684 151.782 135.758C150.537 136.461 148.851 135.357 147.92 136.663C146.715 135.897 142.425 139.704 142.022 138.543C132.818 140.047 114.09 150.631 106.068 153.346C106.063 153.142 105.313 151.311 105.677 151.204C103.245 151.977 101.8 154.152 99.8161 155.491C100.789 155.313 102.031 155.49 102.757 156.161C96.1701 160.209 87.7778 163.449 82.7288 168.863C81.0296 170.581 80.8539 171.82 78.1249 172.317C77.1502 172.495 75.787 172.743 75.8408 174.142C68.9272 177.356 67.051 183.301 59.9757 186.488C59.8488 189.189 56.4798 192.604 54.0996 193.994L54.4202 195.746C49.6906 197.413 49.4302 203.694 44.9673 205.715L45.606 207.006C43.767 207.733 42.3704 209.489 42.8103 211.538C42.5102 213.201 41.1649 214.653 41.4496 216.21C39.5029 220.951 36.0198 225.112 33.6113 229.504C36.4276 229.011 40.0376 223.661 40.9764 221.324C42.2883 220.526 43.1296 220.362 42.4974 218.632C48.3927 211.428 68.4091 190.934 76.2615 188.544L76.0306 188.386C78.8174 186.5 84.2524 181.893 87.6662 182.644C84.764 184.924 81.0976 186.567 80.2832 189.62C78.7597 190.099 72.7578 195.819 72.4398 196.28C73.4144 196.102 74.6187 196.084 75.4869 195.322C75.8383 196.336 76.2102 197.317 77.4734 197.374C80.2511 194.326 84.3832 192.96 86.9634 189.811C94.0258 189.382 100.963 177.76 108.837 180.593C109.967 179.142 113.546 177.612 115.23 177.013C112.362 180.447 109.384 181.392 106.623 184.435L105.509 184.415C105.105 186.062 103.058 186.617 102.145 188.046C101.876 189.176 101.036 190.791 99.9148 191.267C97.8783 197.942 90.3722 201.727 88.3946 208.652C92.2137 212.045 84.2831 217.643 85.5707 221.835C84.3229 223.925 81.994 221.523 81.4053 219.981C81.3168 220.601 80.9462 221.875 81.2476 222.423C79.2752 223.41 79.6445 225.123 79.6574 226.936C78.793 227.716 77.8876 229.56 77.7286 230.707C76.0088 230.969 76.3948 233.299 77.3605 234.191C73.5312 241.681 71.0881 252.309 70.1173 260.649L71.1266 260.666C71.7024 265.026 69.7749 268.912 68.9387 272.929L67.5229 273.992C68.1629 277.494 66.0738 279.284 66.0596 282.503C67.0728 286.754 68.7002 290.906 68.2488 295.577L69.9506 296.071C69.7467 294.774 70.3648 293.587 71.3664 292.798C71.2228 292.019 71.3997 290.781 72.1076 290.249C71.8306 291.531 73.0246 292.982 73.2105 294.069L72.9092 295.733C75.6087 296.603 73.0195 298.262 75.1086 298.951C74.8623 299.8 74.7213 301.235 75.9614 301.41C76.105 302.373 76.7616 303.663 77.6645 304.116C77.8735 315.821 104.085 321.923 113.769 322.064L114.124 324.011C116.679 324.108 118.051 322.201 120.075 321.315C123.584 320.676 125.462 322.144 129.766 320.353L131.698 321.006C139.337 318.007 146.456 313.679 153.605 309.771C153.42 310.957 155.262 311.856 156.088 312.333C157.173 310.77 159.292 309.722 160.887 308.845C159.688 309.767 153.718 316.583 151.91 315.912L151.822 316.532C155.705 318.109 157.805 311.793 161.085 311.022C161.115 310.927 162.589 309.294 162.358 309.18C162.792 308.99 163.983 308.317 164.466 308.595C165.068 307.909 166.749 304.496 168.025 304.93C167.915 302.883 169.059 301.144 169.598 299.213C171.322 298.574 171.685 297.979 171.862 296.185C173.067 294.478 176.546 293.473 175.562 291.087L181.492 284.978C182.908 285.209 185.935 282.715 186.982 281.965C186.459 283.917 184.861 285.348 183.141 286.285C182.773 287.652 182.119 289.385 180.557 289.774L180.842 291.33C188.9 285.116 194.686 272.687 201.212 265.091C202.892 259.959 206.454 260.717 208.062 255.196C208.798 253.762 209.998 252.158 210.007 250.418C210.126 250.344 211.596 249.821 211.302 249.469C211.783 250.556 212.686 252.226 210.709 252.098C211.338 254.076 210.094 255.908 210.111 257.637C208.783 258.08 208.695 260.912 208.909 262.08C206.693 266.278 206.775 272.761 204.013 276.045C204.141 278.321 203.091 280.585 202.424 282.77C202.787 284.226 201.875 283.304 201.238 283.991C202.024 285.896 202.75 296.133 200.716 296.554L200.683 298.571C199.708 298.749 200.49 300.817 200.597 301.401C199.8 302.553 199.448 305.03 199.467 306.232C198.492 306.41 198.813 308.162 199.114 308.71C198.441 309.435 199.1 314.142 199.35 315.504C198.022 315.948 198.095 318.549 198.309 319.717C196.996 322.08 197.044 325.385 196.579 327.875C197.114 327.072 198.297 322.471 199.144 323.184C198.879 323.745 198.141 324.898 198.756 325.467C199.632 323.686 198.828 321.574 200.861 320.458C200.654 319.797 200.798 319.035 201.587 318.918C201.153 317.949 204.243 309.608 204.554 308.723C205.216 309.527 207.285 312.217 207.337 309.624C207.886 309.323 208.096 306.067 207.954 305.288C209.507 303.718 208.826 300.313 210.198 298.846C210.85 301.068 209.07 304.421 209.335 306.244C210.505 306.031 212.377 298.65 212.59 297.607C213.758 297.393 213.846 294.561 213.862 293.553C214.696 294.343 215.967 294.324 215.581 293.038C216.762 292.208 216.472 290.777 217.19 289.729C220.235 291.056 218.76 287.06 220.235 286.561C219.345 283.281 222.742 286.262 221.121 287.002C221.529 288.133 220.626 288.701 220.999 289.638C220.49 290.07 220.773 291.165 221.159 291.621C221.744 291.514 222.362 289.39 222.485 288.964C221.98 286.832 224.187 289.447 223.018 289.671L223.25 292.042C221.105 292.481 223.499 293.853 222.083 294.468C223.156 298.729 217.808 304.428 220.426 307.439C222.181 307.118 221.22 301.864 223.364 301.473C223.112 300.45 223.141 299.355 222.989 298.324C223.855 298.243 224.559 297.841 224.335 296.872C226.006 294.1 226.649 290.255 227.872 287.58C227.795 285.208 230.631 283.355 230.471 280.873C231.788 280.751 229.77 279.376 231.391 279.298C231.005 275.394 234.371 273.587 233.917 269.988C235.014 269.622 234.943 270.915 235.017 271.598C235.7 271.794 237.04 273.383 235.533 273.313L234.879 275.243C233.622 276.075 235.183 278.003 234.315 278.765C236.32 283.603 238.433 267.87 239.251 269.418C238.862 266.935 239.687 264.554 239.918 262.058C244.092 263.092 239.33 265.896 241.71 266.356C241.209 270.919 244.003 267.72 243.061 271.539C242.282 271.681 242.353 272.071 242.459 272.655C242.413 273.336 241.02 274.531 241.363 275.468C241.557 278.271 239.548 280.764 240.218 283.52C242.862 282.031 243.652 277.734 242.886 274.989C245.365 273.472 242.934 271.519 246.337 270.74C246.721 269.276 244.733 266.445 246.688 266.051C246.749 264.718 246.386 262.901 248.032 262.389C249.394 262.287 247.96 260.856 249.147 260.777C249.901 256.213 251.958 248.326 253.279 243.735C254.344 242.109 253.493 237.68 255.577 236.479C255.258 235.595 255.826 234.576 256.851 234.637C258.258 223.634 264.628 213.124 267.066 202.409C268.004 202.037 268.855 202.284 268.606 200.922C268.871 199.188 270.261 197.544 269.47 195.737C269.757 195.02 274.24 184.177 274.333 183.789C274.405 184.179 274.547 184.957 273.927 184.869C274.94 186.589 277.355 205.274 279.223 205.018C279.898 206.505 282.282 219.543 282.781 222.267C281.838 218.216 281.39 212.465 278.252 209.62C276.111 213.256 283.674 231.89 284.615 233.395C282.774 233.311 286.623 243.605 286.412 244.328C286.784 246.487 290.774 246.938 288.489 247.972C287.409 249.024 288.655 251.9 290.174 251.686C292.123 251.33 291.576 253.842 291.594 255.046L293.617 259.503C294.982 259.255 294.929 260.068 294.256 260.794C294.736 262.314 295.514 262.172 295.942 264.508L296.527 264.402C296.714 266.55 298.587 270.019 299.12 271.972C304.078 273.821 299.357 270.967 302.926 269.668C303.873 268.508 304.762 268.667 306.045 269.099C306.516 270.827 307.907 271.88 309.608 272.068L310.992 273.024C311.418 273.146 313.667 273.34 312.143 273.819L312.375 276.189C313.589 275.705 315.503 275.703 315.174 273.87C315.939 273.583 317.433 273.691 318.204 273.921C318.558 273.655 318.84 273.001 319.425 272.894C320.954 273.114 317.866 274.66 320.1 274.38C323.19 276.403 326.993 272.06 328.645 269.35L329.401 273.487C330.522 273.159 331.421 271.711 331.702 270.654C333.651 270.299 332.621 269.079 332.337 267.522C332.733 264.703 333.546 261.871 334.421 259.098C335.005 258.992 334.74 258.639 334.668 258.249C334.454 257.081 336.351 257.54 336.172 256.567C336.046 255.886 335.524 255.277 334.754 255.418C334.684 255.028 334.7 254.019 335.356 254.302C336.608 252.672 335.444 246.582 337.654 247.046C336.338 243.88 340.058 241.349 339.703 238.428C339.595 237.844 340.498 237.277 341.083 237.17L341.311 235.119C341.722 234.624 342.276 233.798 342.031 233.126C343.992 234.558 350.397 232.79 352.503 232.474C353.002 233.578 353.101 234.926 352.329 235.924L352.72 238.064C351.853 238.826 351.091 240.171 350.72 241.447C350.201 242.202 348.417 242.511 348.897 243.588C345.847 252.879 342.376 262.074 340.184 271.922C341.106 273.382 345.126 273.328 344.897 271.265L346.083 270.042C348.422 269.616 347.959 267.086 349.464 265.403C349.138 263.695 350.858 265.151 351.802 264.977C352.005 265.779 351.784 266.605 350.917 266.747C350.772 273.158 354.229 271.858 354.761 266.851C358.257 266.108 355.535 263.078 359.665 261.734C359.523 260.955 357.646 261.7 357.574 261.31C357.46 258.908 360.196 258.293 360.386 255.77C360.886 255.409 361.674 255.2 361.857 256.105C363.497 256.988 361.31 259.289 361.897 260.724C360.674 260.856 361.806 262.138 361.012 262.494C361.589 263.472 361.349 264.821 360.802 265.75C358.206 266.455 362.105 271.731 359.762 272.173C360.046 273.73 358.593 274.599 358.914 276.35C358.704 277.544 354.423 285.253 357.769 284.4C358.219 284.637 359.2 282.494 359.397 282.295C360.121 281.849 360.949 281.488 360.476 280.489C360.078 279.5 361.48 278.394 361.502 277.286C361.36 276.507 361.979 276.595 362.564 276.489C363.807 276.082 362.079 274.012 363.696 273.87L363.606 272.277C362.548 272.515 363.692 270.607 363.926 271.817C365.149 270.521 367.26 268.162 366.933 266.241C368.548 266.228 372.105 268.199 372 265.318C373.365 265.069 373.293 264.68 373.08 263.512C375.223 263.121 374.194 261.901 374.653 260.006C372.707 260.316 375.761 256.819 375.837 256.573C377.785 256.217 378.829 254.218 378.669 252.235L380.951 248.2C380.097 245.162 384.132 249.081 383.696 246.694L385.13 244.623C387.252 243.759 385.981 240.111 386.365 238.163C388.508 237.772 386.77 234.871 388.328 234.587C388.079 233.224 389.621 233.949 390.4 233.807C391.765 233.559 391.285 232.036 390.204 231.63C389.991 230.463 392.452 229.612 392.097 227.665C394.853 228.249 394.179 224.304 395.903 223.15C397.645 222.724 401.814 222.779 402.244 220.384L407.116 219.497C407.435 219.037 408.939 217.355 409.188 218.717C409.938 218.973 410.791 218.533 410.605 217.654C411.63 216.893 412.469 214.206 412.782 213.034C413.159 215.963 418.851 216.603 418.682 213.365C419.502 212.938 419.262 211.793 419.069 211.082C421.411 210.489 419.539 213.607 422.385 212.688C424.312 211.816 425.603 210.707 427.981 210.261C428.565 210.155 428.725 209.925 428.617 209.341C431.224 209.438 435.794 205.5 436.874 208.237C436.772 208.993 435.951 210.926 437.017 211.227C437.942 225.009 436.894 242.79 439.8 256.167C437.671 257.686 442.108 270.284 443.604 270.353C443.794 271.356 443.894 273.33 443.305 274.229C443.678 275.166 444.53 275.413 444.707 276.387L446.496 276.261C447.669 280.471 448.77 284.292 450.918 288.324C452.654 287.425 448.595 280.847 449.704 279.496C451.046 279.784 450.973 282.658 452.648 282.378C453.459 282.708 457.576 293.122 457.884 294.495C459.268 295.449 460.405 301.675 460.655 303.038C461.435 302.896 459.731 297.978 459.516 296.81C459.019 294.086 461.005 296.136 460.292 292.244C460.519 289.326 456.137 283.58 459.256 282.178L456.714 271.581C456.714 271.581 456.608 270.997 456.801 270.962C457.944 271.201 458.512 282.975 462.231 280.831C462.243 280.429 461.158 277.625 461.59 277.328C462.74 277.543 466.951 299.626 467.845 300.518C469.259 299.288 468.374 295.812 467.91 294.272C471.721 292.722 470.686 304.642 473.66 305.892C471.906 308.065 476.407 315.35 476.91 315.958L478.239 315.513C477.531 310.761 475.265 304.989 476.277 300.387C476.538 297.248 471.691 284.447 475.361 283.26L474.775 281.155L475.36 281.048C474.136 273.916 473.474 266.966 474.12 259.959L474.314 259.923L474.261 258.526C475.22 258.513 475.507 257.783 475.18 256.951L473.55 256.846C472.901 254.397 472.854 251.424 472.711 248.955L474.04 248.512C474.141 249.149 474.255 250.127 475.103 249.926C474.899 247.069 477.115 246.831 473.789 244.938L473.682 244.354L475.206 243.875L474.035 241.876C475.814 238.282 473.16 234.55 472.078 231.173C472.797 229.746 472.583 224.19 472.886 222.378L474.444 222.094L474.354 220.502C475.28 220.379 476.112 220.27 475.699 219.051L472.901 219.158C472.545 217.212 473.124 210.47 474.877 210.151C474.979 210.788 475.093 211.765 475.941 211.565C475.17 210.055 478.459 206.857 475.512 207.017C473.299 204.188 476.361 205.053 476.361 205.053C475.578 203.828 474.931 201.848 476.393 200.824C474.613 195.554 473.065 191.494 480.445 191.037C482.52 191.105 482.167 188.393 484.056 188.769C486.695 184.268 493.498 185.527 497.622 183.071C496.378 190.451 494.508 197.216 494.006 204.651C494.04 204.845 491.988 209.04 492.202 210.208C491.032 210.421 491.779 212.296 491.921 213.074C490.825 216.779 490.18 220.022 489.717 224.135C490.091 224.897 490.569 226.474 489.399 226.807C488.438 228.673 489.222 231.868 487.969 233.303C488.671 238.711 483.642 246.419 485.007 252.343C483.839 252.557 484.548 254.237 484.691 255.016C484.303 256.723 483.424 259.736 483.651 261.438C484.411 261.668 485.11 261.331 484.873 260.411C485.406 259.494 485.933 257.685 485.791 256.623C486.249 253.027 489.868 249.544 490.249 245.756C490.958 245.212 490.836 244.021 490.6 243.278C491.114 242.782 491.131 241.774 490.989 240.996C493.47 239.477 491.718 234.695 495.076 233.614L494.969 233.031C496.811 233.912 494.142 238.2 497.152 237.257L496.725 234.923C502.755 233.222 499.085 226.503 503.785 223.982C502.454 221.259 505.11 220.008 504.825 217.559C506.579 217.239 504.344 213.826 506.292 213.471C506.797 214.369 508.339 215.921 506.933 216.974C508.032 219.257 504.906 223.241 507.577 224.9C507.436 226.333 506.799 227.254 506.233 228.563C506.493 229.914 506.41 230.915 505.207 231.766C505.432 232.625 505.77 234.319 504.998 235.023L505.777 234.88L505.389 237.163C507.162 238.046 504.593 238.314 504.008 238.42C501.822 239.314 504.348 243.888 502.862 244.26C503.077 245.362 504.121 244.76 504.722 244.523C505.519 243.348 504.997 240.918 506.917 241.107C506.404 237.374 508.695 233.417 508.431 229.571C510.306 226.89 509.857 230.379 509.637 231.763L511.621 231.602C511.308 230.879 510.837 229.701 512.081 229.709C512.302 229.19 512.852 228.299 513.39 228.062C513.387 225.938 515.501 226.273 516.666 225.052C517.991 224.909 516.706 223.755 517.515 223.088C517.492 222.839 517.932 220.528 518.275 221.742C518.991 223.884 516.073 226.955 518.564 227.722C519.018 231.425 521.816 226.785 521.29 225.013C524.212 225.002 520.516 222.627 523.555 221.985C525.315 219.946 526.004 216.715 526.987 214.321C527.874 216.974 527.273 218.09 527.593 219.841C528.713 219.946 530.335 218.719 531.083 217.999C530.379 217.762 529.58 216.743 530.834 216.637L531.61 212.071C535.141 208.371 533.632 203.522 535.802 199.11C536.118 199.036 536.414 198.927 536.694 198.793C536.762 198.914 536.948 199.042 537.305 199.169C536.969 200.677 537.072 201.59 538.335 202.601C538.937 201.486 538.971 199.469 538.721 198.107C541.571 200.004 539.67 196.832 539.074 195.629C540.225 193.592 540.931 190.732 539.751 189.588C539.909 189.245 540.033 188.884 540.136 188.509C540.646 188.92 541.216 185.872 541.033 185.42C541.941 185.253 542.535 183.612 542.933 181.804C542.981 181.944 546.857 181.284 546.927 181.328C546.908 180.125 551.657 179.662 551.726 177.839C552.892 178.045 554.497 177.185 555.286 176.385C556.651 176.137 562.195 174.522 562.672 173.832L564.603 174.485C566.527 170.652 567.608 182.263 564.448 179.138C564.229 179.653 564.519 180.098 563.881 180.448C564.156 181.535 563.87 183.536 563.425 184.554C564.135 184.259 564.383 185.291 564.453 185.774C563.089 186.023 563.429 188.977 563.607 189.951C562.784 192.501 561.454 195.202 561.027 197.862C556.228 209.712 555.188 223.504 552.765 236.37C551.775 237.556 551.902 241.555 550.839 242.352C550.395 243.542 549.58 247.316 550.702 248.209C553.211 244.911 556.252 236.367 558.609 233.092C559.389 232.95 558.36 231.73 560.149 231.604L561.191 227.392C563.919 226.894 564.267 219.993 565.827 219.709C565.542 218.152 571.472 212.043 568.903 212.311C569.028 210.866 569.333 208.958 570.833 210.752C570.21 207.948 573.672 207.64 572.991 204.929L574.122 202.308L574.849 202.981C573.838 202.964 574.052 204.132 574.354 204.68C572.878 204.857 575.003 206.833 573.382 207.069C573.551 209.179 572.531 212.756 571.314 214.484C571.703 215.425 572.335 217.25 570.875 217.581C571.23 219.526 569.708 220.005 570.099 222.146C569.02 224.274 567.42 225.543 569.147 227.95C570.901 227.63 568.667 226.429 570.81 226.038C572.585 225.352 571.113 222.733 572.402 221.525C574.013 221.544 573.934 220.64 574.224 219.381C573.94 217.825 575.391 216.957 575.302 215.365C576.666 215.117 575.017 213.809 576.611 213.719C576.281 212.468 577.564 212.852 578.01 213.665C578.142 211.874 578.387 209.834 580.558 209.982C581.923 209.734 581.193 206.85 582.788 206.76C582.597 204.256 585.039 201.108 585.02 198.412C585.405 198.106 585.506 197.58 585.437 197.094C585.546 197.005 585.66 196.919 585.751 196.81L586.024 196.918C586.043 196.753 586.082 196.604 586.132 196.467C586.67 196.136 587.294 195.877 587.677 195.354C589.301 195.125 591.539 196.215 591.642 197.904C590.707 199.223 590.722 200.23 591.858 201.282C590.996 202.078 590.955 205.489 589.487 205.938C589.66 208.283 591.309 206.079 591.718 204.927C592.568 201.676 595.447 198.981 597.576 196.217C597.48 195.431 605.132 180.47 600.791 185.174C601.286 183.475 601.869 181.156 602.984 179.545L603.835 179.792C605.014 177.975 605.816 171.213 607.618 169.652L608.699 170.058C608.272 167.723 610.185 167.172 611.991 166.039C614.524 165.576 613.747 167.932 617.431 166.053C619.241 166.397 620.754 165.798 619.151 167.75C619.698 168.525 621.934 165.346 621.596 167.907C621.718 168.35 624.141 168.519 624.573 168.772C625.105 169.479 630.104 172.588 631.274 172.376C632.201 168.501 635.043 176.666 636.805 176.193C641.483 180.421 642.196 180.899 647.831 183.633C648.538 185.983 649.628 181.446 650.773 184.303L650.331 185.188C648.969 185.391 647.952 186.348 649.801 186.693C649.647 187.56 650.677 188.133 651.326 188.425C651.717 190.567 652.956 188.53 653.311 190.477C653.453 191.329 655.118 191.902 655.686 192.457C655.793 193.041 656.13 193.784 656.751 193.872C657.419 196.014 661.421 197.463 661.698 200.008C663.385 199.87 667.618 204.831 667.122 201.03C667.015 200.446 666.749 200.093 666.164 200.199C665.031 199.509 665.381 197.458 664 197.175C664.536 196.933 664.866 196.097 665.151 195.759C666.32 195.546 670.451 199.418 670.682 199.576C672.276 199.487 677.665 202.526 677.86 202.49C678.566 203.712 680.283 205.788 680.376 203.037C678.101 200.943 675.928 197.53 673.601 194.62C672.36 194.738 674.365 193.783 674.627 193.629C675.254 192.543 678.269 192.904 678.348 194.157C678.669 195.909 680.278 192.598 680.884 195.906C681.096 197.074 682.744 196.17 682.957 197.338L684.854 197.796C684.621 196.961 684.753 196.157 685.739 196.026C685.794 197.415 687.386 195.983 687.388 197.335C690.283 197.657 692.356 200.187 694.851 201.805C696.028 201.405 697.307 203.301 698.236 203.803C698.694 205.204 699.496 206.51 701.019 206.915C701.126 207.499 701.463 208.242 702.084 208.33C702.532 209.191 703.824 210.309 704.725 210.662C704.788 211.545 705.755 212.244 706.481 212.554C706.659 213.527 707.225 212.217 707.384 211.986C709.137 211.666 709.724 213.772 711.283 213.487C711.424 215.396 713.706 214.63 713.836 216.439C715.719 217.075 715.516 218.254 716.62 219.552C717.826 219.532 719.969 219.142 719.509 221.036C720.602 222.524 722.467 226.877 724.313 224.181L723.924 224.252L723.912 224.239ZM190.179 192.693C189.459 200.152 184.016 207.673 182.382 215.027L181.797 215.133L182.118 216.885C179.663 219.86 178.645 224.087 176.544 227.151C176.71 229.113 174.763 231.986 174.14 233.824C171.847 234.298 172.67 237.601 171.256 238.975C171.256 239.172 171.699 240.658 171.381 240.763C167.988 240.236 166.663 245.024 164.6 246.624C164.54 246.761 163.828 247.573 163.998 247.74C162.13 248.744 160.933 251.866 160.246 253.653C158.257 257.088 154.185 259.036 152.022 262.108C151.927 261.957 151.81 261.806 151.642 261.657L150.367 263.499C149.253 263.718 147.673 265.067 146.986 265.927C147.295 268.008 145.822 267.875 144.721 268.953C144.95 269.112 146.671 270.81 146.652 269.607L147.538 270.048L144.474 272.014L144.031 270.689C143.124 270.679 141.618 270.814 141.215 271.806C141.607 273.602 139.001 272.274 138.256 272.144C137.275 274.01 138.483 276.091 137.924 278.035C134.31 277.742 135.467 280.441 131.354 280.641C125.925 283.486 122.079 284.067 116.224 281.59C115.241 282.097 113.991 283.331 113.07 281.965C109.727 281.618 109.146 279.211 108.424 276.379C109.313 277.848 110.646 279.314 112.448 279.667L112.092 277.72C111.956 277.975 110.273 276.102 110.177 276.059L110.069 273.263L109.448 273.175C109.448 271.63 109.579 268.568 108.026 267.602C109.138 264.093 109.813 259.866 109.542 256.064C111.538 255.965 111.426 255.382 111.72 253.655C109.07 249.035 114.127 238.907 115.496 234.668L114.682 234.615C126.854 211.593 142.033 190.357 161.569 174.987C161.473 173.682 160.391 175.211 160.045 175.465C159.121 175.244 157.28 174.668 156.359 175.132C157.326 174.097 158.462 172.884 158.712 171.486C162.654 170.022 164.372 165.663 168.541 164.666L167.122 163.517C167.505 162.17 169.817 163.58 170.579 163.691C171.552 163.513 172.686 163.106 173.536 163.352C175.358 161.91 175.206 164.681 178.089 162.924C178.618 164.987 180.398 164.625 181.881 163.841C183.176 164.198 187.821 166.84 189.005 165.357C196.37 167.28 191.312 187.122 190.181 192.694L190.179 192.693ZM438.559 160.256C437.337 161.283 436.434 161.851 436.754 163.602C438.314 163.317 438.509 163.281 438.793 164.839C437.04 165.159 437.36 166.91 437.61 168.272C439.614 168.276 437.891 170.871 437.204 171.564L436.517 175.509C435.542 175.688 420.735 180.6 420.717 181.609L418.627 181.186C419.915 180.982 419.557 179.115 420.805 178.778C420.976 177.182 422.486 175.518 422.165 174.106L424.998 171.981C424.502 171.469 424.165 170.725 424.022 169.946C421.759 171.778 420.984 175.139 418.623 176.763C418.517 176.179 417.984 175.472 417.364 175.384C418.222 175.305 419.105 174.852 418.904 173.897C420.658 173.577 421.046 171.293 422.41 171.045C422.004 170.808 421.073 169.681 421.931 169.523C423.685 169.203 422.036 167.896 423.595 167.611C423.966 164.705 425.984 162.353 427.221 159.911C428.39 159.698 426.936 158.354 428.69 158.034L429.507 160.297C428.247 160.409 429.039 161.474 429.88 161.235C431.439 160.95 428.585 159.661 432.677 158.914C435.233 157.541 431.328 156.987 437.174 152.666C436.922 149.564 439.004 155.213 439.408 156.079C437.46 156.435 440.509 159.899 438.56 160.255L438.559 160.256ZM580.392 126.544C578.443 126.9 581.456 127.958 577.948 128.599C577.559 128.67 577.701 129.448 577.737 129.642C575.986 129.691 578.441 133.093 576.891 133.819C577.156 134.172 577.618 134.491 577.724 135.075C577.937 136.243 576.022 134.581 576.256 136.951C576.381 138.738 575.853 142.453 573.797 142.225C574.208 145.713 571.901 149.384 568.683 150.599C568.312 151.873 568.242 151.483 566.841 151.537C565.002 152.578 564.678 155.898 562.646 156.125C561.281 156.373 562.01 159.256 560.256 159.576C558.264 160.756 554.462 161.852 553.544 163.614C554.207 166.831 558.204 161.715 559.958 163.45C559.799 163.681 558.49 165.328 559.658 165.114L560.333 166.6L557.764 166.867C557.978 168.035 557.163 167.983 557.341 168.956L554.418 169.489C553.574 171.815 547.819 174.869 544.764 176.246C544.706 176.012 544.637 175.778 544.549 175.549C544.749 175.648 544.714 173.67 544.714 173.67C546.079 173.422 546.043 173.227 545.794 171.866C548.519 167.752 544.109 167.214 546.037 166.593L546.09 165.779C546.09 165.779 543.237 164.489 544.795 164.205C543.591 162.971 544.529 161.643 544.473 160.241C546.653 162.918 546.271 157.774 545.144 157.303C545.124 157.307 545.106 157.325 545.087 157.33C545.748 155.778 546.843 154.383 547.424 152.812C549.362 152.372 548.16 154.879 549.642 155.477C551.361 151.455 552.976 146.349 553.6 141.885C554.118 141.604 553.872 140.77 553.41 140.061C554.146 138.546 554.833 137.031 554.797 135.447C554.812 135.443 554.818 135.429 554.835 135.426C555.95 132.908 555.925 129.102 557.733 127.054C557.764 125.875 558.578 124.098 559.467 123.32C557.967 118.641 562.222 114.478 561.441 109.889C562.251 109.807 563.012 109.549 562.786 108.438C562.959 108.21 563.901 106.787 562.927 107.005C560.682 105.81 561.74 103.642 561.541 101.627C562.905 101.379 562.637 98.8133 562.459 97.8399C564.135 94.3398 564.464 89.947 565.832 86.361C566.077 86.4801 566.169 85.581 566.24 85.4875L565.819 85.508C565.483 84.3234 566.589 82.8583 566.46 81.7325C571.459 81.087 576.599 80.8962 581.438 80.503C578.795 82.0117 573.928 81.4879 572.334 83.5716C575.145 83.7099 587.209 79.9523 588.652 83.6113C587.707 84.4963 584.872 84.9676 585.376 86.6222L581.32 87.5636C582.011 88.0413 587.294 90.4964 586.831 87.9657C587.256 88.0899 589.347 88.5126 589.419 88.9019C589.054 90.0712 584.829 89.021 584.459 90.4093C585.837 91.2033 587.719 91.3647 588.817 90.0161C589.424 90.2658 589.857 90.6846 588.96 90.7948C588.943 91.8027 588.199 92.1395 588.253 93.538C586.841 97.4993 586.424 102.11 583.888 105.998C583.905 107.201 584.262 109.147 582.702 109.432C582.614 110.051 582.899 111.607 583.873 111.429C580.275 114.836 579.85 121.667 580.395 126.543L580.392 126.544ZM641.36 107.581L639.996 107.829L640.085 109.421L637.233 110.343C637.007 110.553 636.102 111.989 635.693 111.832C635.303 111.903 634.718 112.01 634.4 112.469C632.483 112.695 634.189 112.951 633.676 114.009L631.23 113.853C631.396 114.76 631.024 115.297 630.114 115.462C629.342 116.385 616.174 126.685 618.231 122.054C618.15 120.106 620.254 121.933 619.77 118.356C621.126 118.236 620.133 117.025 619.291 116.834C619.764 114.274 621.857 115.023 621.785 111.753C622.892 112.325 622.415 110.594 622.28 110.055C623.856 108.762 621.001 107.472 624.12 106.903V105.249C625.085 104.018 625.176 101.96 624.259 100.616C624.214 99.5228 624.481 98.6519 625.798 99.5599C626.139 98.8837 626.175 97.6299 625.919 96.9242C627.549 95.1107 627.962 92.7171 628.129 90.2876C630.611 90.3517 628.534 87.9145 630.005 87.3317C632.696 81.0499 647.97 86.2829 654.223 84.3221C654.281 87.205 658.243 84.5001 658.796 87.31L661.206 87.2716C661.037 85.4363 662.617 88.3704 662.891 88.7751L660.839 92.9707C660.277 93.0706 658.746 92.8247 658.767 93.7506C657.987 93.8928 658.288 94.4409 658.36 94.8303C658.645 96.3863 655.988 97.2739 654.624 97.5223C653.65 97.7003 654.909 99.0796 653.474 98.9388C652.688 99.8724 650.372 99.4818 650.641 101.065C649.547 101.247 648.684 103.078 647.684 103.615C645.606 104.151 642.372 106.103 641.363 107.584L641.36 107.581Z" fill="#E6007E"/>
<path d="M723.912 224.239C721.146 222.081 720.389 217.971 717.563 215.945C716.357 215.964 716.462 214.337 716.515 213.522C715.111 213.038 714.85 211.429 713.839 210.993C713.059 211.135 712.88 210.163 712.969 209.543C710.045 206.141 706.325 203.381 704.155 199.889C701.653 198.932 701.998 194.574 699.171 193.56C698.993 192.586 698.143 192.339 697.399 192.676L695.289 191.051C694.329 185.796 693.445 189.778 692.912 186.859C690.565 186.358 689.912 183.228 689.859 181.182C688.941 180.645 687.382 179.636 687.146 178.459C685.935 177.072 687.211 180.47 685.908 180.495L685.323 180.602C684.595 179.85 683.943 178.266 684.099 177.205C683.469 176.246 681.69 173.409 680.516 173.033L680.319 170.855C677.998 170.273 675.073 168.595 674.61 166.066C674.407 165.092 672.345 164.68 671.896 163.343C668.841 163.847 671.809 160.06 667.926 161.452C668.266 162.157 667.737 163.694 667.094 162.409C665.061 162.795 667.454 160.894 667.978 160.639C667.358 160.551 667.02 159.808 666.914 159.224C664.966 159.579 665.32 159.314 664.999 157.563L661.594 154.364L660.09 156.045C660.143 155.232 660.39 154.383 660.867 153.691C659.017 151.061 655.888 153.292 655.585 151.236C653.852 149.219 650.771 147.367 648.635 146.27C648.843 145.407 653.911 141.997 653.914 144.3C654.372 145.594 655.026 142.657 655.153 142.265C655.737 142.159 656.481 141.822 656.534 141.007L658.181 140.103C658.497 138.277 661.374 139.62 661.214 138.007C662.611 137.812 663.91 136.954 664.712 135.76C664.871 135.906 665.015 136.059 665.122 136.224C665.919 135.073 666.484 133.762 667.051 132.454C666.89 130.471 669.335 130.629 669.122 129.461C669.512 129.389 670.292 129.247 670.184 128.664C670.837 128.95 672.317 131.022 672.081 129.122C672.702 129.211 673.942 129.386 673.763 128.413C669.217 129.121 671.803 126.854 673.885 125.777C675.894 125.114 676.553 124.288 676.523 123.567C677.634 123.047 678.238 121.984 678.346 120.876C680.004 119.386 681.589 118.268 682.825 116.304L685.164 115.877C689.016 112.297 686.081 111.461 691.274 112.954C692.851 109.072 704.573 99.0771 704.106 96.134C706.426 94.5037 706.529 90.6641 708.654 89.0709C709.676 84.9701 708.983 81.3521 709.051 76.9324C708.271 77.0746 707.934 76.3318 708.023 75.7119C706.854 75.9245 707.969 74.3134 708.128 74.0841C706.834 70.3829 700.039 68.1045 700.874 66.3589C701.07 66.3231 701.247 67.2951 701.247 67.2951C702.063 67.3476 702.861 68.4094 703.287 68.5323C704.384 66.893 701.321 64.6595 700.57 63.5977C699.192 63.266 695.991 62.3849 695.094 61.1785L694.226 61.9405L692.808 60.7917C690.326 60.7098 690.315 58.0216 687.33 58.3725L687.968 57.4517C687.101 56.7396 684.827 56.8433 686.675 58.0894C685.693 58.0075 683.888 57.6835 683.397 56.6768L684.177 56.5347C684.25 57.9434 685.218 56.8177 685.541 56.2862C683.72 54.5112 680.591 58.375 679.251 56.0249L681.482 55.0145C680.53 54.1897 678.918 53.7415 677.689 54.0975C677.431 52.9064 676.192 52.7463 675.066 52.9679C675.328 54.0847 673.638 54.1474 673.472 53.0576C671.329 53.4482 669.875 52.1047 667.926 52.4595C667.66 52.106 666.401 50.7267 666.686 52.284C665.163 51.3235 663 50.856 661.228 51.0686C659.582 48.9926 656.589 49.9429 654.546 48.6673C654.219 49.6996 652.999 49.7072 652.12 49.7136C652.429 50.8932 651.278 50.6383 650.562 49.998C649.807 50.1376 648.329 50.6268 647.886 49.6816C646.565 49.7047 638.351 50.9137 638.371 49.4063C634.278 50.1529 628.804 49.9454 624.482 50.5333C619.979 48.3856 605.859 52.8322 600.264 53.5429C600.332 55.5178 597.923 53.6556 596.917 53.9528C596.708 54.4638 593.043 55.0606 592.879 56.0967C584.265 56.8792 575.411 59.2254 568.043 61.231C567.426 61.9777 566.169 63.088 565.089 62.7973C565.157 61.993 563.976 61.9264 563.492 61.6588C563.175 61.7164 563.367 63.1303 563.197 64.0332C562.777 64.3726 561.409 64.1497 560.923 64.1382C560.123 64.7632 558.863 65.1986 557.871 65.2934C557.034 62.0545 552.495 64.8183 550.436 64.0409C547.836 64.653 549.212 66.829 547.85 68.1647C547.718 67.8932 547.612 67.3195 547.585 67.1748C545.664 67.3669 545.728 66.4832 545.174 65.0014C544.59 65.1077 543.58 65.0911 543.083 64.5788C539.151 69.2418 540.041 62.0391 537.702 70.3868L537.189 70.8824C536.94 69.5197 535.629 71.1667 535.38 69.804C534.506 69.3571 534.007 70.5558 533.645 71.3268C532.047 71.355 529.772 73.1287 528.74 74.2327L529.203 76.7621C528.483 76.8325 527.517 77.0451 527.811 77.9391C526.298 78.2746 525.022 79.3952 523.409 79.2262C521.53 79.5694 523.414 83.6459 524.314 80.8719L524.814 80.8014C524.25 83.5076 524.611 87.2869 520.759 86.749C520.652 93.9338 518.675 104.497 514.434 109.42C514.613 110.392 515.253 113.895 513.888 114.143C514.515 117.208 511.69 119.12 512.123 122.108C510.232 132.323 505.989 141.443 504.83 151.591C503.855 151.769 503.608 152.618 503.945 153.361C502.097 155.126 497.837 155.171 495.234 156.357C495.448 157.525 488.325 158.22 487.156 158.433C485.207 158.789 486.182 160.822 484.234 161.178L478.158 162.085L477.233 157.025C479.572 156.599 477.919 150.867 477.705 149.699C476.488 149.843 476.632 152.229 476.522 153.133L476.393 146.922L474.783 148.02C474.654 147.936 475.247 146.44 475.278 146.322C476.943 146.318 477.329 143.936 475.914 143.19C476.463 142.889 476.442 139.474 476.459 138.465C475.893 139.775 474.743 141.192 473.716 142.183C474.258 139.716 475.366 137.031 475.747 134.573C475.637 134.932 476.622 135.762 476.811 135.988C476.665 136.936 477.173 138.212 477.93 138.801C477.717 137.634 476.651 134.007 477.713 133.21C477.083 130.789 477.558 127.333 479.621 126.026C479.407 124.858 478.626 122.788 479.652 121.797C477.418 121.529 479.41 118.161 480.464 117.426C480.461 116.255 480.002 113.107 481.364 112.435C480.875 111.214 480.53 108.988 481.324 107.817C481.329 106.802 479.687 103.184 482.313 104.419C482.567 101.165 483.176 96.9959 483.847 94.0836C483.268 92.7261 483.665 90.417 484.357 89.1657C480.151 80.1201 492.249 66.9173 486.654 58.7836C486.239 62.3708 485.792 67.2157 484.432 70.8517C484.827 71.0117 485.649 71.9966 484.733 71.3998C483.63 71.4395 483.707 72.7061 484.079 73.3285L483.531 75.8426C481.892 70.292 484.538 65.7391 484.175 60.6432C484.637 54.9018 488.256 49.031 486.04 44.4166C486.594 41.3929 488.257 37.123 487.608 34.2773C486.861 35.0509 487.3 33.7842 487.235 33.3398C483.928 34.4067 484.993 36.3546 485.822 38.8264C485.256 38.8955 483.669 39.281 485.186 39.7472C485.031 40.49 484.665 41.813 483.788 42.0141C484.089 42.4303 484.274 42.9835 483.54 42.8632C483.734 43.606 482.632 44.8867 483.737 45.0404C483.413 45.5757 482.448 49.4293 481.49 49.2705C482.616 52.544 480.148 50.637 480.75 54.0309C480.893 55.432 478.83 56.057 478.981 57.5708C480.751 57.508 478.327 59.689 478.045 60.1552C475.12 60.752 476.055 71.8775 472.401 70.0333L473.214 67.874C473.409 67.8382 474.543 67.4309 473.727 67.3784L474.08 64.9015C472.999 64.4955 473.21 63.4505 474.257 63.6631C472.796 61.2451 477.029 57.8692 475.453 54.798C475.683 54.1218 474.78 54.5137 474.444 54.7814C472.995 56.6717 473.704 56.6884 473.526 58.5684C471.338 57.6578 473.717 65.1525 471.262 63.8078C471.015 64.6569 471.671 64.9399 471.458 65.9837C472.323 66.0644 472.568 66.9045 472.364 67.6294C470.397 66.7009 472.333 70.7915 471.053 71.1616C470.913 70.9375 470.688 70.7799 470.475 70.6198C470.427 70.5328 469.798 69.936 469.546 69.6785C469.625 69.425 469.704 69.1816 469.777 68.905C468.37 67.5615 471.203 65.0949 469.898 64.0562C470.041 63.0176 472.201 58.8809 471.275 58.375C468.715 60.93 470.786 64.1651 465.681 65.2268C464.922 69.886 462.898 78.0774 460.713 78.8023C460.771 78.8509 460.791 78.9342 460.827 79.0059C460.469 79.1647 460.106 79.312 459.742 79.4503C459.732 79.2941 459.729 79.134 459.74 78.9803C458.765 79.1583 458.463 78.6102 458.906 77.7239L456.178 78.2221C456.122 76.6481 459.436 68.289 456.245 71.9761C455.997 72.8252 455.238 76.383 454.193 76.1717L453.344 78.1363C452.032 77.2462 444.34 76.173 447.338 79.4324C446.435 79.9997 442.999 81.0281 443.247 82.3908C443.27 83.0299 442.205 83.2565 442.133 84.0019C438.814 83.847 439.903 87.3574 437.493 87.26C437.778 88.8174 433.791 87.935 434.147 89.8816C434.432 91.4377 431.385 92.3957 430.216 92.6095C430.587 94.5921 431.096 96.3914 428.554 96.7334C427.767 99.2756 425.023 101.414 424.007 103.798C421.864 104.188 419.493 108.844 418.573 110.419C418.964 112.56 416.43 110.81 416.857 113.146C416.929 113.535 416.149 113.677 415.954 113.713C416.097 114.492 415.459 115.411 414.716 115.748C414.964 117.111 414.042 116.474 413.546 115.962C413.459 116.582 412.52 116.953 411.935 117.061L412.805 118.512C413.007 117.59 413.641 117.305 413.779 118.334C412.544 120.635 410.391 120.393 411.285 123.414C408.108 123.974 410.162 126.21 408.435 126.548C408.578 127.327 408.152 127.203 407.567 127.31C407.177 127.382 407.249 127.771 407.32 128.159C407.462 128.938 406.646 128.885 406.79 129.663C404.545 131.408 403.445 137.405 401.533 137.257C399.658 143.738 394.84 148.888 392.139 155.259C390.97 155.473 392.461 159.221 390.903 159.506C388.51 160.381 388.741 161.793 387.344 163.171C386.729 163.996 387.292 166.062 386.549 166.534C386.497 167.348 385.859 168.268 385.081 168.411C384.604 169.561 385.022 171.41 384.199 172.392L383.314 174.162C381.366 174.518 382.908 177.454 380.96 177.808C380.91 181.046 378.166 184.681 376.451 187.278L375.76 189.012C374.785 189.19 375.85 190.605 374.097 190.924C374.297 192.233 372.098 195.049 371.408 196.039L371.055 198.517C371.979 198.849 371.747 199.259 371.002 199.332C365.766 201.203 371.554 205.685 361.866 206.628C361.973 207.212 357.315 209.269 357.137 208.296L354.019 208.864C353.93 209.484 353.187 209.821 352.603 209.927C353.298 211.759 348.353 213.35 346.8 213.471C347.396 211.739 348.915 210.872 348.425 209.081L345.537 209.808C345.239 204.986 347.293 207.577 347.128 205.295C347.899 204.038 347.176 202.622 347.816 201.349L348.435 201.437C348.937 202.986 350.81 200.54 351.181 199.931L350.754 197.596C355.468 197.15 347.823 193.657 350.165 193.279C351.021 193.979 352.502 194.098 352.079 192.729C353.496 192.599 351.662 191.078 352.962 190.959L353.579 186.623C354.687 185.663 354.646 184.002 355.312 182.889C355.135 181.916 354.55 182.023 353.77 182.165C352.781 182.24 352.347 179.541 353.432 179.211C354.152 176.051 354.551 172.554 356.543 169.795C356.503 169.652 356.485 169.516 356.481 169.386C356.625 169.262 356.775 169.151 356.949 169.055C357.144 169.059 357.339 169.068 357.525 169.002C357.01 171.159 360.977 169.97 360.386 167.688C362.094 166.708 360.244 164.465 359.282 164.891C359.238 164.602 359.223 164.307 359.15 164.027C359.374 163.968 359.578 163.869 359.639 163.602C357.947 162.442 360.494 159.265 362.144 158.588C362.157 158.631 362.155 158.673 362.169 158.717C362.704 158.736 363.969 158.862 363.851 158.007C365.22 157.9 363.798 156.417 364.931 156.202C364.753 155.228 364.362 153.088 365.495 152.681C365.281 151.513 365.937 149.584 367.3 149.336C367.024 148.222 366.91 144.938 368.04 144.575C368.49 143.088 371.441 137.457 367.91 138.365C368.367 133.983 371.77 130.5 370.877 125.96C372.241 125.712 371.513 122.828 372.841 122.385L373.422 117.855C373.993 117.267 374.374 115.739 373.102 116.103C372.8 115.555 372.658 114.776 373.436 114.634C372.071 112.641 369.811 117.78 370.41 119.006C369.348 119.803 368.516 120.759 367.914 121.875L365.203 121.364C366.461 121.351 365.46 119.384 365.325 118.728C366.57 114.104 369.692 110.203 370.329 105.347C375.284 100.774 368.898 101.988 368.594 106.87C367.46 107.279 368.614 110.286 367.056 110.57C365.887 110.783 366.152 111.136 366.33 112.11C365.438 115.484 363.186 118.302 362.282 121.898C362.373 122.616 363.485 124.486 362.425 124.887C361.462 126.646 361.293 128.862 358.796 128.163C357.697 128.538 356.712 127.856 357.962 126.908C359.521 124.74 358.773 120.772 360.738 118.961C360.444 118.09 360.686 117.41 361.657 117.386C361.421 117.177 364.653 111.059 362.45 111.811L360.997 110.468C361.538 109.797 362.415 108.59 361.897 107.689C364.402 105.081 360.799 105.878 359.345 106.948C361.151 112.298 357.483 111.12 358.093 114.416C356.986 112.627 355.223 112.263 354.352 110.473C355.096 110.136 355.344 109.287 355.006 108.544C356.508 106.859 356.695 104.211 356.631 102.014C358.741 101.603 358.515 95.9061 358.592 94.0145C359.999 92.6492 360.83 90.5694 359.101 89.0953C357.893 90.6462 356.018 92.078 357.033 94.2988C356.499 95.2094 355.113 95.4322 355.866 96.7232C353.5 97.1176 355.999 95.0467 355.562 93.9632C358.688 88.6253 357.185 81.6813 360.791 76.319L358.949 75.046L358.064 76.8159C358.983 70.657 363.286 65.6981 364.021 59.8427C362.462 60.127 363.067 63.4364 361.508 63.7207L360.889 65.8441C358.436 68.1955 358.328 71.6047 356.325 73.9164C358.327 74.6553 356.452 75.1471 355.581 74.2532L355.723 75.0306C354.264 75.3559 355.071 76.5649 356.08 76.9773L354.894 78.1991C353.853 76.9094 348.751 88.5343 348.206 90.0763C346.855 91.024 344.894 98.4636 343.004 99.0681C343.548 100.079 343.516 100.911 342.12 100.838C341.904 105.119 338.801 108.404 339.01 112.464L337.932 114.27C337.347 114.376 337.223 114.802 337.331 115.386C337.165 115.9 336.269 117.588 336.27 118.394C333.754 120.84 333.649 124.518 333.159 127.81C331.83 128.253 331.318 130.96 331.533 132.128C329.57 132.269 330.943 134.409 329.887 135.243C330.348 135.863 331.04 137.056 329.854 137.26C327.488 139.633 326.089 143.405 326.353 146.746C324.988 146.995 324.902 149.825 324.886 150.834C323.521 151.083 323.557 151.277 323.806 152.64C322.507 153.196 322.915 157.329 322.268 158.55C319.91 160.007 320.192 162.887 320.52 165.506L317.902 168.799C317.551 171.292 317.042 174.607 315.941 176.798C315.845 177.383 315.426 178.455 314.897 178.798L315.466 181.912C313.748 182.427 314.227 183.948 314.283 185.345C313.681 186.461 312.956 188 313.205 189.363C312.346 190.077 312.806 190.973 313.242 191.769C308.388 197.307 305.976 168.331 303.92 166.121C301.47 166.415 299.482 147.475 299.968 144.52C300.109 142.512 298.214 141.274 298.035 139.444C297.786 138.081 296.369 139.144 295.626 139.481C295.591 138.721 294.845 137.229 295.942 136.808L295.178 133.73C297.945 134.696 295.381 126.047 293.949 125.91C291.615 125.337 290.874 122.312 288.366 122.907C287.674 122.429 287.496 121.457 287.39 120.873C286.755 121.012 285.821 121.049 285.653 120.184L281.081 119.41C281.011 119.02 280.672 118.277 280.053 118.189C279.84 117.022 279.29 117.323 278.316 117.501C277.594 114.462 273.579 120.881 272.348 121.204C270.623 118.663 269.822 121.938 269.192 117.154C268.152 117.555 268.86 115.679 269.066 115.368L267.612 114.024L267.118 117.935C264.975 118.326 266.235 119.705 265.012 120.734C263.96 120.478 261.468 119.751 261.505 121.373C260.778 122.609 260.216 123.696 260.978 125.089L258.25 127.798C258.745 129.201 257.441 128.847 256.727 128.277C257.456 130.622 255.013 129.352 253.751 129.624C253.917 130.306 253.932 131.111 253.523 131.676L252.264 130.298C254.015 128.891 251.295 127.274 250.385 128.83C250.403 129.704 251.656 132.47 249.785 132.158L250.105 133.91C246.04 135.29 245.923 140.544 245.313 144.035C245.562 145.398 243.455 145.983 243.739 147.539C243.283 149.76 241.113 152.354 240.627 154.743C240.783 156.031 241.147 157.951 239.743 158.725L239.443 160.387C238.413 160.603 239.551 161.89 238.327 161.998C238.684 163.945 238.736 163.13 237.089 164.034L237.976 166.688C234.371 171.822 233.358 179.153 230.539 185.302C230.562 179.013 230.661 173.148 228.061 167.491C227.956 166.907 228.238 166.251 228.859 166.34C227.455 166.278 228.008 165.206 227.493 164.378C227.337 159.817 224.369 154.94 221.869 152.333C221.611 150.198 219.788 148.765 218.179 147.576C216.367 142.075 203.358 137.008 202.1 135.628C200.202 136.192 198.166 135.461 196.607 134.217C194.109 133.543 188.393 133.903 186.931 131.96C181.614 132.884 173.091 130.892 168.505 132.506C164.788 131.264 160.759 134.946 157.486 133.914C156.919 134.942 152.033 134.684 151.782 135.758C150.537 136.461 148.851 135.357 147.92 136.663C146.715 135.897 142.425 139.704 142.022 138.543C132.818 140.047 114.09 150.631 106.068 153.346C106.063 153.142 105.313 151.311 105.677 151.204C103.245 151.977 101.8 154.152 99.8161 155.491C100.789 155.313 102.031 155.49 102.757 156.161C96.1701 160.209 87.7778 163.449 82.7288 168.863C81.0296 170.581 80.8539 171.82 78.1249 172.317C77.1502 172.495 75.787 172.743 75.8408 174.142C68.9272 177.356 67.051 183.301 59.9757 186.488C59.8488 189.189 56.4798 192.604 54.0996 193.994L54.4202 195.746C49.6906 197.413 49.4302 203.694 44.9673 205.715L45.606 207.006C43.767 207.733 42.3704 209.489 42.8103 211.538C42.5102 213.201 41.1649 214.653 41.4496 216.21C39.5029 220.951 36.0198 225.112 33.6113 229.504C36.4276 229.011 40.0376 223.661 40.9764 221.324C42.2883 220.526 43.1296 220.362 42.4974 218.632C48.3927 211.428 68.4091 190.934 76.2615 188.544L76.0306 188.386C78.8174 186.5 84.2524 181.893 87.6662 182.644C84.764 184.924 81.0976 186.567 80.2832 189.62C78.7597 190.099 72.7578 195.819 72.4398 196.28C73.4144 196.102 74.6187 196.084 75.4869 195.322C75.8383 196.336 76.2102 197.317 77.4734 197.374C80.2511 194.326 84.3832 192.96 86.9634 189.811C94.0258 189.382 100.963 177.76 108.837 180.593C109.967 179.142 113.546 177.612 115.23 177.013C112.362 180.447 109.384 181.392 106.623 184.435L105.509 184.415C105.105 186.062 103.058 186.617 102.145 188.046C101.876 189.176 101.036 190.791 99.9148 191.267C97.8783 197.942 90.3722 201.727 88.3946 208.652C92.2137 212.045 84.2831 217.643 85.5707 221.835C84.3229 223.925 81.994 221.523 81.4053 219.981C81.3168 220.601 80.9462 221.875 81.2476 222.423C79.2752 223.41 79.6445 225.123 79.6574 226.936C78.793 227.716 77.8876 229.56 77.7286 230.707C76.0088 230.969 76.3948 233.299 77.3605 234.191C73.5312 241.681 71.0881 252.309 70.1173 260.649L71.1266 260.666C71.7024 265.026 69.7749 268.912 68.9387 272.929L67.5229 273.992C68.1629 277.494 66.0738 279.284 66.0596 282.503C67.0728 286.754 68.7002 290.906 68.2488 295.577L69.9506 296.071C69.7467 294.774 70.3648 293.587 71.3664 292.798C71.2228 292.019 71.3997 290.781 72.1076 290.249C71.8306 291.531 73.0246 292.982 73.2105 294.069L72.9092 295.733C75.6087 296.603 73.0195 298.262 75.1086 298.951C74.8623 299.8 74.7213 301.235 75.9614 301.41C76.105 302.373 76.7616 303.663 77.6645 304.116C77.8735 315.821 104.085 321.923 113.769 322.064L114.124 324.011C116.679 324.108 118.051 322.201 120.075 321.315C123.584 320.676 125.462 322.144 129.766 320.353L131.698 321.006C139.337 318.007 146.456 313.679 153.605 309.771C153.42 310.957 155.262 311.856 156.088 312.333C157.173 310.77 159.292 309.722 160.887 308.845C159.688 309.767 153.718 316.583 151.91 315.912L151.822 316.532C155.705 318.109 157.805 311.793 161.085 311.022C161.115 310.927 162.589 309.294 162.358 309.18C162.792 308.99 163.983 308.317 164.466 308.595C165.068 307.909 166.749 304.496 168.025 304.93C167.915 302.883 169.059 301.144 169.598 299.213C171.322 298.574 171.685 297.979 171.862 296.185C173.067 294.478 176.546 293.473 175.562 291.087L181.492 284.978C182.908 285.209 185.935 282.715 186.982 281.965C186.459 283.917 184.861 285.348 183.141 286.285C182.773 287.652 182.119 289.385 180.557 289.774L180.842 291.33C188.9 285.116 194.686 272.687 201.212 265.091C202.892 259.959 206.454 260.717 208.062 255.196C208.798 253.762 209.998 252.158 210.007 250.418C210.126 250.344 211.596 249.821 211.302 249.469C211.783 250.556 212.686 252.226 210.709 252.098C211.338 254.076 210.094 255.908 210.111 257.637C208.783 258.08 208.695 260.912 208.909 262.08C206.693 266.278 206.775 272.761 204.013 276.045C204.141 278.321 203.091 280.585 202.424 282.77C202.787 284.226 201.875 283.304 201.238 283.991C202.024 285.896 202.75 296.133 200.716 296.554L200.683 298.571C199.708 298.749 200.49 300.817 200.597 301.401C199.8 302.553 199.448 305.03 199.467 306.232C198.492 306.41 198.813 308.162 199.114 308.71C198.441 309.435 199.1 314.142 199.35 315.504C198.022 315.948 198.095 318.549 198.309 319.717C196.996 322.08 197.044 325.385 196.579 327.875C197.114 327.072 198.297 322.471 199.144 323.184C198.879 323.745 198.141 324.898 198.756 325.467C199.632 323.686 198.828 321.574 200.861 320.458C200.654 319.797 200.798 319.035 201.587 318.918C201.153 317.949 204.243 309.608 204.554 308.723C205.216 309.527 207.285 312.217 207.337 309.624C207.886 309.323 208.096 306.067 207.954 305.288C209.507 303.718 208.826 300.313 210.198 298.846C210.85 301.068 209.07 304.421 209.335 306.244C210.505 306.031 212.377 298.65 212.59 297.607C213.758 297.393 213.846 294.561 213.862 293.553C214.696 294.343 215.967 294.324 215.581 293.038C216.762 292.208 216.472 290.777 217.19 289.729C220.235 291.056 218.76 287.06 220.235 286.561C219.345 283.281 222.742 286.262 221.121 287.002C221.529 288.133 220.626 288.701 220.999 289.638C220.49 290.07 220.773 291.165 221.159 291.621C221.744 291.514 222.362 289.39 222.485 288.964C221.98 286.832 224.187 289.447 223.018 289.671L223.25 292.042C221.105 292.481 223.499 293.853 222.083 294.468C223.156 298.729 217.808 304.428 220.426 307.439C222.181 307.118 221.22 301.864 223.364 301.473C223.112 300.45 223.141 299.355 222.989 298.324C223.855 298.243 224.559 297.841 224.335 296.872C226.006 294.1 226.649 290.255 227.872 287.58C227.795 285.208 230.631 283.355 230.471 280.873C231.788 280.751 229.77 279.376 231.391 279.298C231.005 275.394 234.371 273.587 233.917 269.988C235.014 269.622 234.943 270.915 235.017 271.598C235.7 271.794 237.04 273.383 235.533 273.313L234.879 275.243C233.622 276.075 235.183 278.003 234.315 278.765C236.32 283.603 238.433 267.87 239.251 269.418C238.862 266.935 239.687 264.554 239.918 262.058C244.092 263.092 239.33 265.896 241.71 266.356C241.209 270.919 244.003 267.72 243.061 271.539C242.282 271.681 242.353 272.071 242.459 272.655C242.413 273.336 241.02 274.531 241.363 275.468C241.557 278.271 239.548 280.764 240.218 283.52C242.862 282.031 243.652 277.734 242.886 274.989C245.365 273.472 242.934 271.519 246.337 270.74C246.721 269.276 244.733 266.445 246.688 266.051C246.749 264.718 246.386 262.901 248.032 262.389C249.394 262.287 247.96 260.856 249.147 260.777C249.901 256.213 251.958 248.326 253.279 243.735C254.344 242.109 253.493 237.68 255.577 236.479C255.258 235.595 255.826 234.576 256.851 234.637C258.258 223.634 264.628 213.124 267.066 202.409C268.004 202.037 268.855 202.284 268.606 200.922C268.871 199.188 270.261 197.544 269.47 195.737C269.757 195.02 274.24 184.177 274.333 183.789C274.405 184.179 274.547 184.957 273.927 184.869C274.94 186.589 277.355 205.274 279.223 205.018C279.898 206.505 282.282 219.543 282.781 222.267C281.838 218.216 281.39 212.465 278.252 209.62C276.111 213.256 283.674 231.89 284.615 233.395C282.774 233.311 286.623 243.605 286.412 244.328C286.784 246.487 290.774 246.938 288.489 247.972C287.409 249.024 288.655 251.9 290.174 251.686C292.123 251.33 291.576 253.842 291.594 255.046L293.617 259.503C294.982 259.255 294.929 260.068 294.256 260.794C294.736 262.314 295.514 262.172 295.942 264.508L296.527 264.402C296.714 266.55 298.587 270.019 299.12 271.972C304.078 273.821 299.357 270.967 302.926 269.668C303.873 268.508 304.762 268.667 306.045 269.099C306.516 270.827 307.907 271.88 309.608 272.068L310.992 273.024C311.418 273.146 313.667 273.34 312.143 273.819L312.375 276.189C313.589 275.705 315.503 275.703 315.174 273.87C315.939 273.583 317.433 273.691 318.204 273.921C318.558 273.655 318.84 273.001 319.425 272.894C320.954 273.114 317.866 274.66 320.1 274.38C323.19 276.403 326.993 272.06 328.645 269.35L329.401 273.487C330.522 273.159 331.421 271.711 331.702 270.654C333.651 270.299 332.621 269.079 332.337 267.522C332.733 264.703 333.546 261.871 334.421 259.098C335.005 258.992 334.74 258.639 334.668 258.249C334.454 257.081 336.351 257.54 336.172 256.567C336.046 255.886 335.524 255.277 334.754 255.418C334.684 255.028 334.7 254.019 335.356 254.302C336.608 252.672 335.444 246.582 337.654 247.046C336.338 243.88 340.058 241.349 339.703 238.428C339.595 237.844 340.498 237.277 341.083 237.17L341.311 235.119C341.722 234.624 342.276 233.798 342.031 233.126C343.992 234.558 350.397 232.79 352.503 232.474C353.002 233.578 353.101 234.926 352.329 235.924L352.72 238.064C351.853 238.826 351.091 240.171 350.72 241.447C350.201 242.202 348.417 242.511 348.897 243.588C345.847 252.879 342.376 262.074 340.184 271.922C341.106 273.382 345.126 273.328 344.897 271.265L346.083 270.042C348.422 269.616 347.959 267.086 349.464 265.403C349.138 263.695 350.858 265.151 351.802 264.977C352.005 265.779 351.784 266.605 350.917 266.747C350.772 273.158 354.229 271.858 354.761 266.851C358.257 266.108 355.535 263.078 359.665 261.734C359.523 260.955 357.646 261.7 357.574 261.31C357.46 258.908 360.196 258.293 360.386 255.77C360.886 255.409 361.674 255.2 361.857 256.105C363.497 256.988 361.31 259.289 361.897 260.724C360.674 260.856 361.806 262.138 361.012 262.494C361.589 263.472 361.349 264.821 360.802 265.75C358.206 266.455 362.105 271.731 359.762 272.173C360.046 273.73 358.593 274.599 358.914 276.35C358.704 277.544 354.423 285.253 357.769 284.4C358.219 284.637 359.2 282.494 359.397 282.295C360.121 281.849 360.949 281.488 360.476 280.489C360.078 279.5 361.48 278.394 361.502 277.286C361.36 276.507 361.979 276.595 362.564 276.489C363.807 276.082 362.079 274.012 363.696 273.87L363.606 272.277C362.548 272.515 363.692 270.607 363.926 271.817C365.149 270.521 367.26 268.162 366.933 266.241C368.548 266.228 372.105 268.199 372 265.318C373.365 265.069 373.293 264.68 373.08 263.512C375.223 263.121 374.194 261.901 374.653 260.006C372.707 260.316 375.761 256.819 375.837 256.573C377.785 256.217 378.829 254.218 378.669 252.235L380.951 248.2C380.097 245.162 384.132 249.081 383.696 246.694L385.13 244.623C387.252 243.759 385.981 240.111 386.365 238.163C388.508 237.772 386.77 234.871 388.328 234.587C388.079 233.224 389.621 233.949 390.4 233.807C391.765 233.559 391.285 232.036 390.204 231.63C389.991 230.463 392.452 229.612 392.097 227.665C394.853 228.249 394.179 224.304 395.903 223.15C397.645 222.724 401.814 222.779 402.244 220.384L407.116 219.497C407.435 219.037 408.939 217.355 409.188 218.717C409.938 218.973 410.791 218.533 410.605 217.654C411.63 216.893 412.469 214.206 412.782 213.034C413.159 215.963 418.851 216.603 418.682 213.365C419.502 212.938 419.262 211.793 419.069 211.082C421.411 210.489 419.539 213.607 422.385 212.688C424.312 211.816 425.603 210.707 427.981 210.261C428.565 210.155 428.725 209.925 428.617 209.341C431.224 209.438 435.794 205.5 436.874 208.237C436.772 208.993 435.951 210.926 437.017 211.227C437.942 225.009 436.894 242.79 439.8 256.167C437.671 257.686 442.108 270.284 443.604 270.353C443.794 271.356 443.894 273.33 443.305 274.229C443.678 275.166 444.53 275.413 444.707 276.387L446.496 276.261C447.669 280.471 448.77 284.292 450.918 288.324C452.654 287.425 448.595 280.847 449.704 279.496C451.046 279.784 450.973 282.658 452.648 282.378C453.459 282.708 457.576 293.122 457.884 294.495C459.268 295.449 460.405 301.675 460.655 303.038C461.435 302.896 459.731 297.978 459.516 296.81C459.019 294.086 461.005 296.136 460.292 292.244C460.519 289.326 456.137 283.58 459.256 282.178L456.714 271.581C456.714 271.581 456.608 270.997 456.801 270.962C457.944 271.201 458.512 282.975 462.231 280.831C462.243 280.429 461.158 277.625 461.59 277.328C462.74 277.543 466.951 299.626 467.845 300.518C469.259 299.288 468.374 295.812 467.91 294.272C471.721 292.722 470.686 304.642 473.66 305.892C471.906 308.065 476.407 315.35 476.91 315.958L478.239 315.513C477.531 310.761 475.265 304.989 476.277 300.387C476.538 297.248 471.691 284.447 475.361 283.26L474.775 281.155L475.36 281.048C474.136 273.916 473.474 266.966 474.12 259.959L474.314 259.923L474.261 258.526C475.22 258.513 475.507 257.783 475.18 256.951L473.55 256.846C472.901 254.397 472.854 251.424 472.711 248.955L474.04 248.512C474.141 249.149 474.255 250.127 475.103 249.926C474.899 247.069 477.115 246.831 473.789 244.938L473.682 244.354L475.206 243.875L474.035 241.876C475.814 238.282 473.16 234.55 472.078 231.173C472.797 229.746 472.583 224.19 472.886 222.378L474.444 222.094L474.354 220.502C475.28 220.379 476.112 220.27 475.699 219.051L472.901 219.158C472.545 217.212 473.124 210.47 474.877 210.151C474.979 210.788 475.093 211.765 475.941 211.565C475.17 210.055 478.459 206.857 475.512 207.017C473.299 204.188 476.361 205.053 476.361 205.053C475.578 203.828 474.931 201.848 476.393 200.824C474.613 195.554 473.065 191.494 480.445 191.037C482.52 191.105 482.167 188.393 484.056 188.769C486.695 184.268 493.498 185.527 497.622 183.071C496.378 190.451 494.508 197.216 494.006 204.651C494.04 204.845 491.988 209.04 492.202 210.208C491.032 210.421 491.779 212.296 491.921 213.074C490.825 216.779 490.18 220.022 489.717 224.135C490.091 224.897 490.569 226.474 489.399 226.807C488.438 228.673 489.222 231.868 487.969 233.303C488.671 238.711 483.642 246.419 485.007 252.343C483.839 252.557 484.548 254.237 484.691 255.016C484.303 256.723 483.424 259.736 483.651 261.438C484.411 261.668 485.11 261.331 484.873 260.411C485.406 259.494 485.933 257.685 485.791 256.623C486.249 253.027 489.868 249.544 490.249 245.756C490.958 245.212 490.836 244.021 490.6 243.278C491.114 242.782 491.131 241.774 490.989 240.996C493.47 239.477 491.718 234.695 495.076 233.614L494.969 233.031C496.811 233.912 494.142 238.2 497.152 237.257L496.725 234.923C502.755 233.222 499.085 226.503 503.785 223.982C502.454 221.259 505.11 220.008 504.825 217.559C506.579 217.239 504.344 213.826 506.292 213.471C506.797 214.369 508.339 215.921 506.933 216.974C508.032 219.257 504.906 223.241 507.577 224.9C507.436 226.333 506.799 227.254 506.233 228.563C506.493 229.914 506.41 230.915 505.207 231.766C505.432 232.625 505.77 234.319 504.998 235.023L505.777 234.88L505.389 237.163C507.162 238.046 504.593 238.314 504.008 238.42C501.822 239.314 504.348 243.888 502.862 244.26C503.077 245.362 504.121 244.76 504.722 244.523C505.519 243.348 504.997 240.918 506.917 241.107C506.404 237.374 508.695 233.417 508.431 229.571C510.306 226.89 509.857 230.379 509.637 231.763L511.621 231.602C511.308 230.879 510.837 229.701 512.081 229.709C512.302 229.19 512.852 228.299 513.39 228.062C513.387 225.938 515.501 226.273 516.666 225.052C517.991 224.909 516.706 223.755 517.515 223.088C517.492 222.839 517.932 220.528 518.275 221.742C518.991 223.884 516.073 226.955 518.564 227.722C519.018 231.425 521.816 226.785 521.29 225.013C524.212 225.002 520.516 222.627 523.555 221.985C525.315 219.946 526.004 216.715 526.987 214.321C527.874 216.974 527.273 218.09 527.593 219.841C528.713 219.946 530.335 218.719 531.083 217.999C530.379 217.762 529.58 216.743 530.834 216.637L531.61 212.071C535.141 208.371 533.632 203.522 535.802 199.11C536.118 199.036 536.414 198.927 536.694 198.793C536.762 198.914 536.948 199.042 537.305 199.169C536.969 200.677 537.072 201.59 538.335 202.601C538.937 201.486 538.971 199.469 538.721 198.107C541.571 200.004 539.67 196.832 539.074 195.629C540.225 193.592 540.931 190.732 539.751 189.588C539.909 189.245 540.033 188.884 540.136 188.509C540.646 188.92 541.216 185.872 541.033 185.42C541.941 185.253 542.535 183.612 542.933 181.804C542.981 181.944 546.857 181.284 546.927 181.328C546.908 180.125 551.657 179.662 551.726 177.839C552.892 178.045 554.497 177.185 555.286 176.385C556.651 176.137 562.195 174.522 562.672 173.832L564.603 174.485C566.527 170.652 567.608 182.263 564.448 179.138C564.229 179.653 564.519 180.098 563.881 180.448C564.156 181.535 563.87 183.536 563.425 184.554C564.135 184.259 564.383 185.291 564.453 185.774C563.089 186.023 563.429 188.977 563.607 189.951C562.784 192.501 561.454 195.202 561.027 197.862C556.228 209.712 555.188 223.504 552.765 236.37C551.775 237.556 551.902 241.555 550.839 242.352C550.395 243.542 549.58 247.316 550.702 248.209C553.211 244.911 556.252 236.367 558.609 233.092C559.389 232.95 558.36 231.73 560.149 231.604L561.191 227.392C563.919 226.894 564.267 219.993 565.827 219.709C565.542 218.152 571.472 212.043 568.903 212.311C569.028 210.866 569.333 208.958 570.833 210.752C570.21 207.948 573.672 207.64 572.991 204.929L574.122 202.308L574.849 202.981C573.838 202.964 574.052 204.132 574.354 204.68C572.878 204.857 575.003 206.833 573.382 207.069C573.551 209.179 572.531 212.756 571.314 214.484C571.703 215.425 572.335 217.25 570.875 217.581C571.23 219.526 569.708 220.005 570.099 222.146C569.02 224.274 567.42 225.543 569.147 227.95C570.901 227.63 568.667 226.429 570.81 226.038C572.585 225.352 571.113 222.733 572.402 221.525C574.013 221.544 573.934 220.64 574.224 219.381C573.94 217.825 575.391 216.957 575.302 215.365C576.666 215.117 575.017 213.809 576.611 213.719C576.281 212.468 577.564 212.852 578.01 213.665C578.142 211.874 578.387 209.834 580.558 209.982C581.923 209.734 581.193 206.85 582.788 206.76C582.597 204.256 585.039 201.108 585.02 198.412C585.405 198.106 585.506 197.58 585.437 197.094C585.546 197.005 585.66 196.919 585.751 196.81L586.024 196.918C586.043 196.753 586.082 196.604 586.132 196.467C586.67 196.136 587.294 195.877 587.677 195.354C589.301 195.125 591.539 196.215 591.642 197.904C590.707 199.223 590.722 200.23 591.858 201.282C590.996 202.078 590.955 205.489 589.487 205.938C589.66 208.283 591.309 206.079 591.718 204.927C592.568 201.676 595.447 198.981 597.576 196.217C597.48 195.431 605.132 180.47 600.791 185.174C601.286 183.475 601.869 181.156 602.984 179.545L603.835 179.792C605.014 177.975 605.816 171.213 607.618 169.652L608.699 170.058C608.272 167.723 610.185 167.172 611.991 166.039C614.524 165.576 613.747 167.932 617.431 166.053C619.241 166.397 620.754 165.798 619.151 167.75C619.698 168.525 621.934 165.346 621.596 167.907C621.718 168.35 624.141 168.519 624.573 168.772C625.105 169.479 630.104 172.588 631.274 172.376C632.201 168.501 635.043 176.666 636.805 176.193C641.483 180.421 642.196 180.899 647.831 183.633C648.538 185.983 649.628 181.446 650.773 184.303L650.331 185.188C648.969 185.391 647.952 186.348 649.801 186.693C649.647 187.56 650.677 188.133 651.326 188.425C651.717 190.567 652.956 188.53 653.311 190.477C653.453 191.329 655.118 191.902 655.686 192.457C655.793 193.041 656.13 193.784 656.751 193.872C657.419 196.014 661.421 197.463 661.698 200.008C663.385 199.87 667.618 204.831 667.122 201.03C667.015 200.446 666.749 200.093 666.164 200.199C665.031 199.509 665.381 197.458 664 197.175C664.536 196.933 664.866 196.097 665.151 195.759C666.32 195.546 670.451 199.418 670.682 199.576C672.276 199.487 677.665 202.526 677.86 202.49C678.566 203.712 680.283 205.788 680.376 203.037C678.101 200.943 675.928 197.53 673.601 194.62C672.36 194.738 674.365 193.783 674.627 193.629C675.254 192.543 678.269 192.904 678.348 194.157C678.669 195.909 680.278 192.598 680.884 195.906C681.096 197.074 682.744 196.17 682.957 197.338L684.854 197.796C684.621 196.961 684.753 196.157 685.739 196.026C685.794 197.415 687.386 195.983 687.388 197.335C690.283 197.657 692.356 200.187 694.851 201.805C696.028 201.405 697.307 203.301 698.236 203.803C698.694 205.204 699.496 206.51 701.019 206.915C701.126 207.499 701.463 208.242 702.084 208.33C702.532 209.191 703.824 210.309 704.725 210.662C704.788 211.545 705.755 212.244 706.481 212.554C706.659 213.527 707.225 212.217 707.384 211.986C709.137 211.666 709.724 213.772 711.283 213.487C711.424 215.396 713.706 214.63 713.836 216.439C715.719 217.075 715.516 218.254 716.62 219.552C717.826 219.532 719.969 219.142 719.509 221.036C720.602 222.524 722.467 226.877 724.313 224.181L723.924 224.252L723.912 224.239ZM190.179 192.693C189.459 200.152 184.016 207.673 182.382 215.027L181.797 215.133L182.118 216.885C179.663 219.86 178.645 224.087 176.544 227.151C176.71 229.113 174.763 231.986 174.14 233.824C171.847 234.298 172.67 237.601 171.256 238.975C171.256 239.172 171.699 240.658 171.381 240.763C167.988 240.236 166.663 245.024 164.6 246.624C164.54 246.761 163.828 247.573 163.998 247.74C162.13 248.744 160.933 251.866 160.246 253.653C158.257 257.088 154.185 259.036 152.022 262.108C151.927 261.957 151.81 261.806 151.642 261.657L150.367 263.499C149.253 263.718 147.673 265.067 146.986 265.927C147.295 268.008 145.822 267.875 144.721 268.953C144.95 269.112 146.671 270.81 146.652 269.607L147.538 270.048L144.474 272.014L144.031 270.689C143.124 270.679 141.618 270.814 141.215 271.806C141.607 273.602 139.001 272.274 138.256 272.144C137.275 274.01 138.483 276.091 137.924 278.035C134.31 277.742 135.467 280.441 131.354 280.641C125.925 283.486 122.079 284.067 116.224 281.59C115.241 282.097 113.991 283.331 113.07 281.965C109.727 281.618 109.146 279.211 108.424 276.379C109.313 277.848 110.646 279.314 112.448 279.667L112.092 277.72C111.956 277.975 110.273 276.102 110.177 276.059L110.069 273.263L109.448 273.175C109.448 271.63 109.579 268.568 108.026 267.602C109.138 264.093 109.813 259.866 109.542 256.064C111.538 255.965 111.426 255.382 111.72 253.655C109.07 249.035 114.127 238.907 115.496 234.668L114.682 234.615C126.854 211.593 142.033 190.357 161.569 174.987C161.473 173.682 160.391 175.211 160.045 175.465C159.121 175.244 157.28 174.668 156.359 175.132C157.326 174.097 158.462 172.884 158.712 171.486C162.654 170.022 164.372 165.663 168.541 164.666L167.122 163.517C167.505 162.17 169.817 163.58 170.579 163.691C171.552 163.513 172.686 163.106 173.536 163.352C175.358 161.91 175.206 164.681 178.089 162.924C178.618 164.987 180.398 164.625 181.881 163.841C183.176 164.198 187.821 166.84 189.005 165.357C196.37 167.28 191.312 187.122 190.181 192.694L190.179 192.693ZM438.559 160.256C437.337 161.283 436.434 161.851 436.754 163.602C438.314 163.317 438.509 163.281 438.793 164.839C437.04 165.159 437.36 166.91 437.61 168.272C439.614 168.276 437.891 170.871 437.204 171.564L436.517 175.509C435.542 175.688 420.735 180.6 420.717 181.609L418.627 181.186C419.915 180.982 419.557 179.115 420.805 178.778C420.976 177.182 422.486 175.518 422.165 174.106L424.998 171.981C424.502 171.469 424.165 170.725 424.022 169.946C421.759 171.778 420.984 175.139 418.623 176.763C418.517 176.179 417.984 175.472 417.364 175.384C418.222 175.305 419.105 174.852 418.904 173.897C420.658 173.577 421.046 171.293 422.41 171.045C422.004 170.808 421.073 169.681 421.931 169.523C423.685 169.203 422.036 167.896 423.595 167.611C423.966 164.705 425.984 162.353 427.221 159.911C428.39 159.698 426.936 158.354 428.69 158.034L429.507 160.297C428.247 160.409 429.039 161.474 429.88 161.235C431.439 160.95 428.585 159.661 432.677 158.914C435.233 157.541 431.328 156.987 437.174 152.666C436.922 149.564 439.004 155.213 439.408 156.079C437.46 156.435 440.509 159.899 438.56 160.255L438.559 160.256ZM580.392 126.544C578.443 126.9 581.456 127.958 577.948 128.599C577.559 128.67 577.701 129.448 577.737 129.642C575.986 129.691 578.441 133.093 576.891 133.819C577.156 134.172 577.618 134.491 577.724 135.075C577.937 136.243 576.022 134.581 576.256 136.951C576.381 138.738 575.853 142.453 573.797 142.225C574.208 145.713 571.901 149.384 568.683 150.599C568.312 151.873 568.242 151.483 566.841 151.537C565.002 152.578 564.678 155.898 562.646 156.125C561.281 156.373 562.01 159.256 560.256 159.576C558.264 160.756 554.462 161.852 553.544 163.614C554.207 166.831 558.204 161.715 559.958 163.45C559.799 163.681 558.49 165.328 559.658 165.114L560.333 166.6L557.764 166.867C557.978 168.035 557.163 167.983 557.341 168.956L554.418 169.489C553.574 171.815 547.819 174.869 544.764 176.246C544.706 176.012 544.637 175.778 544.549 175.549C544.749 175.648 544.714 173.67 544.714 173.67C546.079 173.422 546.043 173.227 545.794 171.866C548.519 167.752 544.109 167.214 546.037 166.593L546.09 165.779C546.09 165.779 543.237 164.489 544.795 164.205C543.591 162.971 544.529 161.643 544.473 160.241C546.653 162.918 546.271 157.774 545.144 157.303C545.124 157.307 545.106 157.325 545.087 157.33C545.748 155.778 546.843 154.383 547.424 152.812C549.362 152.372 548.16 154.879 549.642 155.477C551.361 151.455 552.976 146.349 553.6 141.885C554.118 141.604 553.872 140.77 553.41 140.061C554.146 138.546 554.833 137.031 554.797 135.447C554.812 135.443 554.818 135.429 554.835 135.426C555.95 132.908 555.925 129.102 557.733 127.054C557.764 125.875 558.578 124.098 559.467 123.32C557.967 118.641 562.222 114.478 561.441 109.889C562.251 109.807 563.012 109.549 562.786 108.438C562.959 108.21 563.901 106.787 562.927 107.005C560.682 105.81 561.74 103.642 561.541 101.627C562.905 101.379 562.637 98.8133 562.459 97.8399C564.135 94.3398 564.464 89.947 565.832 86.361C566.077 86.4801 566.169 85.581 566.24 85.4875L565.819 85.508C565.483 84.3234 566.589 82.8583 566.46 81.7325C571.459 81.087 576.599 80.8962 581.438 80.503C578.795 82.0117 573.928 81.4879 572.334 83.5716C575.145 83.7099 587.209 79.9523 588.652 83.6113C587.707 84.4963 584.872 84.9676 585.376 86.6222L581.32 87.5636C582.011 88.0413 587.294 90.4964 586.831 87.9657C587.256 88.0899 589.347 88.5126 589.419 88.9019C589.054 90.0712 584.829 89.021 584.459 90.4093C585.837 91.2033 587.719 91.3647 588.817 90.0161C589.424 90.2658 589.857 90.6846 588.96 90.7948C588.943 91.8027 588.199 92.1395 588.253 93.538C586.841 97.4993 586.424 102.11 583.888 105.998C583.905 107.201 584.262 109.147 582.702 109.432C582.614 110.051 582.899 111.607 583.873 111.429C580.275 114.836 579.85 121.667 580.395 126.543L580.392 126.544ZM641.36 107.581L639.996 107.829L640.085 109.421L637.233 110.343C637.007 110.553 636.102 111.989 635.693 111.832C635.303 111.903 634.718 112.01 634.4 112.469C632.483 112.695 634.189 112.951 633.676 114.009L631.23 113.853C631.396 114.76 631.024 115.297 630.114 115.462C629.342 116.385 616.174 126.685 618.231 122.054C618.15 120.106 620.254 121.933 619.77 118.356C621.126 118.236 620.133 117.025 619.291 116.834C619.764 114.274 621.857 115.023 621.785 111.753C622.892 112.325 622.415 110.594 622.28 110.055C623.856 108.762 621.001 107.472 624.12 106.903V105.249C625.085 104.018 625.176 101.96 624.259 100.616C624.214 99.5228 624.481 98.6519 625.798 99.5599C626.139 98.8837 626.175 97.6299 625.919 96.9242C627.549 95.1107 627.962 92.7171 628.129 90.2876C630.611 90.3517 628.534 87.9145 630.005 87.3317C632.696 81.0499 647.97 86.2829 654.223 84.3221C654.281 87.205 658.243 84.5001 658.796 87.31L661.206 87.2716C661.037 85.4363 662.617 88.3704 662.891 88.7751L660.839 92.9707C660.277 93.0706 658.746 92.8247 658.767 93.7506C657.987 93.8928 658.288 94.4409 658.36 94.8303C658.645 96.3863 655.988 97.2739 654.624 97.5223C653.65 97.7003 654.909 99.0796 653.474 98.9388C652.688 99.8724 650.372 99.4818 650.641 101.065C649.547 101.247 648.684 103.078 647.684 103.615C645.606 104.151 642.372 106.103 641.363 107.584L641.36 107.581Z" stroke="#E6007E" stroke-width="3.40551" stroke-miterlimit="10"/>
</g>
<defs>
<filter id="filter0_d_173_1835" x="0.414062" y="0.832031" width="757.607" height="364.93" filterUnits="userSpaceOnUse" color-interpolation-filters="sRGB">
<feFlood flood-opacity="0" result="BackgroundImageFix"/>
<feColorMatrix in="SourceAlpha" type="matrix" values="0 0 0 0 0 0 0 0 0 0 0 0 0 0 0 0 0 0 127 0" result="hardAlpha"/>
<feOffset/>
<feGaussianBlur stdDeviation="15"/>
<feComposite in2="hardAlpha" operator="out"/>
<feColorMatrix type="matrix" values="0 0 0 0 0.941176 0 0 0 0 0.384314 0 0 0 0 0.815686 0 0 0 0.3 0"/>
<feBlend mode="normal" in2="BackgroundImageFix" result="effect1_dropShadow_173_1835"/>
<feBlend mode="normal" in="SourceGraphic" in2="effect1_dropShadow_173_1835" result="shape"/>
</filter>
</defs>
</svg>
