<svg width="774" height="160" viewBox="0 0 774 160" fill="none" xmlns="http://www.w3.org/2000/svg">
<path d="M60.4 159.6C48.8 159.6 38.4667 157.267 29.4 152.6C20.3333 147.8 13.2 141.2 8 132.8C2.93333 124.4 0.4 114.867 0.4 104.2C0.4 93.4 2.93333 83.8667 8 75.6C13.2 67.2 20.3333 60.6667 29.4 56C38.4667 51.2 48.8 48.8 60.4 48.8C71.7333 48.8 81.6 51.2 90 56C98.4 60.6667 104.6 67.4 108.6 76.2L84.4 89.2C81.6 84.1333 78.0667 80.4 73.8 78C69.6667 75.6 65.1333 74.4 60.2 74.4C54.8667 74.4 50.0667 75.6 45.8 78C41.5333 80.4 38.1333 83.8 35.6 88.2C33.2 92.6 32 97.9333 32 104.2C32 110.467 33.2 115.8 35.6 120.2C38.1333 124.6 41.5333 128 45.8 130.4C50.0667 132.8 54.8667 134 60.2 134C65.1333 134 69.6667 132.867 73.8 130.6C78.0667 128.2 81.6 124.4 84.4 119.2L108.6 132.4C104.6 141.067 98.4 147.8 90 152.6C81.6 157.267 71.7333 159.6 60.4 159.6ZM120.564 158V50.4H150.364V80.8L146.164 72C149.364 64.4 154.497 58.6667 161.564 54.8C168.631 50.8 177.231 48.8 187.364 48.8V77.6C186.031 77.4667 184.831 77.4 183.764 77.4C182.697 77.2667 181.564 77.2 180.364 77.2C171.831 77.2 164.897 79.6667 159.564 84.6C154.364 89.4 151.764 96.9333 151.764 107.2V158H120.564ZM252.339 159.6C240.072 159.6 229.272 157.2 219.939 152.4C210.739 147.6 203.606 141.067 198.539 132.8C193.472 124.4 190.939 114.867 190.939 104.2C190.939 93.4 193.406 83.8667 198.339 75.6C203.406 67.2 210.272 60.6667 218.939 56C227.606 51.2 237.406 48.8 248.339 48.8C258.872 48.8 268.339 51.0667 276.739 55.6C285.272 60 292.006 66.4 296.939 74.8C301.872 83.0667 304.339 93 304.339 104.6C304.339 105.8 304.272 107.2 304.139 108.8C304.006 110.267 303.872 111.667 303.739 113H216.339V94.8H287.339L275.339 100.2C275.339 94.6 274.206 89.7333 271.939 85.6C269.672 81.4667 266.539 78.2667 262.539 76C258.539 73.6 253.872 72.4 248.539 72.4C243.206 72.4 238.472 73.6 234.339 76C230.339 78.2667 227.206 81.5333 224.939 85.8C222.672 89.9333 221.539 94.8667 221.539 100.6V105.4C221.539 111.267 222.806 116.467 225.339 121C228.006 125.4 231.672 128.8 236.339 131.2C241.139 133.467 246.739 134.6 253.139 134.6C258.872 134.6 263.872 133.733 268.139 132C272.539 130.267 276.539 127.667 280.139 124.2L296.739 142.2C291.806 147.8 285.606 152.133 278.139 155.2C270.672 158.133 262.072 159.6 252.339 159.6ZM382.181 158V137L380.181 132.4V94.8C380.181 88.1333 378.115 82.9333 373.981 79.2C369.981 75.4667 363.781 73.6 355.381 73.6C349.648 73.6 343.981 74.5333 338.381 76.4C332.915 78.1333 328.248 80.5333 324.381 83.6L313.181 61.8C319.048 57.6667 326.115 54.4667 334.381 52.2C342.648 49.9333 351.048 48.8 359.581 48.8C375.981 48.8 388.715 52.6667 397.781 60.4C406.848 68.1333 411.381 80.2 411.381 96.6V158H382.181ZM349.381 159.6C340.981 159.6 333.781 158.2 327.781 155.4C321.781 152.467 317.181 148.533 313.981 143.6C310.781 138.667 309.181 133.133 309.181 127C309.181 120.6 310.715 115 313.781 110.2C316.981 105.4 321.981 101.667 328.781 99C335.581 96.2 344.448 94.8 355.381 94.8H383.981V113H358.781C351.448 113 346.381 114.2 343.581 116.6C340.915 119 339.581 122 339.581 125.6C339.581 129.6 341.115 132.8 344.181 135.2C347.381 137.467 351.715 138.6 357.181 138.6C362.381 138.6 367.048 137.4 371.181 135C375.315 132.467 378.315 128.8 380.181 124L384.981 138.4C382.715 145.333 378.581 150.6 372.581 154.2C366.581 157.8 358.848 159.6 349.381 159.6ZM477.619 159.6C464.952 159.6 455.085 156.4 448.019 150C440.952 143.467 437.419 133.8 437.419 121V26.6H468.619V120.6C468.619 125.133 469.819 128.667 472.219 131.2C474.619 133.6 477.885 134.8 482.019 134.8C486.952 134.8 491.152 133.467 494.619 130.8L503.019 152.8C499.819 155.067 495.952 156.8 491.419 158C487.019 159.067 482.419 159.6 477.619 159.6ZM420.819 76.8V52.8H495.419V76.8H420.819ZM514.533 158V50.4H545.733V158H514.533ZM530.133 35.4C524.399 35.4 519.733 33.7333 516.133 30.4C512.533 27.0667 510.733 22.9333 510.733 18C510.733 13.0667 512.533 8.93333 516.133 5.6C519.733 2.26666 524.399 0.599988 530.133 0.599988C535.866 0.599988 540.533 2.19999 544.133 5.4C547.733 8.46666 549.533 12.4667 549.533 17.4C549.533 22.6 547.733 26.9333 544.133 30.4C540.666 33.7333 535.999 35.4 530.133 35.4ZM597.889 158L552.689 50.4H584.889L622.489 143H606.489L645.489 50.4H675.489L630.089 158H597.889ZM744.705 158V137L742.705 132.4V94.8C742.705 88.1333 740.638 82.9333 736.505 79.2C732.505 75.4667 726.305 73.6 717.905 73.6C712.171 73.6 706.505 74.5333 700.905 76.4C695.438 78.1333 690.771 80.5333 686.905 83.6L675.705 61.8C681.571 57.6667 688.638 54.4667 696.905 52.2C705.171 49.9333 713.571 48.8 722.105 48.8C738.505 48.8 751.238 52.6667 760.305 60.4C769.371 68.1333 773.905 80.2 773.905 96.6V158H744.705ZM711.905 159.6C703.505 159.6 696.305 158.2 690.305 155.4C684.305 152.467 679.705 148.533 676.505 143.6C673.305 138.667 671.705 133.133 671.705 127C671.705 120.6 673.238 115 676.305 110.2C679.505 105.4 684.505 101.667 691.305 99C698.105 96.2 706.971 94.8 717.905 94.8H746.505V113H721.305C713.971 113 708.905 114.2 706.105 116.6C703.438 119 702.105 122 702.105 125.6C702.105 129.6 703.638 132.8 706.705 135.2C709.905 137.467 714.238 138.6 719.705 138.6C724.905 138.6 729.571 137.4 733.705 135C737.838 132.467 740.838 128.8 742.705 124L747.505 138.4C745.238 145.333 741.105 150.6 735.105 154.2C729.105 157.8 721.371 159.6 711.905 159.6Z" fill="url(#paint0_linear_379_2416)"/>
<defs>
<linearGradient id="paint0_linear_379_2416" x1="-6" y1="86" x2="943.5" y2="86" gradientUnits="userSpaceOnUse">
<stop stop-color="#E6007E"/>
<stop offset="1" stop-color="#F9B000"/>
</linearGradient>
</defs>
</svg>
