<svg width="1102" height="160" viewBox="0 0 1102 160" fill="none" xmlns="http://www.w3.org/2000/svg">
<path d="M54.6 159.6C44.4667 159.6 35.3333 157.333 27.2 152.8C19.0667 148.133 12.6 141.667 7.8 133.4C3.13333 125.133 0.8 115.4 0.8 104.2C0.8 92.8667 3.13333 83.0667 7.8 74.8C12.6 66.5333 19.0667 60.1333 27.2 55.6C35.3333 51.0667 44.4667 48.8 54.6 48.8C63.6667 48.8 71.6 50.8 78.4 54.8C85.2 58.8 90.4667 64.8667 94.2 73C97.9333 81.1333 99.8 91.5333 99.8 104.2C99.8 116.733 98 127.133 94.4 135.4C90.8 143.533 85.6 149.6 78.8 153.6C72.1333 157.6 64.0667 159.6 54.6 159.6ZM60 134C65.0667 134 69.6667 132.8 73.8 130.4C77.9333 128 81.2 124.6 83.6 120.2C86.1333 115.667 87.4 110.333 87.4 104.2C87.4 97.9333 86.1333 92.6 83.6 88.2C81.2 83.8 77.9333 80.4 73.8 78C69.6667 75.6 65.0667 74.4 60 74.4C54.8 74.4 50.1333 75.6 46 78C41.8667 80.4 38.5333 83.8 36 88.2C33.6 92.6 32.4 97.9333 32.4 104.2C32.4 110.333 33.6 115.667 36 120.2C38.5333 124.6 41.8667 128 46 130.4C50.1333 132.8 54.8 134 60 134ZM88.2 158V136L88.8 104L86.8 72.2V9.59999H118V158H88.2ZM194.277 159.6C182.01 159.6 171.21 157.2 161.877 152.4C152.677 147.6 145.543 141.067 140.477 132.8C135.41 124.4 132.877 114.867 132.877 104.2C132.877 93.4 135.343 83.8667 140.277 75.6C145.343 67.2 152.21 60.6667 160.877 56C169.543 51.2 179.343 48.8 190.277 48.8C200.81 48.8 210.277 51.0667 218.677 55.6C227.21 60 233.943 66.4 238.877 74.8C243.81 83.0667 246.277 93 246.277 104.6C246.277 105.8 246.21 107.2 246.077 108.8C245.943 110.267 245.81 111.667 245.677 113H158.277V94.8H229.277L217.277 100.2C217.277 94.6 216.143 89.7333 213.877 85.6C211.61 81.4667 208.477 78.2667 204.477 76C200.477 73.6 195.81 72.4 190.477 72.4C185.143 72.4 180.41 73.6 176.277 76C172.277 78.2667 169.143 81.5333 166.877 85.8C164.61 89.9333 163.477 94.8667 163.477 100.6V105.4C163.477 111.267 164.743 116.467 167.277 121C169.943 125.4 173.61 128.8 178.277 131.2C183.077 133.467 188.677 134.6 195.077 134.6C200.81 134.6 205.81 133.733 210.077 132C214.477 130.267 218.477 127.667 222.077 124.2L238.677 142.2C233.743 147.8 227.543 152.133 220.077 155.2C212.61 158.133 204.01 159.6 194.277 159.6ZM264.848 158V48C264.848 35.8667 268.448 26.2 275.648 19C282.848 11.6667 293.115 7.99999 306.448 7.99999C310.982 7.99999 315.315 8.46666 319.448 9.39999C323.715 10.3333 327.315 11.8 330.248 13.8L322.048 36.4C320.315 35.2 318.382 34.2667 316.248 33.6C314.115 32.9333 311.848 32.6 309.448 32.6C304.915 32.6 301.382 33.9333 298.848 36.6C296.448 39.1333 295.248 43 295.248 48.2V58.2L296.048 71.6V158H264.848ZM248.248 76.8V52.8H322.848V76.8H248.248ZM340.448 158V50.4H371.648V158H340.448ZM356.048 35.4C350.315 35.4 345.648 33.7333 342.048 30.4C338.448 27.0667 336.648 22.9333 336.648 18C336.648 13.0667 338.448 8.93333 342.048 5.6C345.648 2.26666 350.315 0.599988 356.048 0.599988C361.782 0.599988 366.448 2.19999 370.048 5.4C373.648 8.46666 375.448 12.4667 375.448 17.4C375.448 22.6 373.648 26.9333 370.048 30.4C366.582 33.7333 361.915 35.4 356.048 35.4ZM459.902 48.8C468.435 48.8 476.035 50.5333 482.702 54C489.502 57.3333 494.835 62.5333 498.702 69.6C502.568 76.5333 504.502 85.4667 504.502 96.4V158H473.302V101.2C473.302 92.5333 471.368 86.1333 467.502 82C463.768 77.8667 458.435 75.8 451.502 75.8C446.568 75.8 442.102 76.8667 438.102 79C434.235 81 431.168 84.1333 428.902 88.4C426.768 92.6667 425.702 98.1333 425.702 104.8V158H394.502V50.4H424.302V80.2L418.702 71.2C422.568 64 428.102 58.4667 435.302 54.6C442.502 50.7333 450.702 48.8 459.902 48.8ZM526.783 158V50.4H557.983V158H526.783ZM542.383 35.4C536.649 35.4 531.983 33.7333 528.383 30.4C524.783 27.0667 522.983 22.9333 522.983 18C522.983 13.0667 524.783 8.93333 528.383 5.6C531.983 2.26666 536.649 0.599988 542.383 0.599988C548.116 0.599988 552.783 2.19999 556.383 5.4C559.983 8.46666 561.783 12.4667 561.783 17.4C561.783 22.6 559.983 26.9333 556.383 30.4C552.916 33.7333 548.249 35.4 542.383 35.4ZM573.539 158V139.2L637.139 64L642.539 74.4H574.939V50.4H667.739V69.2L604.139 144.4L598.539 134H669.539V158H573.539ZM683.533 158V50.4H714.733V158H683.533ZM699.133 35.4C693.399 35.4 688.733 33.7333 685.133 30.4C681.533 27.0667 679.733 22.9333 679.733 18C679.733 13.0667 681.533 8.93333 685.133 5.6C688.733 2.26666 693.399 0.599988 699.133 0.599988C704.866 0.599988 709.533 2.19999 713.133 5.4C716.733 8.46666 718.533 12.4667 718.533 17.4C718.533 22.6 716.733 26.9333 713.133 30.4C709.666 33.7333 704.999 35.4 699.133 35.4ZM788.889 159.6C777.422 159.6 767.222 157.2 758.289 152.4C749.489 147.6 742.489 141.067 737.289 132.8C732.222 124.4 729.689 114.867 729.689 104.2C729.689 93.4 732.222 83.8667 737.289 75.6C742.489 67.2 749.489 60.6667 758.289 56C767.222 51.2 777.422 48.8 788.889 48.8C800.222 48.8 810.356 51.2 819.289 56C828.222 60.6667 835.222 67.1333 840.289 75.4C845.356 83.6667 847.889 93.2667 847.889 104.2C847.889 114.867 845.356 124.4 840.289 132.8C835.222 141.067 828.222 147.6 819.289 152.4C810.356 157.2 800.222 159.6 788.889 159.6ZM788.889 134C794.089 134 798.756 132.8 802.889 130.4C807.022 128 810.289 124.6 812.689 120.2C815.089 115.667 816.289 110.333 816.289 104.2C816.289 97.9333 815.089 92.6 812.689 88.2C810.289 83.8 807.022 80.4 802.889 78C798.756 75.6 794.089 74.4 788.889 74.4C783.689 74.4 779.022 75.6 774.889 78C770.756 80.4 767.422 83.8 764.889 88.2C762.489 92.6 761.289 97.9333 761.289 104.2C761.289 110.333 762.489 115.667 764.889 120.2C767.422 124.6 770.756 128 774.889 130.4C779.022 132.8 783.689 134 788.889 134ZM928.144 48.8C936.677 48.8 944.277 50.5333 950.944 54C957.744 57.3333 963.077 62.5333 966.944 69.6C970.81 76.5333 972.744 85.4667 972.744 96.4V158H941.544V101.2C941.544 92.5333 939.61 86.1333 935.744 82C932.01 77.8667 926.677 75.8 919.744 75.8C914.81 75.8 910.344 76.8667 906.344 79C902.477 81 899.41 84.1333 897.144 88.4C895.01 92.6667 893.944 98.1333 893.944 104.8V158H862.744V50.4H892.544V80.2L886.944 71.2C890.81 64 896.344 58.4667 903.544 54.6C910.744 50.7333 918.944 48.8 928.144 48.8ZM1049.21 159.6C1036.94 159.6 1026.14 157.2 1016.81 152.4C1007.61 147.6 1000.47 141.067 995.406 132.8C990.34 124.4 987.806 114.867 987.806 104.2C987.806 93.4 990.273 83.8667 995.206 75.6C1000.27 67.2 1007.14 60.6667 1015.81 56C1024.47 51.2 1034.27 48.8 1045.21 48.8C1055.74 48.8 1065.21 51.0667 1073.61 55.6C1082.14 60 1088.87 66.4 1093.81 74.8C1098.74 83.0667 1101.21 93 1101.21 104.6C1101.21 105.8 1101.14 107.2 1101.01 108.8C1100.87 110.267 1100.74 111.667 1100.61 113H1013.21V94.8H1084.21L1072.21 100.2C1072.21 94.6 1071.07 89.7333 1068.81 85.6C1066.54 81.4667 1063.41 78.2667 1059.41 76C1055.41 73.6 1050.74 72.4 1045.41 72.4C1040.07 72.4 1035.34 73.6 1031.21 76C1027.21 78.2667 1024.07 81.5333 1021.81 85.8C1019.54 89.9333 1018.41 94.8667 1018.41 100.6V105.4C1018.41 111.267 1019.67 116.467 1022.21 121C1024.87 125.4 1028.54 128.8 1033.21 131.2C1038.01 133.467 1043.61 134.6 1050.01 134.6C1055.74 134.6 1060.74 133.733 1065.01 132C1069.41 130.267 1073.41 127.667 1077.01 124.2L1093.61 142.2C1088.67 147.8 1082.47 152.133 1075.01 155.2C1067.54 158.133 1058.94 159.6 1049.21 159.6Z" fill="url(#paint0_linear_379_2415)"/>
<defs>
<linearGradient id="paint0_linear_379_2415" x1="-6" y1="86" x2="1108" y2="86" gradientUnits="userSpaceOnUse">
<stop stop-color="#E6007E"/>
<stop offset="1" stop-color="#F9B000"/>
</linearGradient>
</defs>
</svg>
