<svg width="737" height="152" viewBox="0 0 737 152" fill="none" xmlns="http://www.w3.org/2000/svg">
<path d="M46.8 151.6C37.8667 151.6 29.8667 149.867 22.8 146.4C15.8667 142.933 10.4667 137.667 6.6 130.6C2.73333 123.4 0.800001 114.267 0.800001 103.2V42.4H32V98.6C32 107.533 33.8667 114.133 37.6 118.4C41.4667 122.533 46.8667 124.6 53.8 124.6C58.6 124.6 62.8667 123.6 66.6 121.6C70.3333 119.467 73.2667 116.267 75.4 112C77.5333 107.6 78.6 102.133 78.6 95.6V42.4H109.8V150H80.2V120.4L85.6 129C82 136.467 76.6667 142.133 69.6 146C62.6667 149.733 55.0667 151.6 46.8 151.6ZM198.105 40.8C206.638 40.8 214.238 42.5333 220.905 46C227.705 49.3333 233.038 54.5333 236.905 61.6C240.771 68.5333 242.705 77.4667 242.705 88.4V150H211.505V93.2C211.505 84.5333 209.571 78.1333 205.705 74C201.971 69.8667 196.638 67.8 189.705 67.8C184.771 67.8 180.305 68.8667 176.305 71C172.438 73 169.371 76.1333 167.105 80.4C164.971 84.6667 163.905 90.1333 163.905 96.8V150H132.705V42.4H162.505V72.2L156.905 63.2C160.771 56 166.305 50.4667 173.505 46.6C180.705 42.7333 188.905 40.8 198.105 40.8ZM258.805 68L272.005 20L276.405 38.2C270.671 38.2 265.938 36.5333 262.205 33.2C258.605 29.7333 256.805 25.0667 256.805 19.2C256.805 13.4667 258.671 8.86666 262.405 5.39999C266.138 1.79999 270.738 -1.19209e-05 276.205 -1.19209e-05C281.805 -1.19209e-05 286.405 1.79999 290.005 5.39999C293.605 8.86666 295.405 13.4667 295.405 19.2C295.405 20.9333 295.271 22.6667 295.005 24.4C294.871 26 294.405 27.9333 293.605 30.2C292.938 32.4667 291.805 35.4667 290.205 39.2L278.605 68H258.805ZM374.595 150V129L372.595 124.4V86.8C372.595 80.1333 370.529 74.9333 366.395 71.2C362.395 67.4667 356.195 65.6 347.795 65.6C342.062 65.6 336.395 66.5333 330.795 68.4C325.329 70.1333 320.662 72.5333 316.795 75.6L305.595 53.8C311.462 49.6667 318.529 46.4667 326.795 44.2C335.062 41.9333 343.462 40.8 351.995 40.8C368.395 40.8 381.129 44.6667 390.195 52.4C399.262 60.1333 403.795 72.2 403.795 88.6V150H374.595ZM341.795 151.6C333.395 151.6 326.195 150.2 320.195 147.4C314.195 144.467 309.595 140.533 306.395 135.6C303.195 130.667 301.595 125.133 301.595 119C301.595 112.6 303.129 107 306.195 102.2C309.395 97.4 314.395 93.6667 321.195 91C327.995 88.2 336.862 86.8 347.795 86.8H376.395V105H351.195C343.862 105 338.795 106.2 335.995 108.6C333.329 111 331.995 114 331.995 117.6C331.995 121.6 333.529 124.8 336.595 127.2C339.795 129.467 344.129 130.6 349.595 130.6C354.795 130.6 359.462 129.4 363.595 127C367.729 124.467 370.729 120.8 372.595 116L377.395 130.4C375.129 137.333 370.995 142.6 364.995 146.2C358.995 149.8 351.262 151.6 341.795 151.6ZM426.033 150V1.59999H457.233V150H426.033ZM532.002 151.6C519.335 151.6 509.468 148.4 502.402 142C495.335 135.467 491.802 125.8 491.802 113V18.6H523.002V112.6C523.002 117.133 524.202 120.667 526.602 123.2C529.002 125.6 532.268 126.8 536.402 126.8C541.335 126.8 545.535 125.467 549.002 122.8L557.402 144.8C554.202 147.067 550.335 148.8 545.802 150C541.402 151.067 536.802 151.6 532.002 151.6ZM475.202 68.8V44.8H549.802V68.8H475.202ZM568.916 150V42.4H598.716V72.8L594.516 64C597.716 56.4 602.849 50.6667 609.916 46.8C616.982 42.8 625.582 40.8 635.716 40.8V69.6C634.382 69.4667 633.182 69.4 632.116 69.4C631.049 69.2667 629.916 69.2 628.716 69.2C620.182 69.2 613.249 71.6667 607.916 76.6C602.716 81.4 600.116 88.9333 600.116 99.2V150H568.916ZM707.236 150V129L705.236 124.4V86.8C705.236 80.1333 703.169 74.9333 699.036 71.2C695.036 67.4667 688.836 65.6 680.436 65.6C674.703 65.6 669.036 66.5333 663.436 68.4C657.969 70.1333 653.303 72.5333 649.436 75.6L638.236 53.8C644.103 49.6667 651.169 46.4667 659.436 44.2C667.703 41.9333 676.103 40.8 684.636 40.8C701.036 40.8 713.769 44.6667 722.836 52.4C731.903 60.1333 736.436 72.2 736.436 88.6V150H707.236ZM674.436 151.6C666.036 151.6 658.836 150.2 652.836 147.4C646.836 144.467 642.236 140.533 639.036 135.6C635.836 130.667 634.236 125.133 634.236 119C634.236 112.6 635.769 107 638.836 102.2C642.036 97.4 647.036 93.6667 653.836 91C660.636 88.2 669.503 86.8 680.436 86.8H709.036V105H683.836C676.503 105 671.436 106.2 668.636 108.6C665.969 111 664.636 114 664.636 117.6C664.636 121.6 666.169 124.8 669.236 127.2C672.436 129.467 676.769 130.6 682.236 130.6C687.436 130.6 692.103 129.4 696.236 127C700.369 124.467 703.369 120.8 705.236 116L710.036 130.4C707.769 137.333 703.636 142.6 697.636 146.2C691.636 149.8 683.903 151.6 674.436 151.6Z" fill="url(#paint0_linear_379_2414)"/>
<defs>
<linearGradient id="paint0_linear_379_2414" x1="-13" y1="78" x2="981.688" y2="78" gradientUnits="userSpaceOnUse">
<stop stop-color="#E6007E"/>
<stop offset="1" stop-color="#F9B000"/>
</linearGradient>
</defs>
</svg>
