<svg width="68" height="22" viewBox="0 0 68 22" fill="none" xmlns="http://www.w3.org/2000/svg">
<g id="Layer_1" clip-path="url(#clip0_379_1546)">
<path id="Vector" d="M36.8104 3.81121C34.9614 1.96218 32.4121 0.821289 29.5953 0.821289C23.9616 0.821289 19.3902 5.39272 19.3902 11.0264C19.3902 16.66 23.9616 21.2314 29.5953 21.2314C32.4121 21.2314 34.9614 20.0905 36.8104 18.2415L33.1832 14.6143C32.2626 15.5348 30.9958 16.1014 29.5953 16.1014C26.7942 16.1014 24.5124 13.8274 24.5124 11.0264C24.5124 8.22528 26.7863 5.9435 29.5953 5.9435C30.9958 5.9435 32.2626 6.51001 33.1832 7.43059L36.8104 3.80334V3.81121Z" fill="#221F20"/>
<path id="Vector_2" d="M13.1192 1.3877L0.404175 21.0818H5.68374L7.59572 18.1076H20.5153C19.4925 16.7937 18.7765 15.2751 18.3988 13.67H10.4755L14.8502 6.86397L18.1234 11.939C18.0998 11.6085 18.084 11.278 18.084 10.9476C18.084 9.12215 18.5089 7.31246 19.3272 5.69161L16.5891 1.39556H13.1349L13.1192 1.3877Z" fill="#221F20"/>
<path id="Vector_3" d="M56.2055 1.54492H51.941L51.9646 20.7198H56.2292L56.2055 1.54492Z" fill="#221F20"/>
<path id="Vector_4" d="M62.0516 1.54492H57.7949L57.8185 20.7198H62.0752L62.0516 1.54492Z" fill="#221F20"/>
<path id="Vector_5" d="M67.9528 7.21777H63.6882L63.7118 20.7196H67.9764L67.9528 7.21777Z" fill="#221F20"/>
<path id="Vector_6" d="M47.1649 12.7571C46.685 11.388 45.3788 10.4124 43.8445 10.4124C42.3102 10.4124 41.012 11.388 40.532 12.7492H47.1649V12.7571ZM50.6269 16.5024C49.5962 19.2956 46.9131 21.2862 43.758 21.2862C39.7137 21.2862 36.4406 18.0131 36.4406 13.9688C36.4406 9.92454 39.7137 6.65137 43.758 6.65137C47.8022 6.65137 51.0754 9.93241 51.0754 13.9688C51.0754 14.3386 51.0518 14.7084 50.9967 15.0625L50.981 15.0861H40.532C41.0199 16.4552 42.3181 17.4308 43.8445 17.4308C44.7573 17.4308 45.5913 17.0846 46.2129 16.5102H50.6191L50.6269 16.5024Z" fill="#221F20"/>
<path id="Vector_7" d="M67.9842 1.59277L63.7118 1.60064L63.7275 5.58196H68L67.9842 1.59277Z" fill="#221F20"/>
</g>
<defs>
<clipPath id="clip0_379_1546">
<rect width="67.5958" height="20.4652" fill="white" transform="translate(0.404175 0.821289)"/>
</clipPath>
</defs>
</svg>
